<svg xmlns="http://www.w3.org/2000/svg" viewBox="0 0 1200 1200" width="1200" height="1200"><defs><linearGradient id="foilF" gradientUnits="userSpaceOnUse" x1="0" y1="0" x2="1200" y2="1200"><stop offset="0" stop-color="#E3C58C"/><stop offset=".45" stop-color="#B08D57"/><stop offset=".7" stop-color="#F0D9A8"/><stop offset="1" stop-color="#9C7A45"/></linearGradient></defs><rect width="1200" height="1200" fill="#26231F"/><rect x="60" y="60" width="1080" height="1080" fill="none" stroke="url(#foilF)" stroke-width="3"/><rect x="76" y="76" width="1048" height="1048" fill="none" stroke="url(#foilF)" stroke-width="1.2"/><clipPath id="albfamily"><path d="M491.5 500V329.5A108.5 108.5 0 0 1 708.5 329.5V500Z"/></clipPath><g clip-path="url(#albfamily)" data-slot="family" data-box="491.5 221 217 279"><g class="slot-default"><g transform="translate(445 190) scale(1.55)"><g transform="translate(40 52) scale(.6)"><g fill="none" stroke="url(#foilF)" stroke-width="5.5" stroke-linecap="round" stroke-linejoin="round">
<path d="M28 176C28 134 42 116 64 116C86 116 98 132 98 160"/>
<circle cx="64" cy="88" r="17"/>
<path d="M102 160C102 132 114 116 136 116C158 116 172 134 172 176"/>
<path d="M114 96C114 70 158 70 158 96C160 108 164 116 170 122"/>
<circle cx="136" cy="92" r="15"/>
<path d="M76 176C76 152 86 142 100 142C114 142 124 152 124 176Z" fill="#26231F"/>
<circle cx="100" cy="122" r="12" fill="#26231F" stroke="url(#foilF)"/></g></g></g></g></g><path d="M491.5 500V329.5A108.5 108.5 0 0 1 708.5 329.5V500" fill="none" stroke="url(#foilF)" stroke-width="4.96"/><path fill="url(#foilF)" d="M438.4 587.3Q444.4 587.3 449.5 589.3Q454.7 591.3 458.4 594.8Q462.1 598.4 464.2 603.4Q466.3 608.3 466.3 614.4Q466.3 617.8 465.5 621.1Q464.7 624.5 463.2 627.4Q461.6 630.4 459.4 632.9Q457.1 635.4 454.3 637.2Q451.4 639.1 447.9 640.1Q444.5 641.1 440.5 641.1Q434.4 641.1 429.3 639.2Q424.2 637.3 420.5 633.7Q416.8 630.2 414.7 625.2Q412.6 620.2 412.6 614.2Q412.6 610.7 413.4 607.4Q414.2 604.1 415.7 601.1Q417.2 598.1 419.4 595.6Q421.7 593.1 424.5 591.2Q427.4 589.4 430.9 588.3Q434.4 587.3 438.4 587.3ZM440.5 637.9Q444.5 637.9 447.8 636.4Q451.1 635 453.5 632.2Q455.9 629.5 457.3 625.5Q458.6 621.6 458.6 616.5Q458.6 611 457.3 606.2Q456 601.5 453.5 598Q451 594.5 447.2 592.5Q443.4 590.6 438.4 590.6Q434.4 590.6 431.1 592Q427.7 593.4 425.3 596.1Q422.9 598.8 421.6 602.8Q420.3 606.7 420.3 611.7Q420.3 617.3 421.5 622.1Q422.8 626.8 425.3 630.4Q427.8 633.9 431.6 635.9Q435.4 637.9 440.5 637.9ZM483.1 627.4Q483.1 632.1 485 634.4Q486.9 636.6 490.1 636.6Q491.3 636.6 492.7 636.1Q494.2 635.6 495.7 634.8Q497.2 634 498.8 632.9Q500.3 631.8 501.6 630.6Q501.7 629.6 501.7 628.4Q501.7 627.2 501.7 625.9V617.1Q501.7 614.1 501.6 611.8Q501.5 609.5 501.4 607.8Q501.2 606.1 501 605Q500.9 603.9 500.6 603.1V603H509V603.1Q508.8 603.9 508.6 605Q508.4 606.1 508.3 607.8Q508.1 609.5 508 611.8Q508 614.1 508 617.1V625.9Q508 628.9 508 631.2Q508.1 633.5 508.3 635.2Q508.4 636.9 508.6 638Q508.8 639.1 509 639.9V640H500.6V639.9Q500.9 639 501.1 637.5Q501.3 636.1 501.4 633.9Q499.9 635.1 498.2 636.4Q496.5 637.6 494.7 638.6Q492.8 639.5 490.9 640.1Q489 640.7 487.2 640.7Q484.3 640.7 482.4 639.7Q480.4 638.8 479.2 637.2Q477.9 635.6 477.3 633.6Q476.8 631.5 476.8 629.4V617.1Q476.8 614.1 476.7 611.8Q476.6 609.5 476.5 607.8Q476.4 606.1 476.2 605Q476 603.9 475.8 603.1V603H484.1V603.1Q483.9 603.9 483.7 605Q483.5 606.1 483.4 607.8Q483.3 609.5 483.2 611.8Q483.1 614.1 483.1 617.1ZM521.3 617.1Q521.3 614.1 521.2 611.8Q521.1 609.5 521 607.8Q520.8 606.1 520.6 605Q520.5 603.9 520.2 603.1V603H528.6V603.1Q528.3 604 528.1 605.2Q527.9 606.4 527.8 608.2Q529.1 607.1 530.6 606Q532 605 533.5 604.1Q535 603.3 536.6 602.8Q538.2 602.3 539.8 602.3Q540.8 602.3 541.5 602.4Q542.2 602.5 542.8 602.6Q543.4 602.8 543.8 603Q544.3 603.2 544.7 603.4L543 610.3L542.3 610.1Q541.9 608.5 540.7 607.6Q539.5 606.6 537.5 606.6Q536.3 606.6 535.1 607Q533.9 607.4 532.6 608.1Q531.4 608.8 530.1 609.7Q528.8 610.7 527.6 611.7Q527.6 612.7 527.6 613.9Q527.6 615.2 527.6 616.5V625.9Q527.6 628.9 527.6 631.2Q527.7 633.5 527.9 635.2Q528 636.9 528.2 638Q528.4 639.1 528.6 639.9V640H520.2V639.9Q520.5 639.1 520.6 638Q520.8 636.9 521 635.2Q521.1 633.5 521.2 631.2Q521.3 628.9 521.3 625.9ZM584.1 625.9Q584.1 628.9 584.2 631.2Q584.3 633.5 584.5 635.2Q584.6 636.9 584.8 638Q585 639.1 585.2 639.9V640H576.5V639.9Q576.7 639.1 576.9 638Q577.1 636.9 577.3 635.2Q577.4 633.5 577.5 631.2Q577.6 628.9 577.6 625.9V602.3Q577.6 599.3 577.5 597Q577.4 594.7 577.3 593Q577.1 591.3 576.9 590.2Q576.7 589.1 576.5 588.3V588.2Q579.5 588.2 582.6 588.2Q585.7 588.1 588.6 588.1Q591.4 588.1 594 588.1Q596.6 588 598.7 588Q600.8 587.9 602.3 587.8Q603.7 587.7 604.3 587.6L602.6 592.4Q601.4 592.1 599.8 591.8Q598.4 591.6 596.5 591.4Q594.5 591.2 591.9 591.2Q591 591.2 589.7 591.3Q588.4 591.3 587.2 591.4Q585.7 591.5 584.1 591.5V609.8Q587.9 609.8 591 609.6Q594.1 609.4 596.3 609.2Q598.9 609 601 608.7L599.9 613.9Q597.2 613.6 594.4 613.3Q592.1 613.1 589.3 612.9Q586.6 612.7 584.1 612.7ZM607.8 629.3Q607.8 626.5 608.9 624.4Q610.1 622.3 612.1 620.8Q614 619.3 616.5 618.4Q619 617.5 621.7 617Q624.3 616.4 626.9 616.2Q629.5 616 631.7 616V614.2Q631.7 611.8 631.1 610Q630.5 608.3 629.4 607.2Q628.2 606 626.7 605.5Q625.1 604.9 623.2 604.9Q621.9 604.9 620.7 605.1Q619.4 605.3 618 605.9Q616.7 606.4 615.2 607.2Q613.7 608.1 611.9 609.4L611.6 609.2L614 604.1Q615.2 603.6 616.4 603.2Q617.6 602.9 618.7 602.7Q619.9 602.5 621.2 602.4Q622.4 602.3 623.8 602.3Q627.6 602.3 630.3 603.2Q633 604.1 634.7 605.7Q636.4 607.3 637.2 609.5Q638 611.6 638 614.1V625.9Q638 628.9 638.1 631.2Q638.2 633.5 638.3 635.2Q638.4 636.9 638.6 638Q638.8 639.1 639 639.9V640H631.1V639.9Q631.2 639.3 631.3 638.6Q631.4 637.8 631.5 636.8Q630.7 637.5 629.7 638.2Q628.7 638.8 627.4 639.4Q626 640 624.4 640.3Q622.8 640.7 620.9 640.7Q614.6 640.7 611.2 637.7Q607.8 634.8 607.8 629.3ZM631.7 618.8Q628.4 618.9 625.4 619.2Q622.4 619.5 620 620.6Q617.7 621.7 616.3 623.7Q614.9 625.7 614.9 629.1Q614.9 633.3 617 635.6Q619.2 637.8 622.9 637.8Q624.7 637.8 626.1 637.3Q627.5 636.8 628.6 636.1Q629.7 635.3 630.5 634.5Q631.2 633.6 631.6 632.7Q631.7 631.4 631.7 629.7Q631.7 628 631.7 625.9ZM675.2 615.6Q675.2 613.3 674.7 611.5Q674.3 609.8 673.3 608.7Q672.4 607.5 671.1 607Q669.8 606.4 668.2 606.4Q667.1 606.4 665.8 606.8Q664.5 607.3 663 608Q661.6 608.7 660.2 609.7Q658.8 610.7 657.5 611.8Q657.4 613 657.4 614.3Q657.4 615.6 657.4 617.1V625.9Q657.4 628.9 657.5 631.2Q657.6 633.5 657.7 635.2Q657.9 636.9 658 638Q658.2 639.1 658.4 639.9V640H650.1V639.9Q650.3 639.1 650.5 638Q650.7 636.9 650.8 635.2Q651 633.5 651 631.2Q651.1 628.9 651.1 625.9V617.1Q651.1 614.1 651 611.8Q651 609.5 650.8 607.8Q650.7 606.1 650.5 605Q650.3 603.9 650.1 603.1V603H658.4V603.1Q658.1 604 658 605.3Q657.8 606.5 657.6 608.5Q659.1 607.3 660.7 606.2Q662.4 605.1 664.2 604.2Q665.9 603.4 667.7 602.8Q669.5 602.3 671.2 602.3Q673.2 602.3 674.8 602.8Q676.4 603.4 677.6 604.3Q678.8 605.2 679.6 606.5Q680.4 607.8 680.9 609.2Q682.4 608 684.1 606.7Q685.9 605.5 687.7 604.5Q689.6 603.5 691.5 602.9Q693.4 602.3 695.3 602.3Q698.1 602.3 700.1 603.3Q702 604.2 703.3 605.8Q704.5 607.4 705.1 609.4Q705.7 611.5 705.7 613.6V625.9Q705.7 628.9 705.7 631.2Q705.8 633.5 705.9 635.2Q706.1 636.9 706.3 638Q706.5 639.1 706.7 639.9V640H698.3V639.9Q698.5 639.1 698.7 638Q698.9 636.9 699.1 635.2Q699.2 633.5 699.3 631.2Q699.4 628.9 699.4 625.9V615.6Q699.4 610.9 697.5 608.6Q695.5 606.4 692.3 606.4Q691.2 606.4 689.9 606.8Q688.5 607.3 687 608Q685.6 608.8 684.2 609.8Q682.7 610.8 681.4 611.9Q681.5 612.3 681.5 612.8Q681.5 613.2 681.5 613.6V625.9Q681.5 628.9 681.6 631.2Q681.7 633.5 681.8 635.2Q682 636.9 682.2 638Q682.4 639.1 682.6 639.9V640H674.2V639.9Q674.4 639.1 674.6 638Q674.8 636.9 674.9 635.2Q675.1 633.5 675.2 631.2Q675.2 628.9 675.2 625.9ZM719 617.1Q719 614.1 718.9 611.8Q718.8 609.5 718.7 607.8Q718.5 606.1 718.3 605Q718.1 603.9 717.9 603.1V603H726.3V603.1Q726.1 603.9 725.9 605Q725.7 606.1 725.5 607.8Q725.4 609.5 725.3 611.8Q725.3 614.1 725.3 617.1V625.9Q725.3 628.9 725.3 631.2Q725.4 633.5 725.5 635.2Q725.7 636.9 725.9 638Q726.1 639.1 726.3 639.9V640H717.9V639.9Q718.1 639.1 718.3 638Q718.5 636.9 718.7 635.2Q718.8 633.5 718.9 631.2Q719 628.9 719 625.9ZM718.2 592.1Q718.2 591.3 718.5 590.6Q718.8 589.8 719.3 589.3Q719.8 588.8 720.5 588.5Q721.2 588.2 722.1 588.2Q722.9 588.2 723.6 588.5Q724.3 588.8 724.8 589.3Q725.4 589.8 725.7 590.6Q726 591.3 726 592.1Q726 593.7 724.9 594.8Q723.7 596 722.1 596Q721.2 596 720.5 595.6Q719.8 595.3 719.3 594.8Q718.8 594.3 718.5 593.6Q718.2 592.9 718.2 592.1ZM739 600.1Q739 597 739 594.7Q738.9 592.4 738.7 590.8Q738.6 589.1 738.4 588Q738.2 586.9 738 586.1V586H746.3V586.1Q746.1 586.9 745.9 588Q745.8 589.1 745.6 590.8Q745.5 592.4 745.4 594.7Q745.3 597 745.3 600.1V625.9Q745.3 628.9 745.4 631.2Q745.5 633.5 745.6 635.2Q745.8 636.9 745.9 638Q746.1 639.1 746.3 639.9V640H738V639.9Q738.2 639.1 738.4 638Q738.6 636.9 738.7 635.2Q738.9 633.5 739 631.2Q739 628.9 739 625.9ZM770.5 639.6 757.8 611.7Q757.1 610.2 756.3 608.7Q755.5 607.2 754.8 606.1Q754.1 604.9 753.5 604.1Q753 603.4 752.8 603.1V603H762.3V603.1Q762.2 603.3 762.2 603.7Q762.1 604 762.1 604.3Q762.1 605.5 762.5 606.8Q762.8 608.2 763.8 610.2L773.7 631.9L782.8 610.5Q783.4 609.1 784 607.6Q784.6 606 784.6 604.3Q784.6 603.9 784.5 603.6Q784.5 603.3 784.4 603.1V603H790.9V603.1Q790.3 603.8 789.3 605.6Q788.3 607.3 787.1 610L769.9 651Q769.3 652.4 768.7 653.9Q768.1 655.5 768.1 657.2Q768.1 657.6 768.2 657.9Q768.3 658.2 768.4 658.4V658.5H761.6V658.4Q762.3 657.7 763.3 656Q764.3 654.2 765.4 651.6Z"/><path fill="url(#foilF)" d="M516.1 724.6Q514.9 723.4 514 722.7Q513.1 721.9 512.2 721.2V720.8Q512.5 720.3 513.1 719.6Q513.6 718.9 514.3 718.2Q514.9 717.5 515.5 717Q516 716.4 516.3 716.2H516.7Q518.6 717.4 519.5 718.3Q520.4 719.2 520.4 720.2Q520.4 721.2 519.3 722.3Q518.1 723.5 516.5 724.6ZM511.2 745.9Q508 745.9 505.7 744.9Q503.4 743.9 502.1 742.1Q500.7 740.4 500.1 738.2Q499.4 736 499.4 733.7Q499.4 729.6 500.5 725.2Q501.5 720.8 503.9 716.1L505.3 716.5Q504 719.6 503.5 722.2Q502.9 724.8 502.9 726.9Q502.9 729.5 503.7 731.3Q504.5 733.2 505.9 734.3Q507.3 735.4 509.2 735.9Q511.1 736.4 513.3 736.4Q516.3 736.4 518.7 735.6Q521 734.8 522.8 733.4Q524.6 732.1 525.9 730.4Q527.1 729.2 527.7 727.8Q528.3 726.5 528.6 724.9Q528.8 723.2 528.8 721Q528.8 720.2 528.8 719.4Q528.7 718.6 528.7 717.8Q528.7 715.6 529 713.6Q529.3 711.6 530 709.5Q530.6 707.4 531.6 705L532.7 705.2Q532.6 705.8 532.5 706.9Q532.4 708 532.3 709.4Q532.3 710.8 532.2 712.4Q532.2 714.4 532 716.2Q531.8 717.9 531.5 719.3Q531.1 723.6 530 727.6Q528.9 731.5 527.1 734.9Q525.4 738.2 523.1 740.7Q520.7 743.2 517.8 744.5Q514.8 745.9 511.2 745.9ZM541.9 725.6 540.8 725.3Q541 724.4 541.3 722.1Q541.5 719.8 541.7 715.8L542.2 703.9Q542.3 701.6 542.5 699.9Q542.7 698.1 543.1 696.6Q543.4 695.1 544.1 693.3Q544.8 691.5 545.9 689.2L547 689.5Q546.7 690.5 546.4 692.7Q546 694.9 545.8 698.9L545.1 711.8Q544.9 715.2 544.1 718.8Q543.3 722.3 541.9 725.6ZM548.7 732.1 548.4 731.1Q551.5 729.4 554.3 727.5Q557.2 725.6 559.3 723.6Q561.4 721.5 562.4 719.4Q563.1 717.9 563.8 715.4Q564.5 713 565.3 709.8L566.8 710.1Q566.5 711.9 566.4 713Q566.2 714 566.2 714.5Q566.1 715 566.1 715.3Q566.1 718.2 567.6 719.6Q569 721 571.1 721Q572.1 721 572.6 722Q573 723 573 724.7Q573 726.3 572.5 727.6Q572 728.8 571 729.4Q570.1 730 568.9 730Q566.9 730 565.7 729Q564.5 728 563.9 726.3Q563.4 724.7 563.4 723H563.2Q562.7 724.3 562.1 725.7Q561.4 727 560.7 728.1Q559.9 729.1 559.1 729.7Q558.7 730 557.5 730.4Q556.3 730.7 554.7 731.1Q553.2 731.4 551.6 731.7Q550 732 548.7 732.1ZM576.6 709.8Q575.6 708.8 575 708.2Q574.4 707.6 573.9 707.2Q573.4 706.8 572.7 706.3V705.9Q573 705.4 573.6 704.8Q574.1 704.1 574.8 703.4Q575.4 702.7 576 702.1Q576.5 701.6 576.8 701.4H577.2Q579.1 702.6 580 703.5Q580.9 704.4 580.9 705.4Q580.9 706.3 579.8 707.5Q578.6 708.7 577 709.8ZM568.9 730Q568 730 567.5 729.1Q567 728.2 567 726.2Q567 724.5 567.5 723.4Q568 722.2 569 721.6Q569.9 721 571.1 721Q572.7 721 574.1 720Q575.5 719.1 576.4 717L577.5 717.2Q577.1 719.9 576.3 722.2Q575.6 724.5 574.5 726.3Q573.4 728.1 572 729Q570.6 730 568.9 730ZM591.4 730Q587.9 730 586.3 727.5Q584.7 725.1 584.7 719.7Q584.7 717.8 584.7 716Q584.8 714.1 584.9 712.2Q585.1 710.4 585.2 708.4Q585.3 706.5 585.5 704.3Q585.7 701.7 586 699.4Q586.2 697.2 586.8 695.1Q587.3 693.1 588.2 691.1L589.3 691.4Q589 692.5 588.8 694.6Q588.5 696.7 588.3 699.4Q588.1 702 588 705.1Q587.8 708.1 587.8 711.3Q587.8 713.5 588.1 715.3Q588.4 717.1 589 718.3Q589.6 719.6 590.7 720.3Q591.8 721 593.5 721Q594.5 721 595 721.9Q595.4 722.9 595.4 724.7Q595.4 726.4 594.9 727.6Q594.4 728.8 593.5 729.4Q592.5 730 591.4 730ZM600.3 701.4Q599.4 700.5 598.7 699.9Q598.1 699.3 597.6 698.8Q597.1 698.4 596.4 698V697.6Q596.7 697.1 597.3 696.4Q597.8 695.7 598.5 695Q599.1 694.3 599.7 693.8Q600.2 693.2 600.5 693H600.9Q602.8 694.2 603.7 695.1Q604.6 696 604.6 697Q604.6 698 603.5 699.1Q602.4 700.3 600.7 701.4ZM591.4 730Q590.5 730 589.9 729.1Q589.4 728.2 589.4 726.2Q589.4 724.9 589.7 724.1Q589.9 723.3 590.4 722.7Q590.8 722.2 591.1 721.9Q591.4 720.4 591.8 718.8Q592.3 717.2 593 715.6Q593.7 714 594.5 712.5Q595.8 710.3 597.5 709.3Q599.1 708.2 601.3 708.2Q603 708.2 604.9 708.9Q608.2 709.9 609.9 710.4Q611.7 710.9 612.1 711L612.3 712Q612 712.4 611.7 712.9Q611.4 713.4 610.9 714.1Q610.4 714.9 609.5 716.1Q606.3 720.8 603.4 723.9Q600.6 727 597.7 728.5Q594.8 730 591.4 730ZM593.2 721H593.9Q596.5 721 599 720.5Q601.5 720 603.6 718.9Q605.7 717.9 606.9 716.3Q606.3 716.1 605.7 715.9Q605 715.7 604.4 715.5Q603.3 715.2 602 714.9Q600.8 714.6 599.7 714.6Q598.5 714.6 597.6 714.9Q596.6 715.3 595.8 715.9Q595 716.7 594.3 718Q593.7 719.3 593.2 721ZM626.1 725.6 625 725.3Q625.2 724.4 625.5 722.1Q625.8 719.8 625.9 715.8L626.5 703.9Q626.6 701.6 626.7 699.9Q626.9 698.1 627.3 696.6Q627.7 695.1 628.4 693.3Q629.1 691.5 630.2 689.2L631.2 689.5Q630.9 690.5 630.6 692.7Q630.2 694.9 630 698.9L629.3 711.8Q629.1 715.2 628.3 718.8Q627.5 722.3 626.1 725.6ZM633 732.9 632.7 731.8Q633.9 731.1 635.5 729.9Q637.1 728.7 638.9 727.2Q640.7 725.8 642.3 724.3Q644 722.8 645.3 721.5Q646.7 720.1 647.4 719.1Q648.1 718 648.6 717Q649.2 716 649.7 714.9Q650.2 713.8 650.7 712.5Q651.2 711.2 651.9 709.6L653.3 709.8Q652.7 712.5 651.8 715.4Q650.9 718.3 649.8 720.9Q648.7 723.5 647.5 725.6Q646.2 727.7 645 728.8Q644.6 729.1 643.6 729.5Q642.6 730 641.2 730.4Q639.9 730.9 638.4 731.4Q636.9 731.8 635.5 732.2Q634.1 732.6 633 732.9ZM667.1 730Q663.6 730 662 727.5Q660.4 725.1 660.4 719.7Q660.4 717.8 660.5 716Q660.5 714.1 660.7 712.2Q660.8 710.4 660.9 708.4Q661 706.5 661.2 704.3Q661.4 701.7 661.7 699.4Q662 697.2 662.5 695.1Q663 693.1 663.9 691.1L665 691.4Q664.7 692.5 664.5 694.6Q664.3 696.7 664 699.4Q663.8 702 663.7 705.1Q663.6 708.1 663.6 711.3Q663.6 713.5 663.8 715.3Q664.1 717.1 664.7 718.3Q665.4 719.6 666.5 720.3Q667.6 721 669.2 721Q670.2 721 670.7 721.9Q671.2 722.9 671.2 724.7Q671.2 726.4 670.6 727.6Q670.1 728.8 669.2 729.4Q668.3 730 667.1 730ZM667.1 730Q666.2 730 665.7 729.1Q665.1 728.2 665.1 726.2Q665.1 724.4 665.7 723.3Q666.3 722.1 667.2 721.6Q668.1 721 669.2 721Q672 721 673.8 719.9Q675.6 718.8 677.3 716.6Q678.7 714.8 679.9 714.1Q681 713.4 682 713.4Q683.1 713.4 684.5 713.8Q685.8 714.2 686.7 714.9Q687.7 715.5 687.7 716.3Q687.7 717.1 687.3 718.1Q686.9 719.2 686.2 720.1Q685.6 721.1 684.7 721.7Q683.9 722.3 683 722.3Q682.6 722.3 682 722Q681.4 721.8 680.7 721.5Q679.9 721 679.3 720.8Q678.6 720.6 678 720.6Q677 720.6 676.3 721.3Q675.6 722 674.5 723.8Q674.2 724.1 674 724.5Q673.8 724.9 673.5 725.2Q672 727.7 670.5 728.9Q669.1 730 667.1 730ZM693.8 728.3Q692.3 728.3 691.5 727.2Q690.6 726 690.6 724.1Q690.6 722.7 691 720.8Q691.5 719 692.1 717.1Q692.8 715.1 693.7 713.5L695.1 713.9Q694.8 714.6 694.5 715.6Q694.2 716.7 694 717.9Q693.8 719 693.8 720.1Q693.8 721.1 694 721.8Q694.2 722.4 694.7 722.6L695.9 720.4Q696.1 720.2 696.5 720.2Q697.5 720.2 697.9 721Q698.3 721.7 698.3 723Q698.3 724.1 697.8 725.4Q697.3 726.6 696.3 727.4Q695.3 728.3 693.8 728.3ZM685.2 717.3Q683.8 717.3 682.5 717.1Q681.2 716.8 680.3 716.2Q679.5 715.6 679.5 714.5Q679.5 713.7 679.9 712.6Q680.3 711.5 680.9 710.2Q681.6 708.9 682.4 707.5Q683.3 706.2 684.3 705Q687.6 700.8 691 700.8Q691.9 700.8 692.4 701Q692.9 701.3 693.4 701.6Q693.8 701.9 694.7 702.1L696.2 699.2Q696.6 699.1 697 699.1Q698.1 699.1 698.7 699.9Q699.2 700.8 699.2 702.1Q699.2 703.7 698.5 705.2Q697.8 706.7 696.6 707.6Q695.3 708.6 693.8 708.6Q692.2 708.6 691.1 707.6Q689.9 706.6 688.6 706.6Q687 706.6 685.4 707.6Q683.9 708.5 683.2 710Q683 710.4 682.9 710.8Q682.8 711.2 682.8 711.6Q682.8 712.1 683.4 712.7Q684 713.2 685.4 713.9Q686.5 714.3 687.1 715Q687.7 715.6 687.7 716.3Q687.7 716.8 687 717.1Q686.3 717.3 685.2 717.3Z"/><path fill="url(#foilF)" d="M355 785.8H359.5V800H362.3V785.8H366.8V783.2H355ZM379.5 792.3H391.5V789.7H379.5ZM389.7 783.2V800H392.5V783.2ZM378.4 783.2V800H381.3V783.2ZM407.6 800H416.1V797.5H407.6ZM407.6 785.7H416.1V783.2H407.6ZM407.6 792.2H415.6V789.8H407.6ZM405.9 783.2V800H408.7V783.2ZM448 795.7H456.9L456.3 793.3H448.5ZM452.4 788 455.1 794.2 455.1 794.9 457.4 800H460.6L452.4 782.3L444.2 800H447.4L449.7 794.7L449.7 794.1ZM485 794.4 480.1 782.4 475.4 794.4 471.3 783.2H468.1L474.9 800.9L480.1 789L485.3 800.9L492.2 783.2H488.9ZM503.4 795.7H512.3L511.8 793.3H504ZM507.8 788 510.5 794.2 510.6 794.9 512.8 800H516.1L507.8 782.3L499.6 800H502.8L505.1 794.7L505.2 794.1ZM539.8 783.2V794.5L527.6 782.4V800H530.4V788.7L542.6 800.8V783.2ZM574.5 785.7H582V783.2H574.5ZM574.5 792.4H581.8V789.9H574.5ZM572.8 783.2V800H575.6V783.2ZM595.2 795.7H604.1L603.6 793.3H595.8ZM599.6 788 602.3 794.2 602.3 794.9 604.6 800H607.8L599.6 782.3L591.4 800H594.6L596.9 794.7L597 794.1ZM622.5 789.8 627.6 798.4 632.7 789.8 633.9 800H636.8L634.5 782.4L627.6 793.8L620.7 782.4L618.4 800H621.3ZM649.2 783.2V800H652.1V783.2ZM665.4 783.2V800H674.9V797.5H668.2V783.2ZM694.1 783.2 690.2 790.4 686.3 783.2H683.1L688.8 792.9V800H691.6V792.9L697.3 783.2ZM725.8 794Q725.8 794.6 726.3 795.2Q726.8 795.7 727.5 795.7Q728.2 795.7 728.7 795.2Q729.2 794.6 729.2 794Q729.2 793.3 728.7 792.8Q728.2 792.3 727.5 792.3Q726.8 792.3 726.3 792.8Q725.8 793.3 725.8 794ZM758.1 800H770.9V797.4H763.6L768.4 792.7Q769.4 791.7 770.1 790.5Q770.7 789.3 770.7 788Q770.7 787.1 770.4 786.2Q770 785.3 769.3 784.6Q768.6 783.8 767.5 783.4Q766.4 782.9 765 782.9Q763.1 782.9 761.7 783.7Q760.4 784.5 759.7 785.9Q759 787.3 759 789.1H761.8Q761.8 788 762.2 787.2Q762.6 786.3 763.3 785.9Q764 785.5 764.9 785.5Q765.6 785.5 766.1 785.7Q766.7 785.9 767 786.3Q767.4 786.7 767.6 787.1Q767.8 787.6 767.8 788.1Q767.8 788.8 767.6 789.4Q767.3 790 766.9 790.6Q766.5 791.2 765.9 791.8ZM785.5 791.6Q785.5 790.3 785.7 789.1Q786 788 786.5 787.2Q787 786.4 787.7 785.9Q788.4 785.5 789.2 785.5Q790.1 785.5 790.8 785.9Q791.5 786.4 792 787.2Q792.4 788 792.7 789.1Q793 790.3 793 791.6Q793 792.9 792.7 794.1Q792.4 795.2 792 796Q791.5 796.8 790.8 797.3Q790.1 797.7 789.2 797.7Q788.4 797.7 787.7 797.3Q787 796.8 786.5 796Q786 795.2 785.7 794.1Q785.5 792.9 785.5 791.6ZM782.7 791.6Q782.7 794.2 783.5 796.2Q784.3 798.1 785.8 799.2Q787.3 800.3 789.2 800.3Q791.2 800.3 792.7 799.2Q794.1 798.1 794.9 796.2Q795.8 794.2 795.8 791.6Q795.8 789 794.9 787Q794.1 785.1 792.7 784Q791.2 782.9 789.2 782.9Q787.3 782.9 785.8 784Q784.3 785.1 783.5 787Q782.7 789 782.7 791.6ZM806.8 800H819.6V797.4H812.3L817.1 792.7Q818.1 791.7 818.8 790.5Q819.4 789.3 819.4 788Q819.4 787.1 819.1 786.2Q818.7 785.3 818 784.6Q817.3 783.8 816.2 783.4Q815.1 782.9 813.7 782.9Q811.8 782.9 810.4 783.7Q809.1 784.5 808.4 785.9Q807.7 787.3 807.7 789.1H810.5Q810.5 788 810.9 787.2Q811.3 786.3 812 785.9Q812.7 785.5 813.6 785.5Q814.3 785.5 814.8 785.7Q815.4 785.9 815.7 786.3Q816.1 786.7 816.3 787.1Q816.5 787.6 816.5 788.1Q816.5 788.8 816.3 789.4Q816 790 815.6 790.6Q815.2 791.2 814.6 791.8ZM834.4 794.3Q834.4 793.3 834.8 792.5Q835.3 791.7 836.1 791.3Q836.8 790.8 837.8 790.8Q838.7 790.8 839.5 791.3Q840.3 791.7 840.7 792.5Q841.2 793.3 841.2 794.3Q841.2 795.4 840.7 796.1Q840.3 796.9 839.5 797.3Q838.7 797.8 837.8 797.8Q836.8 797.8 836.1 797.3Q835.3 796.9 834.8 796.1Q834.4 795.4 834.4 794.3ZM838.4 783.2 833 790.4Q832.4 791.2 832 792.2Q831.6 793.2 831.6 794.3Q831.6 796.2 832.4 797.5Q833.3 798.9 834.7 799.6Q836.1 800.3 837.8 800.3Q839.5 800.3 840.9 799.6Q842.3 798.9 843.1 797.5Q843.9 796.2 843.9 794.3Q843.9 793.1 843.5 792.1Q843.1 791.1 842.4 790.4Q841.7 789.7 840.8 789.3Q839.9 788.9 838.9 788.9Q838 788.9 837.4 789.1Q836.8 789.3 836.2 789.9L836.6 789.8L842 783.2Z"/><path fill="url(#foilF)" d="M420.7 1034.6 420.6 1034.6Q419.6 1033.7 418.2 1033.2Q416.8 1032.6 415.1 1032.6Q413.5 1032.6 412.2 1033.1Q410.9 1033.6 409.9 1034.6Q409 1035.5 408.4 1036.9Q407.9 1038.3 407.9 1040.1Q407.9 1042 408.4 1043.7Q408.9 1045.4 409.9 1046.6Q410.9 1047.8 412.4 1048.5Q413.9 1049.3 415.9 1049.3Q416.6 1049.3 417.4 1049.1Q418.1 1048.9 418.8 1048.6Q419.4 1048.3 420 1047.9Q420.6 1047.5 421.1 1047L421.2 1047L420.2 1049.6Q419.3 1050 418.1 1050.2Q417 1050.4 415.8 1050.4Q413.4 1050.4 411.5 1049.7Q409.5 1049 408.1 1047.8Q406.7 1046.5 406 1044.8Q405.2 1043.1 405.2 1040.9Q405.2 1039.7 405.5 1038.5Q405.8 1037.4 406.4 1036.3Q407 1035.3 407.9 1034.4Q408.7 1033.5 409.9 1032.9Q411 1032.2 412.3 1031.9Q413.7 1031.5 415.3 1031.5Q417.7 1031.5 419.8 1032.2ZM439.8 1041.3Q439.3 1041.3 438.5 1041.3Q437.8 1041.3 436.9 1041.3Q436 1041.2 435 1041.2Q434 1041.2 433.1 1041.2Q432.2 1041.2 431.3 1041.2Q430.5 1041.2 429.9 1041.3V1045Q429.9 1046.1 429.9 1046.9Q429.9 1047.7 430 1048.3Q430 1048.9 430.1 1049.3Q430.2 1049.7 430.2 1049.9V1050H427.2V1049.9Q427.3 1049.7 427.3 1049.3Q427.4 1048.9 427.5 1048.3Q427.5 1047.7 427.5 1046.9Q427.6 1046.1 427.6 1045V1036.8Q427.6 1035.7 427.5 1034.9Q427.5 1034.1 427.5 1033.5Q427.4 1032.9 427.3 1032.5Q427.3 1032.1 427.2 1031.8V1031.8H430.2V1031.8Q430.2 1032.1 430.1 1032.5Q430 1032.9 430 1033.5Q429.9 1034.1 429.9 1034.9Q429.9 1035.7 429.9 1036.8V1040Q430.5 1040 431.4 1040.1Q432.2 1040.1 433.1 1040.1Q434 1040 435 1040Q435.9 1040 436.8 1040Q437.7 1040 438.5 1040Q439.2 1039.9 439.8 1039.9V1036.8Q439.8 1035.7 439.8 1034.9Q439.7 1034.1 439.7 1033.5Q439.6 1032.9 439.6 1032.5Q439.5 1032.1 439.4 1031.8V1031.8H442.5V1031.8Q442.4 1032.1 442.3 1032.5Q442.2 1032.9 442.2 1033.5Q442.1 1034.1 442.1 1034.9Q442.1 1035.7 442.1 1036.8V1045Q442.1 1046.1 442.1 1046.9Q442.1 1047.7 442.2 1048.3Q442.2 1048.9 442.3 1049.3Q442.4 1049.7 442.5 1049.9V1050H439.4V1049.9Q439.5 1049.7 439.6 1049.3Q439.6 1048.9 439.7 1048.3Q439.7 1047.7 439.8 1046.9Q439.8 1046.1 439.8 1045ZM462.3 1050V1049.9Q462.4 1049.9 462.4 1049.8Q462.4 1049.6 462.4 1049.5Q462.4 1049.1 462.3 1048.7Q462.2 1048.2 461.9 1047.5L460.3 1044Q459.6 1044 458.4 1044Q457.2 1044 455.9 1044Q454.9 1044 453.9 1044Q453 1044 452.3 1044L450.8 1047.4Q450.6 1047.8 450.4 1048.4Q450.2 1049 450.2 1049.5Q450.2 1049.7 450.2 1049.8Q450.2 1049.9 450.3 1049.9V1050H447.7V1049.9Q447.9 1049.7 448.2 1049.1Q448.6 1048.5 449 1047.5L456.3 1031.4H457.3L464.2 1046.9Q464.4 1047.5 464.7 1048Q464.9 1048.5 465.2 1048.9Q465.4 1049.3 465.6 1049.6Q465.7 1049.9 465.8 1049.9V1050ZM454.1 1042.9Q454.8 1042.9 455.6 1042.9Q456.4 1042.9 457.1 1042.9Q457.9 1042.9 458.6 1042.9Q459.2 1042.9 459.8 1042.9L456.2 1034.8L452.7 1042.9ZM471 1049.9Q471.1 1049.7 471.2 1049.3Q471.2 1048.9 471.3 1048.3Q471.3 1047.7 471.3 1046.9Q471.4 1046.1 471.4 1045V1036.8Q471.4 1035.7 471.3 1034.9Q471.3 1034.1 471.3 1033.5Q471.2 1032.9 471.2 1032.5Q471.1 1032.1 471 1031.8V1031.8H474.1V1031.8Q474 1032.1 473.9 1032.5Q473.8 1032.9 473.8 1033.5Q473.7 1034.1 473.7 1034.9Q473.7 1035.7 473.7 1036.8V1039.6L481.1 1033.5Q482.3 1032.5 482.3 1031.8H485.9V1031.8Q485.2 1032 484.4 1032.5Q483.6 1033 482.8 1033.8L476.2 1039.2L484.1 1047.9Q484.6 1048.4 484.9 1048.7Q485.3 1049.1 485.6 1049.3Q485.8 1049.5 486 1049.7Q486.3 1049.8 486.5 1049.9V1050H482.8Q482.7 1049.9 482.6 1049.7Q482.5 1049.5 482.3 1049.3Q482.2 1049.1 482 1048.9Q481.8 1048.7 481.6 1048.6L473.7 1039.8V1045Q473.7 1046.1 473.7 1046.9Q473.7 1047.7 473.8 1048.3Q473.8 1048.9 473.9 1049.3Q474 1049.7 474.1 1049.9V1050H471ZM503.3 1034.2 508.4 1046.5 513.3 1034.4Q513.6 1033.7 513.8 1033.2Q513.9 1032.6 513.9 1032.3Q513.9 1032.2 513.9 1032Q513.9 1031.9 513.9 1031.8V1031.8H516.4V1031.8Q516.1 1032.1 515.8 1032.7Q515.5 1033.3 515.1 1034.2L508.4 1050.4H507.4L502.4 1038.4L497.9 1050.4H497L490.8 1034.9Q490.5 1034.3 490.3 1033.8Q490.1 1033.3 489.9 1032.9Q489.7 1032.5 489.5 1032.2Q489.3 1031.9 489.2 1031.8V1031.8H492.8V1031.8Q492.7 1032 492.7 1032.1Q492.7 1032.1 492.7 1032.2Q492.7 1032.7 492.8 1033.2Q492.9 1033.6 493.2 1034.3L498 1046.4L502.5 1034.2ZM533.3 1050V1049.9Q533.3 1049.9 533.3 1049.8Q533.3 1049.6 533.3 1049.5Q533.3 1049.1 533.2 1048.7Q533.1 1048.2 532.8 1047.5L531.3 1044Q530.6 1044 529.4 1044Q528.2 1044 526.8 1044Q525.8 1044 524.9 1044Q524 1044 523.2 1044L521.7 1047.4Q521.6 1047.8 521.3 1048.4Q521.1 1049 521.1 1049.5Q521.1 1049.7 521.1 1049.8Q521.2 1049.9 521.2 1049.9V1050H518.6V1049.9Q518.8 1049.7 519.2 1049.1Q519.5 1048.5 519.9 1047.5L527.2 1031.4H528.2L535.1 1046.9Q535.4 1047.5 535.6 1048Q535.9 1048.5 536.1 1048.9Q536.3 1049.3 536.5 1049.6Q536.7 1049.9 536.7 1049.9V1050ZM525 1042.9Q525.8 1042.9 526.6 1042.9Q527.3 1042.9 528.1 1042.9Q528.8 1042.9 529.5 1042.9Q530.2 1042.9 530.7 1042.9L527.2 1034.8L523.7 1042.9ZM544.6 1048.9Q546.1 1048.9 547.4 1048.8Q548.6 1048.6 549.6 1048.5Q550.7 1048.3 551.6 1048L551.2 1050.1Q551.1 1050.1 550.7 1050.1Q550.4 1050.1 550.1 1050.1Q549.7 1050 549.3 1050Q548.9 1050 548.5 1050Q548.1 1050 547.8 1050Q547.6 1050 547.4 1050H542V1049.9Q542 1049.7 542.1 1049.3Q542.2 1048.9 542.2 1048.3Q542.3 1047.7 542.3 1046.9Q542.3 1046.1 542.3 1045V1036.8Q542.3 1035.7 542.3 1034.9Q542.3 1034.1 542.2 1033.5Q542.2 1032.9 542.1 1032.5Q542 1032.1 542 1031.8V1031.8H545V1031.8Q544.9 1032.1 544.9 1032.5Q544.8 1032.9 544.7 1033.5Q544.7 1034.1 544.7 1034.9Q544.6 1035.7 544.6 1036.8ZM571.7 1041.9Q572.9 1042.2 573.9 1042Q575 1041.8 575.7 1041.2Q576.5 1040.6 576.9 1039.6Q577.3 1038.5 577.3 1037.1Q577.3 1036 577.1 1035.2Q576.9 1034.3 576.4 1033.7Q576 1033.2 575.4 1032.8Q574.7 1032.5 573.8 1032.5Q573.3 1032.5 572.9 1032.6Q572.5 1032.6 572.2 1032.6Q571.9 1032.7 571.7 1032.8ZM569 1031.8Q569.2 1031.8 569.5 1031.8Q569.8 1031.9 570.1 1031.9Q570.4 1031.9 570.7 1031.9Q571.2 1031.9 572 1031.8Q572.9 1031.6 574.2 1031.6Q575.4 1031.6 576.4 1032Q577.5 1032.4 578.2 1033Q579 1033.7 579.4 1034.7Q579.8 1035.7 579.8 1036.9Q579.8 1038.6 579.2 1039.9Q578.5 1041.1 577.4 1041.9Q576.2 1042.6 574.7 1042.9Q573.3 1043.2 571.7 1042.9V1045Q571.7 1046.1 571.7 1046.9Q571.7 1047.7 571.8 1048.3Q571.8 1048.9 571.9 1049.3Q572 1049.7 572 1049.9V1050H569V1049.9Q569.1 1049.7 569.1 1049.3Q569.2 1048.9 569.3 1048.3Q569.3 1047.7 569.3 1046.9Q569.4 1046.1 569.4 1045V1036.8Q569.4 1035.7 569.3 1034.9Q569.3 1034.1 569.3 1033.5Q569.2 1032.9 569.1 1032.5Q569.1 1032.1 569 1031.8ZM598.5 1041.3Q598 1041.3 597.3 1041.3Q596.5 1041.3 595.6 1041.3Q594.7 1041.2 593.7 1041.2Q592.8 1041.2 591.8 1041.2Q590.9 1041.2 590.1 1041.2Q589.2 1041.2 588.6 1041.3V1045Q588.6 1046.1 588.7 1046.9Q588.7 1047.7 588.7 1048.3Q588.8 1048.9 588.8 1049.3Q588.9 1049.7 589 1049.9V1050H585.9V1049.9Q586 1049.7 586.1 1049.3Q586.2 1048.9 586.2 1048.3Q586.3 1047.7 586.3 1046.9Q586.3 1046.1 586.3 1045V1036.8Q586.3 1035.7 586.3 1034.9Q586.3 1034.1 586.2 1033.5Q586.2 1032.9 586.1 1032.5Q586 1032.1 585.9 1031.8V1031.8H589V1031.8Q588.9 1032.1 588.8 1032.5Q588.8 1032.9 588.7 1033.5Q588.7 1034.1 588.7 1034.9Q588.6 1035.7 588.6 1036.8V1040Q589.3 1040 590.1 1040.1Q591 1040.1 591.9 1040.1Q592.8 1040 593.7 1040Q594.7 1040 595.6 1040Q596.4 1040 597.2 1040Q598 1039.9 598.5 1039.9V1036.8Q598.5 1035.7 598.5 1034.9Q598.5 1034.1 598.4 1033.5Q598.4 1032.9 598.3 1032.5Q598.2 1032.1 598.2 1031.8V1031.8H601.2V1031.8Q601.1 1032.1 601.1 1032.5Q601 1032.9 600.9 1033.5Q600.9 1034.1 600.9 1034.9Q600.8 1035.7 600.8 1036.8V1045Q600.8 1046.1 600.9 1046.9Q600.9 1047.7 600.9 1048.3Q601 1048.9 601.1 1049.3Q601.1 1049.7 601.2 1049.9V1050H598.2V1049.9Q598.2 1049.7 598.3 1049.3Q598.4 1048.9 598.4 1048.3Q598.5 1047.7 598.5 1046.9Q598.5 1046.1 598.5 1045ZM616.8 1031.5Q618.9 1031.5 620.7 1032.2Q622.5 1032.9 623.8 1034.1Q625.1 1035.4 625.9 1037.1Q626.6 1038.9 626.6 1041Q626.6 1042.2 626.3 1043.4Q626 1044.5 625.5 1045.6Q625 1046.6 624.2 1047.5Q623.4 1048.4 622.4 1049Q621.4 1049.7 620.1 1050Q618.9 1050.4 617.5 1050.4Q615.4 1050.4 613.6 1049.7Q611.8 1049 610.5 1047.8Q609.2 1046.5 608.4 1044.8Q607.7 1043.1 607.7 1040.9Q607.7 1039.7 608 1038.5Q608.3 1037.4 608.8 1036.3Q609.3 1035.3 610.1 1034.4Q610.9 1033.5 611.9 1032.9Q612.9 1032.2 614.2 1031.9Q615.4 1031.5 616.8 1031.5ZM617.5 1049.3Q618.9 1049.3 620.1 1048.7Q621.3 1048.2 622.1 1047.3Q622.9 1046.3 623.4 1044.9Q623.9 1043.5 623.9 1041.8Q623.9 1039.8 623.4 1038.1Q623 1036.5 622.1 1035.2Q621.2 1034 619.9 1033.3Q618.6 1032.6 616.8 1032.6Q615.4 1032.6 614.2 1033.1Q613 1033.6 612.2 1034.6Q611.4 1035.5 610.9 1036.9Q610.4 1038.3 610.4 1040.1Q610.4 1042 610.9 1043.7Q611.3 1045.4 612.2 1046.6Q613.1 1047.8 614.4 1048.5Q615.7 1049.3 617.5 1049.3ZM637.4 1032.9Q635.9 1032.9 634.6 1033Q633.4 1033.2 632.6 1033.3Q631.5 1033.5 630.7 1033.8L631.1 1031.7Q631.3 1031.7 631.6 1031.7Q631.9 1031.7 632.3 1031.7Q632.6 1031.8 633 1031.8Q633.5 1031.8 633.8 1031.8Q634.2 1031.8 634.5 1031.8Q634.8 1031.8 634.9 1031.8H642.1Q642.3 1031.8 642.5 1031.8Q642.8 1031.8 643.2 1031.8Q643.6 1031.8 644 1031.8Q644.4 1031.8 644.8 1031.7Q645.1 1031.7 645.5 1031.7Q645.8 1031.7 645.9 1031.7L646.3 1033.8Q645.5 1033.5 644.4 1033.3Q643.6 1033.2 642.4 1033Q641.2 1032.9 639.7 1032.9V1045Q639.7 1046.1 639.7 1046.9Q639.7 1047.7 639.8 1048.3Q639.8 1048.9 639.9 1049.3Q640 1049.7 640 1049.9V1050H637V1049.9Q637.1 1049.7 637.1 1049.3Q637.2 1048.9 637.2 1048.3Q637.3 1047.7 637.3 1046.9Q637.4 1046.1 637.4 1045ZM659.5 1031.5Q661.6 1031.5 663.4 1032.2Q665.2 1032.9 666.5 1034.1Q667.8 1035.4 668.6 1037.1Q669.3 1038.9 669.3 1041Q669.3 1042.2 669 1043.4Q668.8 1044.5 668.2 1045.6Q667.7 1046.6 666.9 1047.5Q666.1 1048.4 665.1 1049Q664.1 1049.7 662.9 1050Q661.6 1050.4 660.2 1050.4Q658.1 1050.4 656.3 1049.7Q654.5 1049 653.2 1047.8Q651.9 1046.5 651.2 1044.8Q650.4 1043.1 650.4 1040.9Q650.4 1039.7 650.7 1038.5Q651 1037.4 651.5 1036.3Q652.1 1035.3 652.9 1034.4Q653.6 1033.5 654.6 1032.9Q655.7 1032.2 656.9 1031.9Q658.1 1031.5 659.5 1031.5ZM660.2 1049.3Q661.6 1049.3 662.8 1048.7Q664 1048.2 664.8 1047.3Q665.7 1046.3 666.1 1044.9Q666.6 1043.5 666.6 1041.8Q666.6 1039.8 666.2 1038.1Q665.7 1036.5 664.8 1035.2Q663.9 1034 662.6 1033.3Q661.3 1032.6 659.5 1032.6Q658.1 1032.6 656.9 1033.1Q655.8 1033.6 654.9 1034.6Q654.1 1035.5 653.6 1036.9Q653.1 1038.3 653.1 1040.1Q653.1 1042 653.6 1043.7Q654 1045.4 654.9 1046.6Q655.8 1047.8 657.1 1048.5Q658.5 1049.3 660.2 1049.3ZM694.8 1034.7H694.6Q694.5 1034.4 694.2 1034Q694 1033.7 693.7 1033.3Q693.3 1033 692.8 1032.8Q692.3 1032.6 691.6 1032.6Q690.9 1032.6 690.5 1032.8Q690 1033 689.7 1033.3Q689.3 1033.6 689.2 1034.1Q689 1034.6 689 1035.2Q689 1036.1 689.5 1036.9Q690 1037.7 690.8 1038.5Q691.6 1039.4 692.5 1040.2Q693.4 1041 694.2 1041.9Q694.9 1042.7 695.4 1043.7Q696 1044.7 696 1045.8Q696 1046.6 695.7 1047.4Q695.4 1048.2 694.8 1048.9Q694.2 1049.6 693.3 1050Q692.3 1050.4 691 1050.4Q690.3 1050.4 689.6 1050.3Q689 1050.1 688.4 1049.9Q687.9 1049.7 687.4 1049.5Q687 1049.3 686.7 1049.1L687 1046.3H687.3Q687.5 1046.9 687.8 1047.4Q688.1 1048 688.6 1048.4Q689 1048.8 689.6 1049Q690.2 1049.3 690.9 1049.3Q691.6 1049.3 692.1 1049.1Q692.6 1048.9 693 1048.5Q693.4 1048.2 693.5 1047.7Q693.7 1047.2 693.7 1046.6Q693.7 1045.8 693.5 1045.2Q693.2 1044.5 692.7 1043.9Q692.2 1043.3 691.6 1042.7Q691 1042.1 690.4 1041.6Q689.7 1041 689.1 1040.4Q688.5 1039.8 688.1 1039.1Q687.6 1038.4 687.3 1037.6Q687 1036.8 687 1035.8Q687 1034.8 687.4 1034Q687.8 1033.2 688.4 1032.6Q689 1032.1 689.9 1031.8Q690.7 1031.5 691.5 1031.5Q692.2 1031.5 692.7 1031.6Q693.2 1031.7 693.7 1031.8Q694.1 1031.9 694.4 1032.1Q694.7 1032.2 694.9 1032.3ZM707.5 1032.9Q706 1032.9 704.8 1033Q703.6 1033.2 702.7 1033.3Q701.7 1033.5 700.9 1033.8L701.3 1031.7Q701.4 1031.7 701.7 1031.7Q702 1031.7 702.4 1031.7Q702.8 1031.8 703.2 1031.8Q703.6 1031.8 704 1031.8Q704.3 1031.8 704.6 1031.8Q704.9 1031.8 705 1031.8H712.3Q712.4 1031.8 712.7 1031.8Q713 1031.8 713.4 1031.8Q713.7 1031.8 714.1 1031.8Q714.5 1031.8 714.9 1031.7Q715.3 1031.7 715.6 1031.7Q715.9 1031.7 716.1 1031.7L716.4 1033.8Q715.6 1033.5 714.6 1033.3Q713.7 1033.2 712.5 1033Q711.3 1032.9 709.8 1032.9V1045Q709.8 1046.1 709.8 1046.9Q709.9 1047.7 709.9 1048.3Q710 1048.9 710 1049.3Q710.1 1049.7 710.2 1049.9V1050H707.1V1049.9Q707.2 1049.7 707.3 1049.3Q707.4 1048.9 707.4 1048.3Q707.5 1047.7 707.5 1046.9Q707.5 1046.1 707.5 1045ZM734.9 1036.8Q734.9 1035.7 734.9 1034.9Q734.9 1034.1 734.8 1033.5Q734.8 1032.9 734.7 1032.5Q734.6 1032.1 734.6 1031.8V1031.8H736.8V1031.8Q736.7 1032.1 736.7 1032.5Q736.6 1032.9 736.6 1033.5Q736.5 1034.1 736.5 1034.9Q736.4 1035.7 736.4 1036.8V1043.6Q736.4 1045.4 735.9 1046.7Q735.4 1048 734.5 1048.8Q733.6 1049.6 732.3 1050Q731 1050.4 729.4 1050.4Q727.9 1050.4 726.6 1050Q725.2 1049.7 724.3 1048.9Q723.3 1048.1 722.7 1046.8Q722.2 1045.6 722.2 1043.8V1036.8Q722.2 1035.7 722.1 1034.9Q722.1 1034.1 722 1033.5Q722 1032.9 721.9 1032.5Q721.9 1032.1 721.8 1031.8V1031.8H724.8V1031.8Q724.8 1032.1 724.7 1032.5Q724.6 1032.9 724.6 1033.5Q724.5 1034.1 724.5 1034.9Q724.5 1035.7 724.5 1036.8V1043.9Q724.5 1045.4 724.9 1046.4Q725.4 1047.4 726.1 1047.9Q726.8 1048.5 727.8 1048.8Q728.7 1049 729.7 1049Q730.7 1049 731.6 1048.8Q732.5 1048.5 733.3 1047.9Q734 1047.4 734.5 1046.4Q734.9 1045.4 734.9 1043.9ZM746.8 1032.9Q746.7 1034.3 746.7 1035.6Q746.7 1036.2 746.7 1036.8Q746.7 1037.4 746.7 1038Q746.7 1038.6 746.7 1039.1Q746.7 1039.6 746.7 1040Q746.7 1040.9 746.7 1042.1Q746.7 1043.3 746.7 1044.6Q746.7 1045.8 746.8 1047Q746.8 1048.2 746.9 1048.9Q747 1049 747.3 1049Q747.6 1049 748 1049Q748.3 1049.1 748.6 1049.1Q748.9 1049.1 749.1 1049.1Q750 1049.1 751 1049Q751.9 1048.8 752.8 1048.5Q753.6 1048.2 754.4 1047.6Q755.2 1047 755.7 1046.1Q756.3 1045.2 756.7 1043.9Q757 1042.6 757 1040.9Q757 1038.9 756.5 1037.4Q756 1035.9 755.1 1034.9Q754.2 1033.8 752.9 1033.3Q751.5 1032.7 749.8 1032.7Q749.5 1032.7 749 1032.8Q748.6 1032.8 748.2 1032.8Q747.8 1032.8 747.4 1032.8Q747 1032.9 746.8 1032.9ZM744 1031.7Q744.3 1031.8 744.5 1031.8Q744.7 1031.8 745 1031.8Q745.2 1031.8 745.3 1031.8Q745.6 1031.8 746.1 1031.8Q746.7 1031.7 747.4 1031.7Q748.2 1031.7 748.9 1031.7Q749.7 1031.6 750.4 1031.6Q752.2 1031.6 753.9 1032.1Q755.6 1032.6 756.8 1033.6Q758.1 1034.6 758.8 1036.3Q759.6 1038 759.6 1040.5Q759.6 1042.2 759.2 1043.7Q758.8 1045.1 758.1 1046.1Q757.4 1047.2 756.4 1048Q755.4 1048.8 754.3 1049.3Q753.1 1049.7 751.8 1050Q750.4 1050.2 749 1050.2Q748.5 1050.2 747.8 1050.2Q747.1 1050.1 746.3 1050.1Q745.6 1050.1 745 1050Q744.3 1050 744 1050V1049.9Q744.1 1049.7 744.1 1049.3Q744.2 1048.9 744.2 1048.3Q744.3 1047.7 744.3 1046.9Q744.4 1046.1 744.4 1045V1036.8Q744.4 1035.7 744.3 1034.9Q744.3 1034.1 744.2 1033.5Q744.2 1032.9 744.1 1032.5Q744.1 1032.1 744 1031.8ZM766.3 1049.9Q766.4 1049.7 766.4 1049.3Q766.5 1048.9 766.6 1048.3Q766.6 1047.7 766.6 1046.9Q766.7 1046.1 766.7 1045V1036.8Q766.7 1035.7 766.6 1034.9Q766.6 1034.1 766.6 1033.5Q766.5 1032.9 766.4 1032.5Q766.4 1032.1 766.3 1031.8V1031.8H769.3V1031.8Q769.3 1032.1 769.2 1032.5Q769.1 1032.9 769.1 1033.5Q769 1034.1 769 1034.9Q769 1035.7 769 1036.8V1045Q769 1046.1 769 1046.9Q769 1047.7 769.1 1048.3Q769.1 1048.9 769.2 1049.3Q769.3 1049.7 769.3 1049.9V1050H766.3ZM785 1031.5Q787.1 1031.5 788.9 1032.2Q790.7 1032.9 792 1034.1Q793.3 1035.4 794.1 1037.1Q794.8 1038.9 794.8 1041Q794.8 1042.2 794.5 1043.4Q794.3 1044.5 793.7 1045.6Q793.2 1046.6 792.4 1047.5Q791.6 1048.4 790.6 1049Q789.6 1049.7 788.4 1050Q787.2 1050.4 785.7 1050.4Q783.6 1050.4 781.8 1049.7Q780 1049 778.7 1047.8Q777.4 1046.5 776.7 1044.8Q775.9 1043.1 775.9 1040.9Q775.9 1039.7 776.2 1038.5Q776.5 1037.4 777 1036.3Q777.6 1035.3 778.4 1034.4Q779.1 1033.5 780.2 1032.9Q781.2 1032.2 782.4 1031.9Q783.6 1031.5 785 1031.5ZM785.7 1049.3Q787.2 1049.3 788.3 1048.7Q789.5 1048.2 790.3 1047.3Q791.2 1046.3 791.6 1044.9Q792.1 1043.5 792.1 1041.8Q792.1 1039.8 791.7 1038.1Q791.2 1036.5 790.3 1035.2Q789.4 1034 788.1 1033.3Q786.8 1032.6 785 1032.6Q783.6 1032.6 782.4 1033.1Q781.3 1033.6 780.4 1034.6Q779.6 1035.5 779.1 1036.9Q778.6 1038.3 778.6 1040.1Q778.6 1042 779.1 1043.7Q779.5 1045.4 780.4 1046.6Q781.3 1047.8 782.6 1048.5Q784 1049.3 785.7 1049.3Z"/><g transform="translate(570 960) scale(0.3)" fill="none" stroke="url(#foilF)" stroke-linecap="round" stroke-linejoin="round">
  <clipPath id="lens28"><circle cx="100" cy="116" r="37.5"/></clipPath>
  <clipPath id="sunrise28"><polygon points="50 60 150 60 150 114 141 114 124 106 115 110 107 103 89 103 78 112 70 109 58 115 50 115"/></clipPath>
  <path stroke-width="7" d="M36 60H70V54A30 30 0 0 1 130 54V60H164A20 20 0 0 1 184 80V150A20 20 0 0 1 164 170H36A20 20 0 0 1 16 150V80A20 20 0 0 1 36 60Z"/>
  <path stroke-width="7" d="M30 60V51H52V60"/>
  <circle cx="161" cy="83" r="4.3" fill="url(#foilF)" stroke="none"/>
  <circle cx="100" cy="116" r="41" stroke-width="7"/>
  <g clip-path="url(#lens28)">
    <g clip-path="url(#sunrise28)"><circle cx="98" cy="107" r="17" fill="url(#foilF)" stroke="none"/></g>
    <path stroke-width="5.6" d="M52 123L70 116L78 119L90 109H106L115 116L124 112L148 122"/>
    <path stroke-width="5.6" d="M52 138C74 131 96 138 116 134C128 132 138 130 148 132"/>
  </g>
</g></svg>