  0
SECTION
  2
HEADER
  9
$ACADVER
  1
AC1032
  9
$ACADMAINTVER
 90
4
  9
$DWGCODEPAGE
  3
ANSI_1252
  9
$LASTSAVEDBY
  1
ezdxf
  9
$REQUIREDVERSIONS
160
0
  9
$INSBASE
 10
0.0
 20
0.0
 30
0.0
  9
$EXTMIN
 10
1e+20
 20
1e+20
 30
1e+20
  9
$EXTMAX
 10
-1e+20
 20
-1e+20
 30
-1e+20
  9
$LIMMIN
 10
0.0
 20
0.0
  9
$LIMMAX
 10
200000.0
 20
150000.0
  9
$ORTHOMODE
 70
0
  9
$REGENMODE
 70
1
  9
$FILLMODE
 70
1
  9
$QTEXTMODE
 70
0
  9
$MIRRTEXT
 70
0
  9
$LTSCALE
 40
1.0
  9
$ATTMODE
 70
1
  9
$TEXTSIZE
 40
2.5
  9
$TRACEWID
 40
1.0
  9
$TEXTSTYLE
  7
ASG-TEXT-ANNO
  9
$CLAYER
  8
ASG-OUTLINE-PRIMARY
  9
$CELTYPE
  6
ByLayer
  9
$CECOLOR
 62
256
  9
$CELTSCALE
 40
1.0
  9
$DISPSILH
 70
0
  9
$DIMSCALE
 40
1.0
  9
$DIMASZ
 40
2.5
  9
$DIMEXO
 40
1.5
  9
$DIMDLI
 40
7.0
  9
$DIMRND
 40
0.0
  9
$DIMDLE
 40
0.0
  9
$DIMEXE
 40
1.25
  9
$DIMTP
 40
0.0
  9
$DIMTM
 40
0.0
  9
$DIMTXT
 40
2.5
  9
$DIMCEN
 40
2.5
  9
$DIMTSZ
 40
0.0
  9
$DIMTOL
 70
0
  9
$DIMLIM
 70
0
  9
$DIMTIH
 70
0
  9
$DIMTOH
 70
0
  9
$DIMSE1
 70
0
  9
$DIMSE2
 70
0
  9
$DIMTAD
 70
1
  9
$DIMZIN
 70
8
  9
$DIMBLK
  1

  9
$DIMASO
 70
1
  9
$DIMSHO
 70
1
  9
$DIMPOST
  1

  9
$DIMAPOST
  1

  9
$DIMALT
 70
0
  9
$DIMALTD
 70
2
  9
$DIMALTF
 40
25.4
  9
$DIMLFAC
 40
1.0
  9
$DIMTOFL
 70
1
  9
$DIMTVP
 40
0.0
  9
$DIMTIX
 70
0
  9
$DIMSOXD
 70
0
  9
$DIMSAH
 70
0
  9
$DIMBLK1
  1

  9
$DIMBLK2
  1

  9
$DIMSTYLE
  2
ASG-DIM-ANNO
  9
$DIMCLRD
 70
256
  9
$DIMCLRE
 70
256
  9
$DIMCLRT
 70
256
  9
$DIMTFAC
 40
0.7
  9
$DIMGAP
 40
1.0
  9
$DIMJUST
 70
0
  9
$DIMSD1
 70
0
  9
$DIMSD2
 70
0
  9
$DIMTOLJ
 70
0
  9
$DIMTZIN
 70
8
  9
$DIMALTZ
 70
0
  9
$DIMALTTZ
 70
0
  9
$DIMUPT
 70
0
  9
$DIMDEC
 70
0
  9
$DIMTDEC
 70
1
  9
$DIMALTU
 70
2
  9
$DIMALTTD
 70
3
  9
$DIMTXSTY
  7
ASG-TEXT-ANNO
  9
$DIMAUNIT
 70
0
  9
$DIMADEC
 70
2
  9
$DIMALTRND
 40
0.0
  9
$DIMAZIN
 70
2
  9
$DIMDSEP
 70
46
  9
$DIMATFIT
 70
3
  9
$DIMFRAC
 70
0
  9
$DIMLDRBLK
  1

  9
$DIMLUNIT
 70
2
  9
$DIMLWD
 70
-2
  9
$DIMLWE
 70
-2
  9
$DIMTMOVE
 70
1
  9
$DIMFXL
 40
1.0
  9
$DIMFXLON
 70
0
  9
$DIMJOGANG
 40
0.785398163397
  9
$DIMTFILL
 70
0
  9
$DIMTFILLCLR
 70
0
  9
$DIMARCSYM
 70
0
  9
$DIMLTYPE
  6

  9
$DIMLTEX1
  6

  9
$DIMLTEX2
  6

  9
$DIMTXTDIRECTION
 70
0
  9
$LUNITS
 70
2
  9
$LUPREC
 70
0
  9
$SKETCHINC
 40
1.0
  9
$FILLETRAD
 40
10.0
  9
$AUNITS
 70
0
  9
$AUPREC
 70
2
  9
$MENU
  1
.
  9
$ELEVATION
 40
0.0
  9
$PELEVATION
 40
0.0
  9
$THICKNESS
 40
0.0
  9
$LIMCHECK
 70
0
  9
$CHAMFERA
 40
0.0
  9
$CHAMFERB
 40
0.0
  9
$CHAMFERC
 40
0.0
  9
$CHAMFERD
 40
0.0
  9
$SKPOLY
 70
0
  9
$TDCREATE
 40
2461324.391886574
  9
$TDUCREATE
 40
2458532.153996898
  9
$TDUPDATE
 40
2461324.391886574
  9
$TDUUPDATE
 40
2458532.1544311
  9
$TDINDWG
 40
0.0
  9
$TDUSRTIMER
 40
0.0
  9
$USRTIMER
 70
1
  9
$ANGBASE
 50
0.0
  9
$ANGDIR
 70
0
  9
$PDMODE
 70
0
  9
$PDSIZE
 40
0.0
  9
$PLINEWID
 40
0.0
  9
$SPLFRAME
 70
0
  9
$SPLINETYPE
 70
6
  9
$SPLINESEGS
 70
8
  9
$HANDSEED
  5
149
  9
$SURFTAB1
 70
6
  9
$SURFTAB2
 70
6
  9
$SURFTYPE
 70
6
  9
$SURFU
 70
6
  9
$SURFV
 70
6
  9
$UCSBASE
  2

  9
$UCSNAME
  2

  9
$UCSORG
 10
0.0
 20
0.0
 30
0.0
  9
$UCSXDIR
 10
1.0
 20
0.0
 30
0.0
  9
$UCSYDIR
 10
0.0
 20
1.0
 30
0.0
  9
$UCSORTHOREF
  2

  9
$UCSORTHOVIEW
 70
0
  9
$UCSORGTOP
 10
0.0
 20
0.0
 30
0.0
  9
$UCSORGBOTTOM
 10
0.0
 20
0.0
 30
0.0
  9
$UCSORGLEFT
 10
0.0
 20
0.0
 30
0.0
  9
$UCSORGRIGHT
 10
0.0
 20
0.0
 30
0.0
  9
$UCSORGFRONT
 10
0.0
 20
0.0
 30
0.0
  9
$UCSORGBACK
 10
0.0
 20
0.0
 30
0.0
  9
$PUCSBASE
  2

  9
$PUCSNAME
  2

  9
$PUCSORG
 10
0.0
 20
0.0
 30
0.0
  9
$PUCSXDIR
 10
1.0
 20
0.0
 30
0.0
  9
$PUCSYDIR
 10
0.0
 20
1.0
 30
0.0
  9
$PUCSORTHOREF
  2

  9
$PUCSORTHOVIEW
 70
0
  9
$PUCSORGTOP
 10
0.0
 20
0.0
 30
0.0
  9
$PUCSORGBOTTOM
 10
0.0
 20
0.0
 30
0.0
  9
$PUCSORGLEFT
 10
0.0
 20
0.0
 30
0.0
  9
$PUCSORGRIGHT
 10
0.0
 20
0.0
 30
0.0
  9
$PUCSORGFRONT
 10
0.0
 20
0.0
 30
0.0
  9
$PUCSORGBACK
 10
0.0
 20
0.0
 30
0.0
  9
$USERI1
 70
0
  9
$USERI2
 70
0
  9
$USERI3
 70
0
  9
$USERI4
 70
0
  9
$USERI5
 70
0
  9
$USERR1
 40
0.0
  9
$USERR2
 40
0.0
  9
$USERR3
 40
0.0
  9
$USERR4
 40
0.0
  9
$USERR5
 40
0.0
  9
$WORLDVIEW
 70
1
  9
$SHADEDGE
 70
3
  9
$SHADEDIF
 70
70
  9
$TILEMODE
 70
1
  9
$MAXACTVP
 70
64
  9
$PINSBASE
 10
0.0
 20
0.0
 30
0.0
  9
$PLIMCHECK
 70
0
  9
$PEXTMIN
 10
1e+20
 20
1e+20
 30
1e+20
  9
$PEXTMAX
 10
-1e+20
 20
-1e+20
 30
-1e+20
  9
$PLIMMIN
 10
-0.0
 20
-0.0
  9
$PLIMMAX
 10
420.0
 20
297.0
  9
$UNITMODE
 70
0
  9
$VISRETAIN
 70
1
  9
$PLINEGEN
 70
1
  9
$PSLTSCALE
 70
1
  9
$TREEDEPTH
 70
3020
  9
$CMLSTYLE
  2
ASG-MLINE-2
  9
$CMLJUST
 70
0
  9
$CMLSCALE
 40
20.0
  9
$PROXYGRAPHICS
 70
1
  9
$MEASUREMENT
 70
1
  9
$CELWEIGHT
370
-1
  9
$ENDCAPS
280
0
  9
$JOINSTYLE
280
0
  9
$LWDISPLAY
290
1
  9
$INSUNITS
 70
4
  9
$HYPERLINKBASE
  1

  9
$STYLESHEET
  1

  9
$XEDIT
290
1
  9
$CEPSNTYPE
380
0
  9
$PSTYLEMODE
290
1
  9
$FINGERPRINTGUID
  2
{14BBDDD7-BED2-47BF-AA67-CBC8FE16F5C0}
  9
$VERSIONGUID
  2
{7F8E3BE5-4354-4663-834F-E34A4947B823}
  9
$EXTNAMES
290
1
  9
$PSVPSCALE
 40
0.0
  9
$OLESTARTUP
290
0
  9
$SORTENTS
280
127
  9
$INDEXCTL
280
0
  9
$HIDETEXT
280
1
  9
$XCLIPFRAME
280
1
  9
$HALOGAP
280
0
  9
$OBSCOLOR
 70
257
  9
$OBSLTYPE
280
0
  9
$INTERSECTIONDISPLAY
280
0
  9
$INTERSECTIONCOLOR
 70
257
  9
$DIMASSOC
280
2
  9
$PROJECTNAME
  1

  9
$CAMERADISPLAY
290
0
  9
$LENSLENGTH
 40
50.0
  9
$CAMERAHEIGHT
 40
0.0
  9
$STEPSPERSEC
 40
24.0
  9
$STEPSIZE
 40
100.0
  9
$3DDWFPREC
 40
2.0
  9
$PSOLWIDTH
 40
0.005
  9
$PSOLHEIGHT
 40
0.08
  9
$LOFTANG1
 40
1.570796326795
  9
$LOFTANG2
 40
1.570796326795
  9
$LOFTMAG1
 40
0.0
  9
$LOFTMAG2
 40
0.0
  9
$LOFTPARAM
 70
7
  9
$LOFTNORMALS
280
1
  9
$LATITUDE
 40
37.795
  9
$LONGITUDE
 40
-122.394
  9
$NORTHDIRECTION
 40
0.0
  9
$TIMEZONE
 70
-8000
  9
$LIGHTGLYPHDISPLAY
280
1
  9
$TILEMODELIGHTSYNCH
280
1
  9
$CMATERIAL
347
20
  9
$SOLIDHIST
280
0
  9
$SHOWHIST
280
1
  9
$DWFFRAME
280
2
  9
$DGNFRAME
280
2
  9
$REALWORLDSCALE
290
1
  9
$INTERFERECOLOR
 62
256
  9
$CSHADOW
280
0
  9
$SHADOWPLANELOCATION
 40
0.0
  0
ENDSEC
  0
SECTION
  2
CLASSES
  0
CLASS
  1
ACDBDICTIONARYWDFLT
  2
AcDbDictionaryWithDefault
  3
ObjectDBX Classes
 90
0
 91
0
280
0
281
0
  0
CLASS
  1
SUN
  2
AcDbSun
  3
SCENEOE
 90
1153
 91
0
280
0
281
0
  0
CLASS
  1
VISUALSTYLE
  2
AcDbVisualStyle
  3
ObjectDBX Classes
 90
4095
 91
0
280
0
281
0
  0
CLASS
  1
MATERIAL
  2
AcDbMaterial
  3
ObjectDBX Classes
 90
1153
 91
0
280
0
281
0
  0
CLASS
  1
SCALE
  2
AcDbScale
  3
ObjectDBX Classes
 90
1153
 91
0
280
0
281
0
  0
CLASS
  1
TABLESTYLE
  2
AcDbTableStyle
  3
ObjectDBX Classes
 90
4095
 91
0
280
0
281
0
  0
CLASS
  1
MLEADERSTYLE
  2
AcDbMLeaderStyle
  3
ACDB_MLEADERSTYLE_CLASS
 90
4095
 91
0
280
0
281
0
  0
CLASS
  1
DICTIONARYVAR
  2
AcDbDictionaryVar
  3
ObjectDBX Classes
 90
0
 91
0
280
0
281
0
  0
CLASS
  1
CELLSTYLEMAP
  2
AcDbCellStyleMap
  3
ObjectDBX Classes
 90
1152
 91
0
280
0
281
0
  0
CLASS
  1
MENTALRAYRENDERSETTINGS
  2
AcDbMentalRayRenderSettings
  3
SCENEOE
 90
1024
 91
0
280
0
281
0
  0
CLASS
  1
ACDBDETAILVIEWSTYLE
  2
AcDbDetailViewStyle
  3
ObjectDBX Classes
 90
1025
 91
0
280
0
281
0
  0
CLASS
  1
ACDBSECTIONVIEWSTYLE
  2
AcDbSectionViewStyle
  3
ObjectDBX Classes
 90
1025
 91
0
280
0
281
0
  0
CLASS
  1
RASTERVARIABLES
  2
AcDbRasterVariables
  3
ISM
 90
0
 91
0
280
0
281
0
  0
CLASS
  1
LAYOUT
  2
AcDbLayout
  3
ObjectDBX Classes
 90
0
 91
0
280
0
281
0
  0
CLASS
  1
ACDBPLACEHOLDER
  2
AcDbPlaceHolder
  3
ObjectDBX Classes
 90
0
 91
0
280
0
281
0
  0
ENDSEC
  0
SECTION
  2
TABLES
  0
TABLE
  2
VPORT
  5
8
330
0
100
AcDbSymbolTable
 70
1
  0
VPORT
  5
C3
330
8
100
AcDbSymbolTableRecord
100
AcDbViewportTableRecord
  2
*Active
 70
0
 10
0.0
 20
0.0
 11
1.0
 21
1.0
 12
10000.0
 22
7000.0
 13
0.0
 23
0.0
 14
0.5
 24
0.5
 15
0.5
 25
0.5
 16
0.0
 26
0.0
 36
1.0
 17
0.0
 27
0.0
 37
0.0
 40
20000.0
 41
1.34
 42
50.0
 43
0.0
 44
0.0
 50
0.0
 51
0.0
 71
0
 72
1000
 73
1
 74
3
 75
0
 76
0
 77
0
 78
0
281
0
 65
1
110
0.0
120
0.0
130
0.0
111
1.0
121
0.0
131
0.0
112
0.0
122
1.0
132
0.0
 79
0
146
0.0
  0
ENDTAB
  0
TABLE
  2
LTYPE
  5
2
330
0
100
AcDbSymbolTable
 70
14
  0
LTYPE
  5
24
330
2
100
AcDbSymbolTableRecord
100
AcDbLinetypeTableRecord
  2
ByBlock
 70
0
  3

 72
65
 73
0
 40
0.0
  0
LTYPE
  5
25
330
2
100
AcDbSymbolTableRecord
100
AcDbLinetypeTableRecord
  2
ByLayer
 70
0
  3

 72
65
 73
0
 40
0.0
  0
LTYPE
  5
26
330
2
100
AcDbSymbolTableRecord
100
AcDbLinetypeTableRecord
  2
Continuous
 70
0
  3

 72
65
 73
0
 40
0.0
  0
LTYPE
  5
30
330
2
100
AcDbSymbolTableRecord
100
AcDbLinetypeTableRecord
  2
HIDDEN
 70
0
  3
Hidden __ __ __
 72
65
 73
2
 40
9.525
 49
6.35
 74
0
 49
-3.175
 74
0
  0
LTYPE
  5
31
330
2
100
AcDbSymbolTableRecord
100
AcDbLinetypeTableRecord
  2
HIDDEN2
 70
0
  3
Hidden (.5x) _ _ _
 72
65
 73
2
 40
4.7625
 49
3.175
 74
0
 49
-1.5875
 74
0
  0
LTYPE
  5
32
330
2
100
AcDbSymbolTableRecord
100
AcDbLinetypeTableRecord
  2
CENTER
 70
0
  3
Center ____ _ ____
 72
65
 73
4
 40
50.8
 49
31.75
 74
0
 49
-6.35
 74
0
 49
6.35
 74
0
 49
-6.35
 74
0
  0
LTYPE
  5
33
330
2
100
AcDbSymbolTableRecord
100
AcDbLinetypeTableRecord
  2
CENTER2
 70
0
  3
Center (.5x) ___ _ ___
 72
65
 73
4
 40
25.4
 49
15.875
 74
0
 49
-3.175
 74
0
 49
3.175
 74
0
 49
-3.175
 74
0
  0
LTYPE
  5
34
330
2
100
AcDbSymbolTableRecord
100
AcDbLinetypeTableRecord
  2
DASHED
 70
0
  3
Dashed __ __
 72
65
 73
2
 40
19.05
 49
12.7
 74
0
 49
-6.35
 74
0
  0
LTYPE
  5
35
330
2
100
AcDbSymbolTableRecord
100
AcDbLinetypeTableRecord
  2
DASHED2
 70
0
  3
Dashed (.5x) _ _
 72
65
 73
2
 40
9.525
 49
6.35
 74
0
 49
-3.175
 74
0
  0
LTYPE
  5
36
330
2
100
AcDbSymbolTableRecord
100
AcDbLinetypeTableRecord
  2
DASHDOT
 70
0
  3
Dash dot __ . __
 72
65
 73
4
 40
25.4
 49
12.7
 74
0
 49
-6.35
 74
0
 49
0.0
 74
0
 49
-6.35
 74
0
  0
LTYPE
  5
37
330
2
100
AcDbSymbolTableRecord
100
AcDbLinetypeTableRecord
  2
DASHDOT2
 70
0
  3
Dash dot (.5x) _ . _
 72
65
 73
4
 40
12.7
 49
6.35
 74
0
 49
-3.175
 74
0
 49
0.0
 74
0
 49
-3.175
 74
0
  0
LTYPE
  5
38
330
2
100
AcDbSymbolTableRecord
100
AcDbLinetypeTableRecord
  2
PHANTOM
 70
0
  3
Phantom ___ _ _ ___
 72
65
 73
6
 40
63.5
 49
31.75
 74
0
 49
-6.35
 74
0
 49
6.35
 74
0
 49
-6.35
 74
0
 49
6.35
 74
0
 49
-6.35
 74
0
  0
LTYPE
  5
39
330
2
100
AcDbSymbolTableRecord
100
AcDbLinetypeTableRecord
  2
PHANTOM2
 70
0
  3
Phantom (.5x) __ _ _ __
 72
65
 73
6
 40
31.75
 49
15.875
 74
0
 49
-3.175
 74
0
 49
3.175
 74
0
 49
-3.175
 74
0
 49
3.175
 74
0
 49
-3.175
 74
0
  0
LTYPE
  5
3A
330
2
100
AcDbSymbolTableRecord
100
AcDbLinetypeTableRecord
  2
DOT
 70
0
  3
Dot . . .
 72
65
 73
2
 40
6.35
 49
0.0
 74
0
 49
-6.35
 74
0
  0
ENDTAB
  0
TABLE
  2
LAYER
  5
1
330
0
100
AcDbSymbolTable
 70
36
  0
LAYER
  5
27
330
1
100
AcDbSymbolTableRecord
100
AcDbLayerTableRecord
  2
0
 70
0
 62
7
  6
Continuous
370
-3
390
13
347
21
1001
AcAecLayerStandard
1000

1000
System layer - block definitions only
  0
LAYER
  5
28
330
1
100
AcDbSymbolTableRecord
100
AcDbLayerTableRecord
  2
Defpoints
 70
0
 62
7
  6
Continuous
290
0
370
-3
390
13
347
21
  0
LAYER
  5
3B
330
1
100
AcDbSymbolTableRecord
100
AcDbLayerTableRecord
  2
ASG-OUTLINE-PRIMARY
 70
0
 62
7
  6
Continuous
370
35
390
13
347
21
1001
AcAecLayerStandard
1000

1000
Primary visible outlines
  0
LAYER
  5
3D
330
1
100
AcDbSymbolTableRecord
100
AcDbLayerTableRecord
  2
ASG-OUTLINE-SECONDARY
 70
0
 62
8
  6
Continuous
370
18
390
13
347
21
1001
AcAecLayerStandard
1000

1000
Secondary visible lines
  0
LAYER
  5
3E
330
1
100
AcDbSymbolTableRecord
100
AcDbLayerTableRecord
  2
ASG-ALUMINIUM-PROFILE
 70
0
 62
7
  6
Continuous
370
25
390
13
347
21
1001
AcAecLayerStandard
1000

1000
Aluminium profiles
  0
LAYER
  5
3F
330
1
100
AcDbSymbolTableRecord
100
AcDbLayerTableRecord
  2
ASG-GLASS
 70
0
 62
4
  6
Continuous
370
18
390
13
347
21
1001
AcAecLayerStandard
1000

1000
Glass and mirror
  0
LAYER
  5
40
330
1
100
AcDbSymbolTableRecord
100
AcDbLayerTableRecord
  2
ASG-STAINLESS-STEEL
 70
0
 62
7
  6
Continuous
370
25
390
13
347
21
1001
AcAecLayerStandard
1000

1000
Stainless steel
  0
LAYER
  5
41
330
1
100
AcDbSymbolTableRecord
100
AcDbLayerTableRecord
  2
ASG-MILD-STEEL
 70
0
 62
7
  6
Continuous
370
25
390
13
347
21
1001
AcAecLayerStandard
1000

1000
Mild steel
  0
LAYER
  5
42
330
1
100
AcDbSymbolTableRecord
100
AcDbLayerTableRecord
  2
ASG-HARDWARE
 70
0
 62
8
  6
Continuous
370
18
390
13
347
21
1001
AcAecLayerStandard
1000

1000
Hardware
  0
LAYER
  5
43
330
1
100
AcDbSymbolTableRecord
100
AcDbLayerTableRecord
  2
ASG-FIXING
 70
0
 62
8
  6
Continuous
370
18
390
13
347
21
1001
AcAecLayerStandard
1000

1000
Fixings
  0
LAYER
  5
44
330
1
100
AcDbSymbolTableRecord
100
AcDbLayerTableRecord
  2
ASG-GASKET
 70
0
 62
8
  6
Continuous
370
13
390
13
347
21
1001
AcAecLayerStandard
1000

1000
Gaskets
  0
LAYER
  5
45
330
1
100
AcDbSymbolTableRecord
100
AcDbLayerTableRecord
  2
ASG-SEALANT
 70
0
 62
8
  6
Continuous
370
13
390
13
347
21
1001
AcAecLayerStandard
1000

1000
Sealants
  0
LAYER
  5
46
330
1
100
AcDbSymbolTableRecord
100
AcDbLayerTableRecord
  2
ASG-INSULATION
 70
0
 62
252
  6
Continuous
370
13
390
13
347
21
1001
AcAecLayerStandard
1000

1000
Insulation
  0
LAYER
  5
47
330
1
100
AcDbSymbolTableRecord
100
AcDbLayerTableRecord
  2
ASG-CLADDING
 70
0
 62
7
  6
Continuous
370
25
390
13
347
21
1001
AcAecLayerStandard
1000

1000
Cladding
  0
LAYER
  5
48
330
1
100
AcDbSymbolTableRecord
100
AcDbLayerTableRecord
  2
ASG-HIDDEN
 70
0
 62
8
  6
HIDDEN2
370
18
390
13
347
21
1001
AcAecLayerStandard
1000

1000
Hidden geometry
  0
LAYER
  5
49
330
1
100
AcDbSymbolTableRecord
100
AcDbLayerTableRecord
  2
ASG-CENTERLINE
 70
0
 62
8
  6
CENTER2
370
13
390
13
347
21
1001
AcAecLayerStandard
1000

1000
Centrelines
  0
LAYER
  5
4A
330
1
100
AcDbSymbolTableRecord
100
AcDbLayerTableRecord
  2
ASG-CUTTING-PLANE
 70
0
 62
7
  6
PHANTOM2
370
35
390
13
347
21
1001
AcAecLayerStandard
1000

1000
Cutting planes
  0
LAYER
  5
4B
330
1
100
AcDbSymbolTableRecord
100
AcDbLayerTableRecord
  2
ASG-SECTION-CUT
 70
0
 62
7
  6
Continuous
370
50
390
13
347
21
1001
AcAecLayerStandard
1000

1000
Section cut outlines
  0
LAYER
  5
4C
330
1
100
AcDbSymbolTableRecord
100
AcDbLayerTableRecord
  2
ASG-HATCH
 70
0
 62
252
  6
Continuous
370
9
390
13
347
21
1001
AcAecLayerStandard
1000

1000
Section hatching
  0
LAYER
  5
4D
330
1
100
AcDbSymbolTableRecord
100
AcDbLayerTableRecord
  2
ASG-HATCH-FILL
 70
0
 62
251
  6
Continuous
370
9
390
13
347
21
1001
AcAecLayerStandard
1000

1000
Solid fills
  0
LAYER
  5
4E
330
1
100
AcDbSymbolTableRecord
100
AcDbLayerTableRecord
  2
ASG-SETOUT
 70
0
 62
8
  6
DASHDOT2
370
13
390
13
347
21
1001
AcAecLayerStandard
1000

1000
Setting-out geometry (plotted)
  0
LAYER
  5
4F
330
1
100
AcDbSymbolTableRecord
100
AcDbLayerTableRecord
  2
ASG-REFERENCE
 70
0
 62
253
  6
Continuous
370
13
390
13
347
21
1001
AcAecLayerStandard
1000

1000
Reference geometry
  0
LAYER
  5
50
330
1
100
AcDbSymbolTableRecord
100
AcDbLayerTableRecord
  2
ASG-CONSTRUCTION
 70
0
 62
6
  6
Continuous
290
0
370
0
390
13
347
21
1001
AcAecLayerStandard
1000

1000
Construction geometry (NOT plotted)
  0
LAYER
  5
51
330
1
100
AcDbSymbolTableRecord
100
AcDbLayerTableRecord
  2
ASG-DIMENSION
 70
0
 62
3
  6
Continuous
370
13
390
13
347
21
1001
AcAecLayerStandard
1000

1000
Dimensions
  0
LAYER
  5
52
330
1
100
AcDbSymbolTableRecord
100
AcDbLayerTableRecord
  2
ASG-TEXT
 70
0
 62
7
  6
Continuous
370
18
390
13
347
21
1001
AcAecLayerStandard
1000

1000
General text
  0
LAYER
  5
53
330
1
100
AcDbSymbolTableRecord
100
AcDbLayerTableRecord
  2
ASG-TEXT-NOTE
 70
0
 62
7
  6
Continuous
370
18
390
13
347
21
1001
AcAecLayerStandard
1000

1000
Notes
  0
LAYER
  5
54
330
1
100
AcDbSymbolTableRecord
100
AcDbLayerTableRecord
  2
ASG-MULTILEADER
 70
0
 62
3
  6
Continuous
370
13
390
13
347
21
1001
AcAecLayerStandard
1000

1000
Multileaders
  0
LAYER
  5
55
330
1
100
AcDbSymbolTableRecord
100
AcDbLayerTableRecord
  2
ASG-TABLE
 70
0
 62
7
  6
Continuous
370
18
390
13
347
21
1001
AcAecLayerStandard
1000

1000
Tables
  0
LAYER
  5
56
330
1
100
AcDbSymbolTableRecord
100
AcDbLayerTableRecord
  2
ASG-LEVEL
 70
0
 62
3
  6
Continuous
370
13
390
13
347
21
1001
AcAecLayerStandard
1000

1000
Levels
  0
LAYER
  5
57
330
1
100
AcDbSymbolTableRecord
100
AcDbLayerTableRecord
  2
ASG-GRID
 70
0
 62
8
  6
CENTER
370
13
390
13
347
21
1001
AcAecLayerStandard
1000

1000
Grids
  0
LAYER
  5
58
330
1
100
AcDbSymbolTableRecord
100
AcDbLayerTableRecord
  2
ASG-REVISION
 70
0
 62
1
  6
Continuous
370
25
390
13
347
21
1001
AcAecLayerStandard
1000

1000
Revision clouds
  0
LAYER
  5
59
330
1
100
AcDbSymbolTableRecord
100
AcDbLayerTableRecord
  2
ASG-SYMBOL
 70
0
 62
3
  6
Continuous
370
25
390
13
347
21
1001
AcAecLayerStandard
1000

1000
Drafting symbols
  0
LAYER
  5
5A
330
1
100
AcDbSymbolTableRecord
100
AcDbLayerTableRecord
  2
ASG-BORDER
 70
0
 62
7
  6
Continuous
370
50
390
13
347
21
1001
AcAecLayerStandard
1000

1000
Sheet borders
  0
LAYER
  5
5B
330
1
100
AcDbSymbolTableRecord
100
AcDbLayerTableRecord
  2
ASG-TITLEBLOCK
 70
0
 62
7
  6
Continuous
370
25
390
13
347
21
1001
AcAecLayerStandard
1000

1000
Title blocks
  0
LAYER
  5
5C
330
1
100
AcDbSymbolTableRecord
100
AcDbLayerTableRecord
  2
ASG-VIEWPORT
 70
0
 62
6
  6
Continuous
290
0
370
0
390
13
347
21
1001
AcAecLayerStandard
1000

1000
Viewports (NOT plotted)
  0
LAYER
  5
5D
330
1
100
AcDbSymbolTableRecord
100
AcDbLayerTableRecord
  2
ASG-NOPLOT
 70
0
 62
6
  6
Continuous
290
0
370
0
390
13
347
21
1001
AcAecLayerStandard
1000

1000
Non-plot objects
  0
ENDTAB
  0
TABLE
  2
STYLE
  5
5
330
0
100
AcDbSymbolTable
 70
7
  0
STYLE
  5
29
330
5
100
AcDbSymbolTableRecord
100
AcDbTextStyleTableRecord
  2
Standard
 70
0
 40
0.0
 41
1.0
 50
0.0
 71
0
 42
2.5
  3
arial.ttf
  4

1001
ACAD
1000
Arial
1071
34
  0
STYLE
  5
5E
330
5
100
AcDbSymbolTableRecord
100
AcDbTextStyleTableRecord
  2
ASG-TEXT-ANNO
 70
0
 40
0.0
 41
1.0
 50
0.0
 71
0
 42
2.5
  3
arial.ttf
  4

1001
ACAD
1000
Arial
1071
34
1001
AcadAnnotative
1000
AnnotativeData
1002
{
1070
1
1070
1
1002
}
  0
STYLE
  5
5F
330
5
100
AcDbSymbolTableRecord
100
AcDbTextStyleTableRecord
  2
ASG-TEXT-NOTE
 70
0
 40
0.0
 41
1.0
 50
0.0
 71
0
 42
2.5
  3
arial.ttf
  4

1001
ACAD
1000
Arial
1071
34
1001
AcadAnnotative
1000
AnnotativeData
1002
{
1070
1
1070
1
1002
}
  0
STYLE
  5
60
330
5
100
AcDbSymbolTableRecord
100
AcDbTextStyleTableRecord
  2
ASG-TEXT-SMALL
 70
0
 40
0.0
 41
1.0
 50
0.0
 71
0
 42
2.5
  3
arial.ttf
  4

1001
ACAD
1000
Arial
1071
34
1001
AcadAnnotative
1000
AnnotativeData
1002
{
1070
1
1070
1
1002
}
  0
STYLE
  5
61
330
5
100
AcDbSymbolTableRecord
100
AcDbTextStyleTableRecord
  2
ASG-TEXT-TITLE
 70
0
 40
0.0
 41
1.0
 50
0.0
 71
0
 42
2.5
  3
arialbd.ttf
  4

1001
ACAD
1000
Arial
1071
33554466
  0
STYLE
  5
62
330
5
100
AcDbSymbolTableRecord
100
AcDbTextStyleTableRecord
  2
ASG-TEXT-HEADING
 70
0
 40
0.0
 41
1.0
 50
0.0
 71
0
 42
2.5
  3
arialbd.ttf
  4

1001
ACAD
1000
Arial
1071
33554466
  0
STYLE
  5
63
330
5
100
AcDbSymbolTableRecord
100
AcDbTextStyleTableRecord
  2
ASG-TEXT-SHEET
 70
0
 40
0.0
 41
1.0
 50
0.0
 71
0
 42
2.5
  3
arial.ttf
  4

1001
ACAD
1000
Arial
1071
34
  0
ENDTAB
  0
TABLE
  2
VIEW
  5
7
330
0
100
AcDbSymbolTable
 70
0
  0
ENDTAB
  0
TABLE
  2
UCS
  5
6
330
0
100
AcDbSymbolTable
 70
0
  0
ENDTAB
  0
TABLE
  2
APPID
  5
3
330
0
100
AcDbSymbolTable
 70
5
  0
APPID
  5
2A
330
3
100
AcDbSymbolTableRecord
100
AcDbRegAppTableRecord
  2
ACAD
 70
0
  0
APPID
  5
2F
330
3
100
AcDbSymbolTableRecord
100
AcDbRegAppTableRecord
  2
AcadAnnotative
 70
0
  0
APPID
  5
3C
330
3
100
AcDbSymbolTableRecord
100
AcDbRegAppTableRecord
  2
AcAecLayerStandard
 70
0
  0
APPID
  5
13D
330
3
100
AcDbSymbolTableRecord
100
AcDbRegAppTableRecord
  2
HATCHBACKGROUNDCOLOR
 70
0
  0
APPID
  5
13E
330
3
100
AcDbSymbolTableRecord
100
AcDbRegAppTableRecord
  2
EZDXF
 70
0
  0
ENDTAB
  0
TABLE
  2
DIMSTYLE
  5
4
330
0
100
AcDbSymbolTable
 70
7
100
AcDbDimStyleTable
  0
DIMSTYLE
105
2B
330
4
100
AcDbSymbolTableRecord
100
AcDbDimStyleTableRecord
  2
Standard
 70
0
 40
1.0
 41
2.5
 42
1.5
 43
7.0
 44
1.25
 45
0.0
 46
0.0
 47
0.0
 48
0.0
 49
2.5
140
2.5
141
2.5
142
0.0
143
25.4
144
1.0
145
0.0
146
0.7
147
1.0
148
0.0
 69
0
 70
0
 71
0
 72
0
 73
0
 74
0
 75
0
 76
0
 77
1
 78
8
 79
2
170
0
171
2
172
1
173
0
174
0
175
0
176
256
177
256
178
256
179
2
271
0
272
1
273
2
274
3
275
0
276
0
277
2
278
46
279
1
280
0
281
0
282
0
283
0
284
8
285
0
286
0
288
0
289
3
290
0
340
5E
371
-2
372
-2
  0
DIMSTYLE
105
64
330
4
100
AcDbSymbolTableRecord
100
AcDbDimStyleTableRecord
  2
ASG-DIM-ANNO
 70
0
 40
1.0
 41
2.5
 42
1.5
 43
7.0
 44
1.25
 45
0.0
 46
0.0
 47
0.0
 48
0.0
 49
2.5
140
2.5
141
2.5
142
0.0
143
25.4
144
1.0
145
0.0
146
0.7
147
1.0
148
0.0
 69
0
 70
0
 71
0
 72
0
 73
0
 74
0
 75
0
 76
0
 77
1
 78
8
 79
2
170
0
171
2
172
1
173
0
174
0
175
0
176
256
177
256
178
256
179
2
271
0
272
1
273
2
274
3
275
0
276
0
277
2
278
46
279
1
280
0
281
0
282
0
283
0
284
8
285
0
286
0
288
0
289
3
290
0
340
5E
371
-2
372
-2
1001
AcadAnnotative
1000
AnnotativeData
1002
{
1070
1
1070
1
1002
}
  0
DIMSTYLE
105
65
330
4
100
AcDbSymbolTableRecord
100
AcDbDimStyleTableRecord
  2
ASG-DIM-FIXED
 70
0
 40
1.0
 41
2.5
 42
1.5
 43
7.0
 44
1.25
 45
0.0
 46
0.0
 47
0.0
 48
0.0
 49
2.5
140
2.5
141
2.5
142
0.0
143
25.4
144
1.0
145
0.0
146
0.7
147
1.0
148
0.0
 69
0
 70
0
 71
0
 72
0
 73
0
 74
0
 75
0
 76
0
 77
1
 78
8
 79
2
170
0
171
2
172
1
173
0
174
0
175
0
176
256
177
256
178
256
179
2
271
0
272
1
273
2
274
3
275
0
276
0
277
2
278
46
279
1
280
0
281
0
282
0
283
0
284
8
285
0
286
0
288
0
289
3
290
0
340
5E
371
-2
372
-2
  0
DIMSTYLE
105
66
330
4
100
AcDbSymbolTableRecord
100
AcDbDimStyleTableRecord
  2
ASG-DIM-DETAIL
 70
0
 40
1.0
 41
2.5
 42
1.5
 43
7.0
 44
1.25
 45
0.0
 46
0.0
 47
0.0
 48
0.0
 49
2.5
140
2.5
141
2.5
142
0.0
143
25.4
144
1.0
145
0.0
146
0.7
147
1.0
148
0.0
 69
0
 70
0
 71
0
 72
0
 73
0
 74
0
 75
0
 76
0
 77
1
 78
0
 79
2
170
0
171
2
172
1
173
0
174
0
175
0
176
256
177
256
178
256
179
2
271
1
272
1
273
2
274
3
275
0
276
0
277
2
278
46
279
1
280
0
281
0
282
0
283
0
284
8
285
0
286
0
288
0
289
3
290
0
340
5E
371
-2
372
-2
1001
AcadAnnotative
1000
AnnotativeData
1002
{
1070
1
1070
1
1002
}
  0
DIMSTYLE
105
67
330
4
100
AcDbSymbolTableRecord
100
AcDbDimStyleTableRecord
  2
ASG-DIM-ANGULAR
 70
0
 40
1.0
 41
2.5
 42
1.5
 43
7.0
 44
1.25
 45
0.0
 46
0.0
 47
0.0
 48
0.0
 49
2.5
140
2.5
141
2.5
142
0.0
143
25.4
144
1.0
145
0.0
146
0.7
147
1.0
148
0.0
 69
0
 70
0
 71
0
 72
0
 73
0
 74
0
 75
0
 76
0
 77
1
 78
8
 79
0
170
0
171
2
172
1
173
0
174
0
175
0
176
256
177
256
178
256
179
2
271
0
272
1
273
2
274
3
275
0
276
0
277
2
278
46
279
1
280
0
281
0
282
0
283
0
284
8
285
0
286
0
288
0
289
3
290
0
340
5E
371
-2
372
-2
1001
AcadAnnotative
1000
AnnotativeData
1002
{
1070
1
1070
1
1002
}
  0
DIMSTYLE
105
68
330
4
100
AcDbSymbolTableRecord
100
AcDbDimStyleTableRecord
  2
ASG-DIM-RADIUS
 70
0
 40
1.0
 41
2.5
 42
1.5
 43
7.0
 44
1.25
 45
0.0
 46
0.0
 47
0.0
 48
0.0
 49
2.5
140
2.5
141
0.0
142
0.0
143
25.4
144
1.0
145
0.0
146
0.7
147
1.0
148
0.0
 69
0
 70
0
 71
0
 72
0
 73
0
 74
0
 75
0
 76
0
 77
1
 78
8
 79
2
170
0
171
2
172
1
173
0
174
0
175
0
176
256
177
256
178
256
179
2
271
0
272
1
273
2
274
3
275
0
276
0
277
2
278
46
279
0
280
0
281
0
282
0
283
0
284
8
285
0
286
0
288
0
289
3
290
0
340
5E
371
-2
372
-2
1001
AcadAnnotative
1000
AnnotativeData
1002
{
1070
1
1070
1
1002
}
  0
DIMSTYLE
105
69
330
4
100
AcDbSymbolTableRecord
100
AcDbDimStyleTableRecord
  2
ASG-DIM-DIAMETER
 70
0
 40
1.0
 41
2.5
 42
1.5
 43
7.0
 44
1.25
 45
0.0
 46
0.0
 47
0.0
 48
0.0
 49
2.5
140
2.5
141
2.5
142
0.0
143
25.4
144
1.0
145
0.0
146
0.7
147
1.0
148
0.0
 69
0
 70
0
 71
0
 72
0
 73
0
 74
0
 75
0
 76
0
 77
1
 78
8
 79
2
170
0
171
2
172
1
173
0
174
0
175
0
176
256
177
256
178
256
179
2
271
0
272
1
273
2
274
3
275
0
276
0
277
2
278
46
279
0
280
0
281
0
282
0
283
0
284
8
285
0
286
0
288
0
289
3
290
0
340
5E
371
-2
372
-2
1001
AcadAnnotative
1000
AnnotativeData
1002
{
1070
1
1070
1
1002
}
  0
ENDTAB
  0
TABLE
  2
BLOCK_RECORD
  5
9
330
0
100
AcDbSymbolTable
 70
12
  0
BLOCK_RECORD
  5
17
330
9
100
AcDbSymbolTableRecord
100
AcDbBlockTableRecord
  2
*Model_Space
340
1A
 70
0
280
1
281
0
  0
BLOCK_RECORD
  5
6D
330
9
100
AcDbSymbolTableRecord
100
AcDbBlockTableRecord
  2
_DOT
340
0
 70
0
280
1
281
0
  0
BLOCK_RECORD
  5
73
330
9
100
AcDbSymbolTableRecord
100
AcDbBlockTableRecord
  2
_OPEN30
340
0
 70
0
280
1
281
0
  0
BLOCK_RECORD
  5
7A
330
9
100
AcDbSymbolTableRecord
100
AcDbBlockTableRecord
  2
ASG-TB-A3
340
0
 70
4
280
0
281
1
  0
BLOCK_RECORD
  5
AB
330
9
100
AcDbSymbolTableRecord
100
AcDbBlockTableRecord
  2
*Paper_Space
340
AE
 70
0
280
1
281
0
  0
BLOCK_RECORD
  5
C6
330
9
100
AcDbSymbolTableRecord
100
AcDbBlockTableRecord
  2
*D1
340
0
 70
0
280
1
281
0
  0
BLOCK_RECORD
  5
CB
330
9
100
AcDbSymbolTableRecord
100
AcDbBlockTableRecord
  2
_CLOSEDFILLED
340
0
 70
0
280
1
281
0
  0
BLOCK_RECORD
  5
D9
330
9
100
AcDbSymbolTableRecord
100
AcDbBlockTableRecord
  2
*D2
340
0
 70
0
280
1
281
0
  0
BLOCK_RECORD
  5
EB
330
9
100
AcDbSymbolTableRecord
100
AcDbBlockTableRecord
  2
*D3
340
0
 70
0
280
1
281
0
  0
BLOCK_RECORD
  5
FC
330
9
100
AcDbSymbolTableRecord
100
AcDbBlockTableRecord
  2
*D4
340
0
 70
0
280
1
281
0
  0
BLOCK_RECORD
  5
10F
330
9
100
AcDbSymbolTableRecord
100
AcDbBlockTableRecord
  2
*D5
340
0
 70
0
280
1
281
0
  0
BLOCK_RECORD
  5
11A
330
9
100
AcDbSymbolTableRecord
100
AcDbBlockTableRecord
  2
*D6
340
0
 70
0
280
1
281
0
  0
ENDTAB
  0
ENDSEC
  0
SECTION
  2
BLOCKS
  0
BLOCK
  5
18
330
17
100
AcDbEntity
  8
0
100
AcDbBlockBegin
  2
*Model_Space
 70
0
 10
0.0
 20
0.0
 30
0.0
  3
*Model_Space
  1

  0
ENDBLK
  5
19
330
17
100
AcDbEntity
  8
0
100
AcDbBlockEnd
  0
BLOCK
  5
6E
330
6D
100
AcDbEntity
  8
0
100
AcDbBlockBegin
  2
_DOT
 70
0
 10
0.0
 20
0.0
 30
0.0
  3
_DOT
  1

  0
LINE
  5
70
330
6D
100
AcDbEntity
  8
0
  6
BYBLOCK
 62
0
100
AcDbLine
 10
-0.5
 20
0.0
 30
0.0
 11
-1.0
 21
0.0
 31
0.0
  0
LWPOLYLINE
  5
71
330
6D
100
AcDbEntity
  8
0
  6
BYBLOCK
 62
0
100
AcDbPolyline
 90
2
 70
1
 43
0.5
 10
-0.25
 20
0.0
 42
1.0
 10
0.25
 20
0.0
 42
1.0
  0
ENDBLK
  5
6F
330
6D
100
AcDbEntity
  8
0
100
AcDbBlockEnd
  0
BLOCK
  5
74
330
73
100
AcDbEntity
  8
0
100
AcDbBlockBegin
  2
_OPEN30
 70
0
 10
0.0
 20
0.0
 30
0.0
  3
_OPEN30
  1

  0
LWPOLYLINE
  5
76
330
73
100
AcDbEntity
  8
0
  6
BYBLOCK
 62
0
100
AcDbPolyline
 90
3
 70
0
 10
-1.0
 20
0.25881904510252074
 10
0.0
 20
0.0
 10
-1.0
 20
-0.25881904510252074
  0
LINE
  5
77
330
73
100
AcDbEntity
  8
0
  6
BYBLOCK
 62
0
100
AcDbLine
 10
0.0
 20
0.0
 30
0.0
 11
-1.0
 21
0.0
 31
0.0
  0
ENDBLK
  5
75
330
73
100
AcDbEntity
  8
0
100
AcDbBlockEnd
  0
BLOCK
  5
7B
330
7A
100
AcDbEntity
  8
0
100
AcDbBlockBegin
  2
ASG-TB-A3
 70
2
 10
0.0
 20
0.0
 30
0.0
  3
ASG-TB-A3
  1

  0
TEXT
  5
7D
330
7A
100
AcDbEntity
  8
0
100
AcDbText
 10
-178.92
 20
10.62
 30
0.0
 40
1.8
  1
DRAWING No.
  7
ASG-TEXT-SHEET
 11
-178.92
 21
10.62
 31
0.0
100
AcDbText
 73
1
  0
ATTDEF
  5
7E
330
7A
100
AcDbEntity
  8
0
100
AcDbText
 10
-178.92
 20
1.08
 30
0.0
 40
3.5
  1
AS-YYYY-NNN-DIS-TYP-001
  7
ASG-TEXT-HEADING
 11
-178.92
 21
1.08
 31
0.0
100
AcDbAttributeDefinition
  3
Drawing number
  2
DWG_NO
 70
0
 74
1
280
1
 71
1
 72
0
 11
-178.92
 21
1.08
 31
0.0
  0
LINE
  5
7F
330
7A
100
AcDbEntity
  8
0
100
AcDbLine
 10
-72.0
 20
0.0
 30
0.0
 11
-72.0
 21
13.5
 31
0.0
  0
TEXT
  5
80
330
7A
100
AcDbEntity
  8
0
100
AcDbText
 10
-70.92
 20
10.62
 30
0.0
 40
1.8
  1
REV
  7
ASG-TEXT-SHEET
 11
-70.92
 21
10.62
 31
0.0
100
AcDbText
 73
1
  0
ATTDEF
  5
81
330
7A
100
AcDbEntity
  8
0
100
AcDbText
 10
-70.92
 20
1.08
 30
0.0
 40
3.5
  1
R0
  7
ASG-TEXT-HEADING
 11
-70.92
 21
1.08
 31
0.0
100
AcDbAttributeDefinition
  3
Revision
  2
REV
 70
0
 74
1
280
1
 71
1
 72
0
 11
-70.92
 21
1.08
 31
0.0
  0
LINE
  5
82
330
7A
100
AcDbEntity
  8
0
100
AcDbLine
 10
-45.0
 20
0.0
 30
0.0
 11
-45.0
 21
13.5
 31
0.0
  0
TEXT
  5
83
330
7A
100
AcDbEntity
  8
0
100
AcDbText
 10
-43.92
 20
10.62
 30
0.0
 40
1.8
  1
SHEET No.
  7
ASG-TEXT-SHEET
 11
-43.92
 21
10.62
 31
0.0
100
AcDbText
 73
1
  0
ATTDEF
  5
84
330
7A
100
AcDbEntity
  8
0
100
AcDbText
 10
-43.92
 20
1.08
 30
0.0
 40
2.5
  1
01 OF 01
  7
ASG-TEXT-SHEET
 11
-43.92
 21
1.08
 31
0.0
100
AcDbAttributeDefinition
  3
Sheet number
  2
SHEET_NO
 70
0
 74
1
280
1
 71
1
 72
0
 11
-43.92
 21
1.08
 31
0.0
  0
LINE
  5
85
330
7A
100
AcDbEntity
  8
0
100
AcDbLine
 10
-180.0
 20
13.5
 30
0.0
 11
0.0
 21
13.5
 31
0.0
  0
TEXT
  5
86
330
7A
100
AcDbEntity
  8
0
100
AcDbText
 10
-178.92
 20
19.62
 30
0.0
 40
1.8
  1
SCALE
  7
ASG-TEXT-SHEET
 11
-178.92
 21
19.62
 31
0.0
100
AcDbText
 73
1
  0
ATTDEF
  5
87
330
7A
100
AcDbEntity
  8
0
100
AcDbText
 10
-178.92
 20
14.58
 30
0.0
 40
2.5
  1
AS SHOWN
  7
ASG-TEXT-SHEET
 11
-178.92
 21
14.58
 31
0.0
100
AcDbAttributeDefinition
  3
Scale
  2
SCALE
 70
0
 74
1
280
1
 71
1
 72
0
 11
-178.92
 21
14.58
 31
0.0
  0
LINE
  5
88
330
7A
100
AcDbEntity
  8
0
100
AcDbLine
 10
-120.0
 20
13.5
 30
0.0
 11
-120.0
 21
22.5
 31
0.0
  0
TEXT
  5
89
330
7A
100
AcDbEntity
  8
0
100
AcDbText
 10
-118.92
 20
19.62
 30
0.0
 40
1.8
  1
DATE
  7
ASG-TEXT-SHEET
 11
-118.92
 21
19.62
 31
0.0
100
AcDbText
 73
1
  0
ATTDEF
  5
8A
330
7A
100
AcDbEntity
  8
0
100
AcDbText
 10
-118.92
 20
14.58
 30
0.0
 40
2.5
  1
DD.MM.YYYY
  7
ASG-TEXT-SHEET
 11
-118.92
 21
14.58
 31
0.0
100
AcDbAttributeDefinition
  3
Date (DD.MM.YYYY)
  2
DATE
 70
0
 74
1
280
1
 71
1
 72
0
 11
-118.92
 21
14.58
 31
0.0
  0
LINE
  5
8B
330
7A
100
AcDbEntity
  8
0
100
AcDbLine
 10
-60.0
 20
13.5
 30
0.0
 11
-60.0
 21
22.5
 31
0.0
  0
TEXT
  5
8C
330
7A
100
AcDbEntity
  8
0
100
AcDbText
 10
-58.92
 20
19.62
 30
0.0
 40
1.8
  1
DRAWING STATUS
  7
ASG-TEXT-SHEET
 11
-58.92
 21
19.62
 31
0.0
100
AcDbText
 73
1
  0
ATTDEF
  5
8D
330
7A
100
AcDbEntity
  8
0
100
AcDbText
 10
-58.92
 20
14.58
 30
0.0
 40
2.5
  1
PRELIMINARY
  7
ASG-TEXT-SHEET
 11
-58.92
 21
14.58
 31
0.0
100
AcDbAttributeDefinition
  3
Drawing status
  2
DWG_STATUS
 70
0
 74
1
280
1
 71
1
 72
0
 11
-58.92
 21
14.58
 31
0.0
  0
LINE
  5
8E
330
7A
100
AcDbEntity
  8
0
100
AcDbLine
 10
-180.0
 20
22.5
 30
0.0
 11
0.0
 21
22.5
 31
0.0
  0
TEXT
  5
8F
330
7A
100
AcDbEntity
  8
0
100
AcDbText
 10
-178.92
 20
28.62
 30
0.0
 40
1.8
  1
DRAWN BY
  7
ASG-TEXT-SHEET
 11
-178.92
 21
28.62
 31
0.0
100
AcDbText
 73
1
  0
ATTDEF
  5
90
330
7A
100
AcDbEntity
  8
0
100
AcDbText
 10
-178.92
 20
23.58
 30
0.0
 40
2.5
  1
-
  7
ASG-TEXT-SHEET
 11
-178.92
 21
23.58
 31
0.0
100
AcDbAttributeDefinition
  3
Drawn by
  2
DRAWN_BY
 70
0
 74
1
280
1
 71
1
 72
0
 11
-178.92
 21
23.58
 31
0.0
  0
LINE
  5
91
330
7A
100
AcDbEntity
  8
0
100
AcDbLine
 10
-120.0
 20
22.5
 30
0.0
 11
-120.0
 21
31.5
 31
0.0
  0
TEXT
  5
92
330
7A
100
AcDbEntity
  8
0
100
AcDbText
 10
-118.92
 20
28.62
 30
0.0
 40
1.8
  1
CHECKED BY
  7
ASG-TEXT-SHEET
 11
-118.92
 21
28.62
 31
0.0
100
AcDbText
 73
1
  0
ATTDEF
  5
93
330
7A
100
AcDbEntity
  8
0
100
AcDbText
 10
-118.92
 20
23.58
 30
0.0
 40
2.5
  1
-
  7
ASG-TEXT-SHEET
 11
-118.92
 21
23.58
 31
0.0
100
AcDbAttributeDefinition
  3
Checked by
  2
CHECKED_BY
 70
0
 74
1
280
1
 71
1
 72
0
 11
-118.92
 21
23.58
 31
0.0
  0
LINE
  5
94
330
7A
100
AcDbEntity
  8
0
100
AcDbLine
 10
-60.0
 20
22.5
 30
0.0
 11
-60.0
 21
31.5
 31
0.0
  0
TEXT
  5
95
330
7A
100
AcDbEntity
  8
0
100
AcDbText
 10
-58.92
 20
28.62
 30
0.0
 40
1.8
  1
APPROVED BY
  7
ASG-TEXT-SHEET
 11
-58.92
 21
28.62
 31
0.0
100
AcDbText
 73
1
  0
ATTDEF
  5
96
330
7A
100
AcDbEntity
  8
0
100
AcDbText
 10
-58.92
 20
23.58
 30
0.0
 40
2.5
  1
-
  7
ASG-TEXT-SHEET
 11
-58.92
 21
23.58
 31
0.0
100
AcDbAttributeDefinition
  3
Approved by
  2
APPROVED_BY
 70
0
 74
1
280
1
 71
1
 72
0
 11
-58.92
 21
23.58
 31
0.0
  0
LINE
  5
97
330
7A
100
AcDbEntity
  8
0
100
AcDbLine
 10
-180.0
 20
31.5
 30
0.0
 11
0.0
 21
31.5
 31
0.0
  0
TEXT
  5
98
330
7A
100
AcDbEntity
  8
0
100
AcDbText
 10
-178.92
 20
46.620000000000005
 30
0.0
 40
1.8
  1
DRAWING TITLE
  7
ASG-TEXT-SHEET
 11
-178.92
 21
46.620000000000005
 31
0.0
100
AcDbText
 73
1
  0
ATTDEF
  5
99
330
7A
100
AcDbEntity
  8
0
100
AcDbText
 10
-178.92
 20
38.7
 30
0.0
 40
5.0
  1
DRAWING TITLE
  7
ASG-TEXT-HEADING
 11
-178.92
 21
38.7
 31
0.0
100
AcDbAttributeDefinition
  3
Drawing title
  2
DWG_TITLE
 70
0
 74
1
280
1
 71
1
 72
0
 11
-178.92
 21
38.7
 31
0.0
  0
ATTDEF
  5
9A
330
7A
100
AcDbEntity
  8
0
100
AcDbText
 10
-178.92
 20
32.58
 30
0.0
 40
2.5
  1

  7
ASG-TEXT-TITLE
 11
-178.92
 21
32.58
 31
0.0
100
AcDbAttributeDefinition
  3
Drawing title - second line (optional)
  2
DWG_TITLE_2
 70
0
 74
1
280
1
 71
1
 72
0
 11
-178.92
 21
32.58
 31
0.0
  0
LINE
  5
9B
330
7A
100
AcDbEntity
  8
0
100
AcDbLine
 10
-180.0
 20
49.5
 30
0.0
 11
0.0
 21
49.5
 31
0.0
  0
TEXT
  5
9C
330
7A
100
AcDbEntity
  8
0
100
AcDbText
 10
-178.92
 20
55.620000000000005
 30
0.0
 40
1.8
  1
CLIENT
  7
ASG-TEXT-SHEET
 11
-178.92
 21
55.620000000000005
 31
0.0
100
AcDbText
 73
1
  0
ATTDEF
  5
9D
330
7A
100
AcDbEntity
  8
0
100
AcDbText
 10
-178.92
 20
50.58
 30
0.0
 40
2.5
  1
CLIENT
  7
ASG-TEXT-SHEET
 11
-178.92
 21
50.58
 31
0.0
100
AcDbAttributeDefinition
  3
Client
  2
CLIENT
 70
0
 74
1
280
1
 71
1
 72
0
 11
-178.92
 21
50.58
 31
0.0
  0
LINE
  5
9E
330
7A
100
AcDbEntity
  8
0
100
AcDbLine
 10
-90.0
 20
49.5
 30
0.0
 11
-90.0
 21
58.5
 31
0.0
  0
TEXT
  5
9F
330
7A
100
AcDbEntity
  8
0
100
AcDbText
 10
-88.92
 20
55.620000000000005
 30
0.0
 40
1.8
  1
CONSULTANT
  7
ASG-TEXT-SHEET
 11
-88.92
 21
55.620000000000005
 31
0.0
100
AcDbText
 73
1
  0
ATTDEF
  5
A0
330
7A
100
AcDbEntity
  8
0
100
AcDbText
 10
-88.92
 20
50.58
 30
0.0
 40
2.5
  1
CONSULTANT
  7
ASG-TEXT-SHEET
 11
-88.92
 21
50.58
 31
0.0
100
AcDbAttributeDefinition
  3
Consultant
  2
CONSULTANT
 70
0
 74
1
280
1
 71
1
 72
0
 11
-88.92
 21
50.58
 31
0.0
  0
LINE
  5
A1
330
7A
100
AcDbEntity
  8
0
100
AcDbLine
 10
-180.0
 20
58.5
 30
0.0
 11
0.0
 21
58.5
 31
0.0
  0
TEXT
  5
A2
330
7A
100
AcDbEntity
  8
0
100
AcDbText
 10
-178.92
 20
64.62
 30
0.0
 40
1.8
  1
PROJECT
  7
ASG-TEXT-SHEET
 11
-178.92
 21
64.62
 31
0.0
100
AcDbText
 73
1
  0
ATTDEF
  5
A3
330
7A
100
AcDbEntity
  8
0
100
AcDbText
 10
-178.92
 20
59.58
 30
0.0
 40
2.5
  1
PROJECT NAME
  7
ASG-TEXT-SHEET
 11
-178.92
 21
59.58
 31
0.0
100
AcDbAttributeDefinition
  3
Project
  2
PROJECT
 70
0
 74
1
280
1
 71
1
 72
0
 11
-178.92
 21
59.58
 31
0.0
  0
LINE
  5
A4
330
7A
100
AcDbEntity
  8
0
100
AcDbLine
 10
-90.0
 20
58.5
 30
0.0
 11
-90.0
 21
67.5
 31
0.0
  0
TEXT
  5
A5
330
7A
100
AcDbEntity
  8
0
100
AcDbText
 10
-88.92
 20
64.62
 30
0.0
 40
1.8
  1
LOCATION
  7
ASG-TEXT-SHEET
 11
-88.92
 21
64.62
 31
0.0
100
AcDbText
 73
1
  0
ATTDEF
  5
A6
330
7A
100
AcDbEntity
  8
0
100
AcDbText
 10
-88.92
 20
59.58
 30
0.0
 40
2.5
  1
LOCATION, UAE
  7
ASG-TEXT-SHEET
 11
-88.92
 21
59.58
 31
0.0
100
AcDbAttributeDefinition
  3
Location
  2
LOCATION
 70
0
 74
1
280
1
 71
1
 72
0
 11
-88.92
 21
59.58
 31
0.0
  0
LINE
  5
A7
330
7A
100
AcDbEntity
  8
0
100
AcDbLine
 10
-180.0
 20
67.5
 30
0.0
 11
0.0
 21
67.5
 31
0.0
  0
TEXT
  5
A8
330
7A
100
AcDbEntity
  8
0
100
AcDbText
 10
-178.92
 20
74.7
 30
0.0
 40
3.5
  1
SAEED AL SIRAJ GLASS & ALUMINIUM WORKS L.L.C.
  7
ASG-TEXT-HEADING
 11
-178.92
 21
74.7
 31
0.0
100
AcDbText
 73
1
  0
TEXT
  5
A9
330
7A
100
AcDbEntity
  8
0
100
AcDbText
 10
-178.92
 20
68.58
 30
0.0
 40
1.8
  1
AL SIRAJ GROUP  |  ALUMINIUM, GLASS & FACADE DIVISION  |  UNITED ARAB EMIRATES
  7
ASG-TEXT-SHEET
 11
-178.92
 21
68.58
 31
0.0
100
AcDbText
 73
1
  0
LWPOLYLINE
  5
AA
330
7A
100
AcDbEntity
  8
0
100
AcDbPolyline
 90
4
 70
1
 10
-180.0
 20
0.0
 10
0.0
 20
0.0
 10
0.0
 20
81.9
 10
-180.0
 20
81.9
  0
ENDBLK
  5
7C
330
7A
100
AcDbEntity
  8
0
100
AcDbBlockEnd
  0
BLOCK
  5
AC
330
AB
100
AcDbEntity
  8
0
100
AcDbBlockBegin
  2
*Paper_Space
 70
0
 10
0.0
 20
0.0
 30
0.0
  3
*Paper_Space
  1

  0
ENDBLK
  5
AD
330
AB
100
AcDbEntity
  8
0
100
AcDbBlockEnd
  0
BLOCK
  5
C7
330
C6
100
AcDbEntity
  8
0
100
AcDbBlockBegin
  2
*D1
 70
1
 10
0.0
 20
0.0
 30
0.0
  3
*D1
  1

  0
LINE
  5
C9
330
C6
100
AcDbEntity
  8
0
100
AcDbLine
 10
0.0
 20
-30.0
 30
0.0
 11
0.0
 21
-325.0
 31
0.0
  0
LINE
  5
CA
330
C6
100
AcDbEntity
  8
0
100
AcDbLine
 10
1200.0
 20
-30.0
 30
0.0
 11
1200.0
 21
-325.0
 31
0.0
  0
INSERT
  5
CF
330
C6
100
AcDbEntity
  8
ASG-DIMENSION
100
AcDbBlockReference
  2
_CLOSEDFILLED
 10
0.0
 20
-300.0
 30
0.0
 41
50.0
 42
50.0
 50
180.0
  0
INSERT
  5
D1
330
C6
100
AcDbEntity
  8
ASG-DIMENSION
100
AcDbBlockReference
  2
_CLOSEDFILLED
 10
1200.0
 20
-300.0
 30
0.0
 41
50.0
 42
50.0
  0
LINE
  5
D3
330
C6
100
AcDbEntity
  8
0
100
AcDbLine
 10
50.0
 20
-300.0
 30
0.0
 11
1150.0
 21
-300.0
 31
0.0
  0
MTEXT
  5
D4
330
C6
100
AcDbEntity
  8
ASG-DIMENSION
100
AcDbMText
 10
600.0
 20
-255.0
 30
0.0
 40
50.0
 71
5
  1
1200
  7
ASG-TEXT-ANNO
  0
POINT
  5
D5
330
C6
100
AcDbEntity
  8
Defpoints
100
AcDbPoint
 10
0.0
 20
-300.0
 30
0.0
  0
POINT
  5
D6
330
C6
100
AcDbEntity
  8
Defpoints
100
AcDbPoint
 10
0.0
 20
0.0
 30
0.0
  0
POINT
  5
D7
330
C6
100
AcDbEntity
  8
Defpoints
100
AcDbPoint
 10
1200.0
 20
0.0
 30
0.0
  0
ENDBLK
  5
C8
330
C6
100
AcDbEntity
  8
0
100
AcDbBlockEnd
  0
BLOCK
  5
CC
330
CB
100
AcDbEntity
  8
0
100
AcDbBlockBegin
  2
_CLOSEDFILLED
 70
0
 10
0.0
 20
0.0
 30
0.0
  3
_CLOSEDFILLED
  1

  0
SOLID
  5
CE
330
CB
100
AcDbEntity
  8
0
  6
BYBLOCK
 62
0
100
AcDbTrace
 10
-1.0
 20
0.16439898372402537
 30
0.0
 11
0.0
 21
0.0
 31
0.0
 12
-1.0
 22
-0.16439898372402537
 32
0.0
 13
-1.0
 23
-0.16439898372402537
 33
0.0
  0
ENDBLK
  5
CD
330
CB
100
AcDbEntity
  8
0
100
AcDbBlockEnd
  0
BLOCK
  5
DA
330
D9
100
AcDbEntity
  8
0
100
AcDbBlockBegin
  2
*D2
 70
1
 10
0.0
 20
0.0
 30
0.0
  3
*D2
  1

  0
LINE
  5
DC
330
D9
100
AcDbEntity
  8
0
100
AcDbLine
 10
-30.0
 20
0.0
 30
0.0
 11
-325.0
 21
0.0
 31
0.0
  0
LINE
  5
DD
330
D9
100
AcDbEntity
  8
0
100
AcDbLine
 10
-30.0
 20
2400.0
 30
0.0
 11
-325.0
 21
2400.0
 31
0.0
  0
INSERT
  5
DE
330
D9
100
AcDbEntity
  8
ASG-DIMENSION
100
AcDbBlockReference
  2
_CLOSEDFILLED
 10
-300.0
 20
0.0
 30
0.0
 41
50.0
 42
50.0
 50
270.0
  0
INSERT
  5
E0
330
D9
100
AcDbEntity
  8
ASG-DIMENSION
100
AcDbBlockReference
  2
_CLOSEDFILLED
 10
-300.0
 20
2400.0
 30
0.0
 41
50.0
 42
50.0
 50
90.0
  0
LINE
  5
E2
330
D9
100
AcDbEntity
  8
0
100
AcDbLine
 10
-300.0
 20
50.0
 30
0.0
 11
-300.0
 21
2350.0
 31
0.0
  0
MTEXT
  5
E3
330
D9
100
AcDbEntity
  8
ASG-DIMENSION
100
AcDbMText
 10
-345.0
 20
1200.0
 30
0.0
 40
50.0
 71
5
  1
2400
  7
ASG-TEXT-ANNO
 50
90.0
  0
POINT
  5
E4
330
D9
100
AcDbEntity
  8
Defpoints
100
AcDbPoint
 10
-300.0
 20
0.0
 30
0.0
  0
POINT
  5
E5
330
D9
100
AcDbEntity
  8
Defpoints
100
AcDbPoint
 10
0.0
 20
0.0
 30
0.0
  0
POINT
  5
E6
330
D9
100
AcDbEntity
  8
Defpoints
100
AcDbPoint
 10
0.0
 20
2400.0
 30
0.0
  0
ENDBLK
  5
DB
330
D9
100
AcDbEntity
  8
0
100
AcDbBlockEnd
  0
BLOCK
  5
EC
330
EB
100
AcDbEntity
  8
0
100
AcDbBlockBegin
  2
*D3
 70
1
 10
0.0
 20
0.0
 30
0.0
  3
*D3
  1

  0
LINE
  5
EE
330
EB
100
AcDbEntity
  8
0
100
AcDbLine
 10
5000.0
 20
-7.5
 30
0.0
 11
5000.0
 21
-31.25
 31
0.0
  0
LINE
  5
EF
330
EB
100
AcDbEntity
  8
0
100
AcDbLine
 10
5050.0
 20
-7.5
 30
0.0
 11
5050.0
 21
-31.25
 31
0.0
  0
INSERT
  5
F0
330
EB
100
AcDbEntity
  8
ASG-DIMENSION
100
AcDbBlockReference
  2
_CLOSEDFILLED
 10
5000.0
 20
-25.0
 30
0.0
 41
12.5
 42
12.5
 50
180.0
  0
INSERT
  5
F2
330
EB
100
AcDbEntity
  8
ASG-DIMENSION
100
AcDbBlockReference
  2
_CLOSEDFILLED
 10
5050.0
 20
-25.0
 30
0.0
 41
12.5
 42
12.5
  0
LINE
  5
F4
330
EB
100
AcDbEntity
  8
0
100
AcDbLine
 10
5012.5
 20
-25.0
 30
0.0
 11
5037.5
 21
-25.0
 31
0.0
  0
MTEXT
  5
F5
330
EB
100
AcDbEntity
  8
ASG-DIMENSION
100
AcDbMText
 10
5025.0
 20
-13.75
 30
0.0
 40
12.5
 71
5
  1
50.0
  7
ASG-TEXT-ANNO
  0
POINT
  5
F6
330
EB
100
AcDbEntity
  8
Defpoints
100
AcDbPoint
 10
5000.0
 20
-25.0
 30
0.0
  0
POINT
  5
F7
330
EB
100
AcDbEntity
  8
Defpoints
100
AcDbPoint
 10
5000.0
 20
0.0
 30
0.0
  0
POINT
  5
F8
330
EB
100
AcDbEntity
  8
Defpoints
100
AcDbPoint
 10
5050.0
 20
0.0
 30
0.0
  0
ENDBLK
  5
ED
330
EB
100
AcDbEntity
  8
0
100
AcDbBlockEnd
  0
BLOCK
  5
FD
330
FC
100
AcDbEntity
  8
0
100
AcDbBlockBegin
  2
*D4
 70
1
 10
0.0
 20
0.0
 30
0.0
  3
*D4
  1

  0
LINE
  5
FF
330
FC
100
AcDbEntity
  8
0
100
AcDbLine
 10
5232.5
 20
0.0
 30
0.0
 11
5233.75
 21
0.0
 31
0.0
  0
LINE
  5
100
330
FC
100
AcDbEntity
  8
0
100
AcDbLine
 10
5221.4470958122165
 20
41.25000000000001
 30
0.0
 11
5222.529627566946
 21
41.87499999999967
 31
0.0
  0
INSERT
  5
101
330
FC
100
AcDbEntity
  8
ASG-DIMENSION
100
AcDbBlockReference
  2
_CLOSEDFILLED
 10
5240.0
 20
0.0
 30
0.0
 41
12.5
 42
12.5
 50
446.0211264227026
  0
INSERT
  5
103
330
FC
100
AcDbEntity
  8
ASG-DIMENSION
100
AcDbBlockReference
  2
_CLOSEDFILLED
 10
5227.942286340599
 20
44.99999999999966
 30
0.0
 41
12.5
 42
12.5
 50
303.9788735772973
  0
MTEXT
  5
105
330
FC
100
AcDbEntity
  8
ASG-DIMENSION
100
AcDbMText
 10
5253.837026326075
 20
27.82304734852078
 30
0.0
 40
12.5
 71
5
  1
30.00°
  7
ASG-TEXT-ANNO
 50
-75.00000000000006
  0
ARC
  5
106
330
FC
100
AcDbEntity
  8
ASG-DIMENSION
100
AcDbCircle
 10
5150.0
 20
0.0
 30
0.0
 40
89.99999999999963
100
AcDbArc
 50
0.0
 51
29.999999999999883
  0
ARC
  5
107
330
FC
100
AcDbEntity
  8
ASG-DIMENSION
100
AcDbCircle
 10
5150.0
 20
0.0
 30
0.0
 40
89.99999999999963
100
AcDbArc
 50
-15.915494309189599
 51
-7.9577471545947995
  0
ARC
  5
108
330
FC
100
AcDbEntity
  8
ASG-DIMENSION
100
AcDbCircle
 10
5150.0
 20
0.0
 30
0.0
 40
89.99999999999963
100
AcDbArc
 50
37.95774715459468
 51
45.915494309189484
  0
POINT
  5
109
330
FC
100
AcDbEntity
  8
Defpoints
100
AcDbPoint
 10
5236.933324366016
 20
23.293714059226865
 30
0.0
  0
POINT
  5
10A
330
FC
100
AcDbEntity
  8
Defpoints
100
AcDbPoint
 10
5240.0
 20
0.0
 30
0.0
  0
POINT
  5
10B
330
FC
100
AcDbEntity
  8
Defpoints
100
AcDbPoint
 10
5227.9422863406
 20
44.99999999999999
 30
0.0
  0
POINT
  5
10C
330
FC
100
AcDbEntity
  8
Defpoints
100
AcDbPoint
 10
5150.0
 20
0.0
 30
0.0
  0
ENDBLK
  5
FE
330
FC
100
AcDbEntity
  8
0
100
AcDbBlockEnd
  0
BLOCK
  5
110
330
10F
100
AcDbEntity
  8
0
100
AcDbBlockBegin
  2
*D5
 70
1
 10
0.0
 20
0.0
 30
0.0
  3
*D5
  1

  0
INSERT
  5
112
330
10F
100
AcDbEntity
  8
ASG-DIMENSION
100
AcDbBlockReference
  2
_CLOSEDFILLED
 10
5128.284271247462
 20
228.2842712474619
 30
0.0
 41
12.5
 42
12.5
 50
224.99999999999977
  0
LINE
  5
114
330
10F
100
AcDbEntity
  8
0
100
AcDbLine
 10
5100.0
 20
200.0
 30
0.0
 11
5128.284271247462
 21
228.2842712474619
 31
0.0
  0
LINE
  5
115
330
10F
100
AcDbEntity
  8
0
100
AcDbLine
 10
5137.123106012294
 20
237.1231060122937
 30
0.0
 11
5167.175144212722
 21
267.1751442127219
 31
0.0
  0
MTEXT
  5
116
330
10F
100
AcDbEntity
  8
ASG-DIMENSION
100
AcDbMText
 10
5145.961940777126
 20
261.87184335382284
 30
0.0
 40
12.5
 71
5
  1
R40
  7
ASG-TEXT-ANNO
 50
44.99999999999977
  0
POINT
  5
117
330
10F
100
AcDbEntity
  8
Defpoints
100
AcDbPoint
 10
5100.0
 20
200.0
 30
0.0
  0
POINT
  5
118
330
10F
100
AcDbEntity
  8
Defpoints
100
AcDbPoint
 10
5128.284271247462
 20
228.2842712474619
 30
0.0
  0
ENDBLK
  5
111
330
10F
100
AcDbEntity
  8
0
100
AcDbBlockEnd
  0
BLOCK
  5
11B
330
11A
100
AcDbEntity
  8
0
100
AcDbBlockBegin
  2
*D6
 70
1
 10
0.0
 20
0.0
 30
0.0
  3
*D6
  1

  0
INSERT
  5
11D
330
11A
100
AcDbEntity
  8
ASG-DIMENSION
100
AcDbBlockReference
  2
_CLOSEDFILLED
 10
5137.587704831436
 20
213.68080573302674
 30
0.0
 41
12.5
 42
12.5
 50
200.00000000000017
  0
INSERT
  5
11F
330
11A
100
AcDbEntity
  8
ASG-DIMENSION
100
AcDbBlockReference
  2
_CLOSEDFILLED
 10
5062.412295168564
 20
186.31919426697326
 30
0.0
 41
12.5
 42
12.5
 50
200.00000000000017
  0
LINE
  5
121
330
11A
100
AcDbEntity
  8
0
100
AcDbLine
 10
5149.33386259126
 20
217.95605752459764
 30
0.0
 11
5074.158452928388
 21
190.59444605854415
 31
0.0
  0
LINE
  5
122
330
11A
100
AcDbEntity
  8
0
100
AcDbLine
 10
5149.33386259126
 20
217.95605752459764
 30
0.0
 11
5189.270798974661
 21
232.49191361593867
 31
0.0
  0
MTEXT
  5
123
330
11A
100
AcDbEntity
  8
ASG-DIMENSION
100
AcDbMText
 10
5167.803835722511
 20
236.65057791242378
 30
0.0
 40
12.5
 71
5
  1
%%c80
  7
ASG-TEXT-ANNO
 50
20.000000000000163
  0
POINT
  5
124
330
11A
100
AcDbEntity
  8
Defpoints
100
AcDbPoint
 10
5100.0
 20
200.0
 30
0.0
  0
POINT
  5
125
330
11A
100
AcDbEntity
  8
Defpoints
100
AcDbPoint
 10
5137.587704831436
 20
213.68080573302674
 30
0.0
  0
ENDBLK
  5
11C
330
11A
100
AcDbEntity
  8
0
100
AcDbBlockEnd
  0
ENDSEC
  0
SECTION
  2
ENTITIES
  0
LWPOLYLINE
  5
C4
330
17
100
AcDbEntity
  8
ASG-OUTLINE-PRIMARY
100
AcDbPolyline
 90
4
 70
1
 10
0.0
 20
0.0
 10
1200.0
 20
0.0
 10
1200.0
 20
2400.0
 10
0.0
 20
2400.0
  0
DIMENSION
  5
C5
330
17
100
AcDbEntity
  8
ASG-DIMENSION
100
AcDbDimension
280
0
  2
*D1
  3
ASG-DIM-FIXED
 10
0.0
 20
-300.0
 30
0.0
 11
600.0
 21
-255.0
 31
0.0
 70
32
 71
5
  1
<>
100
AcDbAlignedDimension
 13
0.0
 23
0.0
 33
0.0
 14
1200.0
 24
0.0
 34
0.0
 50
0.0
100
AcDbRotatedDimension
1001
ACAD
1000
DSTYLE
1002
{
1070
40
1040
20.0
1002
}
  0
DIMENSION
  5
D8
330
17
100
AcDbEntity
  8
ASG-DIMENSION
100
AcDbDimension
280
0
  2
*D2
  3
ASG-DIM-FIXED
 10
-300.0
 20
0.0
 30
0.0
 11
-345.0
 21
1200.0
 31
0.0
 70
32
 71
5
  1
<>
100
AcDbAlignedDimension
 13
0.0
 23
0.0
 33
0.0
 14
0.0
 24
2400.0
 34
0.0
 50
90.0
100
AcDbRotatedDimension
1001
ACAD
1000
DSTYLE
1002
{
1070
40
1040
20.0
1002
}
  0
TEXT
  5
E7
330
17
100
AcDbEntity
  8
ASG-TEXT-NOTE
100
AcDbText
 10
0.0
 20
2550.0
 30
0.0
 40
50.0
  1
TEXT 2.5 @1:20
  7
ASG-TEXT-NOTE
 11
0.0
 21
2550.0
 31
0.0
100
AcDbText
  0
LWPOLYLINE
  5
E8
330
17
100
AcDbEntity
  8
ASG-SECTION-CUT
100
AcDbPolyline
 90
4
 70
1
 10
5000.0
 20
0.0
 10
5050.0
 20
0.0
 10
5050.0
 20
100.0
 10
5000.0
 20
100.0
  0
HATCH
  5
E9
330
17
100
AcDbEntity
  8
ASG-HATCH-FILL
100
AcDbHatch
 10
0.0
 20
0.0
 30
0.0
210
0.0
220
0.0
230
1.0
  2
SOLID
 70
1
 71
0
 91
1
 92
3
 72
0
 73
1
 93
4
 10
5000.0
 20
0.0
 10
5050.0
 20
0.0
 10
5050.0
 20
100.0
 10
5000.0
 20
100.0
 97
0
 75
1
 76
1
 98
0
  0
DIMENSION
  5
EA
330
17
100
AcDbEntity
  8
ASG-DIMENSION
100
AcDbDimension
280
0
  2
*D3
  3
ASG-DIM-DETAIL
 10
5000.0
 20
-25.0
 30
0.0
 11
5025.0
 21
-13.75
 31
0.0
 70
32
 71
5
  1
<>
100
AcDbAlignedDimension
 13
5000.0
 23
0.0
 33
0.0
 14
5050.0
 24
0.0
 34
0.0
 50
0.0
100
AcDbRotatedDimension
1001
ACAD
1000
DSTYLE
1002
{
1070
40
1040
5.0
1002
}
  0
LINE
  5
F9
330
17
100
AcDbEntity
  8
ASG-OUTLINE-SECONDARY
100
AcDbLine
 10
5150.0
 20
0.0
 30
0.0
 11
5270.0
 21
0.0
 31
0.0
  0
LINE
  5
FA
330
17
100
AcDbEntity
  8
ASG-OUTLINE-SECONDARY
100
AcDbLine
 10
5150.0
 20
0.0
 30
0.0
 11
5253.923048454133
 21
59.99999999999999
 31
0.0
  0
DIMENSION
  5
FB
330
17
100
AcDbEntity
  8
ASG-DIMENSION
100
AcDbDimension
280
0
  2
*D4
  3
ASG-DIM-ANGULAR
 10
5236.933324366016
 20
23.293714059226865
 30
0.0
 11
5253.837026326075
 21
27.82304734852078
 31
0.0
 70
37
 71
5
  1
<>
100
AcDb3PointAngularDimension
 13
5240.0
 23
0.0
 33
0.0
 14
5227.9422863406
 24
44.99999999999999
 34
0.0
 15
5150.0
 25
0.0
 35
0.0
 16
0.0
 26
0.0
 36
0.0
1001
ACAD
1000
DSTYLE
1002
{
1070
40
1040
5.0
1002
}
  0
CIRCLE
  5
10D
330
17
100
AcDbEntity
  8
ASG-OUTLINE-SECONDARY
100
AcDbCircle
 10
5100.0
 20
200.0
 30
0.0
 40
40.0
  0
DIMENSION
  5
10E
330
17
100
AcDbEntity
  8
ASG-DIMENSION
100
AcDbDimension
280
0
  2
*D5
  3
ASG-DIM-RADIUS
 10
5100.0
 20
200.0
 30
0.0
 11
5145.961940777126
 21
261.87184335382284
 31
0.0
 70
36
 71
5
  1
<>
100
AcDbRadialDimension
 15
5128.284271247462
 25
228.2842712474619
 35
0.0
1001
ACAD
1000
DSTYLE
1002
{
1070
40
1040
5.0
1002
}
  0
DIMENSION
  5
119
330
17
100
AcDbEntity
  8
ASG-DIMENSION
100
AcDbDimension
280
0
  2
*D6
  3
ASG-DIM-DIAMETER
 10
5062.412295168564
 20
186.31919426697326
 30
0.0
 11
5167.803835722511
 21
236.65057791242378
 31
0.0
 70
35
 71
5
  1
<>
100
AcDbDiametricDimension
 15
5137.587704831436
 25
213.68080573302674
 35
0.0
1001
ACAD
1000
DSTYLE
1002
{
1070
40
1040
5.0
1002
}
  0
LINE
  5
126
330
17
100
AcDbEntity
  8
ASG-CONSTRUCTION
100
AcDbLine
 10
0.0
 20
0.0
 30
0.0
 11
1200.0
 21
2400.0
 31
0.0
  0
TEXT
  5
127
330
17
100
AcDbEntity
  8
ASG-NOPLOT
100
AcDbText
 10
300.0
 20
1200.0
 30
0.0
 40
100.0
  1
NOPLOT
 11
300.0
 21
1200.0
 31
0.0
100
AcDbText
  0
VIEWPORT
  5
AF
330
AB
100
AcDbEntity
 67
1
  8
VIEWPORTS
100
AcDbViewport
 10
210.0
 20
148.5
 30
0.0
 40
462.00000000000006
 41
326.70000000000005
 68
1
 69
1
 12
210.0
 22
148.5
 13
0.0
 23
0.0
 14
10.0
 24
10.0
 15
10.0
 25
10.0
 16
0.0
 26
0.0
 36
1.0
 17
0.0
 27
0.0
 37
0.0
 42
50.0
 43
0.0
 44
0.0
 45
326.70000000000005
 50
0.0
 51
0.0
 72
100
 90
557088
  1

281
0
 71
0
 74
0
110
0.0
120
0.0
130
0.0
111
1.0
121
0.0
131
0.0
112
0.0
122
1.0
132
0.0
 79
0
146
0.0
282
0
  0
LWPOLYLINE
  5
B0
330
AB
100
AcDbEntity
 67
1
  8
ASG-BORDER
100
AcDbPolyline
 90
4
 70
1
 10
20.0
 20
10.0
 10
410.0
 20
10.0
 10
410.0
 20
287.0
 10
20.0
 20
287.0
  0
INSERT
  5
B1
330
AB
100
AcDbEntity
 67
1
  8
ASG-TITLEBLOCK
100
AcDbBlockReference
 66
1
  2
ASG-TB-A3
 10
410.0
 20
10.0
 30
0.0
  0
ATTRIB
  5
B3
330
AB
100
AcDbEntity
 67
1
  8
0
100
AcDbText
 10
231.08
 20
11.08
 30
0.0
 40
3.5
  1
AS-YYYY-NNN-DIS-TYP-001
  7
ASG-TEXT-HEADING
 11
231.08
 21
11.08
 31
0.0
100
AcDbAttribute
  2
DWG_NO
 70
0
 74
1
280
1
 71
1
 72
0
 11
231.08
 21
11.08
 31
0.0
  0
ATTRIB
  5
B4
330
AB
100
AcDbEntity
 67
1
  8
0
100
AcDbText
 10
339.08
 20
11.08
 30
0.0
 40
3.5
  1
R0
  7
ASG-TEXT-HEADING
 11
339.08
 21
11.08
 31
0.0
100
AcDbAttribute
  2
REV
 70
0
 74
1
280
1
 71
1
 72
0
 11
339.08
 21
11.08
 31
0.0
  0
ATTRIB
  5
B5
330
AB
100
AcDbEntity
 67
1
  8
0
100
AcDbText
 10
366.08
 20
11.08
 30
0.0
 40
2.5
  1
01 OF 01
  7
ASG-TEXT-SHEET
 11
366.08
 21
11.08
 31
0.0
100
AcDbAttribute
  2
SHEET_NO
 70
0
 74
1
280
1
 71
1
 72
0
 11
366.08
 21
11.08
 31
0.0
  0
ATTRIB
  5
B6
330
AB
100
AcDbEntity
 67
1
  8
0
100
AcDbText
 10
231.08
 20
24.58
 30
0.0
 40
2.5
  1
AS SHOWN
  7
ASG-TEXT-SHEET
 11
231.08
 21
24.58
 31
0.0
100
AcDbAttribute
  2
SCALE
 70
0
 74
1
280
1
 71
1
 72
0
 11
231.08
 21
24.58
 31
0.0
  0
ATTRIB
  5
B7
330
AB
100
AcDbEntity
 67
1
  8
0
100
AcDbText
 10
291.08
 20
24.58
 30
0.0
 40
2.5
  1
DD.MM.YYYY
  7
ASG-TEXT-SHEET
 11
291.08
 21
24.58
 31
0.0
100
AcDbAttribute
  2
DATE
 70
0
 74
1
280
1
 71
1
 72
0
 11
291.08
 21
24.58
 31
0.0
  0
ATTRIB
  5
B8
330
AB
100
AcDbEntity
 67
1
  8
0
100
AcDbText
 10
351.08
 20
24.58
 30
0.0
 40
2.5
  1
PRELIMINARY
  7
ASG-TEXT-SHEET
 11
351.08
 21
24.58
 31
0.0
100
AcDbAttribute
  2
DWG_STATUS
 70
0
 74
1
280
1
 71
1
 72
0
 11
351.08
 21
24.58
 31
0.0
  0
ATTRIB
  5
B9
330
AB
100
AcDbEntity
 67
1
  8
0
100
AcDbText
 10
231.08
 20
33.58
 30
0.0
 40
2.5
  1
-
  7
ASG-TEXT-SHEET
 11
231.08
 21
33.58
 31
0.0
100
AcDbAttribute
  2
DRAWN_BY
 70
0
 74
1
280
1
 71
1
 72
0
 11
231.08
 21
33.58
 31
0.0
  0
ATTRIB
  5
BA
330
AB
100
AcDbEntity
 67
1
  8
0
100
AcDbText
 10
291.08
 20
33.58
 30
0.0
 40
2.5
  1
-
  7
ASG-TEXT-SHEET
 11
291.08
 21
33.58
 31
0.0
100
AcDbAttribute
  2
CHECKED_BY
 70
0
 74
1
280
1
 71
1
 72
0
 11
291.08
 21
33.58
 31
0.0
  0
ATTRIB
  5
BB
330
AB
100
AcDbEntity
 67
1
  8
0
100
AcDbText
 10
351.08
 20
33.58
 30
0.0
 40
2.5
  1
-
  7
ASG-TEXT-SHEET
 11
351.08
 21
33.58
 31
0.0
100
AcDbAttribute
  2
APPROVED_BY
 70
0
 74
1
280
1
 71
1
 72
0
 11
351.08
 21
33.58
 31
0.0
  0
ATTRIB
  5
BC
330
AB
100
AcDbEntity
 67
1
  8
0
100
AcDbText
 10
231.08
 20
48.7
 30
0.0
 40
5.0
  1
DRAWING TITLE
  7
ASG-TEXT-HEADING
 11
231.08
 21
48.7
 31
0.0
100
AcDbAttribute
  2
DWG_TITLE
 70
0
 74
1
280
1
 71
1
 72
0
 11
231.08
 21
48.7
 31
0.0
  0
ATTRIB
  5
BD
330
AB
100
AcDbEntity
 67
1
  8
0
100
AcDbText
 10
231.08
 20
42.58
 30
0.0
 40
2.5
  1

  7
ASG-TEXT-TITLE
 11
231.08
 21
42.58
 31
0.0
100
AcDbAttribute
  2
DWG_TITLE_2
 70
0
 74
1
280
1
 71
1
 72
0
 11
231.08
 21
42.58
 31
0.0
  0
ATTRIB
  5
BE
330
AB
100
AcDbEntity
 67
1
  8
0
100
AcDbText
 10
231.08
 20
60.58
 30
0.0
 40
2.5
  1
CLIENT
  7
ASG-TEXT-SHEET
 11
231.08
 21
60.58
 31
0.0
100
AcDbAttribute
  2
CLIENT
 70
0
 74
1
280
1
 71
1
 72
0
 11
231.08
 21
60.58
 31
0.0
  0
ATTRIB
  5
BF
330
AB
100
AcDbEntity
 67
1
  8
0
100
AcDbText
 10
321.08
 20
60.58
 30
0.0
 40
2.5
  1
CONSULTANT
  7
ASG-TEXT-SHEET
 11
321.08
 21
60.58
 31
0.0
100
AcDbAttribute
  2
CONSULTANT
 70
0
 74
1
280
1
 71
1
 72
0
 11
321.08
 21
60.58
 31
0.0
  0
ATTRIB
  5
C0
330
AB
100
AcDbEntity
 67
1
  8
0
100
AcDbText
 10
231.08
 20
69.58
 30
0.0
 40
2.5
  1
PROJECT NAME
  7
ASG-TEXT-SHEET
 11
231.08
 21
69.58
 31
0.0
100
AcDbAttribute
  2
PROJECT
 70
0
 74
1
280
1
 71
1
 72
0
 11
231.08
 21
69.58
 31
0.0
  0
ATTRIB
  5
C1
330
AB
100
AcDbEntity
 67
1
  8
0
100
AcDbText
 10
321.08
 20
69.58
 30
0.0
 40
2.5
  1
LOCATION, UAE
  7
ASG-TEXT-SHEET
 11
321.08
 21
69.58
 31
0.0
100
AcDbAttribute
  2
LOCATION
 70
0
 74
1
280
1
 71
1
 72
0
 11
321.08
 21
69.58
 31
0.0
  0
SEQEND
  5
B2
330
B1
100
AcDbEntity
 67
1
  8
ASG-TITLEBLOCK
  0
VIEWPORT
  5
128
330
AB
100
AcDbEntity
 67
1
  8
ASG-VIEWPORT
100
AcDbViewport
 10
75.0
 20
148.5
 30
0.0
 40
100.0
 41
267.0
 68
2
 69
3
 12
450.0
 22
1100.0
 13
0.0
 23
0.0
 14
10.0
 24
10.0
 15
10.0
 25
10.0
 16
0.0
 26
0.0
 36
1.0
 17
0.0
 27
0.0
 37
0.0
 42
50.0
 43
0.0
 44
0.0
 45
5340.0
 50
0.0
 51
0.0
 72
100
 90
16384
  1

281
0
 71
0
 74
0
110
0.0
120
0.0
130
0.0
111
1.0
121
0.0
131
0.0
112
0.0
122
1.0
132
0.0
 79
0
146
0.0
282
0
  0
VIEWPORT
  5
129
330
AB
100
AcDbEntity
 67
1
  8
ASG-VIEWPORT
100
AcDbViewport
 10
177.5
 20
77.5
 30
0.0
 40
95.0
 41
125.0
 68
2
 69
4
 12
5120.0
 22
120.0
 13
0.0
 23
0.0
 14
10.0
 24
10.0
 15
10.0
 25
10.0
 16
0.0
 26
0.0
 36
1.0
 17
0.0
 27
0.0
 37
0.0
 42
50.0
 43
0.0
 44
0.0
 45
625.0
 50
0.0
 51
0.0
 72
100
 90
16384
  1

281
0
 71
0
 74
0
110
0.0
120
0.0
130
0.0
111
1.0
121
0.0
131
0.0
112
0.0
122
1.0
132
0.0
 79
0
146
0.0
282
0
  0
LINE
  5
12A
330
AB
100
AcDbEntity
 67
1
  8
ASG-SECTION-CUT
100
AcDbLine
 10
230.0
 20
250.0
 30
0.0
 11
300.0
 21
250.0
 31
0.0
  0
TEXT
  5
12B
330
AB
100
AcDbEntity
 67
1
  8
ASG-TEXT
100
AcDbText
 10
303.0
 20
249.0
 30
0.0
 40
1.8
  1
0.50 Extra heavy - ASG-SECTION-CUT
  7
ASG-TEXT-SHEET
 11
303.0
 21
249.0
 31
0.0
100
AcDbText
 73
1
  0
LINE
  5
12C
330
AB
100
AcDbEntity
 67
1
  8
ASG-OUTLINE-PRIMARY
100
AcDbLine
 10
230.0
 20
241.0
 30
0.0
 11
300.0
 21
241.0
 31
0.0
  0
TEXT
  5
12D
330
AB
100
AcDbEntity
 67
1
  8
ASG-TEXT
100
AcDbText
 10
303.0
 20
240.0
 30
0.0
 40
1.8
  1
0.35 Heavy - ASG-OUTLINE-PRIMARY
  7
ASG-TEXT-SHEET
 11
303.0
 21
240.0
 31
0.0
100
AcDbText
 73
1
  0
LINE
  5
12E
330
AB
100
AcDbEntity
 67
1
  8
ASG-ALUMINIUM-PROFILE
100
AcDbLine
 10
230.0
 20
232.0
 30
0.0
 11
300.0
 21
232.0
 31
0.0
  0
TEXT
  5
12F
330
AB
100
AcDbEntity
 67
1
  8
ASG-TEXT
100
AcDbText
 10
303.0
 20
231.0
 30
0.0
 40
1.8
  1
0.25 Medium - ASG-ALUMINIUM-PROFILE
  7
ASG-TEXT-SHEET
 11
303.0
 21
231.0
 31
0.0
100
AcDbText
 73
1
  0
LINE
  5
130
330
AB
100
AcDbEntity
 67
1
  8
ASG-OUTLINE-SECONDARY
100
AcDbLine
 10
230.0
 20
223.0
 30
0.0
 11
300.0
 21
223.0
 31
0.0
  0
TEXT
  5
131
330
AB
100
AcDbEntity
 67
1
  8
ASG-TEXT
100
AcDbText
 10
303.0
 20
222.0
 30
0.0
 40
1.8
  1
0.18 Light - ASG-OUTLINE-SECONDARY
  7
ASG-TEXT-SHEET
 11
303.0
 21
222.0
 31
0.0
100
AcDbText
 73
1
  0
LINE
  5
132
330
AB
100
AcDbEntity
 67
1
  8
ASG-GASKET
100
AcDbLine
 10
230.0
 20
214.0
 30
0.0
 11
300.0
 21
214.0
 31
0.0
  0
TEXT
  5
133
330
AB
100
AcDbEntity
 67
1
  8
ASG-TEXT
100
AcDbText
 10
303.0
 20
213.0
 30
0.0
 40
1.8
  1
0.13 Fine - ASG-GASKET
  7
ASG-TEXT-SHEET
 11
303.0
 21
213.0
 31
0.0
100
AcDbText
 73
1
  0
LINE
  5
134
330
AB
100
AcDbEntity
 67
1
  8
ASG-HATCH
100
AcDbLine
 10
230.0
 20
205.0
 30
0.0
 11
300.0
 21
205.0
 31
0.0
  0
TEXT
  5
135
330
AB
100
AcDbEntity
 67
1
  8
ASG-TEXT
100
AcDbText
 10
303.0
 20
204.0
 30
0.0
 40
1.8
  1
0.09 Hatch - ASG-HATCH
  7
ASG-TEXT-SHEET
 11
303.0
 21
204.0
 31
0.0
100
AcDbText
 73
1
  0
TEXT
  5
136
330
AB
100
AcDbEntity
 67
1
  8
ASG-TEXT
100
AcDbText
 10
230.0
 20
170.0
 30
0.0
 40
2.5
  1
2.5 mm General dimensions
  7
ASG-TEXT-ANNO
 11
230.0
 21
170.0
 31
0.0
100
AcDbText
 73
1
  0
TEXT
  5
137
330
AB
100
AcDbEntity
 67
1
  8
ASG-TEXT
100
AcDbText
 10
230.0
 20
165.0
 30
0.0
 40
2.5
  1
2.5 mm Technical notes
  7
ASG-TEXT-NOTE
 11
230.0
 21
165.0
 31
0.0
100
AcDbText
 73
1
  0
TEXT
  5
138
330
AB
100
AcDbEntity
 67
1
  8
ASG-TEXT
100
AcDbText
 10
230.0
 20
160.0
 30
0.0
 40
2.5
  1
2.5 mm Material labels
  7
ASG-TEXT-NOTE
 11
230.0
 21
160.0
 31
0.0
100
AcDbText
 73
1
  0
TEXT
  5
139
330
AB
100
AcDbEntity
 67
1
  8
ASG-TEXT
100
AcDbText
 10
230.0
 20
155.7
 30
0.0
 40
1.8
  1
1.8 mm Small detail notes
  7
ASG-TEXT-SMALL
 11
230.0
 21
155.7
 31
0.0
100
AcDbText
 73
1
  0
TEXT
  5
13A
330
AB
100
AcDbEntity
 67
1
  8
ASG-TEXT
100
AcDbText
 10
230.0
 20
149.7
 30
0.0
 40
3.5
  1
3.5 mm Detail titles
  7
ASG-TEXT-TITLE
 11
230.0
 21
149.7
 31
0.0
100
AcDbText
 73
1
  0
TEXT
  5
13B
330
AB
100
AcDbEntity
 67
1
  8
ASG-TEXT
100
AcDbText
 10
230.0
 20
142.2
 30
0.0
 40
5.0
  1
5.0 mm Drawing titles
  7
ASG-TEXT-HEADING
 11
230.0
 21
142.2
 31
0.0
100
AcDbText
 73
1
  0
TEXT
  5
13C
330
AB
100
AcDbEntity
 67
1
  8
ASG-TEXT
100
AcDbText
 10
230.0
 20
132.7
 30
0.0
 40
7.0
  1
7.0 mm Sheet headings
  7
ASG-TEXT-HEADING
 11
230.0
 21
132.7
 31
0.0
100
AcDbText
 73
1
  0
ENDSEC
  0
SECTION
  2
OBJECTS
  0
DICTIONARY
  5
A
330
0
100
AcDbDictionary
281
1
  3
ACAD_COLOR
350
B
  3
ACAD_GROUP
350
C
  3
ACAD_LAYOUT
350
D
  3
ACAD_MATERIAL
350
E
  3
ACAD_MLEADERSTYLE
350
F
  3
ACAD_MLINESTYLE
350
10
  3
ACAD_PLOTSETTINGS
350
11
  3
ACAD_PLOTSTYLENAME
350
12
  3
ACAD_SCALELIST
350
14
  3
ACAD_TABLESTYLE
350
15
  3
ACAD_VISUALSTYLE
350
16
  3
EZDXF_META
350
2D
  0
DICTIONARY
  5
B
330
A
100
AcDbDictionary
281
1
  0
DICTIONARY
  5
C
330
A
100
AcDbDictionary
281
1
  0
DICTIONARY
  5
D
330
A
100
AcDbDictionary
281
1
  3
Model
350
1A
  3
A3-LANDSCAPE
350
AE
  0
DICTIONARY
  5
E
330
A
100
AcDbDictionary
281
1
  3
ByBlock
350
1F
  3
ByLayer
350
20
  3
Global
350
21
  0
DICTIONARY
  5
F
330
A
100
AcDbDictionary
281
1
  3
Standard
350
2C
  3
ASG-ML-ANNO
350
6A
  3
ASG-ML-NOTE
350
6B
  3
ASG-ML-DETAIL
350
6C
  3
ASG-ML-REFERENCE
350
72
  0
DICTIONARY
  5
10
330
A
100
AcDbDictionary
281
1
  3
Standard
350
22
  3
ASG-MLINE-2
350
78
  3
ASG-MLINE-3
350
79
  0
DICTIONARY
  5
11
330
A
100
AcDbDictionary
281
1
  0
ACDBDICTIONARYWDFLT
  5
12
330
A
100
AcDbDictionary
281
1
  3
Normal
350
13
100
AcDbDictionaryWithDefault
340
13
  0
ACDBPLACEHOLDER
  5
13
330
12
  0
DICTIONARY
  5
14
330
A
100
AcDbDictionary
281
1
  3
A0
350
140
  3
A1
350
141
  3
A2
350
142
  3
A3
350
143
  3
A4
350
144
  3
A5
350
145
  3
A6
350
146
  3
A7
350
147
  0
DICTIONARY
  5
15
330
A
100
AcDbDictionary
281
1
  0
DICTIONARY
  5
16
330
A
100
AcDbDictionary
281
1
  0
LAYOUT
  5
1A
330
D
100
AcDbPlotSettings
  1

  4
A3
  6

 40
7.5
 41
20.0
 42
7.5
 43
20.0
 44
420.0
 45
297.0
 46
0.0
 47
0.0
 48
0.0
 49
0.0
140
0.0
141
0.0
142
1.0
143
1.0
 70
1024
 72
1
 73
0
 74
5
  7

 75
16
 76
0
 77
2
 78
300
147
1.0
148
0.0
149
0.0
100
AcDbLayout
  1
Model
 70
1
 71
0
 10
0.0
 20
0.0
 11
200000.0
 21
150000.0
 12
0.0
 22
0.0
 32
0.0
 14
1e+20
 24
1e+20
 34
1e+20
 15
-1e+20
 25
-1e+20
 35
-1e+20
146
0.0
 13
0.0
 23
0.0
 33
0.0
 16
1.0
 26
0.0
 36
0.0
 17
0.0
 27
1.0
 37
0.0
 76
1
330
17
  0
MATERIAL
  5
1F
102
{ACAD_REACTORS
330
E
102
}
330
E
100
AcDbMaterial
  1
ByBlock
  2

 70
0
 40
1.0
 71
1
 41
1.0
 91
-1023410177
 42
1.0
 72
1
  3

 73
1
 74
1
 75
1
 44
0.5
 73
0
 45
1.0
 46
1.0
 77
1
  4

 78
1
 79
1
170
1
 48
1.0
171
1
  6

172
1
173
1
174
1
140
1.0
141
1.0
175
1
  7

176
1
177
1
178
1
143
1.0
179
1
  8

270
1
271
1
272
1
145
1.0
146
1.0
273
1
  9

274
1
275
1
276
1
 42
1.0
 72
1
  3

 73
1
 74
1
 75
1
 94
63
  0
MATERIAL
  5
20
102
{ACAD_REACTORS
330
E
102
}
330
E
100
AcDbMaterial
  1
ByLayer
  2

 70
0
 40
1.0
 71
1
 41
1.0
 91
-1023410177
 42
1.0
 72
1
  3

 73
1
 74
1
 75
1
 44
0.5
 73
0
 45
1.0
 46
1.0
 77
1
  4

 78
1
 79
1
170
1
 48
1.0
171
1
  6

172
1
173
1
174
1
140
1.0
141
1.0
175
1
  7

176
1
177
1
178
1
143
1.0
179
1
  8

270
1
271
1
272
1
145
1.0
146
1.0
273
1
  9

274
1
275
1
276
1
 42
1.0
 72
1
  3

 73
1
 74
1
 75
1
 94
63
  0
MATERIAL
  5
21
102
{ACAD_REACTORS
330
E
102
}
330
E
100
AcDbMaterial
  1
Global
  2

 70
0
 40
1.0
 71
1
 41
1.0
 91
-1023410177
 42
1.0
 72
1
  3

 73
1
 74
1
 75
1
 44
0.5
 73
0
 45
1.0
 46
1.0
 77
1
  4

 78
1
 79
1
170
1
 48
1.0
171
1
  6

172
1
173
1
174
1
140
1.0
141
1.0
175
1
  7

176
1
177
1
178
1
143
1.0
179
1
  8

270
1
271
1
272
1
145
1.0
146
1.0
273
1
  9

274
1
275
1
276
1
 42
1.0
 72
1
  3

 73
1
 74
1
 75
1
 94
63
  0
MLINESTYLE
  5
22
102
{ACAD_REACTORS
330
10
102
}
330
10
100
AcDbMlineStyle
  2
Standard
 70
0
  3

 62
256
 51
90.0
 52
90.0
 71
2
 49
0.5
 62
256
  6
BYLAYER
 49
-0.5
 62
256
  6
BYLAYER
  0
MLEADERSTYLE
  5
2C
102
{ACAD_REACTORS
330
F
102
}
330
F
100
AcDbMLeaderStyle
179
2
170
2
171
1
172
0
 90
2
 40
0.0
 41
0.0
173
1
 91
-1073741824
 92
-2
290
1
 42
1.0
291
1
 43
4.0
  3
Standard
 44
2.5
300

342
63
174
1
175
1
176
0
178
1
 93
-1073741824
 45
2.5
292
0
297
0
 46
4.0
 94
-1056964608
 47
1.0
 49
1.0
140
1.0
294
1
141
0.0
177
0
142
1.0
295
0
296
0
143
3.75
271
0
272
9
273
9
  0
DICTIONARY
  5
2D
330
A
100
AcDbDictionary
280
1
281
1
  3
CREATED_BY_EZDXF
350
2E
  3
WRITTEN_BY_EZDXF
350
13F
  0
DICTIONARYVAR
  5
2E
330
2D
100
DictionaryVariables
280
0
  1
1.4.4 @ 2026-10-10T09:24:19.854362+00:00
  0
MLEADERSTYLE
  5
6A
102
{ACAD_REACTORS
330
F
102
}
330
F
100
AcDbMLeaderStyle
179
2
170
2
171
1
172
0
 90
2
 40
0.0
 41
0.0
173
1
 91
-1073741824
 92
-2
290
1
 42
1.0
291
1
 43
4.0
  3
ASG-ML-ANNO
 44
2.5
300

342
5F
174
1
175
1
176
0
178
1
 93
-1073741824
 45
2.5
292
0
297
0
 46
4.0
 94
-1056964608
 47
1.0
 49
1.0
140
1.0
294
1
141
0.0
177
0
142
1.0
295
0
296
1
143
3.75
271
0
272
9
273
9
  0
MLEADERSTYLE
  5
6B
102
{ACAD_REACTORS
330
F
102
}
330
F
100
AcDbMLeaderStyle
179
2
170
2
171
1
172
0
 90
2
 40
0.0
 41
0.0
173
1
 91
-1073741824
 92
-2
290
1
 42
1.0
291
1
 43
4.0
  3
ASG-ML-NOTE
 44
2.5
300

342
63
174
1
175
1
176
0
178
1
 93
-1073741824
 45
2.5
292
0
297
0
 46
4.0
 94
-1056964608
 47
1.0
 49
1.0
140
1.0
294
1
141
0.0
177
0
142
1.0
295
0
296
0
143
3.75
271
0
272
9
273
9
  0
MLEADERSTYLE
  5
6C
102
{ACAD_REACTORS
330
F
102
}
330
F
100
AcDbMLeaderStyle
179
2
170
2
171
1
172
0
 90
2
 40
0.0
 41
0.0
173
1
 91
-1073741824
 92
-2
290
1
 42
1.0
291
1
 43
4.0
  3
ASG-ML-DETAIL
341
6D
 44
1.5
300

342
60
174
1
175
1
176
0
178
1
 93
-1073741824
 45
1.8
292
0
297
0
 46
4.0
 94
-1056964608
 47
1.0
 49
1.0
140
1.0
294
1
141
0.0
177
0
142
1.0
295
0
296
1
143
3.75
271
0
272
9
273
9
  0
MLEADERSTYLE
  5
72
102
{ACAD_REACTORS
330
F
102
}
330
F
100
AcDbMLeaderStyle
179
2
170
2
171
1
172
0
 90
2
 40
0.0
 41
0.0
173
1
 91
-1073741824
 92
-2
290
1
 42
1.0
291
1
 43
4.0
  3
ASG-ML-REFERENCE
341
73
 44
2.5
300

342
5F
174
1
175
1
176
0
178
1
 93
-1073741824
 45
2.5
292
1
297
0
 46
4.0
 94
-1056964608
 47
1.0
 49
1.0
140
1.0
294
1
141
0.0
177
0
142
1.0
295
0
296
1
143
3.75
271
0
272
9
273
9
  0
MLINESTYLE
  5
78
102
{ACAD_REACTORS
330
10
102
}
330
10
100
AcDbMlineStyle
  2
ASG-MLINE-2
 70
272
  3
Two lines +/-0.5; MLINE scale = overall width
 62
256
 51
90.0
 52
90.0
 71
2
 49
0.5
 62
256
  6
BYLAYER
 49
-0.5
 62
256
  6
BYLAYER
  0
MLINESTYLE
  5
79
102
{ACAD_REACTORS
330
10
102
}
330
10
100
AcDbMlineStyle
  2
ASG-MLINE-3
 70
272
  3
Two lines + CENTER2 axis
 62
256
 51
90.0
 52
90.0
 71
3
 49
0.5
 62
256
  6
BYLAYER
 49
0.0
 62
256
  6
CENTER2
 49
-0.5
 62
256
  6
BYLAYER
  0
LAYOUT
  5
AE
330
D
100
AcDbPlotSettings
  1

  2
DWG To PDF.pc3
  4
ISO_full_bleed_A3_(420.00_x_297.00_MM)
  6

 40
0.0
 41
0.0
 42
0.0
 43
0.0
 44
420.0
 45
297.0
 46
0.0
 47
0.0
 48
0.0
 49
0.0
140
0.0
141
0.0
142
1.0
143
1.0
 70
672
 72
1
 73
0
 74
5
  7
ASG_Monochrome.ctb
 75
16
 76
0
 77
3
 78
300
147
1.0
148
0.0
149
0.0
100
AcDbLayout
  1
A3-LANDSCAPE
 70
1
 71
3
 10
-0.0
 20
-0.0
 11
420.0
 21
297.0
 12
0.0
 22
0.0
 32
0.0
 14
1e+20
 24
1e+20
 34
1e+20
 15
-1e+20
 25
-1e+20
 35
-1e+20
146
0.0
 13
0.0
 23
0.0
 33
0.0
 16
1.0
 26
0.0
 36
0.0
 17
0.0
 27
1.0
 37
0.0
 76
1
330
AB
331
AF
  0
DICTIONARYVAR
  5
13F
330
2D
100
DictionaryVariables
280
0
  1
1.4.4 @ 2026-10-10T09:24:19.878306+00:00
  0
SCALE
  5
140
102
{ACAD_REACTORS
330
14
102
}
330
14
100
AcDbScale
 70
0
300
1:1
140
1.0
141
1.0
290
1
  0
SCALE
  5
141
102
{ACAD_REACTORS
330
14
102
}
330
14
100
AcDbScale
 70
0
300
1:2
140
1.0
141
2.0
290
0
  0
SCALE
  5
142
102
{ACAD_REACTORS
330
14
102
}
330
14
100
AcDbScale
 70
0
300
1:5
140
1.0
141
5.0
290
0
  0
SCALE
  5
143
102
{ACAD_REACTORS
330
14
102
}
330
14
100
AcDbScale
 70
0
300
1:10
140
1.0
141
10.0
290
0
  0
SCALE
  5
144
102
{ACAD_REACTORS
330
14
102
}
330
14
100
AcDbScale
 70
0
300
1:20
140
1.0
141
20.0
290
0
  0
SCALE
  5
145
102
{ACAD_REACTORS
330
14
102
}
330
14
100
AcDbScale
 70
0
300
1:25
140
1.0
141
25.0
290
0
  0
SCALE
  5
146
102
{ACAD_REACTORS
330
14
102
}
330
14
100
AcDbScale
 70
0
300
1:50
140
1.0
141
50.0
290
0
  0
SCALE
  5
147
102
{ACAD_REACTORS
330
14
102
}
330
14
100
AcDbScale
 70
0
300
1:100
140
1.0
141
100.0
290
0
  0
ENDSEC
  0
EOF
