  0
SECTION
  2
HEADER
  9
$ACADVER
  1
AC1032
  9
$ACADMAINTVER
 90
4
  9
$DWGCODEPAGE
  3
ANSI_1252
  9
$LASTSAVEDBY
  1
ezdxf
  9
$REQUIREDVERSIONS
160
0
  9
$INSBASE
 10
0.0
 20
0.0
 30
0.0
  9
$EXTMIN
 10
1e+20
 20
1e+20
 30
1e+20
  9
$EXTMAX
 10
-1e+20
 20
-1e+20
 30
-1e+20
  9
$LIMMIN
 10
0.0
 20
0.0
  9
$LIMMAX
 10
420.0
 20
297.0
  9
$ORTHOMODE
 70
0
  9
$REGENMODE
 70
1
  9
$FILLMODE
 70
1
  9
$QTEXTMODE
 70
0
  9
$MIRRTEXT
 70
0
  9
$LTSCALE
 40
1.0
  9
$ATTMODE
 70
1
  9
$TEXTSIZE
 40
2.5
  9
$TRACEWID
 40
1.0
  9
$TEXTSTYLE
  7
STD-NOTES
  9
$CLAYER
  8
A-CONST
  9
$CELTYPE
  6
ByLayer
  9
$CECOLOR
 62
256
  9
$CELTSCALE
 40
1.0
  9
$DISPSILH
 70
0
  9
$DIMSCALE
 40
1.0
  9
$DIMASZ
 40
2.5
  9
$DIMEXO
 40
0.625
  9
$DIMDLI
 40
3.75
  9
$DIMRND
 40
0.0
  9
$DIMDLE
 40
0.0
  9
$DIMEXE
 40
1.25
  9
$DIMTP
 40
0.0
  9
$DIMTM
 40
0.0
  9
$DIMTXT
 40
2.5
  9
$DIMCEN
 40
2.5
  9
$DIMTSZ
 40
0.0
  9
$DIMTOL
 70
0
  9
$DIMLIM
 70
0
  9
$DIMTIH
 70
0
  9
$DIMTOH
 70
0
  9
$DIMSE1
 70
0
  9
$DIMSE2
 70
0
  9
$DIMTAD
 70
1
  9
$DIMZIN
 70
8
  9
$DIMBLK
  1

  9
$DIMASO
 70
1
  9
$DIMSHO
 70
1
  9
$DIMPOST
  1

  9
$DIMAPOST
  1

  9
$DIMALT
 70
0
  9
$DIMALTD
 70
3
  9
$DIMALTF
 40
0.03937007874
  9
$DIMLFAC
 40
1.0
  9
$DIMTOFL
 70
1
  9
$DIMTVP
 40
0.0
  9
$DIMTIX
 70
0
  9
$DIMSOXD
 70
0
  9
$DIMSAH
 70
0
  9
$DIMBLK1
  1

  9
$DIMBLK2
  1

  9
$DIMSTYLE
  2
AlSiraj-Dim
  9
$DIMCLRD
 70
0
  9
$DIMCLRE
 70
0
  9
$DIMCLRT
 70
0
  9
$DIMTFAC
 40
1.0
  9
$DIMGAP
 40
0.625
  9
$DIMJUST
 70
0
  9
$DIMSD1
 70
0
  9
$DIMSD2
 70
0
  9
$DIMTOLJ
 70
0
  9
$DIMTZIN
 70
8
  9
$DIMALTZ
 70
0
  9
$DIMALTTZ
 70
0
  9
$DIMUPT
 70
0
  9
$DIMDEC
 70
2
  9
$DIMTDEC
 70
2
  9
$DIMALTU
 70
2
  9
$DIMALTTD
 70
3
  9
$DIMTXSTY
  7
Standard
  9
$DIMAUNIT
 70
0
  9
$DIMADEC
 70
0
  9
$DIMALTRND
 40
0.0
  9
$DIMAZIN
 70
0
  9
$DIMDSEP
 70
44
  9
$DIMATFIT
 70
3
  9
$DIMFRAC
 70
0
  9
$DIMLDRBLK
  1

  9
$DIMLUNIT
 70
2
  9
$DIMLWD
 70
-2
  9
$DIMLWE
 70
-2
  9
$DIMTMOVE
 70
0
  9
$DIMFXL
 40
1.0
  9
$DIMFXLON
 70
0
  9
$DIMJOGANG
 40
0.785398163397
  9
$DIMTFILL
 70
0
  9
$DIMTFILLCLR
 70
0
  9
$DIMARCSYM
 70
0
  9
$DIMLTYPE
  6

  9
$DIMLTEX1
  6

  9
$DIMLTEX2
  6

  9
$DIMTXTDIRECTION
 70
0
  9
$LUNITS
 70
2
  9
$LUPREC
 70
2
  9
$SKETCHINC
 40
1.0
  9
$FILLETRAD
 40
10.0
  9
$AUNITS
 70
0
  9
$AUPREC
 70
0
  9
$MENU
  1
.
  9
$ELEVATION
 40
0.0
  9
$PELEVATION
 40
0.0
  9
$THICKNESS
 40
0.0
  9
$LIMCHECK
 70
0
  9
$CHAMFERA
 40
0.0
  9
$CHAMFERB
 40
0.0
  9
$CHAMFERC
 40
0.0
  9
$CHAMFERD
 40
0.0
  9
$SKPOLY
 70
0
  9
$TDCREATE
 40
2461324.3530092593
  9
$TDUCREATE
 40
2458532.153996898
  9
$TDUPDATE
 40
2461324.3530092593
  9
$TDUUPDATE
 40
2458532.1544311
  9
$TDINDWG
 40
0.0
  9
$TDUSRTIMER
 40
0.0
  9
$USRTIMER
 70
1
  9
$ANGBASE
 50
0.0
  9
$ANGDIR
 70
0
  9
$PDMODE
 70
34
  9
$PDSIZE
 40
2.5
  9
$PLINEWID
 40
0.0
  9
$SPLFRAME
 70
0
  9
$SPLINETYPE
 70
6
  9
$SPLINESEGS
 70
8
  9
$HANDSEED
  5
124
  9
$SURFTAB1
 70
6
  9
$SURFTAB2
 70
6
  9
$SURFTYPE
 70
6
  9
$SURFU
 70
6
  9
$SURFV
 70
6
  9
$UCSBASE
  2

  9
$UCSNAME
  2

  9
$UCSORG
 10
0.0
 20
0.0
 30
0.0
  9
$UCSXDIR
 10
1.0
 20
0.0
 30
0.0
  9
$UCSYDIR
 10
0.0
 20
1.0
 30
0.0
  9
$UCSORTHOREF
  2

  9
$UCSORTHOVIEW
 70
0
  9
$UCSORGTOP
 10
0.0
 20
0.0
 30
0.0
  9
$UCSORGBOTTOM
 10
0.0
 20
0.0
 30
0.0
  9
$UCSORGLEFT
 10
0.0
 20
0.0
 30
0.0
  9
$UCSORGRIGHT
 10
0.0
 20
0.0
 30
0.0
  9
$UCSORGFRONT
 10
0.0
 20
0.0
 30
0.0
  9
$UCSORGBACK
 10
0.0
 20
0.0
 30
0.0
  9
$PUCSBASE
  2

  9
$PUCSNAME
  2

  9
$PUCSORG
 10
0.0
 20
0.0
 30
0.0
  9
$PUCSXDIR
 10
1.0
 20
0.0
 30
0.0
  9
$PUCSYDIR
 10
0.0
 20
1.0
 30
0.0
  9
$PUCSORTHOREF
  2

  9
$PUCSORTHOVIEW
 70
0
  9
$PUCSORGTOP
 10
0.0
 20
0.0
 30
0.0
  9
$PUCSORGBOTTOM
 10
0.0
 20
0.0
 30
0.0
  9
$PUCSORGLEFT
 10
0.0
 20
0.0
 30
0.0
  9
$PUCSORGRIGHT
 10
0.0
 20
0.0
 30
0.0
  9
$PUCSORGFRONT
 10
0.0
 20
0.0
 30
0.0
  9
$PUCSORGBACK
 10
0.0
 20
0.0
 30
0.0
  9
$USERI1
 70
0
  9
$USERI2
 70
0
  9
$USERI3
 70
0
  9
$USERI4
 70
0
  9
$USERI5
 70
0
  9
$USERR1
 40
0.0
  9
$USERR2
 40
0.0
  9
$USERR3
 40
0.0
  9
$USERR4
 40
0.0
  9
$USERR5
 40
0.0
  9
$WORLDVIEW
 70
1
  9
$SHADEDGE
 70
3
  9
$SHADEDIF
 70
70
  9
$TILEMODE
 70
1
  9
$MAXACTVP
 70
64
  9
$PINSBASE
 10
0.0
 20
0.0
 30
0.0
  9
$PLIMCHECK
 70
0
  9
$PEXTMIN
 10
1e+20
 20
1e+20
 30
1e+20
  9
$PEXTMAX
 10
-1e+20
 20
-1e+20
 30
-1e+20
  9
$PLIMMIN
 10
-0.0
 20
-0.0
  9
$PLIMMAX
 10
420.0
 20
297.0
  9
$UNITMODE
 70
0
  9
$VISRETAIN
 70
1
  9
$PLINEGEN
 70
1
  9
$PSLTSCALE
 70
1
  9
$TREEDEPTH
 70
3020
  9
$CMLSTYLE
  2
Standard
  9
$CMLJUST
 70
0
  9
$CMLSCALE
 40
20.0
  9
$PROXYGRAPHICS
 70
1
  9
$MEASUREMENT
 70
1
  9
$CELWEIGHT
370
-1
  9
$ENDCAPS
280
0
  9
$JOINSTYLE
280
0
  9
$LWDISPLAY
290
1
  9
$INSUNITS
 70
4
  9
$HYPERLINKBASE
  1

  9
$STYLESHEET
  1

  9
$XEDIT
290
1
  9
$CEPSNTYPE
380
0
  9
$PSTYLEMODE
290
1
  9
$FINGERPRINTGUID
  2
{8B411910-3D1F-45CD-8255-EFD709091F11}
  9
$VERSIONGUID
  2
{2FB0090B-2E70-4702-A60B-C57D8C3F2022}
  9
$EXTNAMES
290
1
  9
$PSVPSCALE
 40
0.0
  9
$OLESTARTUP
290
0
  9
$SORTENTS
280
127
  9
$INDEXCTL
280
0
  9
$HIDETEXT
280
1
  9
$XCLIPFRAME
280
1
  9
$HALOGAP
280
0
  9
$OBSCOLOR
 70
257
  9
$OBSLTYPE
280
0
  9
$INTERSECTIONDISPLAY
280
0
  9
$INTERSECTIONCOLOR
 70
257
  9
$DIMASSOC
280
2
  9
$PROJECTNAME
  1

  9
$CAMERADISPLAY
290
0
  9
$LENSLENGTH
 40
50.0
  9
$CAMERAHEIGHT
 40
0.0
  9
$STEPSPERSEC
 40
24.0
  9
$STEPSIZE
 40
100.0
  9
$3DDWFPREC
 40
2.0
  9
$PSOLWIDTH
 40
0.005
  9
$PSOLHEIGHT
 40
0.08
  9
$LOFTANG1
 40
1.570796326795
  9
$LOFTANG2
 40
1.570796326795
  9
$LOFTMAG1
 40
0.0
  9
$LOFTMAG2
 40
0.0
  9
$LOFTPARAM
 70
7
  9
$LOFTNORMALS
280
1
  9
$LATITUDE
 40
37.795
  9
$LONGITUDE
 40
-122.394
  9
$NORTHDIRECTION
 40
0.0
  9
$TIMEZONE
 70
-8000
  9
$LIGHTGLYPHDISPLAY
280
1
  9
$TILEMODELIGHTSYNCH
280
1
  9
$CMATERIAL
347
20
  9
$SOLIDHIST
280
0
  9
$SHOWHIST
280
1
  9
$DWFFRAME
280
2
  9
$DGNFRAME
280
2
  9
$REALWORLDSCALE
290
1
  9
$INTERFERECOLOR
 62
256
  9
$CSHADOW
280
0
  9
$SHADOWPLANELOCATION
 40
0.0
  0
ENDSEC
  0
SECTION
  2
CLASSES
  0
CLASS
  1
ACDBDICTIONARYWDFLT
  2
AcDbDictionaryWithDefault
  3
ObjectDBX Classes
 90
0
 91
0
280
0
281
0
  0
CLASS
  1
SUN
  2
AcDbSun
  3
SCENEOE
 90
1153
 91
0
280
0
281
0
  0
CLASS
  1
VISUALSTYLE
  2
AcDbVisualStyle
  3
ObjectDBX Classes
 90
4095
 91
0
280
0
281
0
  0
CLASS
  1
MATERIAL
  2
AcDbMaterial
  3
ObjectDBX Classes
 90
1153
 91
0
280
0
281
0
  0
CLASS
  1
SCALE
  2
AcDbScale
  3
ObjectDBX Classes
 90
1153
 91
0
280
0
281
0
  0
CLASS
  1
TABLESTYLE
  2
AcDbTableStyle
  3
ObjectDBX Classes
 90
4095
 91
0
280
0
281
0
  0
CLASS
  1
MLEADERSTYLE
  2
AcDbMLeaderStyle
  3
ACDB_MLEADERSTYLE_CLASS
 90
4095
 91
0
280
0
281
0
  0
CLASS
  1
DICTIONARYVAR
  2
AcDbDictionaryVar
  3
ObjectDBX Classes
 90
0
 91
0
280
0
281
0
  0
CLASS
  1
CELLSTYLEMAP
  2
AcDbCellStyleMap
  3
ObjectDBX Classes
 90
1152
 91
0
280
0
281
0
  0
CLASS
  1
MENTALRAYRENDERSETTINGS
  2
AcDbMentalRayRenderSettings
  3
SCENEOE
 90
1024
 91
0
280
0
281
0
  0
CLASS
  1
ACDBDETAILVIEWSTYLE
  2
AcDbDetailViewStyle
  3
ObjectDBX Classes
 90
1025
 91
0
280
0
281
0
  0
CLASS
  1
ACDBSECTIONVIEWSTYLE
  2
AcDbSectionViewStyle
  3
ObjectDBX Classes
 90
1025
 91
0
280
0
281
0
  0
CLASS
  1
RASTERVARIABLES
  2
AcDbRasterVariables
  3
ISM
 90
0
 91
0
280
0
281
0
  0
CLASS
  1
ACDBPLACEHOLDER
  2
AcDbPlaceHolder
  3
ObjectDBX Classes
 90
0
 91
0
280
0
281
0
  0
CLASS
  1
LAYOUT
  2
AcDbLayout
  3
ObjectDBX Classes
 90
0
 91
0
280
0
281
0
  0
ENDSEC
  0
SECTION
  2
TABLES
  0
TABLE
  2
VPORT
  5
8
330
0
100
AcDbSymbolTable
 70
1
  0
VPORT
  5
120
330
8
100
AcDbSymbolTableRecord
100
AcDbViewportTableRecord
  2
*Active
 70
0
 10
0.0
 20
0.0
 11
1.0
 21
1.0
 12
1500.0
 22
1000.0
 13
0.0
 23
0.0
 14
0.5
 24
0.5
 15
0.5
 25
0.5
 16
0.0
 26
0.0
 36
1.0
 17
0.0
 27
0.0
 37
0.0
 40
3000.0
 41
1.34
 42
50.0
 43
0.0
 44
0.0
 50
0.0
 51
0.0
 71
0
 72
1000
 73
1
 74
3
 75
0
 76
0
 77
0
 78
0
281
0
 65
1
110
0.0
120
0.0
130
0.0
111
1.0
121
0.0
131
0.0
112
0.0
122
1.0
132
0.0
 79
0
146
0.0
  0
ENDTAB
  0
TABLE
  2
LTYPE
  5
2
330
0
100
AcDbSymbolTable
 70
9
  0
LTYPE
  5
24
330
2
100
AcDbSymbolTableRecord
100
AcDbLinetypeTableRecord
  2
ByBlock
 70
0
  3

 72
65
 73
0
 40
0.0
  0
LTYPE
  5
25
330
2
100
AcDbSymbolTableRecord
100
AcDbLinetypeTableRecord
  2
ByLayer
 70
0
  3

 72
65
 73
0
 40
0.0
  0
LTYPE
  5
26
330
2
100
AcDbSymbolTableRecord
100
AcDbLinetypeTableRecord
  2
Continuous
 70
0
  3

 72
65
 73
0
 40
0.0
  0
LTYPE
  5
2F
330
2
100
AcDbSymbolTableRecord
100
AcDbLinetypeTableRecord
  2
CENTER
 70
0
  3
Center ____ _ ____ _ ____
 72
65
 73
4
 40
50.8
 49
31.75
 74
0
 49
-6.35
 74
0
 49
6.35
 74
0
 49
-6.35
 74
0
  0
LTYPE
  5
30
330
2
100
AcDbSymbolTableRecord
100
AcDbLinetypeTableRecord
  2
CENTER2
 70
0
  3
Center (.5x) ___ _ ___ _ ___
 72
65
 73
4
 40
25.4
 49
15.875
 74
0
 49
-3.175
 74
0
 49
3.175
 74
0
 49
-3.175
 74
0
  0
LTYPE
  5
31
330
2
100
AcDbSymbolTableRecord
100
AcDbLinetypeTableRecord
  2
HIDDEN
 70
0
  3
Hidden __ __ __ __
 72
65
 73
2
 40
9.525
 49
6.35
 74
0
 49
-3.175
 74
0
  0
LTYPE
  5
32
330
2
100
AcDbSymbolTableRecord
100
AcDbLinetypeTableRecord
  2
HIDDEN2
 70
0
  3
Hidden (.5x) _ _ _ _ _ _
 72
65
 73
2
 40
4.7625
 49
3.175
 74
0
 49
-1.5875
 74
0
  0
LTYPE
  5
33
330
2
100
AcDbSymbolTableRecord
100
AcDbLinetypeTableRecord
  2
DASHED
 70
0
  3
Dashed __ __ __ __
 72
65
 73
2
 40
19.05
 49
12.7
 74
0
 49
-6.35
 74
0
  0
LTYPE
  5
34
330
2
100
AcDbSymbolTableRecord
100
AcDbLinetypeTableRecord
  2
PHANTOM2
 70
0
  3
Phantom (.5x) ___ _ _ ___ _ _
 72
65
 73
6
 40
31.75
 49
15.875
 74
0
 49
-3.175
 74
0
 49
3.175
 74
0
 49
-3.175
 74
0
 49
3.175
 74
0
 49
-3.175
 74
0
  0
ENDTAB
  0
TABLE
  2
LAYER
  5
1
330
0
100
AcDbSymbolTable
 70
33
  0
LAYER
  5
27
330
1
100
AcDbSymbolTableRecord
100
AcDbLayerTableRecord
  2
0
 70
0
 62
7
  6
Continuous
370
-3
390
13
347
21
1001
AcAecLayerStandard
1000

1000
RESERVED - do not draw entities on Layer 0
  0
LAYER
  5
28
330
1
100
AcDbSymbolTableRecord
100
AcDbLayerTableRecord
  2
Defpoints
 70
0
 62
7
  6
Continuous
290
0
370
-3
390
13
347
21
  0
LAYER
  5
35
330
1
100
AcDbSymbolTableRecord
100
AcDbLayerTableRecord
  2
A-TITLEBLOCK
 70
0
 62
7
  6
Continuous
370
30
390
13
347
21
1001
AcAecLayerStandard
1000

1000
Sheet border, title block, company logo
  0
LAYER
  5
37
330
1
100
AcDbSymbolTableRecord
100
AcDbLayerTableRecord
  2
A-GRID
 70
0
 62
9
  6
CENTER2
370
13
390
13
347
21
1001
AcAecLayerStandard
1000

1000
Column grid / setting-out axis lines
  0
LAYER
  5
38
330
1
100
AcDbSymbolTableRecord
100
AcDbLayerTableRecord
  2
A-TEXT-TITLE
 70
0
 62
7
  6
Continuous
370
35
390
13
347
21
1001
AcAecLayerStandard
1000

1000
Drawing title & sheet heading text
  0
LAYER
  5
39
330
1
100
AcDbSymbolTableRecord
100
AcDbLayerTableRecord
  2
A-TEXT-NOTES
 70
0
 62
7
  6
Continuous
370
18
390
13
347
21
1001
AcAecLayerStandard
1000

1000
General notes & specification notes
  0
LAYER
  5
3A
330
1
100
AcDbSymbolTableRecord
100
AcDbLayerTableRecord
  2
A-DIM
 70
0
 62
1
  6
Continuous
370
13
390
13
347
21
1001
AcAecLayerStandard
1000

1000
Dimension lines, extension lines & dimension text
  0
LAYER
  5
3B
330
1
100
AcDbSymbolTableRecord
100
AcDbLayerTableRecord
  2
A-LEADER
 70
0
 62
1
  6
Continuous
370
13
390
13
347
21
1001
AcAecLayerStandard
1000

1000
Leaders & multileader callouts
  0
LAYER
  5
3C
330
1
100
AcDbSymbolTableRecord
100
AcDbLayerTableRecord
  2
A-HIDDEN
 70
0
 62
8
  6
HIDDEN2
370
13
390
13
347
21
1001
AcAecLayerStandard
1000

1000
Concealed / hidden edges
  0
LAYER
  5
3D
330
1
100
AcDbSymbolTableRecord
100
AcDbLayerTableRecord
  2
A-CENTER
 70
0
 62
8
  6
CENTER2
370
13
390
13
347
21
1001
AcAecLayerStandard
1000

1000
Centrelines of symmetrical members
  0
LAYER
  5
3E
330
1
100
AcDbSymbolTableRecord
100
AcDbLayerTableRecord
  2
A-CONST
 70
0
 62
9
  6
Continuous
290
0
370
0
390
13
347
21
1001
AcAecLayerStandard
1000

1000
Construction / reference geometry - NON-PLOT
  0
LAYER
  5
3F
330
1
100
AcDbSymbolTableRecord
100
AcDbLayerTableRecord
  2
A-VPORT
 70
0
 62
9
  6
Continuous
290
0
370
0
390
13
347
21
1001
AcAecLayerStandard
1000

1000
Paperspace viewport boundary - NON-PLOT
  0
LAYER
  5
40
330
1
100
AcDbSymbolTableRecord
100
AcDbLayerTableRecord
  2
A-REVCLOUD
 70
0
 62
1
  6
Continuous
370
30
390
13
347
21
1001
AcAecLayerStandard
1000

1000
Revision clouds & delta revision tags
  0
LAYER
  5
41
330
1
100
AcDbSymbolTableRecord
100
AcDbLayerTableRecord
  2
ALU-OUTLINE
 70
0
 62
5
  6
Continuous
370
30
390
13
347
21
1001
AcAecLayerStandard
1000

1000
Aluminium profile outlines - frame / mullion / transom / sash
  0
LAYER
  5
42
330
1
100
AcDbSymbolTableRecord
100
AcDbLayerTableRecord
  2
ALU-HATCH
 70
0
 62
5
  6
Continuous
370
13
390
13
347
21
1001
AcAecLayerStandard
1000

1000
Aluminium section fill / hatch
  0
LAYER
  5
43
330
1
100
AcDbSymbolTableRecord
100
AcDbLayerTableRecord
  2
ALU-HARDWARE
 70
0
 62
140
  6
Continuous
370
18
390
13
347
21
1001
AcAecLayerStandard
1000

1000
Hinges, handles, locks, rollers, cleats, brackets
  0
LAYER
  5
44
330
1
100
AcDbSymbolTableRecord
100
AcDbLayerTableRecord
  2
ALU-LABEL
 70
0
 62
5
  6
Continuous
370
13
390
13
347
21
1001
AcAecLayerStandard
1000

1000
Aluminium profile code / reference tag
  0
LAYER
  5
45
330
1
100
AcDbSymbolTableRecord
100
AcDbLayerTableRecord
  2
GLZ-OUTLINE
 70
0
 62
4
  6
Continuous
370
25
390
13
347
21
1001
AcAecLayerStandard
1000

1000
Glass panel outline
  0
LAYER
  5
46
330
1
100
AcDbSymbolTableRecord
100
AcDbLayerTableRecord
  2
GLZ-HATCH
 70
0
 62
4
  6
Continuous
370
9
390
13
347
21
1001
AcAecLayerStandard
1000

1000
Glass section hatch
  0
LAYER
  5
47
330
1
100
AcDbSymbolTableRecord
100
AcDbLayerTableRecord
  2
GLZ-LABEL
 70
0
 62
4
  6
Continuous
370
13
390
13
347
21
1001
AcAecLayerStandard
1000

1000
Glass type / thickness / DGU make-up callout
  0
LAYER
  5
48
330
1
100
AcDbSymbolTableRecord
100
AcDbLayerTableRecord
  2
MS-STRUCT
 70
0
 62
3
  6
Continuous
370
40
390
13
347
21
1001
AcAecLayerStandard
1000

1000
Mild steel structural members
  0
LAYER
  5
49
330
1
100
AcDbSymbolTableRecord
100
AcDbLayerTableRecord
  2
MS-HATCH
 70
0
 62
3
  6
Continuous
370
13
390
13
347
21
1001
AcAecLayerStandard
1000

1000
Mild steel section hatch (ANSI32 @ 45)
  0
LAYER
  5
4A
330
1
100
AcDbSymbolTableRecord
100
AcDbLayerTableRecord
  2
MS-WELD
 70
0
 62
30
  6
Continuous
370
18
390
13
347
21
1001
AcAecLayerStandard
1000

1000
Weld symbols - mild steel
  0
LAYER
  5
4B
330
1
100
AcDbSymbolTableRecord
100
AcDbLayerTableRecord
  2
SS-STRUCT
 70
0
 62
6
  6
Continuous
370
40
390
13
347
21
1001
AcAecLayerStandard
1000

1000
Stainless steel structural / fabrication members
  0
LAYER
  5
4C
330
1
100
AcDbSymbolTableRecord
100
AcDbLayerTableRecord
  2
SS-HATCH
 70
0
 62
6
  6
Continuous
370
13
390
13
347
21
1001
AcAecLayerStandard
1000

1000
Stainless steel section hatch (ANSI31 @ 135)
  0
LAYER
  5
4D
330
1
100
AcDbSymbolTableRecord
100
AcDbLayerTableRecord
  2
SS-WELD
 70
0
 62
30
  6
Continuous
370
18
390
13
347
21
1001
AcAecLayerStandard
1000

1000
Weld symbols - stainless steel
  0
LAYER
  5
4E
330
1
100
AcDbSymbolTableRecord
100
AcDbLayerTableRecord
  2
MISC-SEALANT
 70
0
 62
2
  6
Continuous
370
13
390
13
347
21
1001
AcAecLayerStandard
1000

1000
Sealant / weather-seal / gasket line
  0
LAYER
  5
4F
330
1
100
AcDbSymbolTableRecord
100
AcDbLayerTableRecord
  2
MISC-INSULATION
 70
0
 62
2
  6
Continuous
370
9
390
13
347
21
1001
AcAecLayerStandard
1000

1000
Insulation / thermal break hatch (ANSI37)
  0
LAYER
  5
50
330
1
100
AcDbSymbolTableRecord
100
AcDbLayerTableRecord
  2
MISC-ANCHOR
 70
0
 62
9
  6
Continuous
370
18
390
13
347
21
1001
AcAecLayerStandard
1000

1000
Anchors, fixing brackets, fasteners
  0
LAYER
  5
51
330
1
100
AcDbSymbolTableRecord
100
AcDbLayerTableRecord
  2
MISC-MIRROR
 70
0
 62
4
  6
Continuous
370
25
390
13
347
21
1001
AcAecLayerStandard
1000

1000
Mirror panels
  0
LAYER
  5
52
330
1
100
AcDbSymbolTableRecord
100
AcDbLayerTableRecord
  2
MISC-HANDRAIL
 70
0
 62
6
  6
Continuous
370
30
390
13
347
21
1001
AcAecLayerStandard
1000

1000
Handrail / balustrade posts & rails
  0
LAYER
  5
53
330
1
100
AcDbSymbolTableRecord
100
AcDbLayerTableRecord
  2
MISC-DRAIN
 70
0
 62
5
  6
Continuous
370
25
390
13
347
21
1001
AcAecLayerStandard
1000

1000
Linear drain / channel
  0
LAYER
  5
54
330
1
100
AcDbSymbolTableRecord
100
AcDbLayerTableRecord
  2
XREF
 70
0
 62
9
  6
Continuous
370
-3
390
13
347
21
1001
AcAecLayerStandard
1000

1000
External reference - architectural background
  0
ENDTAB
  0
TABLE
  2
STYLE
  5
5
330
0
100
AcDbSymbolTable
 70
6
  0
STYLE
  5
29
330
5
100
AcDbSymbolTableRecord
100
AcDbTextStyleTableRecord
  2
Standard
 70
0
 40
0.0
 41
1.0
 50
0.0
 71
0
 42
2.5
  3
arial.ttf
  4

1001
ACAD
1000
Arial
1071
34
  0
STYLE
  5
55
330
5
100
AcDbSymbolTableRecord
100
AcDbTextStyleTableRecord
  2
STD-TITLE
 70
0
 40
0.0
 41
1.0
 50
0.0
 71
0
 42
2.5
  3
arialbd.ttf
  4

1001
ACAD
1000
Arial
1071
33554466
  0
STYLE
  5
56
330
5
100
AcDbSymbolTableRecord
100
AcDbTextStyleTableRecord
  2
STD-SUBTITLE
 70
0
 40
0.0
 41
1.0
 50
0.0
 71
0
 42
2.5
  3
arial.ttf
  4

1001
ACAD
1000
Arial
1071
34
  0
STYLE
  5
57
330
5
100
AcDbSymbolTableRecord
100
AcDbTextStyleTableRecord
  2
STD-NOTES
 70
0
 40
0.0
 41
1.0
 50
0.0
 71
0
 42
2.5
  3
arial.ttf
  4

1001
ACAD
1000
Arial
1071
34
  0
STYLE
  5
58
330
5
100
AcDbSymbolTableRecord
100
AcDbTextStyleTableRecord
  2
STD-DIM
 70
0
 40
0.0
 41
1.0
 50
0.0
 71
0
 42
2.5
  3
arial.ttf
  4

1001
ACAD
1000
Arial
1071
34
  0
STYLE
  5
59
330
5
100
AcDbSymbolTableRecord
100
AcDbTextStyleTableRecord
  2
STD-LABEL
 70
0
 40
0.0
 41
1.0
 50
0.0
 71
0
 42
2.5
  3
arial.ttf
  4

1001
ACAD
1000
Arial
1071
34
  0
ENDTAB
  0
TABLE
  2
VIEW
  5
7
330
0
100
AcDbSymbolTable
 70
0
  0
ENDTAB
  0
TABLE
  2
UCS
  5
6
330
0
100
AcDbSymbolTable
 70
0
  0
ENDTAB
  0
TABLE
  2
APPID
  5
3
330
0
100
AcDbSymbolTable
 70
4
  0
APPID
  5
2A
330
3
100
AcDbSymbolTableRecord
100
AcDbRegAppTableRecord
  2
ACAD
 70
0
  0
APPID
  5
36
330
3
100
AcDbSymbolTableRecord
100
AcDbRegAppTableRecord
  2
AcAecLayerStandard
 70
0
  0
APPID
  5
121
330
3
100
AcDbSymbolTableRecord
100
AcDbRegAppTableRecord
  2
HATCHBACKGROUNDCOLOR
 70
0
  0
APPID
  5
122
330
3
100
AcDbSymbolTableRecord
100
AcDbRegAppTableRecord
  2
EZDXF
 70
0
  0
ENDTAB
  0
TABLE
  2
DIMSTYLE
  5
4
330
0
100
AcDbSymbolTable
 70
10
100
AcDbDimStyleTable
  0
DIMSTYLE
105
2B
330
4
100
AcDbSymbolTableRecord
100
AcDbDimStyleTableRecord
  2
Standard
 70
0
 40
1.0
 41
2.5
 42
0.625
 43
3.75
 44
1.25
 45
0.0
 46
0.0
 47
0.0
 48
0.0
 49
2.5
140
2.5
141
2.5
142
0.0
143
0.03937007874
144
1.0
145
0.0
146
1.0
147
0.625
148
0.0
 69
0
 70
0
 71
0
 72
0
 73
0
 74
0
 75
0
 76
0
 77
1
 78
8
 79
3
170
0
171
3
172
1
173
0
174
0
175
0
176
0
177
0
178
0
179
2
271
2
272
2
273
2
274
3
275
0
276
0
277
2
278
44
279
0
280
0
281
0
282
0
283
0
284
8
285
0
286
0
288
0
289
3
290
0
371
-2
372
-2
  0
DIMSTYLE
105
5A
330
4
100
AcDbSymbolTableRecord
100
AcDbDimStyleTableRecord
  2
AlSiraj-Dim
 70
0
 40
1.0
 41
2.5
 42
1.5
 43
7.0
 44
1.25
 45
0.0
 46
0.0
 47
0.0
 48
0.0
 49
2.5
140
2.5
141
2.5
142
0.0
143
0.03937007874
144
1.0
145
0.0
146
1.0
147
1.0
148
0.0
 69
0
 70
0
 71
0
 72
0
 73
0
 74
0
 75
0
 76
0
 77
1
 78
0
 79
3
170
0
171
3
172
1
173
0
174
0
175
0
176
256
177
256
178
256
179
2
271
1
272
2
273
2
274
3
275
0
276
0
277
2
278
46
279
0
280
0
281
0
282
0
283
0
284
8
285
0
286
0
288
0
289
3
290
0
340
58
371
-1
372
-1
  0
DIMSTYLE
105
5B
330
4
100
AcDbSymbolTableRecord
100
AcDbDimStyleTableRecord
  2
AlSiraj-Dim-1-2
 70
0
 40
2.0
 41
2.5
 42
1.5
 43
7.0
 44
1.25
 45
0.0
 46
0.0
 47
0.0
 48
0.0
 49
2.5
140
2.5
141
2.5
142
0.0
143
0.03937007874
144
1.0
145
0.0
146
1.0
147
1.0
148
0.0
 69
0
 70
0
 71
0
 72
0
 73
0
 74
0
 75
0
 76
0
 77
1
 78
0
 79
3
170
0
171
3
172
1
173
0
174
0
175
0
176
256
177
256
178
256
179
2
271
1
272
2
273
2
274
3
275
0
276
0
277
2
278
46
279
0
280
0
281
0
282
0
283
0
284
8
285
0
286
0
288
0
289
3
290
0
340
58
371
-1
372
-1
  0
DIMSTYLE
105
5C
330
4
100
AcDbSymbolTableRecord
100
AcDbDimStyleTableRecord
  2
AlSiraj-Dim-1-5
 70
0
 40
5.0
 41
2.5
 42
1.5
 43
7.0
 44
1.25
 45
0.0
 46
0.0
 47
0.0
 48
0.0
 49
2.5
140
2.5
141
2.5
142
0.0
143
0.03937007874
144
1.0
145
0.0
146
1.0
147
1.0
148
0.0
 69
0
 70
0
 71
0
 72
0
 73
0
 74
0
 75
0
 76
0
 77
1
 78
0
 79
3
170
0
171
3
172
1
173
0
174
0
175
0
176
256
177
256
178
256
179
2
271
1
272
2
273
2
274
3
275
0
276
0
277
2
278
46
279
0
280
0
281
0
282
0
283
0
284
8
285
0
286
0
288
0
289
3
290
0
340
58
371
-1
372
-1
  0
DIMSTYLE
105
5D
330
4
100
AcDbSymbolTableRecord
100
AcDbDimStyleTableRecord
  2
AlSiraj-Dim-1-10
 70
0
 40
10.0
 41
2.5
 42
1.5
 43
7.0
 44
1.25
 45
0.0
 46
0.0
 47
0.0
 48
0.0
 49
2.5
140
2.5
141
2.5
142
0.0
143
0.03937007874
144
1.0
145
0.0
146
1.0
147
1.0
148
0.0
 69
0
 70
0
 71
0
 72
0
 73
0
 74
0
 75
0
 76
0
 77
1
 78
0
 79
3
170
0
171
3
172
1
173
0
174
0
175
0
176
256
177
256
178
256
179
2
271
1
272
2
273
2
274
3
275
0
276
0
277
2
278
46
279
0
280
0
281
0
282
0
283
0
284
8
285
0
286
0
288
0
289
3
290
0
340
58
371
-1
372
-1
  0
DIMSTYLE
105
5E
330
4
100
AcDbSymbolTableRecord
100
AcDbDimStyleTableRecord
  2
AlSiraj-Dim-1-20
 70
0
 40
20.0
 41
2.5
 42
1.5
 43
7.0
 44
1.25
 45
0.0
 46
0.0
 47
0.0
 48
0.0
 49
2.5
140
2.5
141
2.5
142
0.0
143
0.03937007874
144
1.0
145
0.0
146
1.0
147
1.0
148
0.0
 69
0
 70
0
 71
0
 72
0
 73
0
 74
0
 75
0
 76
0
 77
1
 78
0
 79
3
170
0
171
3
172
1
173
0
174
0
175
0
176
256
177
256
178
256
179
2
271
0
272
2
273
2
274
3
275
0
276
0
277
2
278
46
279
0
280
0
281
0
282
0
283
0
284
8
285
0
286
0
288
0
289
3
290
0
340
58
371
-1
372
-1
  0
DIMSTYLE
105
5F
330
4
100
AcDbSymbolTableRecord
100
AcDbDimStyleTableRecord
  2
AlSiraj-Dim-1-50
 70
0
 40
50.0
 41
2.5
 42
1.5
 43
7.0
 44
1.25
 45
0.0
 46
0.0
 47
0.0
 48
0.0
 49
2.5
140
2.5
141
2.5
142
0.0
143
0.03937007874
144
1.0
145
0.0
146
1.0
147
1.0
148
0.0
 69
0
 70
0
 71
0
 72
0
 73
0
 74
0
 75
0
 76
0
 77
1
 78
0
 79
3
170
0
171
3
172
1
173
0
174
0
175
0
176
256
177
256
178
256
179
2
271
0
272
2
273
2
274
3
275
0
276
0
277
2
278
46
279
0
280
0
281
0
282
0
283
0
284
8
285
0
286
0
288
0
289
3
290
0
340
58
371
-1
372
-1
  0
DIMSTYLE
105
60
330
4
100
AcDbSymbolTableRecord
100
AcDbDimStyleTableRecord
  2
AlSiraj-Dim-1-100
 70
0
 40
100.0
 41
2.5
 42
1.5
 43
7.0
 44
1.25
 45
0.0
 46
0.0
 47
0.0
 48
0.0
 49
2.5
140
2.5
141
2.5
142
0.0
143
0.03937007874
144
1.0
145
0.0
146
1.0
147
1.0
148
0.0
 69
0
 70
0
 71
0
 72
0
 73
0
 74
0
 75
0
 76
0
 77
1
 78
0
 79
3
170
0
171
3
172
1
173
0
174
0
175
0
176
256
177
256
178
256
179
2
271
0
272
2
273
2
274
3
275
0
276
0
277
2
278
46
279
0
280
0
281
0
282
0
283
0
284
8
285
0
286
0
288
0
289
3
290
0
340
58
371
-1
372
-1
  0
DIMSTYLE
105
61
330
4
100
AcDbSymbolTableRecord
100
AcDbDimStyleTableRecord
  2
AlSiraj-Dim-TOL
 70
0
 40
1.0
 41
2.5
 42
1.5
 43
7.0
 44
1.25
 45
0.0
 46
0.0
 47
0.5
 48
0.5
 49
2.5
140
2.5
141
2.5
142
0.0
143
0.03937007874
144
1.0
145
0.0
146
0.7
147
1.0
148
0.0
 69
0
 70
0
 71
1
 72
0
 73
0
 74
0
 75
0
 76
0
 77
1
 78
0
 79
3
170
0
171
3
172
1
173
0
174
0
175
0
176
256
177
256
178
256
179
2
271
1
272
1
273
2
274
3
275
0
276
0
277
2
278
46
279
0
280
0
281
0
282
0
283
0
284
8
285
0
286
0
288
0
289
3
290
0
340
58
371
-1
372
-1
  0
DIMSTYLE
105
62
330
4
100
AcDbSymbolTableRecord
100
AcDbDimStyleTableRecord
  2
AlSiraj-Dim-TOL-1-2
 70
0
 40
2.0
 41
2.5
 42
1.5
 43
7.0
 44
1.25
 45
0.0
 46
0.0
 47
0.5
 48
0.5
 49
2.5
140
2.5
141
2.5
142
0.0
143
0.03937007874
144
1.0
145
0.0
146
0.7
147
1.0
148
0.0
 69
0
 70
0
 71
1
 72
0
 73
0
 74
0
 75
0
 76
0
 77
1
 78
0
 79
3
170
0
171
3
172
1
173
0
174
0
175
0
176
256
177
256
178
256
179
2
271
1
272
1
273
2
274
3
275
0
276
0
277
2
278
46
279
0
280
0
281
0
282
0
283
0
284
8
285
0
286
0
288
0
289
3
290
0
340
58
371
-1
372
-1
  0
ENDTAB
  0
TABLE
  2
BLOCK_RECORD
  5
9
330
0
100
AcDbSymbolTable
 70
8
  0
BLOCK_RECORD
  5
17
330
9
100
AcDbSymbolTableRecord
100
AcDbBlockTableRecord
  2
*Model_Space
340
1A
 70
0
280
1
281
0
  0
BLOCK_RECORD
  5
6A
330
9
100
AcDbSymbolTableRecord
100
AcDbBlockTableRecord
  2
ASG-TITLEBLOCK
340
0
 70
0
280
1
281
0
  0
BLOCK_RECORD
  5
B7
330
9
100
AcDbSymbolTableRecord
100
AcDbBlockTableRecord
  2
ASG-SECTION-MARK
340
0
 70
0
280
1
281
0
  0
BLOCK_RECORD
  5
BD
330
9
100
AcDbSymbolTableRecord
100
AcDbBlockTableRecord
  2
ASG-REV-DELTA
340
0
 70
0
280
1
281
0
  0
BLOCK_RECORD
  5
C2
330
9
100
AcDbSymbolTableRecord
100
AcDbBlockTableRecord
  2
ASG-SEALANT
340
0
 70
0
280
1
281
0
  0
BLOCK_RECORD
  5
C7
330
9
100
AcDbSymbolTableRecord
100
AcDbBlockTableRecord
  2
ASG-ITEM-TAG
340
0
 70
0
280
1
281
0
  0
BLOCK_RECORD
  5
D1
330
9
100
AcDbSymbolTableRecord
100
AcDbBlockTableRecord
  2
*Paper_Space1
340
D4
 70
0
280
1
281
0
  0
BLOCK_RECORD
  5
CC
330
9
100
AcDbSymbolTableRecord
100
AcDbBlockTableRecord
  2
*Paper_Space
340
CF
 70
0
280
1
281
0
  0
ENDTAB
  0
ENDSEC
  0
SECTION
  2
BLOCKS
  0
BLOCK
  5
18
330
17
100
AcDbEntity
  8
0
100
AcDbBlockBegin
  2
*Model_Space
 70
0
 10
0.0
 20
0.0
 30
0.0
  3
*Model_Space
  1

  0
ENDBLK
  5
19
330
17
100
AcDbEntity
  8
0
100
AcDbBlockEnd
  0
BLOCK
  5
6B
330
6A
100
AcDbEntity
  8
0
100
AcDbBlockBegin
  2
ASG-TITLEBLOCK
 70
2
 10
180.0
 20
0.0
 30
0.0
  3
ASG-TITLEBLOCK
  1

  0
LWPOLYLINE
  5
6D
330
6A
100
AcDbEntity
  8
A-TITLEBLOCK
100
AcDbPolyline
 90
4
 70
1
 10
0.0
 20
0.0
 10
180.0
 20
0.0
 10
180.0
 20
111.0
 10
0.0
 20
111.0
  0
LINE
  5
6E
330
6A
100
AcDbEntity
  8
A-TITLEBLOCK
100
AcDbLine
 10
0.0
 20
14.0
 30
0.0
 11
180.0
 21
14.0
 31
0.0
  0
LINE
  5
6F
330
6A
100
AcDbEntity
  8
A-TITLEBLOCK
100
AcDbLine
 10
140.0
 20
0.0
 30
0.0
 11
140.0
 21
14.0
 31
0.0
  0
TEXT
  5
70
330
6A
100
AcDbEntity
  8
A-TEXT-NOTES
100
AcDbText
 10
1.5
 20
10.5
 30
0.0
 40
1.8
  1
DRAWING No.
  7
STD-LABEL
 11
1.5
 21
10.5
 31
0.0
100
AcDbText
 73
1
  0
ATTDEF
  5
71
330
6A
100
AcDbEntity
  8
A-TEXT-TITLE
100
AcDbText
 10
2.0
 20
2.5
 30
0.0
 40
3.5
  1
AS-2026-000-ALU-SD-001-R0
  7
STD-TITLE
 11
2.0
 21
2.5
 31
0.0
100
AcDbAttributeDefinition
  3
Drawing number
  2
DWG_NO
 70
0
 74
1
 71
1
 72
0
 11
2.0
 21
2.5
 31
0.0
  0
TEXT
  5
72
330
6A
100
AcDbEntity
  8
A-TEXT-NOTES
100
AcDbText
 10
141.5
 20
10.5
 30
0.0
 40
1.8
  1
REV
  7
STD-LABEL
 11
141.5
 21
10.5
 31
0.0
100
AcDbText
 73
1
  0
ATTDEF
  5
73
330
6A
100
AcDbEntity
  8
A-TEXT-TITLE
100
AcDbText
 10
152.0
 20
2.0
 30
0.0
 40
5.0
  1
R0
  7
STD-TITLE
 11
152.0
 21
2.0
 31
0.0
100
AcDbAttributeDefinition
  3
Current revision
  2
REV
 70
0
 74
1
 71
1
 72
0
 11
152.0
 21
2.0
 31
0.0
  0
LINE
  5
74
330
6A
100
AcDbEntity
  8
A-TITLEBLOCK
100
AcDbLine
 10
0.0
 20
24.0
 30
0.0
 11
180.0
 21
24.0
 31
0.0
  0
LINE
  5
75
330
6A
100
AcDbEntity
  8
A-TITLEBLOCK
100
AcDbLine
 10
45.0
 20
14.0
 30
0.0
 11
45.0
 21
24.0
 31
0.0
  0
LINE
  5
76
330
6A
100
AcDbEntity
  8
A-TITLEBLOCK
100
AcDbLine
 10
90.0
 20
14.0
 30
0.0
 11
90.0
 21
24.0
 31
0.0
  0
LINE
  5
77
330
6A
100
AcDbEntity
  8
A-TITLEBLOCK
100
AcDbLine
 10
135.0
 20
14.0
 30
0.0
 11
135.0
 21
24.0
 31
0.0
  0
TEXT
  5
78
330
6A
100
AcDbEntity
  8
A-TEXT-NOTES
100
AcDbText
 10
1.5
 20
20.5
 30
0.0
 40
1.8
  1
SCALE
  7
STD-LABEL
 11
1.5
 21
20.5
 31
0.0
100
AcDbText
 73
1
  0
ATTDEF
  5
79
330
6A
100
AcDbEntity
  8
A-TEXT-NOTES
100
AcDbText
 10
2.0
 20
15.5
 30
0.0
 40
2.5
  1
AS SHOWN
  7
STD-NOTES
 11
2.0
 21
15.5
 31
0.0
100
AcDbAttributeDefinition
  3
Scale(s)
  2
SCALE
 70
0
 74
1
 71
1
 72
0
 11
2.0
 21
15.5
 31
0.0
  0
TEXT
  5
7A
330
6A
100
AcDbEntity
  8
A-TEXT-NOTES
100
AcDbText
 10
46.5
 20
20.5
 30
0.0
 40
1.8
  1
DATE
  7
STD-LABEL
 11
46.5
 21
20.5
 31
0.0
100
AcDbText
 73
1
  0
ATTDEF
  5
7B
330
6A
100
AcDbEntity
  8
A-TEXT-NOTES
100
AcDbText
 10
47.0
 20
15.5
 30
0.0
 40
2.5
  1
DD.MM.YYYY
  7
STD-NOTES
 11
47.0
 21
15.5
 31
0.0
100
AcDbAttributeDefinition
  3
Issue date
  2
DATE
 70
0
 74
1
 71
1
 72
0
 11
47.0
 21
15.5
 31
0.0
  0
TEXT
  5
7C
330
6A
100
AcDbEntity
  8
A-TEXT-NOTES
100
AcDbText
 10
91.5
 20
20.5
 30
0.0
 40
1.8
  1
SHEET
  7
STD-LABEL
 11
91.5
 21
20.5
 31
0.0
100
AcDbText
 73
1
  0
ATTDEF
  5
7D
330
6A
100
AcDbEntity
  8
A-TEXT-NOTES
100
AcDbText
 10
92.0
 20
15.5
 30
0.0
 40
2.5
  1
01 OF 01
  7
STD-NOTES
 11
92.0
 21
15.5
 31
0.0
100
AcDbAttributeDefinition
  3
Sheet __ of __
  2
SHEET
 70
0
 74
1
 71
1
 72
0
 11
92.0
 21
15.5
 31
0.0
  0
TEXT
  5
7E
330
6A
100
AcDbEntity
  8
A-TEXT-NOTES
100
AcDbText
 10
136.5
 20
20.5
 30
0.0
 40
1.8
  1
SHEET SIZE
  7
STD-LABEL
 11
136.5
 21
20.5
 31
0.0
100
AcDbText
 73
1
  0
ATTDEF
  5
7F
330
6A
100
AcDbEntity
  8
A-TEXT-NOTES
100
AcDbText
 10
137.0
 20
15.5
 30
0.0
 40
2.5
  1
A3
  7
STD-NOTES
 11
137.0
 21
15.5
 31
0.0
100
AcDbAttributeDefinition
  3
Sheet size
  2
SIZE
 70
0
 74
1
 71
1
 72
0
 11
137.0
 21
15.5
 31
0.0
  0
LINE
  5
80
330
6A
100
AcDbEntity
  8
A-TITLEBLOCK
100
AcDbLine
 10
0.0
 20
34.0
 30
0.0
 11
180.0
 21
34.0
 31
0.0
  0
LINE
  5
81
330
6A
100
AcDbEntity
  8
A-TITLEBLOCK
100
AcDbLine
 10
60.0
 20
24.0
 30
0.0
 11
60.0
 21
34.0
 31
0.0
  0
LINE
  5
82
330
6A
100
AcDbEntity
  8
A-TITLEBLOCK
100
AcDbLine
 10
120.0
 20
24.0
 30
0.0
 11
120.0
 21
34.0
 31
0.0
  0
TEXT
  5
83
330
6A
100
AcDbEntity
  8
A-TEXT-NOTES
100
AcDbText
 10
1.5
 20
30.5
 30
0.0
 40
1.8
  1
DRAWN BY
  7
STD-LABEL
 11
1.5
 21
30.5
 31
0.0
100
AcDbText
 73
1
  0
ATTDEF
  5
84
330
6A
100
AcDbEntity
  8
A-TEXT-NOTES
100
AcDbText
 10
2.0
 20
25.5
 30
0.0
 40
2.5
  1
---
  7
STD-NOTES
 11
2.0
 21
25.5
 31
0.0
100
AcDbAttributeDefinition
  3
Drawn by
  2
DRAWN
 70
0
 74
1
 71
1
 72
0
 11
2.0
 21
25.5
 31
0.0
  0
TEXT
  5
85
330
6A
100
AcDbEntity
  8
A-TEXT-NOTES
100
AcDbText
 10
61.5
 20
30.5
 30
0.0
 40
1.8
  1
CHECKED BY
  7
STD-LABEL
 11
61.5
 21
30.5
 31
0.0
100
AcDbText
 73
1
  0
ATTDEF
  5
86
330
6A
100
AcDbEntity
  8
A-TEXT-NOTES
100
AcDbText
 10
62.0
 20
25.5
 30
0.0
 40
2.5
  1
---
  7
STD-NOTES
 11
62.0
 21
25.5
 31
0.0
100
AcDbAttributeDefinition
  3
Checked by
  2
CHECKED
 70
0
 74
1
 71
1
 72
0
 11
62.0
 21
25.5
 31
0.0
  0
TEXT
  5
87
330
6A
100
AcDbEntity
  8
A-TEXT-NOTES
100
AcDbText
 10
121.5
 20
30.5
 30
0.0
 40
1.8
  1
APPROVED BY
  7
STD-LABEL
 11
121.5
 21
30.5
 31
0.0
100
AcDbText
 73
1
  0
ATTDEF
  5
88
330
6A
100
AcDbEntity
  8
A-TEXT-NOTES
100
AcDbText
 10
122.0
 20
25.5
 30
0.0
 40
2.5
  1
---
  7
STD-NOTES
 11
122.0
 21
25.5
 31
0.0
100
AcDbAttributeDefinition
  3
Approved by
  2
APPROVED
 70
0
 74
1
 71
1
 72
0
 11
122.0
 21
25.5
 31
0.0
  0
LINE
  5
89
330
6A
100
AcDbEntity
  8
A-TITLEBLOCK
100
AcDbLine
 10
0.0
 20
52.0
 30
0.0
 11
180.0
 21
52.0
 31
0.0
  0
TEXT
  5
8A
330
6A
100
AcDbEntity
  8
A-TEXT-NOTES
100
AcDbText
 10
1.5
 20
48.5
 30
0.0
 40
1.8
  1
DRAWING TITLE
  7
STD-LABEL
 11
1.5
 21
48.5
 31
0.0
100
AcDbText
 73
1
  0
ATTDEF
  5
8B
330
6A
100
AcDbEntity
  8
A-TEXT-TITLE
100
AcDbText
 10
2.0
 20
41.5
 30
0.0
 40
5.0
  1
DRAWING TITLE
  7
STD-TITLE
 11
2.0
 21
41.5
 31
0.0
100
AcDbAttributeDefinition
  3
Drawing title - line 1
  2
TITLE1
 70
0
 74
1
 71
1
 72
0
 11
2.0
 21
41.5
 31
0.0
  0
ATTDEF
  5
8C
330
6A
100
AcDbEntity
  8
A-TEXT-TITLE
100
AcDbText
 10
2.0
 20
36.0
 30
0.0
 40
3.5
  1
ELEVATION / SECTION / DETAIL
  7
STD-SUBTITLE
 11
2.0
 21
36.0
 31
0.0
100
AcDbAttributeDefinition
  3
Drawing title - line 2
  2
TITLE2
 70
0
 74
1
 71
1
 72
0
 11
2.0
 21
36.0
 31
0.0
  0
LINE
  5
8D
330
6A
100
AcDbEntity
  8
A-TITLEBLOCK
100
AcDbLine
 10
0.0
 20
60.0
 30
0.0
 11
180.0
 21
60.0
 31
0.0
  0
LINE
  5
8E
330
6A
100
AcDbEntity
  8
A-TITLEBLOCK
100
AcDbLine
 10
0.0
 20
68.0
 30
0.0
 11
180.0
 21
68.0
 31
0.0
  0
LINE
  5
8F
330
6A
100
AcDbEntity
  8
A-TITLEBLOCK
100
AcDbLine
 10
24.0
 20
52.0
 30
0.0
 11
24.0
 21
68.0
 31
0.0
  0
TEXT
  5
90
330
6A
100
AcDbEntity
  8
A-TEXT-NOTES
100
AcDbText
 10
1.5
 20
63.0
 30
0.0
 40
2.0
  1
PROJECT
  7
STD-LABEL
 11
1.5
 21
63.0
 31
0.0
100
AcDbText
 73
1
  0
TEXT
  5
91
330
6A
100
AcDbEntity
  8
A-TEXT-NOTES
100
AcDbText
 10
1.5
 20
55.0
 30
0.0
 40
2.0
  1
CLIENT
  7
STD-LABEL
 11
1.5
 21
55.0
 31
0.0
100
AcDbText
 73
1
  0
ATTDEF
  5
92
330
6A
100
AcDbEntity
  8
A-TEXT-NOTES
100
AcDbText
 10
26.0
 20
62.5
 30
0.0
 40
2.5
  1
PROJECT NAME
  7
STD-NOTES
 11
26.0
 21
62.5
 31
0.0
100
AcDbAttributeDefinition
  3
Project name
  2
PROJECT
 70
0
 74
1
 71
1
 72
0
 11
26.0
 21
62.5
 31
0.0
  0
ATTDEF
  5
93
330
6A
100
AcDbEntity
  8
A-TEXT-NOTES
100
AcDbText
 10
26.0
 20
54.5
 30
0.0
 40
2.5
  1
CLIENT NAME
  7
STD-NOTES
 11
26.0
 21
54.5
 31
0.0
100
AcDbAttributeDefinition
  3
Client / main contractor
  2
CLIENT
 70
0
 74
1
 71
1
 72
0
 11
26.0
 21
54.5
 31
0.0
  0
LINE
  5
94
330
6A
100
AcDbEntity
  8
A-TITLEBLOCK
100
AcDbLine
 10
0.0
 20
86.0
 30
0.0
 11
180.0
 21
86.0
 31
0.0
  0
LINE
  5
95
330
6A
100
AcDbEntity
  8
A-TITLEBLOCK
100
AcDbLine
 10
32.0
 20
68.0
 30
0.0
 11
32.0
 21
86.0
 31
0.0
  0
LWPOLYLINE
  5
96
330
6A
100
AcDbEntity
  8
A-TITLEBLOCK
100
AcDbPolyline
 90
4
 70
1
 10
3.0
 20
70.0
 10
29.0
 20
70.0
 10
29.0
 20
84.0
 10
3.0
 20
84.0
  0
TEXT
  5
97
330
6A
100
AcDbEntity
  8
A-TEXT-TITLE
100
AcDbText
 10
16.0
 20
77.0
 30
0.0
 40
5.0
  1
ASG
  7
STD-TITLE
 72
1
 11
16.0
 21
77.0
 31
0.0
100
AcDbText
 73
2
  0
TEXT
  5
98
330
6A
100
AcDbEntity
  8
A-TEXT-NOTES
100
AcDbText
 10
16.0
 20
72.0
 30
0.0
 40
1.8
  1
LOGO
  7
STD-LABEL
 72
1
 11
16.0
 21
72.0
 31
0.0
100
AcDbText
 73
2
  0
TEXT
  5
99
330
6A
100
AcDbEntity
  8
A-TEXT-TITLE
100
AcDbText
 10
34.0
 20
79.5
 30
0.0
 40
3.2
  1
SAEED AL SIRAJ GLASS & ALUMINIUM WORKS L.L.C.
  7
STD-TITLE
 11
34.0
 21
79.5
 31
0.0
100
AcDbText
 73
1
  0
TEXT
  5
9A
330
6A
100
AcDbEntity
  8
A-TEXT-NOTES
100
AcDbText
 10
34.0
 20
74.5
 30
0.0
 40
2.5
  1
AL SIRAJ GROUP - ALUMINIUM & GLASS DIVISION
  7
STD-NOTES
 11
34.0
 21
74.5
 31
0.0
100
AcDbText
 73
1
  0
ATTDEF
  5
9B
330
6A
100
AcDbEntity
  8
A-TEXT-NOTES
100
AcDbText
 10
34.0
 20
70.5
 30
0.0
 40
2.0
  1
UNITED ARAB EMIRATES
  7
STD-LABEL
 11
34.0
 21
70.5
 31
0.0
100
AcDbAttributeDefinition
  3
Company contact line
  2
CONTACT
 70
0
 74
1
 71
1
 72
0
 11
34.0
 21
70.5
 31
0.0
  0
LINE
  5
9C
330
6A
100
AcDbEntity
  8
A-TITLEBLOCK
100
AcDbLine
 10
0.0
 20
91.0
 30
0.0
 11
180.0
 21
91.0
 31
0.0
  0
LINE
  5
9D
330
6A
100
AcDbEntity
  8
A-TITLEBLOCK
100
AcDbLine
 10
15.0
 20
86.0
 30
0.0
 11
15.0
 21
111.0
 31
0.0
  0
LINE
  5
9E
330
6A
100
AcDbEntity
  8
A-TITLEBLOCK
100
AcDbLine
 10
40.0
 20
86.0
 30
0.0
 11
40.0
 21
111.0
 31
0.0
  0
LINE
  5
9F
330
6A
100
AcDbEntity
  8
A-TITLEBLOCK
100
AcDbLine
 10
160.0
 20
86.0
 30
0.0
 11
160.0
 21
111.0
 31
0.0
  0
TEXT
  5
A0
330
6A
100
AcDbEntity
  8
A-TEXT-NOTES
100
AcDbText
 10
7.5
 20
88.5
 30
0.0
 40
2.0
  1
REV
  7
STD-LABEL
 72
1
 11
7.5
 21
88.5
 31
0.0
100
AcDbText
 73
2
  0
TEXT
  5
A1
330
6A
100
AcDbEntity
  8
A-TEXT-NOTES
100
AcDbText
 10
27.5
 20
88.5
 30
0.0
 40
2.0
  1
DATE
  7
STD-LABEL
 72
1
 11
27.5
 21
88.5
 31
0.0
100
AcDbText
 73
2
  0
TEXT
  5
A2
330
6A
100
AcDbEntity
  8
A-TEXT-NOTES
100
AcDbText
 10
100.0
 20
88.5
 30
0.0
 40
2.0
  1
DESCRIPTION
  7
STD-LABEL
 72
1
 11
100.0
 21
88.5
 31
0.0
100
AcDbText
 73
2
  0
TEXT
  5
A3
330
6A
100
AcDbEntity
  8
A-TEXT-NOTES
100
AcDbText
 10
170.0
 20
88.5
 30
0.0
 40
2.0
  1
BY
  7
STD-LABEL
 72
1
 11
170.0
 21
88.5
 31
0.0
100
AcDbText
 73
2
  0
ATTDEF
  5
A4
330
6A
100
AcDbEntity
  8
A-TEXT-NOTES
100
AcDbText
 10
1.5
 20
92.5
 30
0.0
 40
2.0
  1

  7
STD-LABEL
 11
1.5
 21
92.5
 31
0.0
100
AcDbAttributeDefinition
  3
Revision row 1 - Rev
  2
R1_REV
 70
0
 74
1
 71
1
 72
0
 11
1.5
 21
92.5
 31
0.0
  0
ATTDEF
  5
A5
330
6A
100
AcDbEntity
  8
A-TEXT-NOTES
100
AcDbText
 10
16.5
 20
92.5
 30
0.0
 40
2.0
  1

  7
STD-LABEL
 11
16.5
 21
92.5
 31
0.0
100
AcDbAttributeDefinition
  3
Revision row 1 - Date
  2
R1_DATE
 70
0
 74
1
 71
1
 72
0
 11
16.5
 21
92.5
 31
0.0
  0
ATTDEF
  5
A6
330
6A
100
AcDbEntity
  8
A-TEXT-NOTES
100
AcDbText
 10
41.5
 20
92.5
 30
0.0
 40
2.0
  1

  7
STD-LABEL
 11
41.5
 21
92.5
 31
0.0
100
AcDbAttributeDefinition
  3
Revision row 1 - Description
  2
R1_DESC
 70
0
 74
1
 71
1
 72
0
 11
41.5
 21
92.5
 31
0.0
  0
ATTDEF
  5
A7
330
6A
100
AcDbEntity
  8
A-TEXT-NOTES
100
AcDbText
 10
161.5
 20
92.5
 30
0.0
 40
2.0
  1

  7
STD-LABEL
 11
161.5
 21
92.5
 31
0.0
100
AcDbAttributeDefinition
  3
Revision row 1 - By
  2
R1_BY
 70
0
 74
1
 71
1
 72
0
 11
161.5
 21
92.5
 31
0.0
  0
LINE
  5
A8
330
6A
100
AcDbEntity
  8
A-TITLEBLOCK
100
AcDbLine
 10
0.0
 20
96.0
 30
0.0
 11
180.0
 21
96.0
 31
0.0
  0
ATTDEF
  5
A9
330
6A
100
AcDbEntity
  8
A-TEXT-NOTES
100
AcDbText
 10
1.5
 20
97.5
 30
0.0
 40
2.0
  1

  7
STD-LABEL
 11
1.5
 21
97.5
 31
0.0
100
AcDbAttributeDefinition
  3
Revision row 2 - Rev
  2
R2_REV
 70
0
 74
1
 71
1
 72
0
 11
1.5
 21
97.5
 31
0.0
  0
ATTDEF
  5
AA
330
6A
100
AcDbEntity
  8
A-TEXT-NOTES
100
AcDbText
 10
16.5
 20
97.5
 30
0.0
 40
2.0
  1

  7
STD-LABEL
 11
16.5
 21
97.5
 31
0.0
100
AcDbAttributeDefinition
  3
Revision row 2 - Date
  2
R2_DATE
 70
0
 74
1
 71
1
 72
0
 11
16.5
 21
97.5
 31
0.0
  0
ATTDEF
  5
AB
330
6A
100
AcDbEntity
  8
A-TEXT-NOTES
100
AcDbText
 10
41.5
 20
97.5
 30
0.0
 40
2.0
  1

  7
STD-LABEL
 11
41.5
 21
97.5
 31
0.0
100
AcDbAttributeDefinition
  3
Revision row 2 - Description
  2
R2_DESC
 70
0
 74
1
 71
1
 72
0
 11
41.5
 21
97.5
 31
0.0
  0
ATTDEF
  5
AC
330
6A
100
AcDbEntity
  8
A-TEXT-NOTES
100
AcDbText
 10
161.5
 20
97.5
 30
0.0
 40
2.0
  1

  7
STD-LABEL
 11
161.5
 21
97.5
 31
0.0
100
AcDbAttributeDefinition
  3
Revision row 2 - By
  2
R2_BY
 70
0
 74
1
 71
1
 72
0
 11
161.5
 21
97.5
 31
0.0
  0
LINE
  5
AD
330
6A
100
AcDbEntity
  8
A-TITLEBLOCK
100
AcDbLine
 10
0.0
 20
101.0
 30
0.0
 11
180.0
 21
101.0
 31
0.0
  0
ATTDEF
  5
AE
330
6A
100
AcDbEntity
  8
A-TEXT-NOTES
100
AcDbText
 10
1.5
 20
102.5
 30
0.0
 40
2.0
  1

  7
STD-LABEL
 11
1.5
 21
102.5
 31
0.0
100
AcDbAttributeDefinition
  3
Revision row 3 - Rev
  2
R3_REV
 70
0
 74
1
 71
1
 72
0
 11
1.5
 21
102.5
 31
0.0
  0
ATTDEF
  5
AF
330
6A
100
AcDbEntity
  8
A-TEXT-NOTES
100
AcDbText
 10
16.5
 20
102.5
 30
0.0
 40
2.0
  1

  7
STD-LABEL
 11
16.5
 21
102.5
 31
0.0
100
AcDbAttributeDefinition
  3
Revision row 3 - Date
  2
R3_DATE
 70
0
 74
1
 71
1
 72
0
 11
16.5
 21
102.5
 31
0.0
  0
ATTDEF
  5
B0
330
6A
100
AcDbEntity
  8
A-TEXT-NOTES
100
AcDbText
 10
41.5
 20
102.5
 30
0.0
 40
2.0
  1

  7
STD-LABEL
 11
41.5
 21
102.5
 31
0.0
100
AcDbAttributeDefinition
  3
Revision row 3 - Description
  2
R3_DESC
 70
0
 74
1
 71
1
 72
0
 11
41.5
 21
102.5
 31
0.0
  0
ATTDEF
  5
B1
330
6A
100
AcDbEntity
  8
A-TEXT-NOTES
100
AcDbText
 10
161.5
 20
102.5
 30
0.0
 40
2.0
  1

  7
STD-LABEL
 11
161.5
 21
102.5
 31
0.0
100
AcDbAttributeDefinition
  3
Revision row 3 - By
  2
R3_BY
 70
0
 74
1
 71
1
 72
0
 11
161.5
 21
102.5
 31
0.0
  0
LINE
  5
B2
330
6A
100
AcDbEntity
  8
A-TITLEBLOCK
100
AcDbLine
 10
0.0
 20
106.0
 30
0.0
 11
180.0
 21
106.0
 31
0.0
  0
ATTDEF
  5
B3
330
6A
100
AcDbEntity
  8
A-TEXT-NOTES
100
AcDbText
 10
1.5
 20
107.5
 30
0.0
 40
2.0
  1

  7
STD-LABEL
 11
1.5
 21
107.5
 31
0.0
100
AcDbAttributeDefinition
  3
Revision row 4 - Rev
  2
R4_REV
 70
0
 74
1
 71
1
 72
0
 11
1.5
 21
107.5
 31
0.0
  0
ATTDEF
  5
B4
330
6A
100
AcDbEntity
  8
A-TEXT-NOTES
100
AcDbText
 10
16.5
 20
107.5
 30
0.0
 40
2.0
  1

  7
STD-LABEL
 11
16.5
 21
107.5
 31
0.0
100
AcDbAttributeDefinition
  3
Revision row 4 - Date
  2
R4_DATE
 70
0
 74
1
 71
1
 72
0
 11
16.5
 21
107.5
 31
0.0
  0
ATTDEF
  5
B5
330
6A
100
AcDbEntity
  8
A-TEXT-NOTES
100
AcDbText
 10
41.5
 20
107.5
 30
0.0
 40
2.0
  1

  7
STD-LABEL
 11
41.5
 21
107.5
 31
0.0
100
AcDbAttributeDefinition
  3
Revision row 4 - Description
  2
R4_DESC
 70
0
 74
1
 71
1
 72
0
 11
41.5
 21
107.5
 31
0.0
  0
ATTDEF
  5
B6
330
6A
100
AcDbEntity
  8
A-TEXT-NOTES
100
AcDbText
 10
161.5
 20
107.5
 30
0.0
 40
2.0
  1

  7
STD-LABEL
 11
161.5
 21
107.5
 31
0.0
100
AcDbAttributeDefinition
  3
Revision row 4 - By
  2
R4_BY
 70
0
 74
1
 71
1
 72
0
 11
161.5
 21
107.5
 31
0.0
  0
ENDBLK
  5
6C
330
6A
100
AcDbEntity
  8
0
100
AcDbBlockEnd
  0
BLOCK
  5
B8
330
B7
100
AcDbEntity
  8
0
100
AcDbBlockBegin
  2
ASG-SECTION-MARK
 70
2
 10
0.0
 20
0.0
 30
0.0
  3
ASG-SECTION-MARK
  1

  0
CIRCLE
  5
BA
330
B7
100
AcDbEntity
  8
0
100
AcDbCircle
 10
0.0
 20
0.0
 30
0.0
 40
5.0
  0
ATTDEF
  5
BB
330
B7
100
AcDbEntity
  8
0
100
AcDbText
 10
0.0
 20
0.0
 30
0.0
 40
3.5
  1
A
  7
STD-TITLE
 72
1
 11
0.0
 21
0.0
 31
0.0
100
AcDbAttributeDefinition
  3
Section letter
  2
SEC
 70
0
 74
2
 71
1
 72
0
 11
0.0
 21
0.0
 31
0.0
  0
SOLID
  5
BC
330
B7
100
AcDbEntity
  8
0
100
AcDbTrace
 10
-2.5
 20
-5.5
 30
0.0
 11
2.5
 21
-5.5
 31
0.0
 12
0.0
 22
-9.0
 32
0.0
 13
0.0
 23
-9.0
 33
0.0
  0
ENDBLK
  5
B9
330
B7
100
AcDbEntity
  8
0
100
AcDbBlockEnd
  0
BLOCK
  5
BE
330
BD
100
AcDbEntity
  8
0
100
AcDbBlockBegin
  2
ASG-REV-DELTA
 70
2
 10
0.0
 20
0.0
 30
0.0
  3
ASG-REV-DELTA
  1

  0
LWPOLYLINE
  5
C0
330
BD
100
AcDbEntity
  8
0
100
AcDbPolyline
 90
3
 70
1
 10
-4.0
 20
-2.3
 10
4.0
 20
-2.3
 10
0.0
 20
4.6
  0
ATTDEF
  5
C1
330
BD
100
AcDbEntity
  8
0
100
AcDbText
 10
0.0
 20
0.0
 30
0.0
 40
2.0
  1
1
  7
STD-LABEL
 72
1
 11
0.0
 21
0.0
 31
0.0
100
AcDbAttributeDefinition
  3
Revision number
  2
REV
 70
0
 74
2
 71
1
 72
0
 11
0.0
 21
0.0
 31
0.0
  0
ENDBLK
  5
BF
330
BD
100
AcDbEntity
  8
0
100
AcDbBlockEnd
  0
BLOCK
  5
C3
330
C2
100
AcDbEntity
  8
0
100
AcDbBlockBegin
  2
ASG-SEALANT
 70
0
 10
0.0
 20
0.0
 30
0.0
  3
ASG-SEALANT
  1

  0
LWPOLYLINE
  5
C5
330
C2
100
AcDbEntity
  8
0
100
AcDbPolyline
 90
4
 70
1
 10
0.0
 20
0.0
 10
10.0
 20
0.0
 10
10.0
 20
10.0
 10
0.0
 20
10.0
  0
ARC
  5
C6
330
C2
100
AcDbEntity
  8
0
100
AcDbCircle
 10
5.0
 20
10.0
 30
0.0
 40
5.0
100
AcDbArc
 50
180.0
 51
360.0
  0
ENDBLK
  5
C4
330
C2
100
AcDbEntity
  8
0
100
AcDbBlockEnd
  0
BLOCK
  5
C8
330
C7
100
AcDbEntity
  8
0
100
AcDbBlockBegin
  2
ASG-ITEM-TAG
 70
2
 10
0.0
 20
0.0
 30
0.0
  3
ASG-ITEM-TAG
  1

  0
ELLIPSE
  5
CA
330
C7
100
AcDbEntity
  8
0
100
AcDbEllipse
 10
0.0
 20
0.0
 30
0.0
 11
8.0
 21
0.0
 31
0.0
 40
0.55
 41
0.0
 42
6.283185307179586
  0
ATTDEF
  5
CB
330
C7
100
AcDbEntity
  8
0
100
AcDbText
 10
0.0
 20
0.0
 30
0.0
 40
2.5
  1
W-01
  7
STD-TITLE
 72
1
 11
0.0
 21
0.0
 31
0.0
100
AcDbAttributeDefinition
  3
Item mark
  2
MARK
 70
0
 74
2
 71
1
 72
0
 11
0.0
 21
0.0
 31
0.0
  0
ENDBLK
  5
C9
330
C7
100
AcDbEntity
  8
0
100
AcDbBlockEnd
  0
BLOCK
  5
D2
330
D1
100
AcDbEntity
  8
0
100
AcDbBlockBegin
  2
*Paper_Space1
 70
0
 10
0.0
 20
0.0
 30
0.0
  3
*Paper_Space1
  1

  0
VIEWPORT
  5
D5
330
D1
100
AcDbEntity
 67
1
  8
VIEWPORTS
100
AcDbViewport
 10
645888.0
 20
456192.0
 30
0.0
 40
1420953.6
 41
1003622.4
 68
1
 69
1
 12
645888.0
 22
456192.0
 13
0.0
 23
0.0
 14
10.0
 24
10.0
 15
10.0
 25
10.0
 16
0.0
 26
0.0
 36
1.0
 17
0.0
 27
0.0
 37
0.0
 42
50.0
 43
0.0
 44
0.0
 45
1003622.4
 50
0.0
 51
0.0
 72
100
 90
557088
  1

281
0
 71
0
 74
0
110
0.0
120
0.0
130
0.0
111
1.0
121
0.0
131
0.0
112
0.0
122
1.0
132
0.0
 79
0
146
0.0
282
0
  0
LWPOLYLINE
  5
FB
330
D1
100
AcDbEntity
 67
1
  8
A-TITLEBLOCK
100
AcDbPolyline
 90
4
 70
1
 10
20.0
 20
10.0
 10
831.0
 20
10.0
 10
831.0
 20
584.0
 10
20.0
 20
584.0
  0
INSERT
  5
FC
330
D1
100
AcDbEntity
 67
1
  8
A-TITLEBLOCK
100
AcDbBlockReference
 66
1
  2
ASG-TITLEBLOCK
 10
831.0
 20
10.0
 30
0.0
  0
ATTRIB
  5
FE
330
D1
100
AcDbEntity
 67
1
  8
A-TEXT-TITLE
100
AcDbText
 10
653.0
 20
12.5
 30
0.0
 40
3.5
  1
AS-YYYY-NNN-DIS-TYP-001-R0
  7
STD-TITLE
 11
653.0
 21
12.5
 31
0.0
100
AcDbAttribute
  2
DWG_NO
 70
0
 74
1
 71
1
 72
0
 11
653.0
 21
12.5
 31
0.0
  0
ATTRIB
  5
FF
330
D1
100
AcDbEntity
 67
1
  8
A-TEXT-TITLE
100
AcDbText
 10
803.0
 20
12.0
 30
0.0
 40
5.0
  1
R0
  7
STD-TITLE
 11
803.0
 21
12.0
 31
0.0
100
AcDbAttribute
  2
REV
 70
0
 74
1
 71
1
 72
0
 11
803.0
 21
12.0
 31
0.0
  0
ATTRIB
  5
100
330
D1
100
AcDbEntity
 67
1
  8
A-TEXT-NOTES
100
AcDbText
 10
653.0
 20
25.5
 30
0.0
 40
2.5
  1
AS SHOWN
  7
STD-NOTES
 11
653.0
 21
25.5
 31
0.0
100
AcDbAttribute
  2
SCALE
 70
0
 74
1
 71
1
 72
0
 11
653.0
 21
25.5
 31
0.0
  0
ATTRIB
  5
101
330
D1
100
AcDbEntity
 67
1
  8
A-TEXT-NOTES
100
AcDbText
 10
698.0
 20
25.5
 30
0.0
 40
2.5
  1
DD.MM.YYYY
  7
STD-NOTES
 11
698.0
 21
25.5
 31
0.0
100
AcDbAttribute
  2
DATE
 70
0
 74
1
 71
1
 72
0
 11
698.0
 21
25.5
 31
0.0
  0
ATTRIB
  5
102
330
D1
100
AcDbEntity
 67
1
  8
A-TEXT-NOTES
100
AcDbText
 10
743.0
 20
25.5
 30
0.0
 40
2.5
  1
01 OF 01
  7
STD-NOTES
 11
743.0
 21
25.5
 31
0.0
100
AcDbAttribute
  2
SHEET
 70
0
 74
1
 71
1
 72
0
 11
743.0
 21
25.5
 31
0.0
  0
ATTRIB
  5
103
330
D1
100
AcDbEntity
 67
1
  8
A-TEXT-NOTES
100
AcDbText
 10
788.0
 20
25.5
 30
0.0
 40
2.5
  1
A1
  7
STD-NOTES
 11
788.0
 21
25.5
 31
0.0
100
AcDbAttribute
  2
SIZE
 70
0
 74
1
 71
1
 72
0
 11
788.0
 21
25.5
 31
0.0
  0
ATTRIB
  5
104
330
D1
100
AcDbEntity
 67
1
  8
A-TEXT-NOTES
100
AcDbText
 10
653.0
 20
35.5
 30
0.0
 40
2.5
  1
---
  7
STD-NOTES
 11
653.0
 21
35.5
 31
0.0
100
AcDbAttribute
  2
DRAWN
 70
0
 74
1
 71
1
 72
0
 11
653.0
 21
35.5
 31
0.0
  0
ATTRIB
  5
105
330
D1
100
AcDbEntity
 67
1
  8
A-TEXT-NOTES
100
AcDbText
 10
713.0
 20
35.5
 30
0.0
 40
2.5
  1
---
  7
STD-NOTES
 11
713.0
 21
35.5
 31
0.0
100
AcDbAttribute
  2
CHECKED
 70
0
 74
1
 71
1
 72
0
 11
713.0
 21
35.5
 31
0.0
  0
ATTRIB
  5
106
330
D1
100
AcDbEntity
 67
1
  8
A-TEXT-NOTES
100
AcDbText
 10
773.0
 20
35.5
 30
0.0
 40
2.5
  1
---
  7
STD-NOTES
 11
773.0
 21
35.5
 31
0.0
100
AcDbAttribute
  2
APPROVED
 70
0
 74
1
 71
1
 72
0
 11
773.0
 21
35.5
 31
0.0
  0
ATTRIB
  5
107
330
D1
100
AcDbEntity
 67
1
  8
A-TEXT-TITLE
100
AcDbText
 10
653.0
 20
51.5
 30
0.0
 40
5.0
  1
DRAWING TITLE
  7
STD-TITLE
 11
653.0
 21
51.5
 31
0.0
100
AcDbAttribute
  2
TITLE1
 70
0
 74
1
 71
1
 72
0
 11
653.0
 21
51.5
 31
0.0
  0
ATTRIB
  5
108
330
D1
100
AcDbEntity
 67
1
  8
A-TEXT-TITLE
100
AcDbText
 10
653.0
 20
46.0
 30
0.0
 40
3.5
  1
ELEVATION / SECTION / DETAIL
  7
STD-SUBTITLE
 11
653.0
 21
46.0
 31
0.0
100
AcDbAttribute
  2
TITLE2
 70
0
 74
1
 71
1
 72
0
 11
653.0
 21
46.0
 31
0.0
  0
ATTRIB
  5
109
330
D1
100
AcDbEntity
 67
1
  8
A-TEXT-NOTES
100
AcDbText
 10
677.0
 20
72.5
 30
0.0
 40
2.5
  1
PROJECT NAME
  7
STD-NOTES
 11
677.0
 21
72.5
 31
0.0
100
AcDbAttribute
  2
PROJECT
 70
0
 74
1
 71
1
 72
0
 11
677.0
 21
72.5
 31
0.0
  0
ATTRIB
  5
10A
330
D1
100
AcDbEntity
 67
1
  8
A-TEXT-NOTES
100
AcDbText
 10
677.0
 20
64.5
 30
0.0
 40
2.5
  1
CLIENT NAME
  7
STD-NOTES
 11
677.0
 21
64.5
 31
0.0
100
AcDbAttribute
  2
CLIENT
 70
0
 74
1
 71
1
 72
0
 11
677.0
 21
64.5
 31
0.0
  0
ATTRIB
  5
10B
330
D1
100
AcDbEntity
 67
1
  8
A-TEXT-NOTES
100
AcDbText
 10
685.0
 20
80.5
 30
0.0
 40
2.0
  1
UNITED ARAB EMIRATES
  7
STD-LABEL
 11
685.0
 21
80.5
 31
0.0
100
AcDbAttribute
  2
CONTACT
 70
0
 74
1
 71
1
 72
0
 11
685.0
 21
80.5
 31
0.0
  0
ATTRIB
  5
10C
330
D1
100
AcDbEntity
 67
1
  8
A-TEXT-NOTES
100
AcDbText
 10
652.5
 20
102.5
 30
0.0
 40
2.0
  1
R0
  7
STD-LABEL
 11
652.5
 21
102.5
 31
0.0
100
AcDbAttribute
  2
R1_REV
 70
0
 74
1
 71
1
 72
0
 11
652.5
 21
102.5
 31
0.0
  0
ATTRIB
  5
10D
330
D1
100
AcDbEntity
 67
1
  8
A-TEXT-NOTES
100
AcDbText
 10
667.5
 20
102.5
 30
0.0
 40
2.0
  1
DD.MM.YYYY
  7
STD-LABEL
 11
667.5
 21
102.5
 31
0.0
100
AcDbAttribute
  2
R1_DATE
 70
0
 74
1
 71
1
 72
0
 11
667.5
 21
102.5
 31
0.0
  0
ATTRIB
  5
10E
330
D1
100
AcDbEntity
 67
1
  8
A-TEXT-NOTES
100
AcDbText
 10
692.5
 20
102.5
 30
0.0
 40
2.0
  1
FIRST ISSUE FOR APPROVAL
  7
STD-LABEL
 11
692.5
 21
102.5
 31
0.0
100
AcDbAttribute
  2
R1_DESC
 70
0
 74
1
 71
1
 72
0
 11
692.5
 21
102.5
 31
0.0
  0
ATTRIB
  5
10F
330
D1
100
AcDbEntity
 67
1
  8
A-TEXT-NOTES
100
AcDbText
 10
812.5
 20
102.5
 30
0.0
 40
2.0
  1
---
  7
STD-LABEL
 11
812.5
 21
102.5
 31
0.0
100
AcDbAttribute
  2
R1_BY
 70
0
 74
1
 71
1
 72
0
 11
812.5
 21
102.5
 31
0.0
  0
ATTRIB
  5
110
330
D1
100
AcDbEntity
 67
1
  8
A-TEXT-NOTES
100
AcDbText
 10
652.5
 20
107.5
 30
0.0
 40
2.0
  1

  7
STD-LABEL
 11
652.5
 21
107.5
 31
0.0
100
AcDbAttribute
  2
R2_REV
 70
0
 74
1
 71
1
 72
0
 11
652.5
 21
107.5
 31
0.0
  0
ATTRIB
  5
111
330
D1
100
AcDbEntity
 67
1
  8
A-TEXT-NOTES
100
AcDbText
 10
667.5
 20
107.5
 30
0.0
 40
2.0
  1

  7
STD-LABEL
 11
667.5
 21
107.5
 31
0.0
100
AcDbAttribute
  2
R2_DATE
 70
0
 74
1
 71
1
 72
0
 11
667.5
 21
107.5
 31
0.0
  0
ATTRIB
  5
112
330
D1
100
AcDbEntity
 67
1
  8
A-TEXT-NOTES
100
AcDbText
 10
692.5
 20
107.5
 30
0.0
 40
2.0
  1

  7
STD-LABEL
 11
692.5
 21
107.5
 31
0.0
100
AcDbAttribute
  2
R2_DESC
 70
0
 74
1
 71
1
 72
0
 11
692.5
 21
107.5
 31
0.0
  0
ATTRIB
  5
113
330
D1
100
AcDbEntity
 67
1
  8
A-TEXT-NOTES
100
AcDbText
 10
812.5
 20
107.5
 30
0.0
 40
2.0
  1

  7
STD-LABEL
 11
812.5
 21
107.5
 31
0.0
100
AcDbAttribute
  2
R2_BY
 70
0
 74
1
 71
1
 72
0
 11
812.5
 21
107.5
 31
0.0
  0
ATTRIB
  5
114
330
D1
100
AcDbEntity
 67
1
  8
A-TEXT-NOTES
100
AcDbText
 10
652.5
 20
112.5
 30
0.0
 40
2.0
  1

  7
STD-LABEL
 11
652.5
 21
112.5
 31
0.0
100
AcDbAttribute
  2
R3_REV
 70
0
 74
1
 71
1
 72
0
 11
652.5
 21
112.5
 31
0.0
  0
ATTRIB
  5
115
330
D1
100
AcDbEntity
 67
1
  8
A-TEXT-NOTES
100
AcDbText
 10
667.5
 20
112.5
 30
0.0
 40
2.0
  1

  7
STD-LABEL
 11
667.5
 21
112.5
 31
0.0
100
AcDbAttribute
  2
R3_DATE
 70
0
 74
1
 71
1
 72
0
 11
667.5
 21
112.5
 31
0.0
  0
ATTRIB
  5
116
330
D1
100
AcDbEntity
 67
1
  8
A-TEXT-NOTES
100
AcDbText
 10
692.5
 20
112.5
 30
0.0
 40
2.0
  1

  7
STD-LABEL
 11
692.5
 21
112.5
 31
0.0
100
AcDbAttribute
  2
R3_DESC
 70
0
 74
1
 71
1
 72
0
 11
692.5
 21
112.5
 31
0.0
  0
ATTRIB
  5
117
330
D1
100
AcDbEntity
 67
1
  8
A-TEXT-NOTES
100
AcDbText
 10
812.5
 20
112.5
 30
0.0
 40
2.0
  1

  7
STD-LABEL
 11
812.5
 21
112.5
 31
0.0
100
AcDbAttribute
  2
R3_BY
 70
0
 74
1
 71
1
 72
0
 11
812.5
 21
112.5
 31
0.0
  0
ATTRIB
  5
118
330
D1
100
AcDbEntity
 67
1
  8
A-TEXT-NOTES
100
AcDbText
 10
652.5
 20
117.5
 30
0.0
 40
2.0
  1

  7
STD-LABEL
 11
652.5
 21
117.5
 31
0.0
100
AcDbAttribute
  2
R4_REV
 70
0
 74
1
 71
1
 72
0
 11
652.5
 21
117.5
 31
0.0
  0
ATTRIB
  5
119
330
D1
100
AcDbEntity
 67
1
  8
A-TEXT-NOTES
100
AcDbText
 10
667.5
 20
117.5
 30
0.0
 40
2.0
  1

  7
STD-LABEL
 11
667.5
 21
117.5
 31
0.0
100
AcDbAttribute
  2
R4_DATE
 70
0
 74
1
 71
1
 72
0
 11
667.5
 21
117.5
 31
0.0
  0
ATTRIB
  5
11A
330
D1
100
AcDbEntity
 67
1
  8
A-TEXT-NOTES
100
AcDbText
 10
692.5
 20
117.5
 30
0.0
 40
2.0
  1

  7
STD-LABEL
 11
692.5
 21
117.5
 31
0.0
100
AcDbAttribute
  2
R4_DESC
 70
0
 74
1
 71
1
 72
0
 11
692.5
 21
117.5
 31
0.0
  0
ATTRIB
  5
11B
330
D1
100
AcDbEntity
 67
1
  8
A-TEXT-NOTES
100
AcDbText
 10
812.5
 20
117.5
 30
0.0
 40
2.0
  1

  7
STD-LABEL
 11
812.5
 21
117.5
 31
0.0
100
AcDbAttribute
  2
R4_BY
 70
0
 74
1
 71
1
 72
0
 11
812.5
 21
117.5
 31
0.0
  0
SEQEND
  5
FD
330
FC
100
AcDbEntity
 67
1
  8
A-TITLEBLOCK
  0
LINE
  5
11C
330
D1
100
AcDbEntity
 67
1
  8
A-TITLEBLOCK
100
AcDbLine
 10
651.0
 20
121.0
 30
0.0
 11
651.0
 21
584.0
 31
0.0
  0
TEXT
  5
11D
330
D1
100
AcDbEntity
 67
1
  8
A-TEXT-TITLE
100
AcDbText
 10
654.0
 20
576.0
 30
0.0
 40
3.5
  1
GENERAL NOTES
  7
STD-TITLE
 11
654.0
 21
576.0
 31
0.0
100
AcDbText
 73
1
  0
MTEXT
  5
11E
330
D1
100
AcDbEntity
 67
1
  8
A-TEXT-NOTES
100
AcDbMText
 10
654.0
 20
572.0
 30
0.0
 40
2.5
 41
172.0
 71
1
  3
1. ALL DIMENSIONS ARE IN MILLIMETRES UNLESS NOTED OTHERWISE.\P2. DO NOT SCALE FROM THIS DRAWING - USE FIGURED DIMENSIONS ONLY.\P3. ALL OPENING SIZES / LEVELS TO BE VERIFIED AT SITE BEFORE FABRICATION.\P4. READ THIS DRAWING WITH THE ARCHITECTURAL / ST
  1
RUCTURAL DRAWINGS AND SPECIFICATION.\P5. (ADD PROJECT-SPECIFIC NOTES)
  7
STD-NOTES
 44
1.3
  0
VIEWPORT
  5
11F
330
D1
100
AcDbEntity
 67
1
  8
A-VPORT
100
AcDbViewport
 10
335.5
 20
297.0
 30
0.0
 40
621.0
 41
564.0
 68
2
 69
3
 12
10000.0
 22
6000.0
 13
0.0
 23
0.0
 14
10.0
 24
10.0
 15
10.0
 25
10.0
 16
0.0
 26
0.0
 36
1.0
 17
0.0
 27
0.0
 37
0.0
 42
50.0
 43
0.0
 44
0.0
 45
28200.0
 50
0.0
 51
0.0
 72
100
 90
16384
  1

281
0
 71
0
 74
0
110
0.0
120
0.0
130
0.0
111
1.0
121
0.0
131
0.0
112
0.0
122
1.0
132
0.0
 79
0
146
0.0
282
0
  0
ENDBLK
  5
D3
330
D1
100
AcDbEntity
  8
0
100
AcDbBlockEnd
  0
BLOCK
  5
CD
330
CC
100
AcDbEntity
  8
0
100
AcDbBlockBegin
  2
*Paper_Space
 70
0
 10
0.0
 20
0.0
 30
0.0
  3
*Paper_Space
  1

  0
ENDBLK
  5
CE
330
CC
100
AcDbEntity
  8
0
100
AcDbBlockEnd
  0
ENDSEC
  0
SECTION
  2
ENTITIES
  0
VIEWPORT
  5
D0
330
CC
100
AcDbEntity
 67
1
  8
VIEWPORTS
100
AcDbViewport
 10
322560.0
 20
228096.0
 30
0.0
 40
709632.0
 41
501811.2
 68
1
 69
1
 12
322560.0
 22
228096.0
 13
0.0
 23
0.0
 14
10.0
 24
10.0
 15
10.0
 25
10.0
 16
0.0
 26
0.0
 36
1.0
 17
0.0
 27
0.0
 37
0.0
 42
50.0
 43
0.0
 44
0.0
 45
501811.2
 50
0.0
 51
0.0
 72
100
 90
557088
  1

281
0
 71
0
 74
0
110
0.0
120
0.0
130
0.0
111
1.0
121
0.0
131
0.0
112
0.0
122
1.0
132
0.0
 79
0
146
0.0
282
0
  0
LWPOLYLINE
  5
D6
330
CC
100
AcDbEntity
 67
1
  8
A-TITLEBLOCK
100
AcDbPolyline
 90
4
 70
1
 10
20.0
 20
10.0
 10
410.0
 20
10.0
 10
410.0
 20
287.0
 10
20.0
 20
287.0
  0
INSERT
  5
D7
330
CC
100
AcDbEntity
 67
1
  8
A-TITLEBLOCK
100
AcDbBlockReference
 66
1
  2
ASG-TITLEBLOCK
 10
410.0
 20
10.0
 30
0.0
  0
ATTRIB
  5
D9
330
CC
100
AcDbEntity
 67
1
  8
A-TEXT-TITLE
100
AcDbText
 10
232.0
 20
12.5
 30
0.0
 40
3.5
  1
AS-YYYY-NNN-DIS-TYP-001-R0
  7
STD-TITLE
 11
232.0
 21
12.5
 31
0.0
100
AcDbAttribute
  2
DWG_NO
 70
0
 74
1
 71
1
 72
0
 11
232.0
 21
12.5
 31
0.0
  0
ATTRIB
  5
DA
330
CC
100
AcDbEntity
 67
1
  8
A-TEXT-TITLE
100
AcDbText
 10
382.0
 20
12.0
 30
0.0
 40
5.0
  1
R0
  7
STD-TITLE
 11
382.0
 21
12.0
 31
0.0
100
AcDbAttribute
  2
REV
 70
0
 74
1
 71
1
 72
0
 11
382.0
 21
12.0
 31
0.0
  0
ATTRIB
  5
DB
330
CC
100
AcDbEntity
 67
1
  8
A-TEXT-NOTES
100
AcDbText
 10
232.0
 20
25.5
 30
0.0
 40
2.5
  1
AS SHOWN
  7
STD-NOTES
 11
232.0
 21
25.5
 31
0.0
100
AcDbAttribute
  2
SCALE
 70
0
 74
1
 71
1
 72
0
 11
232.0
 21
25.5
 31
0.0
  0
ATTRIB
  5
DC
330
CC
100
AcDbEntity
 67
1
  8
A-TEXT-NOTES
100
AcDbText
 10
277.0
 20
25.5
 30
0.0
 40
2.5
  1
DD.MM.YYYY
  7
STD-NOTES
 11
277.0
 21
25.5
 31
0.0
100
AcDbAttribute
  2
DATE
 70
0
 74
1
 71
1
 72
0
 11
277.0
 21
25.5
 31
0.0
  0
ATTRIB
  5
DD
330
CC
100
AcDbEntity
 67
1
  8
A-TEXT-NOTES
100
AcDbText
 10
322.0
 20
25.5
 30
0.0
 40
2.5
  1
01 OF 01
  7
STD-NOTES
 11
322.0
 21
25.5
 31
0.0
100
AcDbAttribute
  2
SHEET
 70
0
 74
1
 71
1
 72
0
 11
322.0
 21
25.5
 31
0.0
  0
ATTRIB
  5
DE
330
CC
100
AcDbEntity
 67
1
  8
A-TEXT-NOTES
100
AcDbText
 10
367.0
 20
25.5
 30
0.0
 40
2.5
  1
A3
  7
STD-NOTES
 11
367.0
 21
25.5
 31
0.0
100
AcDbAttribute
  2
SIZE
 70
0
 74
1
 71
1
 72
0
 11
367.0
 21
25.5
 31
0.0
  0
ATTRIB
  5
DF
330
CC
100
AcDbEntity
 67
1
  8
A-TEXT-NOTES
100
AcDbText
 10
232.0
 20
35.5
 30
0.0
 40
2.5
  1
---
  7
STD-NOTES
 11
232.0
 21
35.5
 31
0.0
100
AcDbAttribute
  2
DRAWN
 70
0
 74
1
 71
1
 72
0
 11
232.0
 21
35.5
 31
0.0
  0
ATTRIB
  5
E0
330
CC
100
AcDbEntity
 67
1
  8
A-TEXT-NOTES
100
AcDbText
 10
292.0
 20
35.5
 30
0.0
 40
2.5
  1
---
  7
STD-NOTES
 11
292.0
 21
35.5
 31
0.0
100
AcDbAttribute
  2
CHECKED
 70
0
 74
1
 71
1
 72
0
 11
292.0
 21
35.5
 31
0.0
  0
ATTRIB
  5
E1
330
CC
100
AcDbEntity
 67
1
  8
A-TEXT-NOTES
100
AcDbText
 10
352.0
 20
35.5
 30
0.0
 40
2.5
  1
---
  7
STD-NOTES
 11
352.0
 21
35.5
 31
0.0
100
AcDbAttribute
  2
APPROVED
 70
0
 74
1
 71
1
 72
0
 11
352.0
 21
35.5
 31
0.0
  0
ATTRIB
  5
E2
330
CC
100
AcDbEntity
 67
1
  8
A-TEXT-TITLE
100
AcDbText
 10
232.0
 20
51.5
 30
0.0
 40
5.0
  1
DRAWING TITLE
  7
STD-TITLE
 11
232.0
 21
51.5
 31
0.0
100
AcDbAttribute
  2
TITLE1
 70
0
 74
1
 71
1
 72
0
 11
232.0
 21
51.5
 31
0.0
  0
ATTRIB
  5
E3
330
CC
100
AcDbEntity
 67
1
  8
A-TEXT-TITLE
100
AcDbText
 10
232.0
 20
46.0
 30
0.0
 40
3.5
  1
ELEVATION / SECTION / DETAIL
  7
STD-SUBTITLE
 11
232.0
 21
46.0
 31
0.0
100
AcDbAttribute
  2
TITLE2
 70
0
 74
1
 71
1
 72
0
 11
232.0
 21
46.0
 31
0.0
  0
ATTRIB
  5
E4
330
CC
100
AcDbEntity
 67
1
  8
A-TEXT-NOTES
100
AcDbText
 10
256.0
 20
72.5
 30
0.0
 40
2.5
  1
PROJECT NAME
  7
STD-NOTES
 11
256.0
 21
72.5
 31
0.0
100
AcDbAttribute
  2
PROJECT
 70
0
 74
1
 71
1
 72
0
 11
256.0
 21
72.5
 31
0.0
  0
ATTRIB
  5
E5
330
CC
100
AcDbEntity
 67
1
  8
A-TEXT-NOTES
100
AcDbText
 10
256.0
 20
64.5
 30
0.0
 40
2.5
  1
CLIENT NAME
  7
STD-NOTES
 11
256.0
 21
64.5
 31
0.0
100
AcDbAttribute
  2
CLIENT
 70
0
 74
1
 71
1
 72
0
 11
256.0
 21
64.5
 31
0.0
  0
ATTRIB
  5
E6
330
CC
100
AcDbEntity
 67
1
  8
A-TEXT-NOTES
100
AcDbText
 10
264.0
 20
80.5
 30
0.0
 40
2.0
  1
UNITED ARAB EMIRATES
  7
STD-LABEL
 11
264.0
 21
80.5
 31
0.0
100
AcDbAttribute
  2
CONTACT
 70
0
 74
1
 71
1
 72
0
 11
264.0
 21
80.5
 31
0.0
  0
ATTRIB
  5
E7
330
CC
100
AcDbEntity
 67
1
  8
A-TEXT-NOTES
100
AcDbText
 10
231.5
 20
102.5
 30
0.0
 40
2.0
  1
R0
  7
STD-LABEL
 11
231.5
 21
102.5
 31
0.0
100
AcDbAttribute
  2
R1_REV
 70
0
 74
1
 71
1
 72
0
 11
231.5
 21
102.5
 31
0.0
  0
ATTRIB
  5
E8
330
CC
100
AcDbEntity
 67
1
  8
A-TEXT-NOTES
100
AcDbText
 10
246.5
 20
102.5
 30
0.0
 40
2.0
  1
DD.MM.YYYY
  7
STD-LABEL
 11
246.5
 21
102.5
 31
0.0
100
AcDbAttribute
  2
R1_DATE
 70
0
 74
1
 71
1
 72
0
 11
246.5
 21
102.5
 31
0.0
  0
ATTRIB
  5
E9
330
CC
100
AcDbEntity
 67
1
  8
A-TEXT-NOTES
100
AcDbText
 10
271.5
 20
102.5
 30
0.0
 40
2.0
  1
FIRST ISSUE FOR APPROVAL
  7
STD-LABEL
 11
271.5
 21
102.5
 31
0.0
100
AcDbAttribute
  2
R1_DESC
 70
0
 74
1
 71
1
 72
0
 11
271.5
 21
102.5
 31
0.0
  0
ATTRIB
  5
EA
330
CC
100
AcDbEntity
 67
1
  8
A-TEXT-NOTES
100
AcDbText
 10
391.5
 20
102.5
 30
0.0
 40
2.0
  1
---
  7
STD-LABEL
 11
391.5
 21
102.5
 31
0.0
100
AcDbAttribute
  2
R1_BY
 70
0
 74
1
 71
1
 72
0
 11
391.5
 21
102.5
 31
0.0
  0
ATTRIB
  5
EB
330
CC
100
AcDbEntity
 67
1
  8
A-TEXT-NOTES
100
AcDbText
 10
231.5
 20
107.5
 30
0.0
 40
2.0
  1

  7
STD-LABEL
 11
231.5
 21
107.5
 31
0.0
100
AcDbAttribute
  2
R2_REV
 70
0
 74
1
 71
1
 72
0
 11
231.5
 21
107.5
 31
0.0
  0
ATTRIB
  5
EC
330
CC
100
AcDbEntity
 67
1
  8
A-TEXT-NOTES
100
AcDbText
 10
246.5
 20
107.5
 30
0.0
 40
2.0
  1

  7
STD-LABEL
 11
246.5
 21
107.5
 31
0.0
100
AcDbAttribute
  2
R2_DATE
 70
0
 74
1
 71
1
 72
0
 11
246.5
 21
107.5
 31
0.0
  0
ATTRIB
  5
ED
330
CC
100
AcDbEntity
 67
1
  8
A-TEXT-NOTES
100
AcDbText
 10
271.5
 20
107.5
 30
0.0
 40
2.0
  1

  7
STD-LABEL
 11
271.5
 21
107.5
 31
0.0
100
AcDbAttribute
  2
R2_DESC
 70
0
 74
1
 71
1
 72
0
 11
271.5
 21
107.5
 31
0.0
  0
ATTRIB
  5
EE
330
CC
100
AcDbEntity
 67
1
  8
A-TEXT-NOTES
100
AcDbText
 10
391.5
 20
107.5
 30
0.0
 40
2.0
  1

  7
STD-LABEL
 11
391.5
 21
107.5
 31
0.0
100
AcDbAttribute
  2
R2_BY
 70
0
 74
1
 71
1
 72
0
 11
391.5
 21
107.5
 31
0.0
  0
ATTRIB
  5
EF
330
CC
100
AcDbEntity
 67
1
  8
A-TEXT-NOTES
100
AcDbText
 10
231.5
 20
112.5
 30
0.0
 40
2.0
  1

  7
STD-LABEL
 11
231.5
 21
112.5
 31
0.0
100
AcDbAttribute
  2
R3_REV
 70
0
 74
1
 71
1
 72
0
 11
231.5
 21
112.5
 31
0.0
  0
ATTRIB
  5
F0
330
CC
100
AcDbEntity
 67
1
  8
A-TEXT-NOTES
100
AcDbText
 10
246.5
 20
112.5
 30
0.0
 40
2.0
  1

  7
STD-LABEL
 11
246.5
 21
112.5
 31
0.0
100
AcDbAttribute
  2
R3_DATE
 70
0
 74
1
 71
1
 72
0
 11
246.5
 21
112.5
 31
0.0
  0
ATTRIB
  5
F1
330
CC
100
AcDbEntity
 67
1
  8
A-TEXT-NOTES
100
AcDbText
 10
271.5
 20
112.5
 30
0.0
 40
2.0
  1

  7
STD-LABEL
 11
271.5
 21
112.5
 31
0.0
100
AcDbAttribute
  2
R3_DESC
 70
0
 74
1
 71
1
 72
0
 11
271.5
 21
112.5
 31
0.0
  0
ATTRIB
  5
F2
330
CC
100
AcDbEntity
 67
1
  8
A-TEXT-NOTES
100
AcDbText
 10
391.5
 20
112.5
 30
0.0
 40
2.0
  1

  7
STD-LABEL
 11
391.5
 21
112.5
 31
0.0
100
AcDbAttribute
  2
R3_BY
 70
0
 74
1
 71
1
 72
0
 11
391.5
 21
112.5
 31
0.0
  0
ATTRIB
  5
F3
330
CC
100
AcDbEntity
 67
1
  8
A-TEXT-NOTES
100
AcDbText
 10
231.5
 20
117.5
 30
0.0
 40
2.0
  1

  7
STD-LABEL
 11
231.5
 21
117.5
 31
0.0
100
AcDbAttribute
  2
R4_REV
 70
0
 74
1
 71
1
 72
0
 11
231.5
 21
117.5
 31
0.0
  0
ATTRIB
  5
F4
330
CC
100
AcDbEntity
 67
1
  8
A-TEXT-NOTES
100
AcDbText
 10
246.5
 20
117.5
 30
0.0
 40
2.0
  1

  7
STD-LABEL
 11
246.5
 21
117.5
 31
0.0
100
AcDbAttribute
  2
R4_DATE
 70
0
 74
1
 71
1
 72
0
 11
246.5
 21
117.5
 31
0.0
  0
ATTRIB
  5
F5
330
CC
100
AcDbEntity
 67
1
  8
A-TEXT-NOTES
100
AcDbText
 10
271.5
 20
117.5
 30
0.0
 40
2.0
  1

  7
STD-LABEL
 11
271.5
 21
117.5
 31
0.0
100
AcDbAttribute
  2
R4_DESC
 70
0
 74
1
 71
1
 72
0
 11
271.5
 21
117.5
 31
0.0
  0
ATTRIB
  5
F6
330
CC
100
AcDbEntity
 67
1
  8
A-TEXT-NOTES
100
AcDbText
 10
391.5
 20
117.5
 30
0.0
 40
2.0
  1

  7
STD-LABEL
 11
391.5
 21
117.5
 31
0.0
100
AcDbAttribute
  2
R4_BY
 70
0
 74
1
 71
1
 72
0
 11
391.5
 21
117.5
 31
0.0
  0
SEQEND
  5
D8
330
D7
100
AcDbEntity
 67
1
  8
A-TITLEBLOCK
  0
LINE
  5
F7
330
CC
100
AcDbEntity
 67
1
  8
A-TITLEBLOCK
100
AcDbLine
 10
230.0
 20
121.0
 30
0.0
 11
230.0
 21
287.0
 31
0.0
  0
TEXT
  5
F8
330
CC
100
AcDbEntity
 67
1
  8
A-TEXT-TITLE
100
AcDbText
 10
233.0
 20
279.0
 30
0.0
 40
3.5
  1
GENERAL NOTES
  7
STD-TITLE
 11
233.0
 21
279.0
 31
0.0
100
AcDbText
 73
1
  0
MTEXT
  5
F9
330
CC
100
AcDbEntity
 67
1
  8
A-TEXT-NOTES
100
AcDbMText
 10
233.0
 20
275.0
 30
0.0
 40
2.5
 41
172.0
 71
1
  3
1. ALL DIMENSIONS ARE IN MILLIMETRES UNLESS NOTED OTHERWISE.\P2. DO NOT SCALE FROM THIS DRAWING - USE FIGURED DIMENSIONS ONLY.\P3. ALL OPENING SIZES / LEVELS TO BE VERIFIED AT SITE BEFORE FABRICATION.\P4. READ THIS DRAWING WITH THE ARCHITECTURAL / ST
  1
RUCTURAL DRAWINGS AND SPECIFICATION.\P5. (ADD PROJECT-SPECIFIC NOTES)
  7
STD-NOTES
 44
1.3
  0
VIEWPORT
  5
FA
330
CC
100
AcDbEntity
 67
1
  8
A-VPORT
100
AcDbViewport
 10
125.0
 20
148.5
 30
0.0
 40
200.0
 41
267.0
 68
2
 69
3
 12
1000.0
 22
1000.0
 13
0.0
 23
0.0
 14
10.0
 24
10.0
 15
10.0
 25
10.0
 16
0.0
 26
0.0
 36
1.0
 17
0.0
 27
0.0
 37
0.0
 42
50.0
 43
0.0
 44
0.0
 45
2670.0
 50
0.0
 51
0.0
 72
100
 90
16384
  1

281
0
 71
0
 74
0
110
0.0
120
0.0
130
0.0
111
1.0
121
0.0
131
0.0
112
0.0
122
1.0
132
0.0
 79
0
146
0.0
282
0
  0
ENDSEC
  0
SECTION
  2
OBJECTS
  0
DICTIONARY
  5
A
330
0
100
AcDbDictionary
281
1
  3
ACAD_COLOR
350
B
  3
ACAD_GROUP
350
C
  3
ACAD_LAYOUT
350
D
  3
ACAD_MATERIAL
350
E
  3
ACAD_MLEADERSTYLE
350
F
  3
ACAD_MLINESTYLE
350
10
  3
ACAD_PLOTSETTINGS
350
11
  3
ACAD_PLOTSTYLENAME
350
12
  3
ACAD_SCALELIST
350
14
  3
ACAD_TABLESTYLE
350
15
  3
ACAD_VISUALSTYLE
350
16
  3
EZDXF_META
350
2D
  0
DICTIONARY
  5
B
330
A
100
AcDbDictionary
281
1
  0
DICTIONARY
  5
C
330
A
100
AcDbDictionary
281
1
  0
DICTIONARY
  5
D
330
A
100
AcDbDictionary
281
1
  3
Model
350
1A
  3
AlSiraj-A3-Plot
350
CF
  3
AlSiraj-A1-Plot
350
D4
  0
DICTIONARY
  5
E
330
A
100
AcDbDictionary
281
1
  3
ByBlock
350
1F
  3
ByLayer
350
20
  3
Global
350
21
  0
DICTIONARY
  5
F
330
A
100
AcDbDictionary
281
1
  3
Standard
350
2C
  3
AlSiraj-MLeader
350
63
  3
AlSiraj-MLeader-1-2
350
64
  3
AlSiraj-MLeader-1-5
350
65
  3
AlSiraj-MLeader-1-10
350
66
  3
AlSiraj-MLeader-1-20
350
67
  3
AlSiraj-MLeader-1-50
350
68
  3
AlSiraj-MLeader-1-100
350
69
  0
DICTIONARY
  5
10
330
A
100
AcDbDictionary
281
1
  3
Standard
350
22
  0
DICTIONARY
  5
11
330
A
100
AcDbDictionary
281
1
  0
ACDBDICTIONARYWDFLT
  5
12
330
A
100
AcDbDictionary
281
1
  3
Normal
350
13
100
AcDbDictionaryWithDefault
340
13
  0
ACDBPLACEHOLDER
  5
13
330
12
  0
DICTIONARY
  5
14
330
A
100
AcDbDictionary
281
1
  0
DICTIONARY
  5
15
330
A
100
AcDbDictionary
281
1
  0
DICTIONARY
  5
16
330
A
100
AcDbDictionary
281
1
  0
LAYOUT
  5
1A
330
D
100
AcDbPlotSettings
  1

  4
A3
  6

 40
7.5
 41
20.0
 42
7.5
 43
20.0
 44
420.0
 45
297.0
 46
0.0
 47
0.0
 48
0.0
 49
0.0
140
0.0
141
0.0
142
1.0
143
1.0
 70
1024
 72
1
 73
0
 74
5
  7

 75
16
 76
0
 77
2
 78
300
147
1.0
148
0.0
149
0.0
100
AcDbLayout
  1
Model
 70
1
 71
0
 10
0.0
 20
0.0
 11
420.0
 21
297.0
 12
0.0
 22
0.0
 32
0.0
 14
1e+20
 24
1e+20
 34
1e+20
 15
-1e+20
 25
-1e+20
 35
-1e+20
146
0.0
 13
0.0
 23
0.0
 33
0.0
 16
1.0
 26
0.0
 36
0.0
 17
0.0
 27
1.0
 37
0.0
 76
1
330
17
  0
MATERIAL
  5
1F
102
{ACAD_REACTORS
330
E
102
}
330
E
100
AcDbMaterial
  1
ByBlock
  2

 70
0
 40
1.0
 71
1
 41
1.0
 91
-1023410177
 42
1.0
 72
1
  3

 73
1
 74
1
 75
1
 44
0.5
 73
0
 45
1.0
 46
1.0
 77
1
  4

 78
1
 79
1
170
1
 48
1.0
171
1
  6

172
1
173
1
174
1
140
1.0
141
1.0
175
1
  7

176
1
177
1
178
1
143
1.0
179
1
  8

270
1
271
1
272
1
145
1.0
146
1.0
273
1
  9

274
1
275
1
276
1
 42
1.0
 72
1
  3

 73
1
 74
1
 75
1
 94
63
  0
MATERIAL
  5
20
102
{ACAD_REACTORS
330
E
102
}
330
E
100
AcDbMaterial
  1
ByLayer
  2

 70
0
 40
1.0
 71
1
 41
1.0
 91
-1023410177
 42
1.0
 72
1
  3

 73
1
 74
1
 75
1
 44
0.5
 73
0
 45
1.0
 46
1.0
 77
1
  4

 78
1
 79
1
170
1
 48
1.0
171
1
  6

172
1
173
1
174
1
140
1.0
141
1.0
175
1
  7

176
1
177
1
178
1
143
1.0
179
1
  8

270
1
271
1
272
1
145
1.0
146
1.0
273
1
  9

274
1
275
1
276
1
 42
1.0
 72
1
  3

 73
1
 74
1
 75
1
 94
63
  0
MATERIAL
  5
21
102
{ACAD_REACTORS
330
E
102
}
330
E
100
AcDbMaterial
  1
Global
  2

 70
0
 40
1.0
 71
1
 41
1.0
 91
-1023410177
 42
1.0
 72
1
  3

 73
1
 74
1
 75
1
 44
0.5
 73
0
 45
1.0
 46
1.0
 77
1
  4

 78
1
 79
1
170
1
 48
1.0
171
1
  6

172
1
173
1
174
1
140
1.0
141
1.0
175
1
  7

176
1
177
1
178
1
143
1.0
179
1
  8

270
1
271
1
272
1
145
1.0
146
1.0
273
1
  9

274
1
275
1
276
1
 42
1.0
 72
1
  3

 73
1
 74
1
 75
1
 94
63
  0
MLINESTYLE
  5
22
102
{ACAD_REACTORS
330
10
102
}
330
10
100
AcDbMlineStyle
  2
Standard
 70
0
  3

 62
256
 51
90.0
 52
90.0
 71
2
 49
0.5
 62
256
  6
BYLAYER
 49
-0.5
 62
256
  6
BYLAYER
  0
MLEADERSTYLE
  5
2C
102
{ACAD_REACTORS
330
F
102
}
330
F
100
AcDbMLeaderStyle
179
2
170
2
171
1
172
0
 90
2
 40
0.0
 41
0.0
173
1
 91
-1056964608
 92
-2
290
1
 42
2.0
291
1
 43
8.0
  3
Standard
 44
4.0
300

342
29
174
1
175
1
176
0
178
1
 93
-1056964608
 45
4.0
292
0
297
0
 46
4.0
 94
-1056964608
 47
1.0
 49
1.0
140
1.0
294
1
141
0.0
177
0
142
1.0
295
0
296
0
143
3.75
271
0
272
9
273
9
  0
DICTIONARY
  5
2D
330
A
100
AcDbDictionary
280
1
281
1
  3
CREATED_BY_EZDXF
350
2E
  3
WRITTEN_BY_EZDXF
350
123
  0
DICTIONARYVAR
  5
2E
330
2D
100
DictionaryVariables
280
0
  1
1.4.4 @ 2026-10-10T08:28:20.883119+00:00
  0
MLEADERSTYLE
  5
63
102
{ACAD_REACTORS
330
F
102
}
330
F
100
AcDbMLeaderStyle
179
2
170
2
171
1
172
0
 90
2
 40
0.0
 41
0.0
173
1
 91
-1073741824
 92
-1
290
1
 42
2.0
291
1
 43
6.0
  3
AlSiraj-MLeader
 44
2.5
300

342
59
174
1
175
1
176
0
178
1
 93
-1073741824
 45
2.0
292
0
297
0
 46
4.0
 94
-1056964608
 47
1.0
 49
1.0
140
1.0
294
1
141
0.0
177
0
142
1.0
295
0
296
0
143
3.75
271
0
272
9
273
9
  0
MLEADERSTYLE
  5
64
102
{ACAD_REACTORS
330
F
102
}
330
F
100
AcDbMLeaderStyle
179
2
170
2
171
1
172
0
 90
2
 40
0.0
 41
0.0
173
1
 91
-1073741824
 92
-1
290
1
 42
2.0
291
1
 43
6.0
  3
AlSiraj-MLeader-1-2
 44
2.5
300

342
59
174
1
175
1
176
0
178
1
 93
-1073741824
 45
2.0
292
0
297
0
 46
4.0
 94
-1056964608
 47
1.0
 49
1.0
140
1.0
294
1
141
0.0
177
0
142
2.0
295
0
296
0
143
3.75
271
0
272
9
273
9
  0
MLEADERSTYLE
  5
65
102
{ACAD_REACTORS
330
F
102
}
330
F
100
AcDbMLeaderStyle
179
2
170
2
171
1
172
0
 90
2
 40
0.0
 41
0.0
173
1
 91
-1073741824
 92
-1
290
1
 42
2.0
291
1
 43
6.0
  3
AlSiraj-MLeader-1-5
 44
2.5
300

342
59
174
1
175
1
176
0
178
1
 93
-1073741824
 45
2.0
292
0
297
0
 46
4.0
 94
-1056964608
 47
1.0
 49
1.0
140
1.0
294
1
141
0.0
177
0
142
5.0
295
0
296
0
143
3.75
271
0
272
9
273
9
  0
MLEADERSTYLE
  5
66
102
{ACAD_REACTORS
330
F
102
}
330
F
100
AcDbMLeaderStyle
179
2
170
2
171
1
172
0
 90
2
 40
0.0
 41
0.0
173
1
 91
-1073741824
 92
-1
290
1
 42
2.0
291
1
 43
6.0
  3
AlSiraj-MLeader-1-10
 44
2.5
300

342
59
174
1
175
1
176
0
178
1
 93
-1073741824
 45
2.0
292
0
297
0
 46
4.0
 94
-1056964608
 47
1.0
 49
1.0
140
1.0
294
1
141
0.0
177
0
142
10.0
295
0
296
0
143
3.75
271
0
272
9
273
9
  0
MLEADERSTYLE
  5
67
102
{ACAD_REACTORS
330
F
102
}
330
F
100
AcDbMLeaderStyle
179
2
170
2
171
1
172
0
 90
2
 40
0.0
 41
0.0
173
1
 91
-1073741824
 92
-1
290
1
 42
2.0
291
1
 43
6.0
  3
AlSiraj-MLeader-1-20
 44
2.5
300

342
59
174
1
175
1
176
0
178
1
 93
-1073741824
 45
2.0
292
0
297
0
 46
4.0
 94
-1056964608
 47
1.0
 49
1.0
140
1.0
294
1
141
0.0
177
0
142
20.0
295
0
296
0
143
3.75
271
0
272
9
273
9
  0
MLEADERSTYLE
  5
68
102
{ACAD_REACTORS
330
F
102
}
330
F
100
AcDbMLeaderStyle
179
2
170
2
171
1
172
0
 90
2
 40
0.0
 41
0.0
173
1
 91
-1073741824
 92
-1
290
1
 42
2.0
291
1
 43
6.0
  3
AlSiraj-MLeader-1-50
 44
2.5
300

342
59
174
1
175
1
176
0
178
1
 93
-1073741824
 45
2.0
292
0
297
0
 46
4.0
 94
-1056964608
 47
1.0
 49
1.0
140
1.0
294
1
141
0.0
177
0
142
50.0
295
0
296
0
143
3.75
271
0
272
9
273
9
  0
MLEADERSTYLE
  5
69
102
{ACAD_REACTORS
330
F
102
}
330
F
100
AcDbMLeaderStyle
179
2
170
2
171
1
172
0
 90
2
 40
0.0
 41
0.0
173
1
 91
-1073741824
 92
-1
290
1
 42
2.0
291
1
 43
6.0
  3
AlSiraj-MLeader-1-100
 44
2.5
300

342
59
174
1
175
1
176
0
178
1
 93
-1073741824
 45
2.0
292
0
297
0
 46
4.0
 94
-1056964608
 47
1.0
 49
1.0
140
1.0
294
1
141
0.0
177
0
142
100.0
295
0
296
0
143
3.75
271
0
272
9
273
9
  0
LAYOUT
  5
CF
330
D
100
AcDbPlotSettings
  1

  2
DWG To PDF.pc3
  4
ISO_full_bleed_A3_(420.00_x_297.00_MM)_(420.00_x_297.00_MM)
  6

 40
0.0
 41
0.0
 42
0.0
 43
0.0
 44
420.0
 45
297.0
 46
0.0
 47
0.0
 48
0.0
 49
0.0
140
0.0
141
0.0
142
0.0078125
143
12.0
 70
676
 72
1
 73
0
 74
5
  7
AlSiraj_ShopDrawing.ctb
 75
1
 76
0
 77
3
 78
300
147
1.0
148
0.0
149
0.0
100
AcDbLayout
  1
AlSiraj-A3-Plot
 70
1
 71
3
 10
-0.0
 20
-0.0
 11
420.0
 21
297.0
 12
0.0
 22
0.0
 32
0.0
 14
1e+20
 24
1e+20
 34
1e+20
 15
-1e+20
 25
-1e+20
 35
-1e+20
146
0.0
 13
0.0
 23
0.0
 33
0.0
 16
1.0
 26
0.0
 36
0.0
 17
0.0
 27
1.0
 37
0.0
 76
1
330
CC
331
D0
  0
LAYOUT
  5
D4
330
D
100
AcDbPlotSettings
  1

  2
DWG To PDF.pc3
  4
ISO_full_bleed_A1_(841.00_x_594.00_MM)_(841.00_x_594.00_MM)
  6

 40
0.0
 41
0.0
 42
0.0
 43
0.0
 44
841.0
 45
594.0
 46
0.0
 47
0.0
 48
0.0
 49
0.0
140
0.0
141
0.0
142
0.0078125
143
12.0
 70
676
 72
1
 73
0
 74
5
  7
AlSiraj_ShopDrawing.ctb
 75
1
 76
0
 77
3
 78
300
147
1.0
148
0.0
149
0.0
100
AcDbLayout
  1
AlSiraj-A1-Plot
 70
1
 71
4
 10
-0.0
 20
-0.0
 11
841.0
 21
594.0
 12
0.0
 22
0.0
 32
0.0
 14
1e+20
 24
1e+20
 34
1e+20
 15
-1e+20
 25
-1e+20
 35
-1e+20
146
0.0
 13
0.0
 23
0.0
 33
0.0
 16
1.0
 26
0.0
 36
0.0
 17
0.0
 27
1.0
 37
0.0
 76
1
330
D1
331
D5
  0
DICTIONARYVAR
  5
123
330
2D
100
DictionaryVariables
280
0
  1
1.4.4 @ 2026-10-10T08:28:20.895755+00:00
  0
ENDSEC
  0
EOF
