  0
SECTION
  2
HEADER
  9
$ACADVER
  1
AC1032
  9
$ACADMAINTVER
 90
4
  9
$DWGCODEPAGE
  3
ANSI_1252
  9
$LASTSAVEDBY
  1
ezdxf
  9
$REQUIREDVERSIONS
160
0
  9
$INSBASE
 10
0.0
 20
0.0
 30
0.0
  9
$EXTMIN
 10
1e+20
 20
1e+20
 30
1e+20
  9
$EXTMAX
 10
-1e+20
 20
-1e+20
 30
-1e+20
  9
$LIMMIN
 10
0.0
 20
0.0
  9
$LIMMAX
 10
200000.0
 20
150000.0
  9
$ORTHOMODE
 70
0
  9
$REGENMODE
 70
1
  9
$FILLMODE
 70
1
  9
$QTEXTMODE
 70
0
  9
$MIRRTEXT
 70
0
  9
$LTSCALE
 40
1.0
  9
$ATTMODE
 70
1
  9
$TEXTSIZE
 40
2.5
  9
$TRACEWID
 40
1.0
  9
$TEXTSTYLE
  7
ASG-TEXT-ANNO
  9
$CLAYER
  8
ASG-OUTLINE-PRIMARY
  9
$CELTYPE
  6
ByLayer
  9
$CECOLOR
 62
256
  9
$CELTSCALE
 40
1.0
  9
$DISPSILH
 70
0
  9
$DIMSCALE
 40
1.0
  9
$DIMASZ
 40
2.5
  9
$DIMEXO
 40
1.5
  9
$DIMDLI
 40
7.0
  9
$DIMRND
 40
0.0
  9
$DIMDLE
 40
0.0
  9
$DIMEXE
 40
1.25
  9
$DIMTP
 40
0.0
  9
$DIMTM
 40
0.0
  9
$DIMTXT
 40
2.5
  9
$DIMCEN
 40
2.5
  9
$DIMTSZ
 40
0.0
  9
$DIMTOL
 70
0
  9
$DIMLIM
 70
0
  9
$DIMTIH
 70
0
  9
$DIMTOH
 70
0
  9
$DIMSE1
 70
0
  9
$DIMSE2
 70
0
  9
$DIMTAD
 70
1
  9
$DIMZIN
 70
8
  9
$DIMBLK
  1

  9
$DIMASO
 70
1
  9
$DIMSHO
 70
1
  9
$DIMPOST
  1

  9
$DIMAPOST
  1

  9
$DIMALT
 70
0
  9
$DIMALTD
 70
2
  9
$DIMALTF
 40
25.4
  9
$DIMLFAC
 40
1.0
  9
$DIMTOFL
 70
1
  9
$DIMTVP
 40
0.0
  9
$DIMTIX
 70
0
  9
$DIMSOXD
 70
0
  9
$DIMSAH
 70
0
  9
$DIMBLK1
  1

  9
$DIMBLK2
  1

  9
$DIMSTYLE
  2
ASG-DIM-ANNO
  9
$DIMCLRD
 70
256
  9
$DIMCLRE
 70
256
  9
$DIMCLRT
 70
256
  9
$DIMTFAC
 40
0.7
  9
$DIMGAP
 40
1.0
  9
$DIMJUST
 70
0
  9
$DIMSD1
 70
0
  9
$DIMSD2
 70
0
  9
$DIMTOLJ
 70
0
  9
$DIMTZIN
 70
8
  9
$DIMALTZ
 70
0
  9
$DIMALTTZ
 70
0
  9
$DIMUPT
 70
0
  9
$DIMDEC
 70
0
  9
$DIMTDEC
 70
1
  9
$DIMALTU
 70
2
  9
$DIMALTTD
 70
3
  9
$DIMTXSTY
  7
ASG-TEXT-ANNO
  9
$DIMAUNIT
 70
0
  9
$DIMADEC
 70
2
  9
$DIMALTRND
 40
0.0
  9
$DIMAZIN
 70
2
  9
$DIMDSEP
 70
46
  9
$DIMATFIT
 70
3
  9
$DIMFRAC
 70
0
  9
$DIMLDRBLK
  1

  9
$DIMLUNIT
 70
2
  9
$DIMLWD
 70
-2
  9
$DIMLWE
 70
-2
  9
$DIMTMOVE
 70
1
  9
$DIMFXL
 40
1.0
  9
$DIMFXLON
 70
0
  9
$DIMJOGANG
 40
0.785398163397
  9
$DIMTFILL
 70
0
  9
$DIMTFILLCLR
 70
0
  9
$DIMARCSYM
 70
0
  9
$DIMLTYPE
  6

  9
$DIMLTEX1
  6

  9
$DIMLTEX2
  6

  9
$DIMTXTDIRECTION
 70
0
  9
$LUNITS
 70
2
  9
$LUPREC
 70
0
  9
$SKETCHINC
 40
1.0
  9
$FILLETRAD
 40
10.0
  9
$AUNITS
 70
0
  9
$AUPREC
 70
2
  9
$MENU
  1
.
  9
$ELEVATION
 40
0.0
  9
$PELEVATION
 40
0.0
  9
$THICKNESS
 40
0.0
  9
$LIMCHECK
 70
0
  9
$CHAMFERA
 40
0.0
  9
$CHAMFERB
 40
0.0
  9
$CHAMFERC
 40
0.0
  9
$CHAMFERD
 40
0.0
  9
$SKPOLY
 70
0
  9
$TDCREATE
 40
2461324.5952083333
  9
$TDUCREATE
 40
2458532.153996898
  9
$TDUPDATE
 40
2461324.5952083333
  9
$TDUUPDATE
 40
2458532.1544311
  9
$TDINDWG
 40
0.0
  9
$TDUSRTIMER
 40
0.0
  9
$USRTIMER
 70
1
  9
$ANGBASE
 50
0.0
  9
$ANGDIR
 70
0
  9
$PDMODE
 70
0
  9
$PDSIZE
 40
0.0
  9
$PLINEWID
 40
0.0
  9
$SPLFRAME
 70
0
  9
$SPLINETYPE
 70
6
  9
$SPLINESEGS
 70
8
  9
$HANDSEED
  5
112
  9
$SURFTAB1
 70
6
  9
$SURFTAB2
 70
6
  9
$SURFTYPE
 70
6
  9
$SURFU
 70
6
  9
$SURFV
 70
6
  9
$UCSBASE
  2

  9
$UCSNAME
  2

  9
$UCSORG
 10
0.0
 20
0.0
 30
0.0
  9
$UCSXDIR
 10
1.0
 20
0.0
 30
0.0
  9
$UCSYDIR
 10
0.0
 20
1.0
 30
0.0
  9
$UCSORTHOREF
  2

  9
$UCSORTHOVIEW
 70
0
  9
$UCSORGTOP
 10
0.0
 20
0.0
 30
0.0
  9
$UCSORGBOTTOM
 10
0.0
 20
0.0
 30
0.0
  9
$UCSORGLEFT
 10
0.0
 20
0.0
 30
0.0
  9
$UCSORGRIGHT
 10
0.0
 20
0.0
 30
0.0
  9
$UCSORGFRONT
 10
0.0
 20
0.0
 30
0.0
  9
$UCSORGBACK
 10
0.0
 20
0.0
 30
0.0
  9
$PUCSBASE
  2

  9
$PUCSNAME
  2

  9
$PUCSORG
 10
0.0
 20
0.0
 30
0.0
  9
$PUCSXDIR
 10
1.0
 20
0.0
 30
0.0
  9
$PUCSYDIR
 10
0.0
 20
1.0
 30
0.0
  9
$PUCSORTHOREF
  2

  9
$PUCSORTHOVIEW
 70
0
  9
$PUCSORGTOP
 10
0.0
 20
0.0
 30
0.0
  9
$PUCSORGBOTTOM
 10
0.0
 20
0.0
 30
0.0
  9
$PUCSORGLEFT
 10
0.0
 20
0.0
 30
0.0
  9
$PUCSORGRIGHT
 10
0.0
 20
0.0
 30
0.0
  9
$PUCSORGFRONT
 10
0.0
 20
0.0
 30
0.0
  9
$PUCSORGBACK
 10
0.0
 20
0.0
 30
0.0
  9
$USERI1
 70
0
  9
$USERI2
 70
0
  9
$USERI3
 70
0
  9
$USERI4
 70
0
  9
$USERI5
 70
0
  9
$USERR1
 40
0.0
  9
$USERR2
 40
0.0
  9
$USERR3
 40
0.0
  9
$USERR4
 40
0.0
  9
$USERR5
 40
0.0
  9
$WORLDVIEW
 70
1
  9
$SHADEDGE
 70
3
  9
$SHADEDIF
 70
70
  9
$TILEMODE
 70
1
  9
$MAXACTVP
 70
64
  9
$PINSBASE
 10
0.0
 20
0.0
 30
0.0
  9
$PLIMCHECK
 70
0
  9
$PEXTMIN
 10
1e+20
 20
1e+20
 30
1e+20
  9
$PEXTMAX
 10
-1e+20
 20
-1e+20
 30
-1e+20
  9
$PLIMMIN
 10
-0.0
 20
-0.0
  9
$PLIMMAX
 10
841.0
 20
594.0
  9
$UNITMODE
 70
0
  9
$VISRETAIN
 70
1
  9
$PLINEGEN
 70
1
  9
$PSLTSCALE
 70
1
  9
$TREEDEPTH
 70
3020
  9
$CMLSTYLE
  2
ASG-MLINE-2
  9
$CMLJUST
 70
0
  9
$CMLSCALE
 40
20.0
  9
$PROXYGRAPHICS
 70
1
  9
$MEASUREMENT
 70
1
  9
$CELWEIGHT
370
-1
  9
$ENDCAPS
280
0
  9
$JOINSTYLE
280
0
  9
$LWDISPLAY
290
1
  9
$INSUNITS
 70
4
  9
$HYPERLINKBASE
  1

  9
$STYLESHEET
  1

  9
$XEDIT
290
1
  9
$CEPSNTYPE
380
0
  9
$PSTYLEMODE
290
1
  9
$FINGERPRINTGUID
  2
{6691C447-9A7B-4219-98D7-08A323FFEAD6}
  9
$VERSIONGUID
  2
{11361242-D854-43E2-914B-89F0C1580A37}
  9
$EXTNAMES
290
1
  9
$PSVPSCALE
 40
0.0
  9
$OLESTARTUP
290
0
  9
$SORTENTS
280
127
  9
$INDEXCTL
280
0
  9
$HIDETEXT
280
1
  9
$XCLIPFRAME
280
1
  9
$HALOGAP
280
0
  9
$OBSCOLOR
 70
257
  9
$OBSLTYPE
280
0
  9
$INTERSECTIONDISPLAY
280
0
  9
$INTERSECTIONCOLOR
 70
257
  9
$DIMASSOC
280
2
  9
$PROJECTNAME
  1

  9
$CAMERADISPLAY
290
0
  9
$LENSLENGTH
 40
50.0
  9
$CAMERAHEIGHT
 40
0.0
  9
$STEPSPERSEC
 40
24.0
  9
$STEPSIZE
 40
100.0
  9
$3DDWFPREC
 40
2.0
  9
$PSOLWIDTH
 40
0.005
  9
$PSOLHEIGHT
 40
0.08
  9
$LOFTANG1
 40
1.570796326795
  9
$LOFTANG2
 40
1.570796326795
  9
$LOFTMAG1
 40
0.0
  9
$LOFTMAG2
 40
0.0
  9
$LOFTPARAM
 70
7
  9
$LOFTNORMALS
280
1
  9
$LATITUDE
 40
37.795
  9
$LONGITUDE
 40
-122.394
  9
$NORTHDIRECTION
 40
0.0
  9
$TIMEZONE
 70
-8000
  9
$LIGHTGLYPHDISPLAY
280
1
  9
$TILEMODELIGHTSYNCH
280
1
  9
$CMATERIAL
347
20
  9
$SOLIDHIST
280
0
  9
$SHOWHIST
280
1
  9
$DWFFRAME
280
2
  9
$DGNFRAME
280
2
  9
$REALWORLDSCALE
290
1
  9
$INTERFERECOLOR
 62
256
  9
$CSHADOW
280
0
  9
$SHADOWPLANELOCATION
 40
0.0
  0
ENDSEC
  0
SECTION
  2
CLASSES
  0
CLASS
  1
ACDBDICTIONARYWDFLT
  2
AcDbDictionaryWithDefault
  3
ObjectDBX Classes
 90
0
 91
0
280
0
281
0
  0
CLASS
  1
SUN
  2
AcDbSun
  3
SCENEOE
 90
1153
 91
0
280
0
281
0
  0
CLASS
  1
VISUALSTYLE
  2
AcDbVisualStyle
  3
ObjectDBX Classes
 90
4095
 91
0
280
0
281
0
  0
CLASS
  1
MATERIAL
  2
AcDbMaterial
  3
ObjectDBX Classes
 90
1153
 91
0
280
0
281
0
  0
CLASS
  1
SCALE
  2
AcDbScale
  3
ObjectDBX Classes
 90
1153
 91
0
280
0
281
0
  0
CLASS
  1
TABLESTYLE
  2
AcDbTableStyle
  3
ObjectDBX Classes
 90
4095
 91
0
280
0
281
0
  0
CLASS
  1
MLEADERSTYLE
  2
AcDbMLeaderStyle
  3
ACDB_MLEADERSTYLE_CLASS
 90
4095
 91
0
280
0
281
0
  0
CLASS
  1
DICTIONARYVAR
  2
AcDbDictionaryVar
  3
ObjectDBX Classes
 90
0
 91
0
280
0
281
0
  0
CLASS
  1
CELLSTYLEMAP
  2
AcDbCellStyleMap
  3
ObjectDBX Classes
 90
1152
 91
0
280
0
281
0
  0
CLASS
  1
MENTALRAYRENDERSETTINGS
  2
AcDbMentalRayRenderSettings
  3
SCENEOE
 90
1024
 91
0
280
0
281
0
  0
CLASS
  1
ACDBDETAILVIEWSTYLE
  2
AcDbDetailViewStyle
  3
ObjectDBX Classes
 90
1025
 91
0
280
0
281
0
  0
CLASS
  1
ACDBSECTIONVIEWSTYLE
  2
AcDbSectionViewStyle
  3
ObjectDBX Classes
 90
1025
 91
0
280
0
281
0
  0
CLASS
  1
RASTERVARIABLES
  2
AcDbRasterVariables
  3
ISM
 90
0
 91
0
280
0
281
0
  0
CLASS
  1
ACDBPLACEHOLDER
  2
AcDbPlaceHolder
  3
ObjectDBX Classes
 90
0
 91
0
280
0
281
0
  0
CLASS
  1
LAYOUT
  2
AcDbLayout
  3
ObjectDBX Classes
 90
0
 91
0
280
0
281
0
  0
ENDSEC
  0
SECTION
  2
TABLES
  0
TABLE
  2
VPORT
  5
8
330
0
100
AcDbSymbolTable
 70
1
  0
VPORT
  5
105
330
8
100
AcDbSymbolTableRecord
100
AcDbViewportTableRecord
  2
*Active
 70
0
 10
0.0
 20
0.0
 11
1.0
 21
1.0
 12
10000.0
 22
7000.0
 13
0.0
 23
0.0
 14
0.5
 24
0.5
 15
0.5
 25
0.5
 16
0.0
 26
0.0
 36
1.0
 17
0.0
 27
0.0
 37
0.0
 40
20000.0
 41
1.34
 42
50.0
 43
0.0
 44
0.0
 50
0.0
 51
0.0
 71
0
 72
1000
 73
1
 74
3
 75
0
 76
0
 77
0
 78
0
281
0
 65
1
110
0.0
120
0.0
130
0.0
111
1.0
121
0.0
131
0.0
112
0.0
122
1.0
132
0.0
 79
0
146
0.0
  0
ENDTAB
  0
TABLE
  2
LTYPE
  5
2
330
0
100
AcDbSymbolTable
 70
14
  0
LTYPE
  5
24
330
2
100
AcDbSymbolTableRecord
100
AcDbLinetypeTableRecord
  2
ByBlock
 70
0
  3

 72
65
 73
0
 40
0.0
  0
LTYPE
  5
25
330
2
100
AcDbSymbolTableRecord
100
AcDbLinetypeTableRecord
  2
ByLayer
 70
0
  3

 72
65
 73
0
 40
0.0
  0
LTYPE
  5
26
330
2
100
AcDbSymbolTableRecord
100
AcDbLinetypeTableRecord
  2
Continuous
 70
0
  3

 72
65
 73
0
 40
0.0
  0
LTYPE
  5
30
330
2
100
AcDbSymbolTableRecord
100
AcDbLinetypeTableRecord
  2
HIDDEN
 70
0
  3
Hidden __ __ __
 72
65
 73
2
 40
9.525
 49
6.35
 74
0
 49
-3.175
 74
0
  0
LTYPE
  5
31
330
2
100
AcDbSymbolTableRecord
100
AcDbLinetypeTableRecord
  2
HIDDEN2
 70
0
  3
Hidden (.5x) _ _ _
 72
65
 73
2
 40
4.7625
 49
3.175
 74
0
 49
-1.5875
 74
0
  0
LTYPE
  5
32
330
2
100
AcDbSymbolTableRecord
100
AcDbLinetypeTableRecord
  2
CENTER
 70
0
  3
Center ____ _ ____
 72
65
 73
4
 40
50.8
 49
31.75
 74
0
 49
-6.35
 74
0
 49
6.35
 74
0
 49
-6.35
 74
0
  0
LTYPE
  5
33
330
2
100
AcDbSymbolTableRecord
100
AcDbLinetypeTableRecord
  2
CENTER2
 70
0
  3
Center (.5x) ___ _ ___
 72
65
 73
4
 40
25.4
 49
15.875
 74
0
 49
-3.175
 74
0
 49
3.175
 74
0
 49
-3.175
 74
0
  0
LTYPE
  5
34
330
2
100
AcDbSymbolTableRecord
100
AcDbLinetypeTableRecord
  2
DASHED
 70
0
  3
Dashed __ __
 72
65
 73
2
 40
19.05
 49
12.7
 74
0
 49
-6.35
 74
0
  0
LTYPE
  5
35
330
2
100
AcDbSymbolTableRecord
100
AcDbLinetypeTableRecord
  2
DASHED2
 70
0
  3
Dashed (.5x) _ _
 72
65
 73
2
 40
9.525
 49
6.35
 74
0
 49
-3.175
 74
0
  0
LTYPE
  5
36
330
2
100
AcDbSymbolTableRecord
100
AcDbLinetypeTableRecord
  2
DASHDOT
 70
0
  3
Dash dot __ . __
 72
65
 73
4
 40
25.4
 49
12.7
 74
0
 49
-6.35
 74
0
 49
0.0
 74
0
 49
-6.35
 74
0
  0
LTYPE
  5
37
330
2
100
AcDbSymbolTableRecord
100
AcDbLinetypeTableRecord
  2
DASHDOT2
 70
0
  3
Dash dot (.5x) _ . _
 72
65
 73
4
 40
12.7
 49
6.35
 74
0
 49
-3.175
 74
0
 49
0.0
 74
0
 49
-3.175
 74
0
  0
LTYPE
  5
38
330
2
100
AcDbSymbolTableRecord
100
AcDbLinetypeTableRecord
  2
PHANTOM
 70
0
  3
Phantom ___ _ _ ___
 72
65
 73
6
 40
63.5
 49
31.75
 74
0
 49
-6.35
 74
0
 49
6.35
 74
0
 49
-6.35
 74
0
 49
6.35
 74
0
 49
-6.35
 74
0
  0
LTYPE
  5
39
330
2
100
AcDbSymbolTableRecord
100
AcDbLinetypeTableRecord
  2
PHANTOM2
 70
0
  3
Phantom (.5x) __ _ _ __
 72
65
 73
6
 40
31.75
 49
15.875
 74
0
 49
-3.175
 74
0
 49
3.175
 74
0
 49
-3.175
 74
0
 49
3.175
 74
0
 49
-3.175
 74
0
  0
LTYPE
  5
3A
330
2
100
AcDbSymbolTableRecord
100
AcDbLinetypeTableRecord
  2
DOT
 70
0
  3
Dot . . .
 72
65
 73
2
 40
6.35
 49
0.0
 74
0
 49
-6.35
 74
0
  0
ENDTAB
  0
TABLE
  2
LAYER
  5
1
330
0
100
AcDbSymbolTable
 70
36
  0
LAYER
  5
27
330
1
100
AcDbSymbolTableRecord
100
AcDbLayerTableRecord
  2
0
 70
0
 62
7
  6
Continuous
370
-3
390
13
347
21
1001
AcAecLayerStandard
1000

1000
System layer - block definitions only
  0
LAYER
  5
28
330
1
100
AcDbSymbolTableRecord
100
AcDbLayerTableRecord
  2
Defpoints
 70
0
 62
7
  6
Continuous
290
0
370
-3
390
13
347
21
  0
LAYER
  5
3B
330
1
100
AcDbSymbolTableRecord
100
AcDbLayerTableRecord
  2
ASG-OUTLINE-PRIMARY
 70
0
 62
7
  6
Continuous
370
35
390
13
347
21
1001
AcAecLayerStandard
1000

1000
Primary visible outlines
  0
LAYER
  5
3D
330
1
100
AcDbSymbolTableRecord
100
AcDbLayerTableRecord
  2
ASG-OUTLINE-SECONDARY
 70
0
 62
8
  6
Continuous
370
18
390
13
347
21
1001
AcAecLayerStandard
1000

1000
Secondary visible lines
  0
LAYER
  5
3E
330
1
100
AcDbSymbolTableRecord
100
AcDbLayerTableRecord
  2
ASG-ALUMINIUM-PROFILE
 70
0
 62
7
  6
Continuous
370
25
390
13
347
21
1001
AcAecLayerStandard
1000

1000
Aluminium profiles
  0
LAYER
  5
3F
330
1
100
AcDbSymbolTableRecord
100
AcDbLayerTableRecord
  2
ASG-GLASS
 70
0
 62
4
  6
Continuous
370
18
390
13
347
21
1001
AcAecLayerStandard
1000

1000
Glass and mirror
  0
LAYER
  5
40
330
1
100
AcDbSymbolTableRecord
100
AcDbLayerTableRecord
  2
ASG-STAINLESS-STEEL
 70
0
 62
7
  6
Continuous
370
25
390
13
347
21
1001
AcAecLayerStandard
1000

1000
Stainless steel
  0
LAYER
  5
41
330
1
100
AcDbSymbolTableRecord
100
AcDbLayerTableRecord
  2
ASG-MILD-STEEL
 70
0
 62
7
  6
Continuous
370
25
390
13
347
21
1001
AcAecLayerStandard
1000

1000
Mild steel
  0
LAYER
  5
42
330
1
100
AcDbSymbolTableRecord
100
AcDbLayerTableRecord
  2
ASG-HARDWARE
 70
0
 62
8
  6
Continuous
370
18
390
13
347
21
1001
AcAecLayerStandard
1000

1000
Hardware
  0
LAYER
  5
43
330
1
100
AcDbSymbolTableRecord
100
AcDbLayerTableRecord
  2
ASG-FIXING
 70
0
 62
8
  6
Continuous
370
18
390
13
347
21
1001
AcAecLayerStandard
1000

1000
Fixings
  0
LAYER
  5
44
330
1
100
AcDbSymbolTableRecord
100
AcDbLayerTableRecord
  2
ASG-GASKET
 70
0
 62
8
  6
Continuous
370
13
390
13
347
21
1001
AcAecLayerStandard
1000

1000
Gaskets
  0
LAYER
  5
45
330
1
100
AcDbSymbolTableRecord
100
AcDbLayerTableRecord
  2
ASG-SEALANT
 70
0
 62
8
  6
Continuous
370
13
390
13
347
21
1001
AcAecLayerStandard
1000

1000
Sealants
  0
LAYER
  5
46
330
1
100
AcDbSymbolTableRecord
100
AcDbLayerTableRecord
  2
ASG-INSULATION
 70
0
 62
252
  6
Continuous
370
13
390
13
347
21
1001
AcAecLayerStandard
1000

1000
Insulation
  0
LAYER
  5
47
330
1
100
AcDbSymbolTableRecord
100
AcDbLayerTableRecord
  2
ASG-CLADDING
 70
0
 62
7
  6
Continuous
370
25
390
13
347
21
1001
AcAecLayerStandard
1000

1000
Cladding
  0
LAYER
  5
48
330
1
100
AcDbSymbolTableRecord
100
AcDbLayerTableRecord
  2
ASG-HIDDEN
 70
0
 62
8
  6
HIDDEN2
370
18
390
13
347
21
1001
AcAecLayerStandard
1000

1000
Hidden geometry
  0
LAYER
  5
49
330
1
100
AcDbSymbolTableRecord
100
AcDbLayerTableRecord
  2
ASG-CENTERLINE
 70
0
 62
8
  6
CENTER2
370
13
390
13
347
21
1001
AcAecLayerStandard
1000

1000
Centrelines
  0
LAYER
  5
4A
330
1
100
AcDbSymbolTableRecord
100
AcDbLayerTableRecord
  2
ASG-CUTTING-PLANE
 70
0
 62
7
  6
PHANTOM2
370
35
390
13
347
21
1001
AcAecLayerStandard
1000

1000
Cutting planes
  0
LAYER
  5
4B
330
1
100
AcDbSymbolTableRecord
100
AcDbLayerTableRecord
  2
ASG-SECTION-CUT
 70
0
 62
7
  6
Continuous
370
50
390
13
347
21
1001
AcAecLayerStandard
1000

1000
Section cut outlines
  0
LAYER
  5
4C
330
1
100
AcDbSymbolTableRecord
100
AcDbLayerTableRecord
  2
ASG-HATCH
 70
0
 62
252
  6
Continuous
370
9
390
13
347
21
1001
AcAecLayerStandard
1000

1000
Section hatching
  0
LAYER
  5
4D
330
1
100
AcDbSymbolTableRecord
100
AcDbLayerTableRecord
  2
ASG-HATCH-FILL
 70
0
 62
251
  6
Continuous
370
9
390
13
347
21
1001
AcAecLayerStandard
1000

1000
Solid fills
  0
LAYER
  5
4E
330
1
100
AcDbSymbolTableRecord
100
AcDbLayerTableRecord
  2
ASG-SETOUT
 70
0
 62
8
  6
DASHDOT2
370
13
390
13
347
21
1001
AcAecLayerStandard
1000

1000
Setting-out geometry (plotted)
  0
LAYER
  5
4F
330
1
100
AcDbSymbolTableRecord
100
AcDbLayerTableRecord
  2
ASG-REFERENCE
 70
0
 62
253
  6
Continuous
370
13
390
13
347
21
1001
AcAecLayerStandard
1000

1000
Reference geometry
  0
LAYER
  5
50
330
1
100
AcDbSymbolTableRecord
100
AcDbLayerTableRecord
  2
ASG-CONSTRUCTION
 70
0
 62
6
  6
Continuous
290
0
370
0
390
13
347
21
1001
AcAecLayerStandard
1000

1000
Construction geometry (NOT plotted)
  0
LAYER
  5
51
330
1
100
AcDbSymbolTableRecord
100
AcDbLayerTableRecord
  2
ASG-DIMENSION
 70
0
 62
3
  6
Continuous
370
13
390
13
347
21
1001
AcAecLayerStandard
1000

1000
Dimensions
  0
LAYER
  5
52
330
1
100
AcDbSymbolTableRecord
100
AcDbLayerTableRecord
  2
ASG-TEXT
 70
0
 62
7
  6
Continuous
370
18
390
13
347
21
1001
AcAecLayerStandard
1000

1000
General text
  0
LAYER
  5
53
330
1
100
AcDbSymbolTableRecord
100
AcDbLayerTableRecord
  2
ASG-TEXT-NOTE
 70
0
 62
7
  6
Continuous
370
18
390
13
347
21
1001
AcAecLayerStandard
1000

1000
Notes
  0
LAYER
  5
54
330
1
100
AcDbSymbolTableRecord
100
AcDbLayerTableRecord
  2
ASG-MULTILEADER
 70
0
 62
3
  6
Continuous
370
13
390
13
347
21
1001
AcAecLayerStandard
1000

1000
Multileaders
  0
LAYER
  5
55
330
1
100
AcDbSymbolTableRecord
100
AcDbLayerTableRecord
  2
ASG-TABLE
 70
0
 62
7
  6
Continuous
370
18
390
13
347
21
1001
AcAecLayerStandard
1000

1000
Tables
  0
LAYER
  5
56
330
1
100
AcDbSymbolTableRecord
100
AcDbLayerTableRecord
  2
ASG-LEVEL
 70
0
 62
3
  6
Continuous
370
13
390
13
347
21
1001
AcAecLayerStandard
1000

1000
Levels
  0
LAYER
  5
57
330
1
100
AcDbSymbolTableRecord
100
AcDbLayerTableRecord
  2
ASG-GRID
 70
0
 62
8
  6
CENTER
370
13
390
13
347
21
1001
AcAecLayerStandard
1000

1000
Grids
  0
LAYER
  5
58
330
1
100
AcDbSymbolTableRecord
100
AcDbLayerTableRecord
  2
ASG-REVISION
 70
0
 62
1
  6
Continuous
370
25
390
13
347
21
1001
AcAecLayerStandard
1000

1000
Revision clouds
  0
LAYER
  5
59
330
1
100
AcDbSymbolTableRecord
100
AcDbLayerTableRecord
  2
ASG-SYMBOL
 70
0
 62
3
  6
Continuous
370
25
390
13
347
21
1001
AcAecLayerStandard
1000

1000
Drafting symbols
  0
LAYER
  5
5A
330
1
100
AcDbSymbolTableRecord
100
AcDbLayerTableRecord
  2
ASG-BORDER
 70
0
 62
7
  6
Continuous
370
50
390
13
347
21
1001
AcAecLayerStandard
1000

1000
Sheet borders
  0
LAYER
  5
5B
330
1
100
AcDbSymbolTableRecord
100
AcDbLayerTableRecord
  2
ASG-TITLEBLOCK
 70
0
 62
7
  6
Continuous
370
25
390
13
347
21
1001
AcAecLayerStandard
1000

1000
Title blocks
  0
LAYER
  5
5C
330
1
100
AcDbSymbolTableRecord
100
AcDbLayerTableRecord
  2
ASG-VIEWPORT
 70
0
 62
6
  6
Continuous
290
0
370
0
390
13
347
21
1001
AcAecLayerStandard
1000

1000
Viewports (NOT plotted)
  0
LAYER
  5
5D
330
1
100
AcDbSymbolTableRecord
100
AcDbLayerTableRecord
  2
ASG-NOPLOT
 70
0
 62
6
  6
Continuous
290
0
370
0
390
13
347
21
1001
AcAecLayerStandard
1000

1000
Non-plot objects
  0
ENDTAB
  0
TABLE
  2
STYLE
  5
5
330
0
100
AcDbSymbolTable
 70
7
  0
STYLE
  5
29
330
5
100
AcDbSymbolTableRecord
100
AcDbTextStyleTableRecord
  2
Standard
 70
0
 40
0.0
 41
1.0
 50
0.0
 71
0
 42
2.5
  3
arial.ttf
  4

1001
ACAD
1000
Arial
1071
34
  0
STYLE
  5
5E
330
5
100
AcDbSymbolTableRecord
100
AcDbTextStyleTableRecord
  2
ASG-TEXT-ANNO
 70
0
 40
0.0
 41
1.0
 50
0.0
 71
0
 42
2.5
  3
arial.ttf
  4

1001
ACAD
1000
Arial
1071
34
1001
AcadAnnotative
1000
AnnotativeData
1002
{
1070
1
1070
1
1002
}
  0
STYLE
  5
5F
330
5
100
AcDbSymbolTableRecord
100
AcDbTextStyleTableRecord
  2
ASG-TEXT-NOTE
 70
0
 40
0.0
 41
1.0
 50
0.0
 71
0
 42
2.5
  3
arial.ttf
  4

1001
ACAD
1000
Arial
1071
34
1001
AcadAnnotative
1000
AnnotativeData
1002
{
1070
1
1070
1
1002
}
  0
STYLE
  5
60
330
5
100
AcDbSymbolTableRecord
100
AcDbTextStyleTableRecord
  2
ASG-TEXT-SMALL
 70
0
 40
0.0
 41
1.0
 50
0.0
 71
0
 42
2.5
  3
arial.ttf
  4

1001
ACAD
1000
Arial
1071
34
1001
AcadAnnotative
1000
AnnotativeData
1002
{
1070
1
1070
1
1002
}
  0
STYLE
  5
61
330
5
100
AcDbSymbolTableRecord
100
AcDbTextStyleTableRecord
  2
ASG-TEXT-TITLE
 70
0
 40
0.0
 41
1.0
 50
0.0
 71
0
 42
2.5
  3
arialbd.ttf
  4

1001
ACAD
1000
Arial
1071
33554466
  0
STYLE
  5
62
330
5
100
AcDbSymbolTableRecord
100
AcDbTextStyleTableRecord
  2
ASG-TEXT-HEADING
 70
0
 40
0.0
 41
1.0
 50
0.0
 71
0
 42
2.5
  3
arialbd.ttf
  4

1001
ACAD
1000
Arial
1071
33554466
  0
STYLE
  5
63
330
5
100
AcDbSymbolTableRecord
100
AcDbTextStyleTableRecord
  2
ASG-TEXT-SHEET
 70
0
 40
0.0
 41
1.0
 50
0.0
 71
0
 42
2.5
  3
arial.ttf
  4

1001
ACAD
1000
Arial
1071
34
  0
ENDTAB
  0
TABLE
  2
VIEW
  5
7
330
0
100
AcDbSymbolTable
 70
0
  0
ENDTAB
  0
TABLE
  2
UCS
  5
6
330
0
100
AcDbSymbolTable
 70
0
  0
ENDTAB
  0
TABLE
  2
APPID
  5
3
330
0
100
AcDbSymbolTable
 70
5
  0
APPID
  5
2A
330
3
100
AcDbSymbolTableRecord
100
AcDbRegAppTableRecord
  2
ACAD
 70
0
  0
APPID
  5
2F
330
3
100
AcDbSymbolTableRecord
100
AcDbRegAppTableRecord
  2
AcadAnnotative
 70
0
  0
APPID
  5
3C
330
3
100
AcDbSymbolTableRecord
100
AcDbRegAppTableRecord
  2
AcAecLayerStandard
 70
0
  0
APPID
  5
106
330
3
100
AcDbSymbolTableRecord
100
AcDbRegAppTableRecord
  2
HATCHBACKGROUNDCOLOR
 70
0
  0
APPID
  5
107
330
3
100
AcDbSymbolTableRecord
100
AcDbRegAppTableRecord
  2
EZDXF
 70
0
  0
ENDTAB
  0
TABLE
  2
DIMSTYLE
  5
4
330
0
100
AcDbSymbolTable
 70
7
100
AcDbDimStyleTable
  0
DIMSTYLE
105
2B
330
4
100
AcDbSymbolTableRecord
100
AcDbDimStyleTableRecord
  2
Standard
 70
0
 40
1.0
 41
2.5
 42
1.5
 43
7.0
 44
1.25
 45
0.0
 46
0.0
 47
0.0
 48
0.0
 49
2.5
140
2.5
141
2.5
142
0.0
143
25.4
144
1.0
145
0.0
146
0.7
147
1.0
148
0.0
 69
0
 70
0
 71
0
 72
0
 73
0
 74
0
 75
0
 76
0
 77
1
 78
8
 79
2
170
0
171
2
172
1
173
0
174
0
175
0
176
256
177
256
178
256
179
2
271
0
272
1
273
2
274
3
275
0
276
0
277
2
278
46
279
1
280
0
281
0
282
0
283
0
284
8
285
0
286
0
288
0
289
3
290
0
340
5E
371
-2
372
-2
  0
DIMSTYLE
105
64
330
4
100
AcDbSymbolTableRecord
100
AcDbDimStyleTableRecord
  2
ASG-DIM-ANNO
 70
0
 40
1.0
 41
2.5
 42
1.5
 43
7.0
 44
1.25
 45
0.0
 46
0.0
 47
0.0
 48
0.0
 49
2.5
140
2.5
141
2.5
142
0.0
143
25.4
144
1.0
145
0.0
146
0.7
147
1.0
148
0.0
 69
0
 70
0
 71
0
 72
0
 73
0
 74
0
 75
0
 76
0
 77
1
 78
8
 79
2
170
0
171
2
172
1
173
0
174
0
175
0
176
256
177
256
178
256
179
2
271
0
272
1
273
2
274
3
275
0
276
0
277
2
278
46
279
1
280
0
281
0
282
0
283
0
284
8
285
0
286
0
288
0
289
3
290
0
340
5E
371
-2
372
-2
1001
AcadAnnotative
1000
AnnotativeData
1002
{
1070
1
1070
1
1002
}
  0
DIMSTYLE
105
65
330
4
100
AcDbSymbolTableRecord
100
AcDbDimStyleTableRecord
  2
ASG-DIM-FIXED
 70
0
 40
1.0
 41
2.5
 42
1.5
 43
7.0
 44
1.25
 45
0.0
 46
0.0
 47
0.0
 48
0.0
 49
2.5
140
2.5
141
2.5
142
0.0
143
25.4
144
1.0
145
0.0
146
0.7
147
1.0
148
0.0
 69
0
 70
0
 71
0
 72
0
 73
0
 74
0
 75
0
 76
0
 77
1
 78
8
 79
2
170
0
171
2
172
1
173
0
174
0
175
0
176
256
177
256
178
256
179
2
271
0
272
1
273
2
274
3
275
0
276
0
277
2
278
46
279
1
280
0
281
0
282
0
283
0
284
8
285
0
286
0
288
0
289
3
290
0
340
5E
371
-2
372
-2
  0
DIMSTYLE
105
66
330
4
100
AcDbSymbolTableRecord
100
AcDbDimStyleTableRecord
  2
ASG-DIM-DETAIL
 70
0
 40
1.0
 41
2.5
 42
1.5
 43
7.0
 44
1.25
 45
0.0
 46
0.0
 47
0.0
 48
0.0
 49
2.5
140
2.5
141
2.5
142
0.0
143
25.4
144
1.0
145
0.0
146
0.7
147
1.0
148
0.0
 69
0
 70
0
 71
0
 72
0
 73
0
 74
0
 75
0
 76
0
 77
1
 78
0
 79
2
170
0
171
2
172
1
173
0
174
0
175
0
176
256
177
256
178
256
179
2
271
1
272
1
273
2
274
3
275
0
276
0
277
2
278
46
279
1
280
0
281
0
282
0
283
0
284
8
285
0
286
0
288
0
289
3
290
0
340
5E
371
-2
372
-2
1001
AcadAnnotative
1000
AnnotativeData
1002
{
1070
1
1070
1
1002
}
  0
DIMSTYLE
105
67
330
4
100
AcDbSymbolTableRecord
100
AcDbDimStyleTableRecord
  2
ASG-DIM-ANGULAR
 70
0
 40
1.0
 41
2.5
 42
1.5
 43
7.0
 44
1.25
 45
0.0
 46
0.0
 47
0.0
 48
0.0
 49
2.5
140
2.5
141
2.5
142
0.0
143
25.4
144
1.0
145
0.0
146
0.7
147
1.0
148
0.0
 69
0
 70
0
 71
0
 72
0
 73
0
 74
0
 75
0
 76
0
 77
1
 78
8
 79
0
170
0
171
2
172
1
173
0
174
0
175
0
176
256
177
256
178
256
179
2
271
0
272
1
273
2
274
3
275
0
276
0
277
2
278
46
279
1
280
0
281
0
282
0
283
0
284
8
285
0
286
0
288
0
289
3
290
0
340
5E
371
-2
372
-2
1001
AcadAnnotative
1000
AnnotativeData
1002
{
1070
1
1070
1
1002
}
  0
DIMSTYLE
105
68
330
4
100
AcDbSymbolTableRecord
100
AcDbDimStyleTableRecord
  2
ASG-DIM-RADIUS
 70
0
 40
1.0
 41
2.5
 42
1.5
 43
7.0
 44
1.25
 45
0.0
 46
0.0
 47
0.0
 48
0.0
 49
2.5
140
2.5
141
0.0
142
0.0
143
25.4
144
1.0
145
0.0
146
0.7
147
1.0
148
0.0
 69
0
 70
0
 71
0
 72
0
 73
0
 74
0
 75
0
 76
0
 77
1
 78
8
 79
2
170
0
171
2
172
1
173
0
174
0
175
0
176
256
177
256
178
256
179
2
271
0
272
1
273
2
274
3
275
0
276
0
277
2
278
46
279
0
280
0
281
0
282
0
283
0
284
8
285
0
286
0
288
0
289
3
290
0
340
5E
371
-2
372
-2
1001
AcadAnnotative
1000
AnnotativeData
1002
{
1070
1
1070
1
1002
}
  0
DIMSTYLE
105
69
330
4
100
AcDbSymbolTableRecord
100
AcDbDimStyleTableRecord
  2
ASG-DIM-DIAMETER
 70
0
 40
1.0
 41
2.5
 42
1.5
 43
7.0
 44
1.25
 45
0.0
 46
0.0
 47
0.0
 48
0.0
 49
2.5
140
2.5
141
2.5
142
0.0
143
25.4
144
1.0
145
0.0
146
0.7
147
1.0
148
0.0
 69
0
 70
0
 71
0
 72
0
 73
0
 74
0
 75
0
 76
0
 77
1
 78
8
 79
2
170
0
171
2
172
1
173
0
174
0
175
0
176
256
177
256
178
256
179
2
271
0
272
1
273
2
274
3
275
0
276
0
277
2
278
46
279
0
280
0
281
0
282
0
283
0
284
8
285
0
286
0
288
0
289
3
290
0
340
5E
371
-2
372
-2
1001
AcadAnnotative
1000
AnnotativeData
1002
{
1070
1
1070
1
1002
}
  0
ENDTAB
  0
TABLE
  2
BLOCK_RECORD
  5
9
330
0
100
AcDbSymbolTable
 70
5
  0
BLOCK_RECORD
  5
17
330
9
100
AcDbSymbolTableRecord
100
AcDbBlockTableRecord
  2
*Model_Space
340
1A
 70
0
280
1
281
0
  0
BLOCK_RECORD
  5
6D
330
9
100
AcDbSymbolTableRecord
100
AcDbBlockTableRecord
  2
_DOT
340
0
 70
0
280
1
281
0
  0
BLOCK_RECORD
  5
73
330
9
100
AcDbSymbolTableRecord
100
AcDbBlockTableRecord
  2
_OPEN30
340
0
 70
0
280
1
281
0
  0
BLOCK_RECORD
  5
7A
330
9
100
AcDbSymbolTableRecord
100
AcDbBlockTableRecord
  2
ASG-TB-A1-L
340
0
 70
4
280
0
281
1
  0
BLOCK_RECORD
  5
D9
330
9
100
AcDbSymbolTableRecord
100
AcDbBlockTableRecord
  2
*Paper_Space
340
DC
 70
0
280
1
281
0
  0
ENDTAB
  0
ENDSEC
  0
SECTION
  2
BLOCKS
  0
BLOCK
  5
18
330
17
100
AcDbEntity
  8
0
100
AcDbBlockBegin
  2
*Model_Space
 70
0
 10
0.0
 20
0.0
 30
0.0
  3
*Model_Space
  1

  0
ENDBLK
  5
19
330
17
100
AcDbEntity
  8
0
100
AcDbBlockEnd
  0
BLOCK
  5
6E
330
6D
100
AcDbEntity
  8
0
100
AcDbBlockBegin
  2
_DOT
 70
0
 10
0.0
 20
0.0
 30
0.0
  3
_DOT
  1

  0
LINE
  5
70
330
6D
100
AcDbEntity
  8
0
  6
BYBLOCK
 62
0
100
AcDbLine
 10
-0.5
 20
0.0
 30
0.0
 11
-1.0
 21
0.0
 31
0.0
  0
LWPOLYLINE
  5
71
330
6D
100
AcDbEntity
  8
0
  6
BYBLOCK
 62
0
100
AcDbPolyline
 90
2
 70
1
 43
0.5
 10
-0.25
 20
0.0
 42
1.0
 10
0.25
 20
0.0
 42
1.0
  0
ENDBLK
  5
6F
330
6D
100
AcDbEntity
  8
0
100
AcDbBlockEnd
  0
BLOCK
  5
74
330
73
100
AcDbEntity
  8
0
100
AcDbBlockBegin
  2
_OPEN30
 70
0
 10
0.0
 20
0.0
 30
0.0
  3
_OPEN30
  1

  0
LWPOLYLINE
  5
76
330
73
100
AcDbEntity
  8
0
  6
BYBLOCK
 62
0
100
AcDbPolyline
 90
3
 70
0
 10
-1.0
 20
0.25881904510252074
 10
0.0
 20
0.0
 10
-1.0
 20
-0.25881904510252074
  0
LINE
  5
77
330
73
100
AcDbEntity
  8
0
  6
BYBLOCK
 62
0
100
AcDbLine
 10
0.0
 20
0.0
 30
0.0
 11
-1.0
 21
0.0
 31
0.0
  0
ENDBLK
  5
75
330
73
100
AcDbEntity
  8
0
100
AcDbBlockEnd
  0
BLOCK
  5
7B
330
7A
100
AcDbEntity
  8
0
100
AcDbBlockBegin
  2
ASG-TB-A1-L
 70
2
 10
0.0
 20
0.0
 30
0.0
  3
ASG-TB-A1-L
  1

  0
TEXT
  5
7D
330
7A
100
AcDbEntity
  8
0
100
AcDbText
 10
-158.44
 20
16.740000000000002
 30
0.0
 40
2.5
  1
DRAWING No.
  7
ASG-TEXT-SHEET
 11
-158.44
 21
16.740000000000002
 31
0.0
100
AcDbText
 73
1
  0
LINE
  5
7E
330
7A
100
AcDbEntity
  8
0
100
AcDbLine
 10
-160.0
 20
20.8
 30
0.0
 11
0.0
 21
20.8
 31
0.0
  0
TEXT
  5
7F
330
7A
100
AcDbEntity
  8
0
100
AcDbText
 10
-158.44
 20
29.739999999999995
 30
0.0
 40
2.5
  1
REV
  7
ASG-TEXT-SHEET
 11
-158.44
 21
29.739999999999995
 31
0.0
100
AcDbText
 73
1
  0
LINE
  5
80
330
7A
100
AcDbEntity
  8
0
100
AcDbLine
 10
-104.0
 20
20.8
 30
0.0
 11
-104.0
 21
33.8
 31
0.0
  0
TEXT
  5
81
330
7A
100
AcDbEntity
  8
0
100
AcDbText
 10
-102.44
 20
29.739999999999995
 30
0.0
 40
2.5
  1
SHEET No.
  7
ASG-TEXT-SHEET
 11
-102.44
 21
29.739999999999995
 31
0.0
100
AcDbText
 73
1
  0
LINE
  5
82
330
7A
100
AcDbEntity
  8
0
100
AcDbLine
 10
-160.0
 20
33.8
 30
0.0
 11
0.0
 21
33.8
 31
0.0
  0
TEXT
  5
83
330
7A
100
AcDbEntity
  8
0
100
AcDbText
 10
-158.44
 20
42.739999999999995
 30
0.0
 40
2.5
  1
SCALE
  7
ASG-TEXT-SHEET
 11
-158.44
 21
42.739999999999995
 31
0.0
100
AcDbText
 73
1
  0
LINE
  5
84
330
7A
100
AcDbEntity
  8
0
100
AcDbLine
 10
-80.0
 20
33.8
 30
0.0
 11
-80.0
 21
46.8
 31
0.0
  0
TEXT
  5
85
330
7A
100
AcDbEntity
  8
0
100
AcDbText
 10
-78.44
 20
42.739999999999995
 30
0.0
 40
2.5
  1
DATE
  7
ASG-TEXT-SHEET
 11
-78.44
 21
42.739999999999995
 31
0.0
100
AcDbText
 73
1
  0
LINE
  5
86
330
7A
100
AcDbEntity
  8
0
100
AcDbLine
 10
-160.0
 20
46.8
 30
0.0
 11
0.0
 21
46.8
 31
0.0
  0
TEXT
  5
87
330
7A
100
AcDbEntity
  8
0
100
AcDbText
 10
-158.44
 20
55.739999999999995
 30
0.0
 40
2.5
  1
DRAWING STATUS
  7
ASG-TEXT-SHEET
 11
-158.44
 21
55.739999999999995
 31
0.0
100
AcDbText
 73
1
  0
LINE
  5
88
330
7A
100
AcDbEntity
  8
0
100
AcDbLine
 10
-160.0
 20
59.8
 30
0.0
 11
0.0
 21
59.8
 31
0.0
  0
TEXT
  5
89
330
7A
100
AcDbEntity
  8
0
100
AcDbText
 10
-158.44
 20
68.74
 30
0.0
 40
2.5
  1
APPROVED BY
  7
ASG-TEXT-SHEET
 11
-158.44
 21
68.74
 31
0.0
100
AcDbText
 73
1
  0
LINE
  5
8A
330
7A
100
AcDbEntity
  8
0
100
AcDbLine
 10
-160.0
 20
72.8
 30
0.0
 11
0.0
 21
72.8
 31
0.0
  0
TEXT
  5
8B
330
7A
100
AcDbEntity
  8
0
100
AcDbText
 10
-158.44
 20
81.74
 30
0.0
 40
2.5
  1
DRAWN BY
  7
ASG-TEXT-SHEET
 11
-158.44
 21
81.74
 31
0.0
100
AcDbText
 73
1
  0
LINE
  5
8C
330
7A
100
AcDbEntity
  8
0
100
AcDbLine
 10
-80.0
 20
72.8
 30
0.0
 11
-80.0
 21
85.8
 31
0.0
  0
TEXT
  5
8D
330
7A
100
AcDbEntity
  8
0
100
AcDbText
 10
-78.44
 20
81.74
 30
0.0
 40
2.5
  1
CHECKED BY
  7
ASG-TEXT-SHEET
 11
-78.44
 21
81.74
 31
0.0
100
AcDbText
 73
1
  0
LINE
  5
8E
330
7A
100
AcDbEntity
  8
0
100
AcDbLine
 10
-160.0
 20
85.8
 30
0.0
 11
0.0
 21
85.8
 31
0.0
  0
TEXT
  5
8F
330
7A
100
AcDbEntity
  8
0
100
AcDbText
 10
-158.44
 20
104.1
 30
0.0
 40
2.5
  1
DRAWING TITLE
  7
ASG-TEXT-SHEET
 11
-158.44
 21
104.1
 31
0.0
100
AcDbText
 73
1
  0
LINE
  5
90
330
7A
100
AcDbEntity
  8
0
100
AcDbLine
 10
-160.0
 20
108.16
 30
0.0
 11
0.0
 21
108.16
 31
0.0
  0
TEXT
  5
91
330
7A
100
AcDbEntity
  8
0
100
AcDbText
 10
-158.44
 20
117.1
 30
0.0
 40
2.5
  1
CONSULTANT
  7
ASG-TEXT-SHEET
 11
-158.44
 21
117.1
 31
0.0
100
AcDbText
 73
1
  0
LINE
  5
92
330
7A
100
AcDbEntity
  8
0
100
AcDbLine
 10
-160.0
 20
121.16
 30
0.0
 11
0.0
 21
121.16
 31
0.0
  0
TEXT
  5
93
330
7A
100
AcDbEntity
  8
0
100
AcDbText
 10
-158.44
 20
130.1
 30
0.0
 40
2.5
  1
CLIENT
  7
ASG-TEXT-SHEET
 11
-158.44
 21
130.1
 31
0.0
100
AcDbText
 73
1
  0
LINE
  5
94
330
7A
100
AcDbEntity
  8
0
100
AcDbLine
 10
-160.0
 20
134.16
 30
0.0
 11
0.0
 21
134.16
 31
0.0
  0
TEXT
  5
95
330
7A
100
AcDbEntity
  8
0
100
AcDbText
 10
-158.44
 20
143.1
 30
0.0
 40
2.5
  1
LOCATION
  7
ASG-TEXT-SHEET
 11
-158.44
 21
143.1
 31
0.0
100
AcDbText
 73
1
  0
LINE
  5
96
330
7A
100
AcDbEntity
  8
0
100
AcDbLine
 10
-160.0
 20
147.16
 30
0.0
 11
0.0
 21
147.16
 31
0.0
  0
TEXT
  5
97
330
7A
100
AcDbEntity
  8
0
100
AcDbText
 10
-158.44
 20
156.1
 30
0.0
 40
2.5
  1
PROJECT
  7
ASG-TEXT-SHEET
 11
-158.44
 21
156.1
 31
0.0
100
AcDbText
 73
1
  0
LINE
  5
98
330
7A
100
AcDbEntity
  8
0
100
AcDbLine
 10
-160.0
 20
160.16
 30
0.0
 11
0.0
 21
160.16
 31
0.0
  0
TEXT
  5
99
330
7A
100
AcDbEntity
  8
0
100
AcDbText
 10
-158.44
 20
202.91
 30
0.0
 40
2.5
  1
REV
  7
ASG-TEXT-SHEET
 11
-158.44
 21
202.91
 31
0.0
100
AcDbText
 73
1
  0
LINE
  5
9A
330
7A
100
AcDbEntity
  8
0
100
AcDbLine
 10
-139.2
 20
160.16
 30
0.0
 11
-139.2
 21
208.16
 31
0.0
  0
TEXT
  5
9B
330
7A
100
AcDbEntity
  8
0
100
AcDbText
 10
-137.64
 20
202.91
 30
0.0
 40
2.5
  1
DATE
  7
ASG-TEXT-SHEET
 11
-137.64
 21
202.91
 31
0.0
100
AcDbText
 73
1
  0
LINE
  5
9C
330
7A
100
AcDbEntity
  8
0
100
AcDbLine
 10
-99.19999999999999
 20
160.16
 30
0.0
 11
-99.19999999999999
 21
208.16
 31
0.0
  0
TEXT
  5
9D
330
7A
100
AcDbEntity
  8
0
100
AcDbText
 10
-97.63999999999999
 20
202.91
 30
0.0
 40
2.5
  1
DESCRIPTION
  7
ASG-TEXT-SHEET
 11
-97.63999999999999
 21
202.91
 31
0.0
100
AcDbText
 73
1
  0
LINE
  5
9E
330
7A
100
AcDbEntity
  8
0
100
AcDbLine
 10
-25.59999999999998
 20
160.16
 30
0.0
 11
-25.59999999999998
 21
208.16
 31
0.0
  0
TEXT
  5
9F
330
7A
100
AcDbEntity
  8
0
100
AcDbText
 10
-24.03999999999998
 20
202.91
 30
0.0
 40
2.5
  1
BY
  7
ASG-TEXT-SHEET
 11
-24.03999999999998
 21
202.91
 31
0.0
100
AcDbText
 73
1
  0
LINE
  5
A0
330
7A
100
AcDbEntity
  8
0
100
AcDbLine
 10
-160.0
 20
200.16
 30
0.0
 11
0.0
 21
200.16
 31
0.0
  0
LINE
  5
A1
330
7A
100
AcDbEntity
  8
0
100
AcDbLine
 10
-160.0
 20
192.16
 30
0.0
 11
0.0
 21
192.16
 31
0.0
  0
LINE
  5
A2
330
7A
100
AcDbEntity
  8
0
100
AcDbLine
 10
-160.0
 20
184.16
 30
0.0
 11
0.0
 21
184.16
 31
0.0
  0
LINE
  5
A3
330
7A
100
AcDbEntity
  8
0
100
AcDbLine
 10
-160.0
 20
176.16
 30
0.0
 11
0.0
 21
176.16
 31
0.0
  0
LINE
  5
A4
330
7A
100
AcDbEntity
  8
0
100
AcDbLine
 10
-160.0
 20
168.16
 30
0.0
 11
0.0
 21
168.16
 31
0.0
  0
LINE
  5
A5
330
7A
100
AcDbEntity
  8
0
100
AcDbLine
 10
-160.0
 20
208.16
 30
0.0
 11
0.0
 21
208.16
 31
0.0
  0
TEXT
  5
A6
330
7A
100
AcDbEntity
  8
0
100
AcDbText
 10
-158.44
 20
237.22
 30
0.0
 40
2.5
  1
GENERAL NOTES
  7
ASG-TEXT-SHEET
 11
-158.44
 21
237.22
 31
0.0
100
AcDbText
 73
1
  0
TEXT
  5
A7
330
7A
100
AcDbEntity
  8
0
100
AcDbText
 10
-158.44
 20
232.47
 30
0.0
 40
2.5
  1
1. ALL DIMENSIONS ARE IN MILLIMETRES UNLESS NOTED OTHERWISE.
  7
ASG-TEXT-SHEET
 11
-158.44
 21
232.47
 31
0.0
100
AcDbText
 73
1
  0
TEXT
  5
A8
330
7A
100
AcDbEntity
  8
0
100
AcDbText
 10
-158.44
 20
228.595
 30
0.0
 40
2.5
  1
2. DO NOT SCALE THIS DRAWING - USE FIGURED DIMENSIONS ONLY.
  7
ASG-TEXT-SHEET
 11
-158.44
 21
228.595
 31
0.0
100
AcDbText
 73
1
  0
TEXT
  5
A9
330
7A
100
AcDbEntity
  8
0
100
AcDbText
 10
-158.44
 20
224.72
 30
0.0
 40
2.5
  1
3. VERIFY ALL DIMENSIONS ON SITE BEFORE FABRICATION.
  7
ASG-TEXT-SHEET
 11
-158.44
 21
224.72
 31
0.0
100
AcDbText
 73
1
  0
TEXT
  5
AA
330
7A
100
AcDbEntity
  8
0
100
AcDbText
 10
-158.44
 20
220.845
 30
0.0
 40
2.5
  1
4. READ WITH ARCHITECTURAL, STRUCTURAL DRAWINGS AND SPECIFICATIONS.
  7
ASG-TEXT-SHEET
 11
-158.44
 21
220.845
 31
0.0
100
AcDbText
 73
1
  0
TEXT
  5
AB
330
7A
100
AcDbEntity
  8
0
100
AcDbText
 10
-158.44
 20
214.97
 30
0.0
 40
2.5
  1
© SAEED AL SIRAJ GLASS & ALUMINIUM WORKS L.L.C. - CONFIDENTIAL. NOT TO BE COPIED
  7
ASG-TEXT-SHEET
 11
-158.44
 21
214.97
 31
0.0
100
AcDbText
 73
1
  0
TEXT
  5
AC
330
7A
100
AcDbEntity
  8
0
100
AcDbText
 10
-158.44
 20
211.095
 30
0.0
 40
2.5
  1
OR USED WITHOUT WRITTEN PERMISSION.
  7
ASG-TEXT-SHEET
 11
-158.44
 21
211.095
 31
0.0
100
AcDbText
 73
1
  0
LINE
  5
AD
330
7A
100
AcDbEntity
  8
0
100
AcDbLine
 10
-160.0
 20
241.28
 30
0.0
 11
0.0
 21
241.28
 31
0.0
  0
LINE
  5
AE
330
7A
100
AcDbEntity
  8
0
100
AcDbLine
 10
-160.0
 20
394.9245
 30
0.0
 11
0.0
 21
394.9245
 31
0.0
  0
TEXT
  5
AF
330
7A
100
AcDbEntity
  8
0
100
AcDbText
 10
-158.44
 20
544.5090000000001
 30
0.0
 40
2.5
  1
KEY PLAN
  7
ASG-TEXT-SHEET
 11
-158.44
 21
544.5090000000001
 31
0.0
100
AcDbText
 73
1
  0
TEXT
  5
B0
330
7A
100
AcDbEntity
  8
0
100
AcDbText
 10
-158.44
 20
390.8645
 30
0.0
 40
2.5
  1
APPROVAL STAMP
  7
ASG-TEXT-SHEET
 11
-158.44
 21
390.8645
 31
0.0
100
AcDbText
 73
1
  0
LINE
  5
B1
330
7A
100
AcDbEntity
  8
0
100
AcDbLine
 10
-160.0
 20
548.569
 30
0.0
 11
0.0
 21
548.569
 31
0.0
  0
TEXT
  5
B2
330
7A
100
AcDbEntity
  8
0
100
AcDbText
 10
-158.44
 20
566.504
 30
0.0
 40
5.0
  1
SAEED AL SIRAJ GLASS &
  7
ASG-TEXT-HEADING
 11
-158.44
 21
566.504
 31
0.0
100
AcDbText
 73
1
  0
TEXT
  5
B3
330
7A
100
AcDbEntity
  8
0
100
AcDbText
 10
-158.44
 20
559.254
 30
0.0
 40
5.0
  1
ALUMINIUM WORKS L.L.C.
  7
ASG-TEXT-HEADING
 11
-158.44
 21
559.254
 31
0.0
100
AcDbText
 73
1
  0
TEXT
  5
B4
330
7A
100
AcDbEntity
  8
0
100
AcDbText
 10
-158.44
 20
552.379
 30
0.0
 40
2.5
  1
AL SIRAJ GROUP - ALUMINIUM, GLASS & FACADE DIVISION - UAE
  7
ASG-TEXT-SHEET
 11
-158.44
 21
552.379
 31
0.0
100
AcDbText
 73
1
  0
LWPOLYLINE
  5
B5
330
7A
100
AcDbEntity
  8
0
100
AcDbPolyline
 90
4
 70
1
 10
-160.0
 20
0.0
 10
0.0
 20
0.0
 10
0.0
 20
574.0
 10
-160.0
 20
574.0
  0
ATTDEF
  5
B6
330
7A
100
AcDbEntity
  8
0
100
AcDbText
 10
-158.44
 20
148.72
 30
0.0
 40
3.5
  1
PROJECT NAME
  7
ASG-TEXT-SHEET
 11
-158.44
 21
148.72
 31
0.0
100
AcDbAttributeDefinition
  3
Project
  2
PROJECT
 70
0
 74
1
280
1
 71
1
 72
0
 11
-158.44
 21
148.72
 31
0.0
  0
ATTDEF
  5
B7
330
7A
100
AcDbEntity
  8
0
100
AcDbText
 10
-158.44
 20
135.72
 30
0.0
 40
3.5
  1
LOCATION, UAE
  7
ASG-TEXT-SHEET
 11
-158.44
 21
135.72
 31
0.0
100
AcDbAttributeDefinition
  3
Location
  2
LOCATION
 70
0
 74
1
280
1
 71
1
 72
0
 11
-158.44
 21
135.72
 31
0.0
  0
ATTDEF
  5
B8
330
7A
100
AcDbEntity
  8
0
100
AcDbText
 10
-158.44
 20
122.72
 30
0.0
 40
3.5
  1
CLIENT
  7
ASG-TEXT-SHEET
 11
-158.44
 21
122.72
 31
0.0
100
AcDbAttributeDefinition
  3
Client
  2
CLIENT
 70
0
 74
1
280
1
 71
1
 72
0
 11
-158.44
 21
122.72
 31
0.0
  0
ATTDEF
  5
B9
330
7A
100
AcDbEntity
  8
0
100
AcDbText
 10
-158.44
 20
109.72
 30
0.0
 40
3.5
  1
CONSULTANT
  7
ASG-TEXT-SHEET
 11
-158.44
 21
109.72
 31
0.0
100
AcDbAttributeDefinition
  3
Consultant
  2
CONSULTANT
 70
0
 74
1
280
1
 71
1
 72
0
 11
-158.44
 21
109.72
 31
0.0
  0
ATTDEF
  5
BA
330
7A
100
AcDbEntity
  8
0
100
AcDbText
 10
-158.44
 20
93.2
 30
0.0
 40
7.0
  1
DRAWING TITLE
  7
ASG-TEXT-HEADING
 11
-158.44
 21
93.2
 31
0.0
100
AcDbAttributeDefinition
  3
Drawing title
  2
DWG_TITLE
 70
0
 74
1
280
1
 71
1
 72
0
 11
-158.44
 21
93.2
 31
0.0
  0
ATTDEF
  5
BB
330
7A
100
AcDbEntity
  8
0
100
AcDbText
 10
-158.44
 20
87.36
 30
0.0
 40
3.5
  1

  7
ASG-TEXT-TITLE
 11
-158.44
 21
87.36
 31
0.0
100
AcDbAttributeDefinition
  3
Drawing title - second line (optional)
  2
DWG_TITLE_2
 70
0
 74
1
280
1
 71
1
 72
0
 11
-158.44
 21
87.36
 31
0.0
  0
ATTDEF
  5
BC
330
7A
100
AcDbEntity
  8
0
100
AcDbText
 10
-158.44
 20
1.56
 30
0.0
 40
7.0
  1
AS-YYYY-NNN-DIS-TYP-001
  7
ASG-TEXT-HEADING
 11
-158.44
 21
1.56
 31
0.0
100
AcDbAttributeDefinition
  3
Drawing number
  2
DWG_NO
 70
0
 74
1
280
1
 71
1
 72
0
 11
-158.44
 21
1.56
 31
0.0
  0
ATTDEF
  5
BD
330
7A
100
AcDbEntity
  8
0
100
AcDbText
 10
-158.44
 20
22.36
 30
0.0
 40
3.5
  1
R0
  7
ASG-TEXT-HEADING
 11
-158.44
 21
22.36
 31
0.0
100
AcDbAttributeDefinition
  3
Current revision
  2
REV
 70
0
 74
1
280
1
 71
1
 72
0
 11
-158.44
 21
22.36
 31
0.0
  0
ATTDEF
  5
BE
330
7A
100
AcDbEntity
  8
0
100
AcDbText
 10
-102.44
 20
22.36
 30
0.0
 40
3.5
  1
01 OF 01
  7
ASG-TEXT-SHEET
 11
-102.44
 21
22.36
 31
0.0
100
AcDbAttributeDefinition
  3
Sheet number
  2
SHEET_NO
 70
0
 74
1
280
1
 71
1
 72
0
 11
-102.44
 21
22.36
 31
0.0
  0
ATTDEF
  5
BF
330
7A
100
AcDbEntity
  8
0
100
AcDbText
 10
-158.44
 20
35.36
 30
0.0
 40
3.5
  1
AS SHOWN
  7
ASG-TEXT-SHEET
 11
-158.44
 21
35.36
 31
0.0
100
AcDbAttributeDefinition
  3
Scale
  2
SCALE
 70
0
 74
1
280
1
 71
1
 72
0
 11
-158.44
 21
35.36
 31
0.0
  0
ATTDEF
  5
C0
330
7A
100
AcDbEntity
  8
0
100
AcDbText
 10
-78.44
 20
35.36
 30
0.0
 40
3.5
  1
DD.MM.YYYY
  7
ASG-TEXT-SHEET
 11
-78.44
 21
35.36
 31
0.0
100
AcDbAttributeDefinition
  3
Date (DD.MM.YYYY)
  2
DATE
 70
0
 74
1
280
1
 71
1
 72
0
 11
-78.44
 21
35.36
 31
0.0
  0
ATTDEF
  5
C1
330
7A
100
AcDbEntity
  8
0
100
AcDbText
 10
-158.44
 20
48.36
 30
0.0
 40
3.5
  1
PRELIMINARY
  7
ASG-TEXT-SHEET
 11
-158.44
 21
48.36
 31
0.0
100
AcDbAttributeDefinition
  3
Drawing status
  2
DWG_STATUS
 70
0
 74
1
280
1
 71
1
 72
0
 11
-158.44
 21
48.36
 31
0.0
  0
ATTDEF
  5
C2
330
7A
100
AcDbEntity
  8
0
100
AcDbText
 10
-158.44
 20
74.36
 30
0.0
 40
3.5
  1
-
  7
ASG-TEXT-SHEET
 11
-158.44
 21
74.36
 31
0.0
100
AcDbAttributeDefinition
  3
Drawn by
  2
DRAWN_BY
 70
0
 74
1
280
1
 71
1
 72
0
 11
-158.44
 21
74.36
 31
0.0
  0
ATTDEF
  5
C3
330
7A
100
AcDbEntity
  8
0
100
AcDbText
 10
-78.44
 20
74.36
 30
0.0
 40
3.5
  1
-
  7
ASG-TEXT-SHEET
 11
-78.44
 21
74.36
 31
0.0
100
AcDbAttributeDefinition
  3
Checked by
  2
CHECKED_BY
 70
0
 74
1
280
1
 71
1
 72
0
 11
-78.44
 21
74.36
 31
0.0
  0
ATTDEF
  5
C4
330
7A
100
AcDbEntity
  8
0
100
AcDbText
 10
-158.44
 20
61.36
 30
0.0
 40
3.5
  1
-
  7
ASG-TEXT-SHEET
 11
-158.44
 21
61.36
 31
0.0
100
AcDbAttributeDefinition
  3
Approved by
  2
APPROVED_BY
 70
0
 74
1
280
1
 71
1
 72
0
 11
-158.44
 21
61.36
 31
0.0
  0
ATTDEF
  5
C5
330
7A
100
AcDbEntity
  8
0
100
AcDbText
 10
-158.44
 20
194.91
 30
0.0
 40
2.5
  1
R0
  7
ASG-TEXT-SHEET
 11
-158.44
 21
194.91
 31
0.0
100
AcDbAttributeDefinition
  3
Revision row 1 - revision
  2
REV1_NO
 70
0
 74
1
280
1
 71
1
 72
0
 11
-158.44
 21
194.91
 31
0.0
  0
ATTDEF
  5
C6
330
7A
100
AcDbEntity
  8
0
100
AcDbText
 10
-137.64
 20
194.91
 30
0.0
 40
2.5
  1
DD.MM.YYYY
  7
ASG-TEXT-SHEET
 11
-137.64
 21
194.91
 31
0.0
100
AcDbAttributeDefinition
  3
Revision row 1 - date
  2
REV1_DATE
 70
0
 74
1
280
1
 71
1
 72
0
 11
-137.64
 21
194.91
 31
0.0
  0
ATTDEF
  5
C7
330
7A
100
AcDbEntity
  8
0
100
AcDbText
 10
-97.63999999999999
 20
194.91
 30
0.0
 40
2.5
  1
FIRST ISSUE
  7
ASG-TEXT-SHEET
 11
-97.63999999999999
 21
194.91
 31
0.0
100
AcDbAttributeDefinition
  3
Revision row 1 - description
  2
REV1_DESC
 70
0
 74
1
280
1
 71
1
 72
0
 11
-97.63999999999999
 21
194.91
 31
0.0
  0
ATTDEF
  5
C8
330
7A
100
AcDbEntity
  8
0
100
AcDbText
 10
-24.03999999999998
 20
194.91
 30
0.0
 40
2.5
  1
-
  7
ASG-TEXT-SHEET
 11
-24.03999999999998
 21
194.91
 31
0.0
100
AcDbAttributeDefinition
  3
Revision row 1 - by
  2
REV1_BY
 70
0
 74
1
280
1
 71
1
 72
0
 11
-24.03999999999998
 21
194.91
 31
0.0
  0
ATTDEF
  5
C9
330
7A
100
AcDbEntity
  8
0
100
AcDbText
 10
-158.44
 20
186.91
 30
0.0
 40
2.5
  1

  7
ASG-TEXT-SHEET
 11
-158.44
 21
186.91
 31
0.0
100
AcDbAttributeDefinition
  3
Revision row 2 - revision
  2
REV2_NO
 70
0
 74
1
280
1
 71
1
 72
0
 11
-158.44
 21
186.91
 31
0.0
  0
ATTDEF
  5
CA
330
7A
100
AcDbEntity
  8
0
100
AcDbText
 10
-137.64
 20
186.91
 30
0.0
 40
2.5
  1

  7
ASG-TEXT-SHEET
 11
-137.64
 21
186.91
 31
0.0
100
AcDbAttributeDefinition
  3
Revision row 2 - date
  2
REV2_DATE
 70
0
 74
1
280
1
 71
1
 72
0
 11
-137.64
 21
186.91
 31
0.0
  0
ATTDEF
  5
CB
330
7A
100
AcDbEntity
  8
0
100
AcDbText
 10
-97.63999999999999
 20
186.91
 30
0.0
 40
2.5
  1

  7
ASG-TEXT-SHEET
 11
-97.63999999999999
 21
186.91
 31
0.0
100
AcDbAttributeDefinition
  3
Revision row 2 - description
  2
REV2_DESC
 70
0
 74
1
280
1
 71
1
 72
0
 11
-97.63999999999999
 21
186.91
 31
0.0
  0
ATTDEF
  5
CC
330
7A
100
AcDbEntity
  8
0
100
AcDbText
 10
-24.03999999999998
 20
186.91
 30
0.0
 40
2.5
  1

  7
ASG-TEXT-SHEET
 11
-24.03999999999998
 21
186.91
 31
0.0
100
AcDbAttributeDefinition
  3
Revision row 2 - by
  2
REV2_BY
 70
0
 74
1
280
1
 71
1
 72
0
 11
-24.03999999999998
 21
186.91
 31
0.0
  0
ATTDEF
  5
CD
330
7A
100
AcDbEntity
  8
0
100
AcDbText
 10
-158.44
 20
178.91
 30
0.0
 40
2.5
  1

  7
ASG-TEXT-SHEET
 11
-158.44
 21
178.91
 31
0.0
100
AcDbAttributeDefinition
  3
Revision row 3 - revision
  2
REV3_NO
 70
0
 74
1
280
1
 71
1
 72
0
 11
-158.44
 21
178.91
 31
0.0
  0
ATTDEF
  5
CE
330
7A
100
AcDbEntity
  8
0
100
AcDbText
 10
-137.64
 20
178.91
 30
0.0
 40
2.5
  1

  7
ASG-TEXT-SHEET
 11
-137.64
 21
178.91
 31
0.0
100
AcDbAttributeDefinition
  3
Revision row 3 - date
  2
REV3_DATE
 70
0
 74
1
280
1
 71
1
 72
0
 11
-137.64
 21
178.91
 31
0.0
  0
ATTDEF
  5
CF
330
7A
100
AcDbEntity
  8
0
100
AcDbText
 10
-97.63999999999999
 20
178.91
 30
0.0
 40
2.5
  1

  7
ASG-TEXT-SHEET
 11
-97.63999999999999
 21
178.91
 31
0.0
100
AcDbAttributeDefinition
  3
Revision row 3 - description
  2
REV3_DESC
 70
0
 74
1
280
1
 71
1
 72
0
 11
-97.63999999999999
 21
178.91
 31
0.0
  0
ATTDEF
  5
D0
330
7A
100
AcDbEntity
  8
0
100
AcDbText
 10
-24.03999999999998
 20
178.91
 30
0.0
 40
2.5
  1

  7
ASG-TEXT-SHEET
 11
-24.03999999999998
 21
178.91
 31
0.0
100
AcDbAttributeDefinition
  3
Revision row 3 - by
  2
REV3_BY
 70
0
 74
1
280
1
 71
1
 72
0
 11
-24.03999999999998
 21
178.91
 31
0.0
  0
ATTDEF
  5
D1
330
7A
100
AcDbEntity
  8
0
100
AcDbText
 10
-158.44
 20
170.91
 30
0.0
 40
2.5
  1

  7
ASG-TEXT-SHEET
 11
-158.44
 21
170.91
 31
0.0
100
AcDbAttributeDefinition
  3
Revision row 4 - revision
  2
REV4_NO
 70
0
 74
1
280
1
 71
1
 72
0
 11
-158.44
 21
170.91
 31
0.0
  0
ATTDEF
  5
D2
330
7A
100
AcDbEntity
  8
0
100
AcDbText
 10
-137.64
 20
170.91
 30
0.0
 40
2.5
  1

  7
ASG-TEXT-SHEET
 11
-137.64
 21
170.91
 31
0.0
100
AcDbAttributeDefinition
  3
Revision row 4 - date
  2
REV4_DATE
 70
0
 74
1
280
1
 71
1
 72
0
 11
-137.64
 21
170.91
 31
0.0
  0
ATTDEF
  5
D3
330
7A
100
AcDbEntity
  8
0
100
AcDbText
 10
-97.63999999999999
 20
170.91
 30
0.0
 40
2.5
  1

  7
ASG-TEXT-SHEET
 11
-97.63999999999999
 21
170.91
 31
0.0
100
AcDbAttributeDefinition
  3
Revision row 4 - description
  2
REV4_DESC
 70
0
 74
1
280
1
 71
1
 72
0
 11
-97.63999999999999
 21
170.91
 31
0.0
  0
ATTDEF
  5
D4
330
7A
100
AcDbEntity
  8
0
100
AcDbText
 10
-24.03999999999998
 20
170.91
 30
0.0
 40
2.5
  1

  7
ASG-TEXT-SHEET
 11
-24.03999999999998
 21
170.91
 31
0.0
100
AcDbAttributeDefinition
  3
Revision row 4 - by
  2
REV4_BY
 70
0
 74
1
280
1
 71
1
 72
0
 11
-24.03999999999998
 21
170.91
 31
0.0
  0
ATTDEF
  5
D5
330
7A
100
AcDbEntity
  8
0
100
AcDbText
 10
-158.44
 20
162.91
 30
0.0
 40
2.5
  1

  7
ASG-TEXT-SHEET
 11
-158.44
 21
162.91
 31
0.0
100
AcDbAttributeDefinition
  3
Revision row 5 - revision
  2
REV5_NO
 70
0
 74
1
280
1
 71
1
 72
0
 11
-158.44
 21
162.91
 31
0.0
  0
ATTDEF
  5
D6
330
7A
100
AcDbEntity
  8
0
100
AcDbText
 10
-137.64
 20
162.91
 30
0.0
 40
2.5
  1

  7
ASG-TEXT-SHEET
 11
-137.64
 21
162.91
 31
0.0
100
AcDbAttributeDefinition
  3
Revision row 5 - date
  2
REV5_DATE
 70
0
 74
1
280
1
 71
1
 72
0
 11
-137.64
 21
162.91
 31
0.0
  0
ATTDEF
  5
D7
330
7A
100
AcDbEntity
  8
0
100
AcDbText
 10
-97.63999999999999
 20
162.91
 30
0.0
 40
2.5
  1

  7
ASG-TEXT-SHEET
 11
-97.63999999999999
 21
162.91
 31
0.0
100
AcDbAttributeDefinition
  3
Revision row 5 - description
  2
REV5_DESC
 70
0
 74
1
280
1
 71
1
 72
0
 11
-97.63999999999999
 21
162.91
 31
0.0
  0
ATTDEF
  5
D8
330
7A
100
AcDbEntity
  8
0
100
AcDbText
 10
-24.03999999999998
 20
162.91
 30
0.0
 40
2.5
  1

  7
ASG-TEXT-SHEET
 11
-24.03999999999998
 21
162.91
 31
0.0
100
AcDbAttributeDefinition
  3
Revision row 5 - by
  2
REV5_BY
 70
0
 74
1
280
1
 71
1
 72
0
 11
-24.03999999999998
 21
162.91
 31
0.0
  0
ENDBLK
  5
7C
330
7A
100
AcDbEntity
  8
0
100
AcDbBlockEnd
  0
BLOCK
  5
DA
330
D9
100
AcDbEntity
  8
0
100
AcDbBlockBegin
  2
*Paper_Space
 70
0
 10
0.0
 20
0.0
 30
0.0
  3
*Paper_Space
  1

  0
ENDBLK
  5
DB
330
D9
100
AcDbEntity
  8
0
100
AcDbBlockEnd
  0
ENDSEC
  0
SECTION
  2
ENTITIES
  0
VIEWPORT
  5
DD
330
D9
100
AcDbEntity
 67
1
  8
VIEWPORTS
100
AcDbViewport
 10
420.5
 20
297.0
 30
0.0
 40
925.1
 41
653.4000000000001
 68
1
 69
1
 12
420.5
 22
297.0
 13
0.0
 23
0.0
 14
10.0
 24
10.0
 15
10.0
 25
10.0
 16
0.0
 26
0.0
 36
1.0
 17
0.0
 27
0.0
 37
0.0
 42
50.0
 43
0.0
 44
0.0
 45
653.4000000000001
 50
0.0
 51
0.0
 72
100
 90
557088
  1

281
0
 71
0
 74
0
110
0.0
120
0.0
130
0.0
111
1.0
121
0.0
131
0.0
112
0.0
122
1.0
132
0.0
 79
0
146
0.0
282
0
  0
LWPOLYLINE
  5
DE
330
D9
100
AcDbEntity
 67
1
  8
ASG-BORDER
100
AcDbPolyline
 90
4
 70
1
 10
20.0
 20
10.0
 10
831.0
 20
10.0
 10
831.0
 20
584.0
 10
20.0
 20
584.0
  0
INSERT
  5
DF
330
D9
100
AcDbEntity
 67
1
  8
ASG-TITLEBLOCK
100
AcDbBlockReference
 66
1
  2
ASG-TB-A1-L
 10
831.0
 20
10.0
 30
0.0
  0
ATTRIB
  5
E1
330
D9
100
AcDbEntity
 67
1
  8
0
100
AcDbText
 10
672.56
 20
158.72
 30
0.0
 40
3.5
  1
PROJECT NAME
  7
ASG-TEXT-SHEET
 11
672.56
 21
158.72
 31
0.0
100
AcDbAttribute
  2
PROJECT
 70
0
 74
1
280
1
 71
1
 72
0
 11
672.56
 21
158.72
 31
0.0
  0
ATTRIB
  5
E2
330
D9
100
AcDbEntity
 67
1
  8
0
100
AcDbText
 10
672.56
 20
145.72
 30
0.0
 40
3.5
  1
LOCATION, UAE
  7
ASG-TEXT-SHEET
 11
672.56
 21
145.72
 31
0.0
100
AcDbAttribute
  2
LOCATION
 70
0
 74
1
280
1
 71
1
 72
0
 11
672.56
 21
145.72
 31
0.0
  0
ATTRIB
  5
E3
330
D9
100
AcDbEntity
 67
1
  8
0
100
AcDbText
 10
672.56
 20
132.72
 30
0.0
 40
3.5
  1
CLIENT
  7
ASG-TEXT-SHEET
 11
672.56
 21
132.72
 31
0.0
100
AcDbAttribute
  2
CLIENT
 70
0
 74
1
280
1
 71
1
 72
0
 11
672.56
 21
132.72
 31
0.0
  0
ATTRIB
  5
E4
330
D9
100
AcDbEntity
 67
1
  8
0
100
AcDbText
 10
672.56
 20
119.72
 30
0.0
 40
3.5
  1
CONSULTANT
  7
ASG-TEXT-SHEET
 11
672.56
 21
119.72
 31
0.0
100
AcDbAttribute
  2
CONSULTANT
 70
0
 74
1
280
1
 71
1
 72
0
 11
672.56
 21
119.72
 31
0.0
  0
ATTRIB
  5
E5
330
D9
100
AcDbEntity
 67
1
  8
0
100
AcDbText
 10
672.56
 20
103.2
 30
0.0
 40
7.0
  1
DRAWING TITLE
  7
ASG-TEXT-HEADING
 11
672.56
 21
103.2
 31
0.0
100
AcDbAttribute
  2
DWG_TITLE
 70
0
 74
1
280
1
 71
1
 72
0
 11
672.56
 21
103.2
 31
0.0
  0
ATTRIB
  5
E6
330
D9
100
AcDbEntity
 67
1
  8
0
100
AcDbText
 10
672.56
 20
97.36
 30
0.0
 40
3.5
  1

  7
ASG-TEXT-TITLE
 11
672.56
 21
97.36
 31
0.0
100
AcDbAttribute
  2
DWG_TITLE_2
 70
0
 74
1
280
1
 71
1
 72
0
 11
672.56
 21
97.36
 31
0.0
  0
ATTRIB
  5
E7
330
D9
100
AcDbEntity
 67
1
  8
0
100
AcDbText
 10
672.56
 20
11.56
 30
0.0
 40
7.0
  1
AS-YYYY-NNN-DIS-TYP-001
  7
ASG-TEXT-HEADING
 11
672.56
 21
11.56
 31
0.0
100
AcDbAttribute
  2
DWG_NO
 70
0
 74
1
280
1
 71
1
 72
0
 11
672.56
 21
11.56
 31
0.0
  0
ATTRIB
  5
E8
330
D9
100
AcDbEntity
 67
1
  8
0
100
AcDbText
 10
672.56
 20
32.36
 30
0.0
 40
3.5
  1
R0
  7
ASG-TEXT-HEADING
 11
672.56
 21
32.36
 31
0.0
100
AcDbAttribute
  2
REV
 70
0
 74
1
280
1
 71
1
 72
0
 11
672.56
 21
32.36
 31
0.0
  0
ATTRIB
  5
E9
330
D9
100
AcDbEntity
 67
1
  8
0
100
AcDbText
 10
728.56
 20
32.36
 30
0.0
 40
3.5
  1
01 OF 01
  7
ASG-TEXT-SHEET
 11
728.56
 21
32.36
 31
0.0
100
AcDbAttribute
  2
SHEET_NO
 70
0
 74
1
280
1
 71
1
 72
0
 11
728.56
 21
32.36
 31
0.0
  0
ATTRIB
  5
EA
330
D9
100
AcDbEntity
 67
1
  8
0
100
AcDbText
 10
672.56
 20
45.36
 30
0.0
 40
3.5
  1
AS SHOWN
  7
ASG-TEXT-SHEET
 11
672.56
 21
45.36
 31
0.0
100
AcDbAttribute
  2
SCALE
 70
0
 74
1
280
1
 71
1
 72
0
 11
672.56
 21
45.36
 31
0.0
  0
ATTRIB
  5
EB
330
D9
100
AcDbEntity
 67
1
  8
0
100
AcDbText
 10
752.56
 20
45.36
 30
0.0
 40
3.5
  1
DD.MM.YYYY
  7
ASG-TEXT-SHEET
 11
752.56
 21
45.36
 31
0.0
100
AcDbAttribute
  2
DATE
 70
0
 74
1
280
1
 71
1
 72
0
 11
752.56
 21
45.36
 31
0.0
  0
ATTRIB
  5
EC
330
D9
100
AcDbEntity
 67
1
  8
0
100
AcDbText
 10
672.56
 20
58.36
 30
0.0
 40
3.5
  1
PRELIMINARY
  7
ASG-TEXT-SHEET
 11
672.56
 21
58.36
 31
0.0
100
AcDbAttribute
  2
DWG_STATUS
 70
0
 74
1
280
1
 71
1
 72
0
 11
672.56
 21
58.36
 31
0.0
  0
ATTRIB
  5
ED
330
D9
100
AcDbEntity
 67
1
  8
0
100
AcDbText
 10
672.56
 20
84.36
 30
0.0
 40
3.5
  1
-
  7
ASG-TEXT-SHEET
 11
672.56
 21
84.36
 31
0.0
100
AcDbAttribute
  2
DRAWN_BY
 70
0
 74
1
280
1
 71
1
 72
0
 11
672.56
 21
84.36
 31
0.0
  0
ATTRIB
  5
EE
330
D9
100
AcDbEntity
 67
1
  8
0
100
AcDbText
 10
752.56
 20
84.36
 30
0.0
 40
3.5
  1
-
  7
ASG-TEXT-SHEET
 11
752.56
 21
84.36
 31
0.0
100
AcDbAttribute
  2
CHECKED_BY
 70
0
 74
1
280
1
 71
1
 72
0
 11
752.56
 21
84.36
 31
0.0
  0
ATTRIB
  5
EF
330
D9
100
AcDbEntity
 67
1
  8
0
100
AcDbText
 10
672.56
 20
71.36
 30
0.0
 40
3.5
  1
-
  7
ASG-TEXT-SHEET
 11
672.56
 21
71.36
 31
0.0
100
AcDbAttribute
  2
APPROVED_BY
 70
0
 74
1
280
1
 71
1
 72
0
 11
672.56
 21
71.36
 31
0.0
  0
ATTRIB
  5
F0
330
D9
100
AcDbEntity
 67
1
  8
0
100
AcDbText
 10
672.56
 20
204.91
 30
0.0
 40
2.5
  1
R0
  7
ASG-TEXT-SHEET
 11
672.56
 21
204.91
 31
0.0
100
AcDbAttribute
  2
REV1_NO
 70
0
 74
1
280
1
 71
1
 72
0
 11
672.56
 21
204.91
 31
0.0
  0
ATTRIB
  5
F1
330
D9
100
AcDbEntity
 67
1
  8
0
100
AcDbText
 10
693.36
 20
204.91
 30
0.0
 40
2.5
  1
DD.MM.YYYY
  7
ASG-TEXT-SHEET
 11
693.36
 21
204.91
 31
0.0
100
AcDbAttribute
  2
REV1_DATE
 70
0
 74
1
280
1
 71
1
 72
0
 11
693.36
 21
204.91
 31
0.0
  0
ATTRIB
  5
F2
330
D9
100
AcDbEntity
 67
1
  8
0
100
AcDbText
 10
733.36
 20
204.91
 30
0.0
 40
2.5
  1
FIRST ISSUE
  7
ASG-TEXT-SHEET
 11
733.36
 21
204.91
 31
0.0
100
AcDbAttribute
  2
REV1_DESC
 70
0
 74
1
280
1
 71
1
 72
0
 11
733.36
 21
204.91
 31
0.0
  0
ATTRIB
  5
F3
330
D9
100
AcDbEntity
 67
1
  8
0
100
AcDbText
 10
806.96
 20
204.91
 30
0.0
 40
2.5
  1
-
  7
ASG-TEXT-SHEET
 11
806.96
 21
204.91
 31
0.0
100
AcDbAttribute
  2
REV1_BY
 70
0
 74
1
280
1
 71
1
 72
0
 11
806.96
 21
204.91
 31
0.0
  0
ATTRIB
  5
F4
330
D9
100
AcDbEntity
 67
1
  8
0
100
AcDbText
 10
672.56
 20
196.91
 30
0.0
 40
2.5
  1

  7
ASG-TEXT-SHEET
 11
672.56
 21
196.91
 31
0.0
100
AcDbAttribute
  2
REV2_NO
 70
0
 74
1
280
1
 71
1
 72
0
 11
672.56
 21
196.91
 31
0.0
  0
ATTRIB
  5
F5
330
D9
100
AcDbEntity
 67
1
  8
0
100
AcDbText
 10
693.36
 20
196.91
 30
0.0
 40
2.5
  1

  7
ASG-TEXT-SHEET
 11
693.36
 21
196.91
 31
0.0
100
AcDbAttribute
  2
REV2_DATE
 70
0
 74
1
280
1
 71
1
 72
0
 11
693.36
 21
196.91
 31
0.0
  0
ATTRIB
  5
F6
330
D9
100
AcDbEntity
 67
1
  8
0
100
AcDbText
 10
733.36
 20
196.91
 30
0.0
 40
2.5
  1

  7
ASG-TEXT-SHEET
 11
733.36
 21
196.91
 31
0.0
100
AcDbAttribute
  2
REV2_DESC
 70
0
 74
1
280
1
 71
1
 72
0
 11
733.36
 21
196.91
 31
0.0
  0
ATTRIB
  5
F7
330
D9
100
AcDbEntity
 67
1
  8
0
100
AcDbText
 10
806.96
 20
196.91
 30
0.0
 40
2.5
  1

  7
ASG-TEXT-SHEET
 11
806.96
 21
196.91
 31
0.0
100
AcDbAttribute
  2
REV2_BY
 70
0
 74
1
280
1
 71
1
 72
0
 11
806.96
 21
196.91
 31
0.0
  0
ATTRIB
  5
F8
330
D9
100
AcDbEntity
 67
1
  8
0
100
AcDbText
 10
672.56
 20
188.91
 30
0.0
 40
2.5
  1

  7
ASG-TEXT-SHEET
 11
672.56
 21
188.91
 31
0.0
100
AcDbAttribute
  2
REV3_NO
 70
0
 74
1
280
1
 71
1
 72
0
 11
672.56
 21
188.91
 31
0.0
  0
ATTRIB
  5
F9
330
D9
100
AcDbEntity
 67
1
  8
0
100
AcDbText
 10
693.36
 20
188.91
 30
0.0
 40
2.5
  1

  7
ASG-TEXT-SHEET
 11
693.36
 21
188.91
 31
0.0
100
AcDbAttribute
  2
REV3_DATE
 70
0
 74
1
280
1
 71
1
 72
0
 11
693.36
 21
188.91
 31
0.0
  0
ATTRIB
  5
FA
330
D9
100
AcDbEntity
 67
1
  8
0
100
AcDbText
 10
733.36
 20
188.91
 30
0.0
 40
2.5
  1

  7
ASG-TEXT-SHEET
 11
733.36
 21
188.91
 31
0.0
100
AcDbAttribute
  2
REV3_DESC
 70
0
 74
1
280
1
 71
1
 72
0
 11
733.36
 21
188.91
 31
0.0
  0
ATTRIB
  5
FB
330
D9
100
AcDbEntity
 67
1
  8
0
100
AcDbText
 10
806.96
 20
188.91
 30
0.0
 40
2.5
  1

  7
ASG-TEXT-SHEET
 11
806.96
 21
188.91
 31
0.0
100
AcDbAttribute
  2
REV3_BY
 70
0
 74
1
280
1
 71
1
 72
0
 11
806.96
 21
188.91
 31
0.0
  0
ATTRIB
  5
FC
330
D9
100
AcDbEntity
 67
1
  8
0
100
AcDbText
 10
672.56
 20
180.91
 30
0.0
 40
2.5
  1

  7
ASG-TEXT-SHEET
 11
672.56
 21
180.91
 31
0.0
100
AcDbAttribute
  2
REV4_NO
 70
0
 74
1
280
1
 71
1
 72
0
 11
672.56
 21
180.91
 31
0.0
  0
ATTRIB
  5
FD
330
D9
100
AcDbEntity
 67
1
  8
0
100
AcDbText
 10
693.36
 20
180.91
 30
0.0
 40
2.5
  1

  7
ASG-TEXT-SHEET
 11
693.36
 21
180.91
 31
0.0
100
AcDbAttribute
  2
REV4_DATE
 70
0
 74
1
280
1
 71
1
 72
0
 11
693.36
 21
180.91
 31
0.0
  0
ATTRIB
  5
FE
330
D9
100
AcDbEntity
 67
1
  8
0
100
AcDbText
 10
733.36
 20
180.91
 30
0.0
 40
2.5
  1

  7
ASG-TEXT-SHEET
 11
733.36
 21
180.91
 31
0.0
100
AcDbAttribute
  2
REV4_DESC
 70
0
 74
1
280
1
 71
1
 72
0
 11
733.36
 21
180.91
 31
0.0
  0
ATTRIB
  5
FF
330
D9
100
AcDbEntity
 67
1
  8
0
100
AcDbText
 10
806.96
 20
180.91
 30
0.0
 40
2.5
  1

  7
ASG-TEXT-SHEET
 11
806.96
 21
180.91
 31
0.0
100
AcDbAttribute
  2
REV4_BY
 70
0
 74
1
280
1
 71
1
 72
0
 11
806.96
 21
180.91
 31
0.0
  0
ATTRIB
  5
100
330
D9
100
AcDbEntity
 67
1
  8
0
100
AcDbText
 10
672.56
 20
172.91
 30
0.0
 40
2.5
  1

  7
ASG-TEXT-SHEET
 11
672.56
 21
172.91
 31
0.0
100
AcDbAttribute
  2
REV5_NO
 70
0
 74
1
280
1
 71
1
 72
0
 11
672.56
 21
172.91
 31
0.0
  0
ATTRIB
  5
101
330
D9
100
AcDbEntity
 67
1
  8
0
100
AcDbText
 10
693.36
 20
172.91
 30
0.0
 40
2.5
  1

  7
ASG-TEXT-SHEET
 11
693.36
 21
172.91
 31
0.0
100
AcDbAttribute
  2
REV5_DATE
 70
0
 74
1
280
1
 71
1
 72
0
 11
693.36
 21
172.91
 31
0.0
  0
ATTRIB
  5
102
330
D9
100
AcDbEntity
 67
1
  8
0
100
AcDbText
 10
733.36
 20
172.91
 30
0.0
 40
2.5
  1

  7
ASG-TEXT-SHEET
 11
733.36
 21
172.91
 31
0.0
100
AcDbAttribute
  2
REV5_DESC
 70
0
 74
1
280
1
 71
1
 72
0
 11
733.36
 21
172.91
 31
0.0
  0
ATTRIB
  5
103
330
D9
100
AcDbEntity
 67
1
  8
0
100
AcDbText
 10
806.96
 20
172.91
 30
0.0
 40
2.5
  1

  7
ASG-TEXT-SHEET
 11
806.96
 21
172.91
 31
0.0
100
AcDbAttribute
  2
REV5_BY
 70
0
 74
1
280
1
 71
1
 72
0
 11
806.96
 21
172.91
 31
0.0
  0
SEQEND
  5
E0
330
DF
100
AcDbEntity
 67
1
  8
ASG-TITLEBLOCK
  0
VIEWPORT
  5
104
330
D9
100
AcDbEntity
 67
1
  8
ASG-VIEWPORT
100
AcDbViewport
 10
345.5
 20
297.0
 30
0.0
 40
641.0
 41
564.0
 68
2
 69
3
 12
16025.0
 22
14100.0
 13
0.0
 23
0.0
 14
10.0
 24
10.0
 15
10.0
 25
10.0
 16
0.0
 26
0.0
 36
1.0
 17
0.0
 27
0.0
 37
0.0
 42
50.0
 43
0.0
 44
0.0
 45
28200.0
 50
0.0
 51
0.0
 72
100
 90
16384
  1

281
0
 71
0
 74
0
110
0.0
120
0.0
130
0.0
111
1.0
121
0.0
131
0.0
112
0.0
122
1.0
132
0.0
 79
0
146
0.0
282
0
  0
ENDSEC
  0
SECTION
  2
OBJECTS
  0
DICTIONARY
  5
A
330
0
100
AcDbDictionary
281
1
  3
ACAD_COLOR
350
B
  3
ACAD_GROUP
350
C
  3
ACAD_LAYOUT
350
D
  3
ACAD_MATERIAL
350
E
  3
ACAD_MLEADERSTYLE
350
F
  3
ACAD_MLINESTYLE
350
10
  3
ACAD_PLOTSETTINGS
350
11
  3
ACAD_PLOTSTYLENAME
350
12
  3
ACAD_SCALELIST
350
14
  3
ACAD_TABLESTYLE
350
15
  3
ACAD_VISUALSTYLE
350
16
  3
EZDXF_META
350
2D
  0
DICTIONARY
  5
B
330
A
100
AcDbDictionary
281
1
  0
DICTIONARY
  5
C
330
A
100
AcDbDictionary
281
1
  0
DICTIONARY
  5
D
330
A
100
AcDbDictionary
281
1
  3
Model
350
1A
  3
A1-LANDSCAPE
350
DC
  0
DICTIONARY
  5
E
330
A
100
AcDbDictionary
281
1
  3
ByBlock
350
1F
  3
ByLayer
350
20
  3
Global
350
21
  0
DICTIONARY
  5
F
330
A
100
AcDbDictionary
281
1
  3
Standard
350
2C
  3
ASG-ML-ANNO
350
6A
  3
ASG-ML-NOTE
350
6B
  3
ASG-ML-DETAIL
350
6C
  3
ASG-ML-REFERENCE
350
72
  0
DICTIONARY
  5
10
330
A
100
AcDbDictionary
281
1
  3
Standard
350
22
  3
ASG-MLINE-2
350
78
  3
ASG-MLINE-3
350
79
  0
DICTIONARY
  5
11
330
A
100
AcDbDictionary
281
1
  0
ACDBDICTIONARYWDFLT
  5
12
330
A
100
AcDbDictionary
281
1
  3
Normal
350
13
100
AcDbDictionaryWithDefault
340
13
  0
ACDBPLACEHOLDER
  5
13
330
12
  0
DICTIONARY
  5
14
330
A
100
AcDbDictionary
281
1
  3
A0
350
109
  3
A1
350
10A
  3
A2
350
10B
  3
A3
350
10C
  3
A4
350
10D
  3
A5
350
10E
  3
A6
350
10F
  3
A7
350
110
  0
DICTIONARY
  5
15
330
A
100
AcDbDictionary
281
1
  0
DICTIONARY
  5
16
330
A
100
AcDbDictionary
281
1
  0
LAYOUT
  5
1A
330
D
100
AcDbPlotSettings
  1

  4
A3
  6

 40
7.5
 41
20.0
 42
7.5
 43
20.0
 44
420.0
 45
297.0
 46
0.0
 47
0.0
 48
0.0
 49
0.0
140
0.0
141
0.0
142
1.0
143
1.0
 70
1024
 72
1
 73
0
 74
5
  7

 75
16
 76
0
 77
2
 78
300
147
1.0
148
0.0
149
0.0
100
AcDbLayout
  1
Model
 70
1
 71
0
 10
0.0
 20
0.0
 11
200000.0
 21
150000.0
 12
0.0
 22
0.0
 32
0.0
 14
1e+20
 24
1e+20
 34
1e+20
 15
-1e+20
 25
-1e+20
 35
-1e+20
146
0.0
 13
0.0
 23
0.0
 33
0.0
 16
1.0
 26
0.0
 36
0.0
 17
0.0
 27
1.0
 37
0.0
 76
1
330
17
  0
MATERIAL
  5
1F
102
{ACAD_REACTORS
330
E
102
}
330
E
100
AcDbMaterial
  1
ByBlock
  2

 70
0
 40
1.0
 71
1
 41
1.0
 91
-1023410177
 42
1.0
 72
1
  3

 73
1
 74
1
 75
1
 44
0.5
 73
0
 45
1.0
 46
1.0
 77
1
  4

 78
1
 79
1
170
1
 48
1.0
171
1
  6

172
1
173
1
174
1
140
1.0
141
1.0
175
1
  7

176
1
177
1
178
1
143
1.0
179
1
  8

270
1
271
1
272
1
145
1.0
146
1.0
273
1
  9

274
1
275
1
276
1
 42
1.0
 72
1
  3

 73
1
 74
1
 75
1
 94
63
  0
MATERIAL
  5
20
102
{ACAD_REACTORS
330
E
102
}
330
E
100
AcDbMaterial
  1
ByLayer
  2

 70
0
 40
1.0
 71
1
 41
1.0
 91
-1023410177
 42
1.0
 72
1
  3

 73
1
 74
1
 75
1
 44
0.5
 73
0
 45
1.0
 46
1.0
 77
1
  4

 78
1
 79
1
170
1
 48
1.0
171
1
  6

172
1
173
1
174
1
140
1.0
141
1.0
175
1
  7

176
1
177
1
178
1
143
1.0
179
1
  8

270
1
271
1
272
1
145
1.0
146
1.0
273
1
  9

274
1
275
1
276
1
 42
1.0
 72
1
  3

 73
1
 74
1
 75
1
 94
63
  0
MATERIAL
  5
21
102
{ACAD_REACTORS
330
E
102
}
330
E
100
AcDbMaterial
  1
Global
  2

 70
0
 40
1.0
 71
1
 41
1.0
 91
-1023410177
 42
1.0
 72
1
  3

 73
1
 74
1
 75
1
 44
0.5
 73
0
 45
1.0
 46
1.0
 77
1
  4

 78
1
 79
1
170
1
 48
1.0
171
1
  6

172
1
173
1
174
1
140
1.0
141
1.0
175
1
  7

176
1
177
1
178
1
143
1.0
179
1
  8

270
1
271
1
272
1
145
1.0
146
1.0
273
1
  9

274
1
275
1
276
1
 42
1.0
 72
1
  3

 73
1
 74
1
 75
1
 94
63
  0
MLINESTYLE
  5
22
102
{ACAD_REACTORS
330
10
102
}
330
10
100
AcDbMlineStyle
  2
Standard
 70
0
  3

 62
256
 51
90.0
 52
90.0
 71
2
 49
0.5
 62
256
  6
BYLAYER
 49
-0.5
 62
256
  6
BYLAYER
  0
MLEADERSTYLE
  5
2C
102
{ACAD_REACTORS
330
F
102
}
330
F
100
AcDbMLeaderStyle
179
2
170
2
171
1
172
0
 90
2
 40
0.0
 41
0.0
173
1
 91
-1073741824
 92
-2
290
1
 42
1.0
291
1
 43
4.0
  3
Standard
 44
2.5
300

342
63
174
1
175
1
176
0
178
1
 93
-1073741824
 45
2.5
292
0
297
0
 46
4.0
 94
-1056964608
 47
1.0
 49
1.0
140
1.0
294
1
141
0.0
177
0
142
1.0
295
0
296
0
143
3.75
271
0
272
9
273
9
  0
DICTIONARY
  5
2D
330
A
100
AcDbDictionary
280
1
281
1
  3
CREATED_BY_EZDXF
350
2E
  3
WRITTEN_BY_EZDXF
350
108
  0
DICTIONARYVAR
  5
2E
330
2D
100
DictionaryVariables
280
0
  1
1.4.4 @ 2026-10-10T14:17:06.364075+00:00
  0
MLEADERSTYLE
  5
6A
102
{ACAD_REACTORS
330
F
102
}
330
F
100
AcDbMLeaderStyle
179
2
170
2
171
1
172
0
 90
2
 40
0.0
 41
0.0
173
1
 91
-1073741824
 92
-2
290
1
 42
1.0
291
1
 43
4.0
  3
ASG-ML-ANNO
 44
2.5
300

342
5F
174
1
175
1
176
0
178
1
 93
-1073741824
 45
2.5
292
0
297
0
 46
4.0
 94
-1056964608
 47
1.0
 49
1.0
140
1.0
294
1
141
0.0
177
0
142
1.0
295
0
296
1
143
3.75
271
0
272
9
273
9
  0
MLEADERSTYLE
  5
6B
102
{ACAD_REACTORS
330
F
102
}
330
F
100
AcDbMLeaderStyle
179
2
170
2
171
1
172
0
 90
2
 40
0.0
 41
0.0
173
1
 91
-1073741824
 92
-2
290
1
 42
1.0
291
1
 43
4.0
  3
ASG-ML-NOTE
 44
2.5
300

342
63
174
1
175
1
176
0
178
1
 93
-1073741824
 45
2.5
292
0
297
0
 46
4.0
 94
-1056964608
 47
1.0
 49
1.0
140
1.0
294
1
141
0.0
177
0
142
1.0
295
0
296
0
143
3.75
271
0
272
9
273
9
  0
MLEADERSTYLE
  5
6C
102
{ACAD_REACTORS
330
F
102
}
330
F
100
AcDbMLeaderStyle
179
2
170
2
171
1
172
0
 90
2
 40
0.0
 41
0.0
173
1
 91
-1073741824
 92
-2
290
1
 42
1.0
291
1
 43
4.0
  3
ASG-ML-DETAIL
341
6D
 44
1.5
300

342
60
174
1
175
1
176
0
178
1
 93
-1073741824
 45
1.8
292
0
297
0
 46
4.0
 94
-1056964608
 47
1.0
 49
1.0
140
1.0
294
1
141
0.0
177
0
142
1.0
295
0
296
1
143
3.75
271
0
272
9
273
9
  0
MLEADERSTYLE
  5
72
102
{ACAD_REACTORS
330
F
102
}
330
F
100
AcDbMLeaderStyle
179
2
170
2
171
1
172
0
 90
2
 40
0.0
 41
0.0
173
1
 91
-1073741824
 92
-2
290
1
 42
1.0
291
1
 43
4.0
  3
ASG-ML-REFERENCE
341
73
 44
2.5
300

342
5F
174
1
175
1
176
0
178
1
 93
-1073741824
 45
2.5
292
1
297
0
 46
4.0
 94
-1056964608
 47
1.0
 49
1.0
140
1.0
294
1
141
0.0
177
0
142
1.0
295
0
296
1
143
3.75
271
0
272
9
273
9
  0
MLINESTYLE
  5
78
102
{ACAD_REACTORS
330
10
102
}
330
10
100
AcDbMlineStyle
  2
ASG-MLINE-2
 70
272
  3
Two lines +/-0.5; MLINE scale = overall width
 62
256
 51
90.0
 52
90.0
 71
2
 49
0.5
 62
256
  6
BYLAYER
 49
-0.5
 62
256
  6
BYLAYER
  0
MLINESTYLE
  5
79
102
{ACAD_REACTORS
330
10
102
}
330
10
100
AcDbMlineStyle
  2
ASG-MLINE-3
 70
272
  3
Two lines + CENTER2 axis
 62
256
 51
90.0
 52
90.0
 71
3
 49
0.5
 62
256
  6
BYLAYER
 49
0.0
 62
256
  6
CENTER2
 49
-0.5
 62
256
  6
BYLAYER
  0
LAYOUT
  5
DC
330
D
100
AcDbPlotSettings
  1

  2
DWG To PDF.pc3
  4
ISO_full_bleed_A1_(841.00_x_594.00_MM)
  6

 40
0.0
 41
0.0
 42
0.0
 43
0.0
 44
841.0
 45
594.0
 46
0.0
 47
0.0
 48
0.0
 49
0.0
140
0.0
141
0.0
142
1.0
143
1.0
 70
672
 72
1
 73
0
 74
5
  7
ASG_Monochrome.ctb
 75
16
 76
0
 77
3
 78
300
147
1.0
148
0.0
149
0.0
100
AcDbLayout
  1
A1-LANDSCAPE
 70
1
 71
3
 10
-0.0
 20
-0.0
 11
841.0
 21
594.0
 12
0.0
 22
0.0
 32
0.0
 14
1e+20
 24
1e+20
 34
1e+20
 15
-1e+20
 25
-1e+20
 35
-1e+20
146
0.0
 13
0.0
 23
0.0
 33
0.0
 16
1.0
 26
0.0
 36
0.0
 17
0.0
 27
1.0
 37
0.0
 76
1
330
D9
331
DD
  0
DICTIONARYVAR
  5
108
330
2D
100
DictionaryVariables
280
0
  1
1.4.4 @ 2026-10-10T14:17:06.381658+00:00
  0
SCALE
  5
109
102
{ACAD_REACTORS
330
14
102
}
330
14
100
AcDbScale
 70
0
300
1:1
140
1.0
141
1.0
290
1
  0
SCALE
  5
10A
102
{ACAD_REACTORS
330
14
102
}
330
14
100
AcDbScale
 70
0
300
1:2
140
1.0
141
2.0
290
0
  0
SCALE
  5
10B
102
{ACAD_REACTORS
330
14
102
}
330
14
100
AcDbScale
 70
0
300
1:5
140
1.0
141
5.0
290
0
  0
SCALE
  5
10C
102
{ACAD_REACTORS
330
14
102
}
330
14
100
AcDbScale
 70
0
300
1:10
140
1.0
141
10.0
290
0
  0
SCALE
  5
10D
102
{ACAD_REACTORS
330
14
102
}
330
14
100
AcDbScale
 70
0
300
1:20
140
1.0
141
20.0
290
0
  0
SCALE
  5
10E
102
{ACAD_REACTORS
330
14
102
}
330
14
100
AcDbScale
 70
0
300
1:25
140
1.0
141
25.0
290
0
  0
SCALE
  5
10F
102
{ACAD_REACTORS
330
14
102
}
330
14
100
AcDbScale
 70
0
300
1:50
140
1.0
141
50.0
290
0
  0
SCALE
  5
110
102
{ACAD_REACTORS
330
14
102
}
330
14
100
AcDbScale
 70
0
300
1:100
140
1.0
141
100.0
290
0
  0
ENDSEC
  0
EOF
