  0
SECTION
  2
HEADER
  9
$ACADVER
  1
AC1032
  9
$ACADMAINTVER
 90
4
  9
$DWGCODEPAGE
  3
ANSI_1252
  9
$LASTSAVEDBY
  1
ezdxf
  9
$REQUIREDVERSIONS
160
0
  9
$INSBASE
 10
0.0
 20
0.0
 30
0.0
  9
$EXTMIN
 10
1e+20
 20
1e+20
 30
1e+20
  9
$EXTMAX
 10
-1e+20
 20
-1e+20
 30
-1e+20
  9
$LIMMIN
 10
0.0
 20
0.0
  9
$LIMMAX
 10
200000.0
 20
150000.0
  9
$ORTHOMODE
 70
0
  9
$REGENMODE
 70
1
  9
$FILLMODE
 70
1
  9
$QTEXTMODE
 70
0
  9
$MIRRTEXT
 70
0
  9
$LTSCALE
 40
1.0
  9
$ATTMODE
 70
1
  9
$TEXTSIZE
 40
2.5
  9
$TRACEWID
 40
1.0
  9
$TEXTSTYLE
  7
ASG-TEXT-ANNO
  9
$CLAYER
  8
ASG-OUTLINE-PRIMARY
  9
$CELTYPE
  6
ByLayer
  9
$CECOLOR
 62
256
  9
$CELTSCALE
 40
1.0
  9
$DISPSILH
 70
0
  9
$DIMSCALE
 40
1.0
  9
$DIMASZ
 40
2.5
  9
$DIMEXO
 40
0.625
  9
$DIMDLI
 40
3.75
  9
$DIMRND
 40
0.0
  9
$DIMDLE
 40
0.0
  9
$DIMEXE
 40
1.25
  9
$DIMTP
 40
0.0
  9
$DIMTM
 40
0.0
  9
$DIMTXT
 40
2.5
  9
$DIMCEN
 40
2.5
  9
$DIMTSZ
 40
0.0
  9
$DIMTOL
 70
0
  9
$DIMLIM
 70
0
  9
$DIMTIH
 70
0
  9
$DIMTOH
 70
0
  9
$DIMSE1
 70
0
  9
$DIMSE2
 70
0
  9
$DIMTAD
 70
1
  9
$DIMZIN
 70
8
  9
$DIMBLK
  1

  9
$DIMASO
 70
1
  9
$DIMSHO
 70
1
  9
$DIMPOST
  1

  9
$DIMAPOST
  1

  9
$DIMALT
 70
0
  9
$DIMALTD
 70
3
  9
$DIMALTF
 40
0.03937007874
  9
$DIMLFAC
 40
1.0
  9
$DIMTOFL
 70
1
  9
$DIMTVP
 40
0.0
  9
$DIMTIX
 70
0
  9
$DIMSOXD
 70
0
  9
$DIMSAH
 70
0
  9
$DIMBLK1
  1

  9
$DIMBLK2
  1

  9
$DIMSTYLE
  2
ASG-DIM-ANNO
  9
$DIMCLRD
 70
0
  9
$DIMCLRE
 70
0
  9
$DIMCLRT
 70
0
  9
$DIMTFAC
 40
1.0
  9
$DIMGAP
 40
0.625
  9
$DIMJUST
 70
0
  9
$DIMSD1
 70
0
  9
$DIMSD2
 70
0
  9
$DIMTOLJ
 70
0
  9
$DIMTZIN
 70
8
  9
$DIMALTZ
 70
0
  9
$DIMALTTZ
 70
0
  9
$DIMUPT
 70
0
  9
$DIMDEC
 70
2
  9
$DIMTDEC
 70
2
  9
$DIMALTU
 70
2
  9
$DIMALTTD
 70
3
  9
$DIMTXSTY
  7
Standard
  9
$DIMAUNIT
 70
0
  9
$DIMADEC
 70
0
  9
$DIMALTRND
 40
0.0
  9
$DIMAZIN
 70
0
  9
$DIMDSEP
 70
44
  9
$DIMATFIT
 70
3
  9
$DIMFRAC
 70
0
  9
$DIMLDRBLK
  1

  9
$DIMLUNIT
 70
2
  9
$DIMLWD
 70
-2
  9
$DIMLWE
 70
-2
  9
$DIMTMOVE
 70
0
  9
$DIMFXL
 40
1.0
  9
$DIMFXLON
 70
0
  9
$DIMJOGANG
 40
0.785398163397
  9
$DIMTFILL
 70
0
  9
$DIMTFILLCLR
 70
0
  9
$DIMARCSYM
 70
0
  9
$DIMLTYPE
  6

  9
$DIMLTEX1
  6

  9
$DIMLTEX2
  6

  9
$DIMTXTDIRECTION
 70
0
  9
$LUNITS
 70
2
  9
$LUPREC
 70
0
  9
$SKETCHINC
 40
1.0
  9
$FILLETRAD
 40
10.0
  9
$AUNITS
 70
0
  9
$AUPREC
 70
2
  9
$MENU
  1
.
  9
$ELEVATION
 40
0.0
  9
$PELEVATION
 40
0.0
  9
$THICKNESS
 40
0.0
  9
$LIMCHECK
 70
0
  9
$CHAMFERA
 40
0.0
  9
$CHAMFERB
 40
0.0
  9
$CHAMFERC
 40
0.0
  9
$CHAMFERD
 40
0.0
  9
$SKPOLY
 70
0
  9
$TDCREATE
 40
2461324.360914352
  9
$TDUCREATE
 40
2458532.153996898
  9
$TDUPDATE
 40
2461324.360914352
  9
$TDUUPDATE
 40
2458532.1544311
  9
$TDINDWG
 40
0.0
  9
$TDUSRTIMER
 40
0.0
  9
$USRTIMER
 70
1
  9
$ANGBASE
 50
0.0
  9
$ANGDIR
 70
0
  9
$PDMODE
 70
0
  9
$PDSIZE
 40
0.0
  9
$PLINEWID
 40
0.0
  9
$SPLFRAME
 70
0
  9
$SPLINETYPE
 70
6
  9
$SPLINESEGS
 70
8
  9
$HANDSEED
  5
195
  9
$SURFTAB1
 70
6
  9
$SURFTAB2
 70
6
  9
$SURFTYPE
 70
6
  9
$SURFU
 70
6
  9
$SURFV
 70
6
  9
$UCSBASE
  2

  9
$UCSNAME
  2

  9
$UCSORG
 10
0.0
 20
0.0
 30
0.0
  9
$UCSXDIR
 10
1.0
 20
0.0
 30
0.0
  9
$UCSYDIR
 10
0.0
 20
1.0
 30
0.0
  9
$UCSORTHOREF
  2

  9
$UCSORTHOVIEW
 70
0
  9
$UCSORGTOP
 10
0.0
 20
0.0
 30
0.0
  9
$UCSORGBOTTOM
 10
0.0
 20
0.0
 30
0.0
  9
$UCSORGLEFT
 10
0.0
 20
0.0
 30
0.0
  9
$UCSORGRIGHT
 10
0.0
 20
0.0
 30
0.0
  9
$UCSORGFRONT
 10
0.0
 20
0.0
 30
0.0
  9
$UCSORGBACK
 10
0.0
 20
0.0
 30
0.0
  9
$PUCSBASE
  2

  9
$PUCSNAME
  2

  9
$PUCSORG
 10
0.0
 20
0.0
 30
0.0
  9
$PUCSXDIR
 10
1.0
 20
0.0
 30
0.0
  9
$PUCSYDIR
 10
0.0
 20
1.0
 30
0.0
  9
$PUCSORTHOREF
  2

  9
$PUCSORTHOVIEW
 70
0
  9
$PUCSORGTOP
 10
0.0
 20
0.0
 30
0.0
  9
$PUCSORGBOTTOM
 10
0.0
 20
0.0
 30
0.0
  9
$PUCSORGLEFT
 10
0.0
 20
0.0
 30
0.0
  9
$PUCSORGRIGHT
 10
0.0
 20
0.0
 30
0.0
  9
$PUCSORGFRONT
 10
0.0
 20
0.0
 30
0.0
  9
$PUCSORGBACK
 10
0.0
 20
0.0
 30
0.0
  9
$USERI1
 70
0
  9
$USERI2
 70
0
  9
$USERI3
 70
0
  9
$USERI4
 70
0
  9
$USERI5
 70
0
  9
$USERR1
 40
0.0
  9
$USERR2
 40
0.0
  9
$USERR3
 40
0.0
  9
$USERR4
 40
0.0
  9
$USERR5
 40
0.0
  9
$WORLDVIEW
 70
1
  9
$SHADEDGE
 70
3
  9
$SHADEDIF
 70
70
  9
$TILEMODE
 70
1
  9
$MAXACTVP
 70
64
  9
$PINSBASE
 10
0.0
 20
0.0
 30
0.0
  9
$PLIMCHECK
 70
0
  9
$PEXTMIN
 10
1e+20
 20
1e+20
 30
1e+20
  9
$PEXTMAX
 10
-1e+20
 20
-1e+20
 30
-1e+20
  9
$PLIMMIN
 10
-0.0
 20
-0.0
  9
$PLIMMAX
 10
297.0
 20
210.0
  9
$UNITMODE
 70
0
  9
$VISRETAIN
 70
1
  9
$PLINEGEN
 70
1
  9
$PSLTSCALE
 70
1
  9
$TREEDEPTH
 70
3020
  9
$CMLSTYLE
  2
ASG-MLINE-2
  9
$CMLJUST
 70
0
  9
$CMLSCALE
 40
20.0
  9
$PROXYGRAPHICS
 70
1
  9
$MEASUREMENT
 70
1
  9
$CELWEIGHT
370
-1
  9
$ENDCAPS
280
0
  9
$JOINSTYLE
280
0
  9
$LWDISPLAY
290
1
  9
$INSUNITS
 70
4
  9
$HYPERLINKBASE
  1

  9
$STYLESHEET
  1

  9
$XEDIT
290
1
  9
$CEPSNTYPE
380
0
  9
$PSTYLEMODE
290
1
  9
$FINGERPRINTGUID
  2
{FE994C39-4403-4F0B-836C-DBF89408D12B}
  9
$VERSIONGUID
  2
{C012BFD4-C1B1-4A99-A5E6-E092D9FD9868}
  9
$EXTNAMES
290
1
  9
$PSVPSCALE
 40
0.0
  9
$OLESTARTUP
290
0
  9
$SORTENTS
280
127
  9
$INDEXCTL
280
0
  9
$HIDETEXT
280
1
  9
$XCLIPFRAME
280
1
  9
$HALOGAP
280
0
  9
$OBSCOLOR
 70
257
  9
$OBSLTYPE
280
0
  9
$INTERSECTIONDISPLAY
280
0
  9
$INTERSECTIONCOLOR
 70
257
  9
$DIMASSOC
280
2
  9
$PROJECTNAME
  1

  9
$CAMERADISPLAY
290
0
  9
$LENSLENGTH
 40
50.0
  9
$CAMERAHEIGHT
 40
0.0
  9
$STEPSPERSEC
 40
24.0
  9
$STEPSIZE
 40
100.0
  9
$3DDWFPREC
 40
2.0
  9
$PSOLWIDTH
 40
0.005
  9
$PSOLHEIGHT
 40
0.08
  9
$LOFTANG1
 40
1.570796326795
  9
$LOFTANG2
 40
1.570796326795
  9
$LOFTMAG1
 40
0.0
  9
$LOFTMAG2
 40
0.0
  9
$LOFTPARAM
 70
7
  9
$LOFTNORMALS
280
1
  9
$LATITUDE
 40
37.795
  9
$LONGITUDE
 40
-122.394
  9
$NORTHDIRECTION
 40
0.0
  9
$TIMEZONE
 70
-8000
  9
$LIGHTGLYPHDISPLAY
280
1
  9
$TILEMODELIGHTSYNCH
280
1
  9
$CMATERIAL
347
20
  9
$SOLIDHIST
280
0
  9
$SHOWHIST
280
1
  9
$DWFFRAME
280
2
  9
$DGNFRAME
280
2
  9
$REALWORLDSCALE
290
1
  9
$INTERFERECOLOR
 62
256
  9
$CSHADOW
280
0
  9
$SHADOWPLANELOCATION
 40
0.0
  0
ENDSEC
  0
SECTION
  2
CLASSES
  0
CLASS
  1
ACDBDICTIONARYWDFLT
  2
AcDbDictionaryWithDefault
  3
ObjectDBX Classes
 90
0
 91
0
280
0
281
0
  0
CLASS
  1
SUN
  2
AcDbSun
  3
SCENEOE
 90
1153
 91
0
280
0
281
0
  0
CLASS
  1
VISUALSTYLE
  2
AcDbVisualStyle
  3
ObjectDBX Classes
 90
4095
 91
0
280
0
281
0
  0
CLASS
  1
MATERIAL
  2
AcDbMaterial
  3
ObjectDBX Classes
 90
1153
 91
0
280
0
281
0
  0
CLASS
  1
SCALE
  2
AcDbScale
  3
ObjectDBX Classes
 90
1153
 91
0
280
0
281
0
  0
CLASS
  1
TABLESTYLE
  2
AcDbTableStyle
  3
ObjectDBX Classes
 90
4095
 91
0
280
0
281
0
  0
CLASS
  1
MLEADERSTYLE
  2
AcDbMLeaderStyle
  3
ACDB_MLEADERSTYLE_CLASS
 90
4095
 91
0
280
0
281
0
  0
CLASS
  1
DICTIONARYVAR
  2
AcDbDictionaryVar
  3
ObjectDBX Classes
 90
0
 91
0
280
0
281
0
  0
CLASS
  1
CELLSTYLEMAP
  2
AcDbCellStyleMap
  3
ObjectDBX Classes
 90
1152
 91
0
280
0
281
0
  0
CLASS
  1
MENTALRAYRENDERSETTINGS
  2
AcDbMentalRayRenderSettings
  3
SCENEOE
 90
1024
 91
0
280
0
281
0
  0
CLASS
  1
ACDBDETAILVIEWSTYLE
  2
AcDbDetailViewStyle
  3
ObjectDBX Classes
 90
1025
 91
0
280
0
281
0
  0
CLASS
  1
ACDBSECTIONVIEWSTYLE
  2
AcDbSectionViewStyle
  3
ObjectDBX Classes
 90
1025
 91
0
280
0
281
0
  0
CLASS
  1
RASTERVARIABLES
  2
AcDbRasterVariables
  3
ISM
 90
0
 91
0
280
0
281
0
  0
CLASS
  1
ACDBPLACEHOLDER
  2
AcDbPlaceHolder
  3
ObjectDBX Classes
 90
0
 91
0
280
0
281
0
  0
CLASS
  1
LAYOUT
  2
AcDbLayout
  3
ObjectDBX Classes
 90
0
 91
0
280
0
281
0
  0
ENDSEC
  0
SECTION
  2
TABLES
  0
TABLE
  2
VPORT
  5
8
330
0
100
AcDbSymbolTable
 70
1
  0
VPORT
  5
188
330
8
100
AcDbSymbolTableRecord
100
AcDbViewportTableRecord
  2
*Active
 70
0
 10
0.0
 20
0.0
 11
1.0
 21
1.0
 12
10000.0
 22
7000.0
 13
0.0
 23
0.0
 14
0.5
 24
0.5
 15
0.5
 25
0.5
 16
0.0
 26
0.0
 36
1.0
 17
0.0
 27
0.0
 37
0.0
 40
20000.0
 41
1.34
 42
50.0
 43
0.0
 44
0.0
 50
0.0
 51
0.0
 71
0
 72
1000
 73
1
 74
3
 75
0
 76
0
 77
0
 78
0
281
0
 65
1
110
0.0
120
0.0
130
0.0
111
1.0
121
0.0
131
0.0
112
0.0
122
1.0
132
0.0
 79
0
146
0.0
  0
ENDTAB
  0
TABLE
  2
LTYPE
  5
2
330
0
100
AcDbSymbolTable
 70
14
  0
LTYPE
  5
24
330
2
100
AcDbSymbolTableRecord
100
AcDbLinetypeTableRecord
  2
ByBlock
 70
0
  3

 72
65
 73
0
 40
0.0
  0
LTYPE
  5
25
330
2
100
AcDbSymbolTableRecord
100
AcDbLinetypeTableRecord
  2
ByLayer
 70
0
  3

 72
65
 73
0
 40
0.0
  0
LTYPE
  5
26
330
2
100
AcDbSymbolTableRecord
100
AcDbLinetypeTableRecord
  2
Continuous
 70
0
  3

 72
65
 73
0
 40
0.0
  0
LTYPE
  5
30
330
2
100
AcDbSymbolTableRecord
100
AcDbLinetypeTableRecord
  2
HIDDEN
 70
0
  3
Hidden __ __ __
 72
65
 73
2
 40
9.525
 49
6.35
 74
0
 49
-3.175
 74
0
  0
LTYPE
  5
31
330
2
100
AcDbSymbolTableRecord
100
AcDbLinetypeTableRecord
  2
HIDDEN2
 70
0
  3
Hidden (.5x) _ _ _
 72
65
 73
2
 40
4.7625
 49
3.175
 74
0
 49
-1.5875
 74
0
  0
LTYPE
  5
32
330
2
100
AcDbSymbolTableRecord
100
AcDbLinetypeTableRecord
  2
CENTER
 70
0
  3
Center ____ _ ____
 72
65
 73
4
 40
50.8
 49
31.75
 74
0
 49
-6.35
 74
0
 49
6.35
 74
0
 49
-6.35
 74
0
  0
LTYPE
  5
33
330
2
100
AcDbSymbolTableRecord
100
AcDbLinetypeTableRecord
  2
CENTER2
 70
0
  3
Center (.5x) ___ _ ___
 72
65
 73
4
 40
25.4
 49
15.875
 74
0
 49
-3.175
 74
0
 49
3.175
 74
0
 49
-3.175
 74
0
  0
LTYPE
  5
34
330
2
100
AcDbSymbolTableRecord
100
AcDbLinetypeTableRecord
  2
DASHED
 70
0
  3
Dashed __ __
 72
65
 73
2
 40
19.05
 49
12.7
 74
0
 49
-6.35
 74
0
  0
LTYPE
  5
35
330
2
100
AcDbSymbolTableRecord
100
AcDbLinetypeTableRecord
  2
DASHED2
 70
0
  3
Dashed (.5x) _ _
 72
65
 73
2
 40
9.525
 49
6.35
 74
0
 49
-3.175
 74
0
  0
LTYPE
  5
36
330
2
100
AcDbSymbolTableRecord
100
AcDbLinetypeTableRecord
  2
DASHDOT
 70
0
  3
Dash dot __ . __
 72
65
 73
4
 40
25.4
 49
12.7
 74
0
 49
-6.35
 74
0
 49
0.0
 74
0
 49
-6.35
 74
0
  0
LTYPE
  5
37
330
2
100
AcDbSymbolTableRecord
100
AcDbLinetypeTableRecord
  2
DASHDOT2
 70
0
  3
Dash dot (.5x) _ . _
 72
65
 73
4
 40
12.7
 49
6.35
 74
0
 49
-3.175
 74
0
 49
0.0
 74
0
 49
-3.175
 74
0
  0
LTYPE
  5
38
330
2
100
AcDbSymbolTableRecord
100
AcDbLinetypeTableRecord
  2
PHANTOM
 70
0
  3
Phantom ___ _ _ ___
 72
65
 73
6
 40
63.5
 49
31.75
 74
0
 49
-6.35
 74
0
 49
6.35
 74
0
 49
-6.35
 74
0
 49
6.35
 74
0
 49
-6.35
 74
0
  0
LTYPE
  5
39
330
2
100
AcDbSymbolTableRecord
100
AcDbLinetypeTableRecord
  2
PHANTOM2
 70
0
  3
Phantom (.5x) __ _ _ __
 72
65
 73
6
 40
31.75
 49
15.875
 74
0
 49
-3.175
 74
0
 49
3.175
 74
0
 49
-3.175
 74
0
 49
3.175
 74
0
 49
-3.175
 74
0
  0
LTYPE
  5
3A
330
2
100
AcDbSymbolTableRecord
100
AcDbLinetypeTableRecord
  2
DOT
 70
0
  3
Dot . . .
 72
65
 73
2
 40
6.35
 49
0.0
 74
0
 49
-6.35
 74
0
  0
ENDTAB
  0
TABLE
  2
LAYER
  5
1
330
0
100
AcDbSymbolTable
 70
36
  0
LAYER
  5
27
330
1
100
AcDbSymbolTableRecord
100
AcDbLayerTableRecord
  2
0
 70
0
 62
7
  6
Continuous
370
-3
390
13
347
21
1001
AcAecLayerStandard
1000

1000
System layer - block definitions only
  0
LAYER
  5
28
330
1
100
AcDbSymbolTableRecord
100
AcDbLayerTableRecord
  2
Defpoints
 70
0
 62
7
  6
Continuous
290
0
370
-3
390
13
347
21
  0
LAYER
  5
3B
330
1
100
AcDbSymbolTableRecord
100
AcDbLayerTableRecord
  2
ASG-OUTLINE-PRIMARY
 70
0
 62
7
  6
Continuous
370
35
390
13
347
21
1001
AcAecLayerStandard
1000

1000
Primary visible outlines
  0
LAYER
  5
3D
330
1
100
AcDbSymbolTableRecord
100
AcDbLayerTableRecord
  2
ASG-OUTLINE-SECONDARY
 70
0
 62
8
  6
Continuous
370
18
390
13
347
21
1001
AcAecLayerStandard
1000

1000
Secondary visible lines
  0
LAYER
  5
3E
330
1
100
AcDbSymbolTableRecord
100
AcDbLayerTableRecord
  2
ASG-ALUMINIUM-PROFILE
 70
0
 62
7
  6
Continuous
370
25
390
13
347
21
1001
AcAecLayerStandard
1000

1000
Aluminium profiles
  0
LAYER
  5
3F
330
1
100
AcDbSymbolTableRecord
100
AcDbLayerTableRecord
  2
ASG-GLASS
 70
0
 62
4
  6
Continuous
370
18
390
13
347
21
1001
AcAecLayerStandard
1000

1000
Glass and mirror
  0
LAYER
  5
40
330
1
100
AcDbSymbolTableRecord
100
AcDbLayerTableRecord
  2
ASG-STAINLESS-STEEL
 70
0
 62
7
  6
Continuous
370
25
390
13
347
21
1001
AcAecLayerStandard
1000

1000
Stainless steel
  0
LAYER
  5
41
330
1
100
AcDbSymbolTableRecord
100
AcDbLayerTableRecord
  2
ASG-MILD-STEEL
 70
0
 62
7
  6
Continuous
370
30
390
13
347
21
1001
AcAecLayerStandard
1000

1000
Mild steel
  0
LAYER
  5
42
330
1
100
AcDbSymbolTableRecord
100
AcDbLayerTableRecord
  2
ASG-HARDWARE
 70
0
 62
8
  6
Continuous
370
18
390
13
347
21
1001
AcAecLayerStandard
1000

1000
Hardware
  0
LAYER
  5
43
330
1
100
AcDbSymbolTableRecord
100
AcDbLayerTableRecord
  2
ASG-FIXING
 70
0
 62
8
  6
Continuous
370
18
390
13
347
21
1001
AcAecLayerStandard
1000

1000
Fixings
  0
LAYER
  5
44
330
1
100
AcDbSymbolTableRecord
100
AcDbLayerTableRecord
  2
ASG-GASKET
 70
0
 62
8
  6
Continuous
370
13
390
13
347
21
1001
AcAecLayerStandard
1000

1000
Gaskets
  0
LAYER
  5
45
330
1
100
AcDbSymbolTableRecord
100
AcDbLayerTableRecord
  2
ASG-SEALANT
 70
0
 62
8
  6
Continuous
370
13
390
13
347
21
1001
AcAecLayerStandard
1000

1000
Sealants
  0
LAYER
  5
46
330
1
100
AcDbSymbolTableRecord
100
AcDbLayerTableRecord
  2
ASG-INSULATION
 70
0
 62
252
  6
Continuous
370
13
390
13
347
21
1001
AcAecLayerStandard
1000

1000
Insulation
  0
LAYER
  5
47
330
1
100
AcDbSymbolTableRecord
100
AcDbLayerTableRecord
  2
ASG-CLADDING
 70
0
 62
7
  6
Continuous
370
25
390
13
347
21
1001
AcAecLayerStandard
1000

1000
Cladding
  0
LAYER
  5
48
330
1
100
AcDbSymbolTableRecord
100
AcDbLayerTableRecord
  2
ASG-HIDDEN
 70
0
 62
8
  6
HIDDEN2
370
18
390
13
347
21
1001
AcAecLayerStandard
1000

1000
Hidden geometry
  0
LAYER
  5
49
330
1
100
AcDbSymbolTableRecord
100
AcDbLayerTableRecord
  2
ASG-CENTERLINE
 70
0
 62
8
  6
CENTER2
370
13
390
13
347
21
1001
AcAecLayerStandard
1000

1000
Centrelines
  0
LAYER
  5
4A
330
1
100
AcDbSymbolTableRecord
100
AcDbLayerTableRecord
  2
ASG-CUTTING-PLANE
 70
0
 62
7
  6
PHANTOM2
370
35
390
13
347
21
1001
AcAecLayerStandard
1000

1000
Cutting planes
  0
LAYER
  5
4B
330
1
100
AcDbSymbolTableRecord
100
AcDbLayerTableRecord
  2
ASG-SECTION-CUT
 70
0
 62
7
  6
Continuous
370
40
390
13
347
21
1001
AcAecLayerStandard
1000

1000
Section cut outlines
  0
LAYER
  5
4C
330
1
100
AcDbSymbolTableRecord
100
AcDbLayerTableRecord
  2
ASG-HATCH
 70
0
 62
252
  6
Continuous
370
9
390
13
347
21
1001
AcAecLayerStandard
1000

1000
Section hatching
  0
LAYER
  5
4D
330
1
100
AcDbSymbolTableRecord
100
AcDbLayerTableRecord
  2
ASG-HATCH-FILL
 70
0
 62
251
  6
Continuous
370
9
390
13
347
21
1001
AcAecLayerStandard
1000

1000
Solid fills
  0
LAYER
  5
4E
330
1
100
AcDbSymbolTableRecord
100
AcDbLayerTableRecord
  2
ASG-SETOUT
 70
0
 62
8
  6
DASHDOT2
370
13
390
13
347
21
1001
AcAecLayerStandard
1000

1000
Setting-out geometry (plotted)
  0
LAYER
  5
4F
330
1
100
AcDbSymbolTableRecord
100
AcDbLayerTableRecord
  2
ASG-REFERENCE
 70
0
 62
253
  6
Continuous
370
13
390
13
347
21
1001
AcAecLayerStandard
1000

1000
Reference geometry
  0
LAYER
  5
50
330
1
100
AcDbSymbolTableRecord
100
AcDbLayerTableRecord
  2
ASG-CONSTRUCTION
 70
0
 62
6
  6
Continuous
290
0
370
5
390
13
347
21
1001
AcAecLayerStandard
1000

1000
Construction geometry (NOT plotted)
  0
LAYER
  5
51
330
1
100
AcDbSymbolTableRecord
100
AcDbLayerTableRecord
  2
ASG-DIMENSION
 70
0
 62
3
  6
Continuous
370
13
390
13
347
21
1001
AcAecLayerStandard
1000

1000
Dimensions
  0
LAYER
  5
52
330
1
100
AcDbSymbolTableRecord
100
AcDbLayerTableRecord
  2
ASG-TEXT
 70
0
 62
7
  6
Continuous
370
18
390
13
347
21
1001
AcAecLayerStandard
1000

1000
General text
  0
LAYER
  5
53
330
1
100
AcDbSymbolTableRecord
100
AcDbLayerTableRecord
  2
ASG-TEXT-NOTE
 70
0
 62
7
  6
Continuous
370
18
390
13
347
21
1001
AcAecLayerStandard
1000

1000
Notes
  0
LAYER
  5
54
330
1
100
AcDbSymbolTableRecord
100
AcDbLayerTableRecord
  2
ASG-MULTILEADER
 70
0
 62
3
  6
Continuous
370
13
390
13
347
21
1001
AcAecLayerStandard
1000

1000
Multileaders
  0
LAYER
  5
55
330
1
100
AcDbSymbolTableRecord
100
AcDbLayerTableRecord
  2
ASG-TABLE
 70
0
 62
7
  6
Continuous
370
18
390
13
347
21
1001
AcAecLayerStandard
1000

1000
Tables
  0
LAYER
  5
56
330
1
100
AcDbSymbolTableRecord
100
AcDbLayerTableRecord
  2
ASG-LEVEL
 70
0
 62
3
  6
Continuous
370
18
390
13
347
21
1001
AcAecLayerStandard
1000

1000
Levels
  0
LAYER
  5
57
330
1
100
AcDbSymbolTableRecord
100
AcDbLayerTableRecord
  2
ASG-GRID
 70
0
 62
8
  6
CENTER
370
13
390
13
347
21
1001
AcAecLayerStandard
1000

1000
Grids
  0
LAYER
  5
58
330
1
100
AcDbSymbolTableRecord
100
AcDbLayerTableRecord
  2
ASG-REVISION
 70
0
 62
1
  6
Continuous
370
25
390
13
347
21
1001
AcAecLayerStandard
1000

1000
Revision clouds
  0
LAYER
  5
59
330
1
100
AcDbSymbolTableRecord
100
AcDbLayerTableRecord
  2
ASG-SYMBOL
 70
0
 62
3
  6
Continuous
370
25
390
13
347
21
1001
AcAecLayerStandard
1000

1000
Drafting symbols
  0
LAYER
  5
5A
330
1
100
AcDbSymbolTableRecord
100
AcDbLayerTableRecord
  2
ASG-BORDER
 70
0
 62
7
  6
Continuous
370
50
390
13
347
21
1001
AcAecLayerStandard
1000

1000
Sheet borders
  0
LAYER
  5
5B
330
1
100
AcDbSymbolTableRecord
100
AcDbLayerTableRecord
  2
ASG-TITLEBLOCK
 70
0
 62
7
  6
Continuous
370
25
390
13
347
21
1001
AcAecLayerStandard
1000

1000
Title blocks
  0
LAYER
  5
5C
330
1
100
AcDbSymbolTableRecord
100
AcDbLayerTableRecord
  2
ASG-VIEWPORT
 70
0
 62
6
  6
Continuous
290
0
370
0
390
13
347
21
1001
AcAecLayerStandard
1000

1000
Viewports (NOT plotted)
  0
LAYER
  5
5D
330
1
100
AcDbSymbolTableRecord
100
AcDbLayerTableRecord
  2
ASG-NOPLOT
 70
0
 62
6
  6
Continuous
290
0
370
0
390
13
347
21
1001
AcAecLayerStandard
1000

1000
Non-plot objects
  0
ENDTAB
  0
TABLE
  2
STYLE
  5
5
330
0
100
AcDbSymbolTable
 70
7
  0
STYLE
  5
29
330
5
100
AcDbSymbolTableRecord
100
AcDbTextStyleTableRecord
  2
Standard
 70
0
 40
0.0
 41
1.0
 50
0.0
 71
0
 42
2.5
  3
arial.ttf
  4

1001
ACAD
1000
Arial
1071
34
  0
STYLE
  5
5E
330
5
100
AcDbSymbolTableRecord
100
AcDbTextStyleTableRecord
  2
ASG-TEXT-ANNO
 70
0
 40
0.0
 41
1.0
 50
0.0
 71
0
 42
2.5
  3
arial.ttf
  4

1001
ACAD
1000
Arial
1071
34
1001
AcadAnnotative
1000
AnnotativeData
1002
{
1070
1
1070
1
1002
}
  0
STYLE
  5
5F
330
5
100
AcDbSymbolTableRecord
100
AcDbTextStyleTableRecord
  2
ASG-TEXT-NOTE
 70
0
 40
0.0
 41
1.0
 50
0.0
 71
0
 42
2.5
  3
arial.ttf
  4

1001
ACAD
1000
Arial
1071
34
1001
AcadAnnotative
1000
AnnotativeData
1002
{
1070
1
1070
1
1002
}
  0
STYLE
  5
60
330
5
100
AcDbSymbolTableRecord
100
AcDbTextStyleTableRecord
  2
ASG-TEXT-SMALL
 70
0
 40
0.0
 41
1.0
 50
0.0
 71
0
 42
2.5
  3
arial.ttf
  4

1001
ACAD
1000
Arial
1071
34
1001
AcadAnnotative
1000
AnnotativeData
1002
{
1070
1
1070
1
1002
}
  0
STYLE
  5
61
330
5
100
AcDbSymbolTableRecord
100
AcDbTextStyleTableRecord
  2
ASG-TEXT-TITLE
 70
0
 40
0.0
 41
1.0
 50
0.0
 71
0
 42
2.5
  3
arialbd.ttf
  4

1001
ACAD
1000
Arial
1071
33554466
  0
STYLE
  5
62
330
5
100
AcDbSymbolTableRecord
100
AcDbTextStyleTableRecord
  2
ASG-TEXT-HEADING
 70
0
 40
0.0
 41
1.0
 50
0.0
 71
0
 42
2.5
  3
arialbd.ttf
  4

1001
ACAD
1000
Arial
1071
33554466
  0
STYLE
  5
63
330
5
100
AcDbSymbolTableRecord
100
AcDbTextStyleTableRecord
  2
ASG-TEXT-SHEET
 70
0
 40
0.0
 41
1.0
 50
0.0
 71
0
 42
2.5
  3
arial.ttf
  4

1001
ACAD
1000
Arial
1071
34
  0
ENDTAB
  0
TABLE
  2
VIEW
  5
7
330
0
100
AcDbSymbolTable
 70
0
  0
ENDTAB
  0
TABLE
  2
UCS
  5
6
330
0
100
AcDbSymbolTable
 70
0
  0
ENDTAB
  0
TABLE
  2
APPID
  5
3
330
0
100
AcDbSymbolTable
 70
5
  0
APPID
  5
2A
330
3
100
AcDbSymbolTableRecord
100
AcDbRegAppTableRecord
  2
ACAD
 70
0
  0
APPID
  5
2F
330
3
100
AcDbSymbolTableRecord
100
AcDbRegAppTableRecord
  2
AcadAnnotative
 70
0
  0
APPID
  5
3C
330
3
100
AcDbSymbolTableRecord
100
AcDbRegAppTableRecord
  2
AcAecLayerStandard
 70
0
  0
APPID
  5
189
330
3
100
AcDbSymbolTableRecord
100
AcDbRegAppTableRecord
  2
HATCHBACKGROUNDCOLOR
 70
0
  0
APPID
  5
18A
330
3
100
AcDbSymbolTableRecord
100
AcDbRegAppTableRecord
  2
EZDXF
 70
0
  0
ENDTAB
  0
TABLE
  2
DIMSTYLE
  5
4
330
0
100
AcDbSymbolTable
 70
7
100
AcDbDimStyleTable
  0
DIMSTYLE
105
2B
330
4
100
AcDbSymbolTableRecord
100
AcDbDimStyleTableRecord
  2
Standard
 70
0
 40
1.0
 41
2.5
 42
0.625
 43
3.75
 44
1.25
 45
0.0
 46
0.0
 47
0.0
 48
0.0
 49
2.5
140
2.5
141
2.5
142
0.0
143
0.03937007874
144
1.0
145
0.0
146
1.0
147
0.625
148
0.0
 69
0
 70
0
 71
0
 72
0
 73
0
 74
0
 75
0
 76
0
 77
1
 78
8
 79
3
170
0
171
3
172
1
173
0
174
0
175
0
176
0
177
0
178
0
179
2
271
2
272
2
273
2
274
3
275
0
276
0
277
2
278
44
279
0
280
0
281
0
282
0
283
0
284
8
285
0
286
0
288
0
289
3
290
0
371
-2
372
-2
  0
DIMSTYLE
105
64
330
4
100
AcDbSymbolTableRecord
100
AcDbDimStyleTableRecord
  2
ASG-DIM-ANNO
 70
0
 40
1.0
 41
2.5
 42
1.5
 43
7.0
 44
1.25
 45
0.0
 46
0.0
 47
0.0
 48
0.0
 49
2.5
140
2.5
141
2.5
142
0.0
143
25.4
144
1.0
145
0.0
146
0.7
147
1.0
148
0.0
 69
0
 70
0
 71
0
 72
0
 73
0
 74
0
 75
0
 76
0
 77
1
 78
8
 79
2
170
0
171
2
172
1
173
0
174
0
175
0
176
256
177
256
178
256
179
2
271
0
272
1
273
2
274
3
275
0
276
0
277
2
278
46
279
1
280
0
281
0
282
0
283
0
284
8
285
0
286
0
288
0
289
3
290
0
340
5E
371
-2
372
-2
1001
AcadAnnotative
1000
AnnotativeData
1002
{
1070
1
1070
1
1002
}
  0
DIMSTYLE
105
65
330
4
100
AcDbSymbolTableRecord
100
AcDbDimStyleTableRecord
  2
ASG-DIM-FIXED
 70
0
 40
1.0
 41
2.5
 42
1.5
 43
7.0
 44
1.25
 45
0.0
 46
0.0
 47
0.0
 48
0.0
 49
2.5
140
2.5
141
2.5
142
0.0
143
25.4
144
1.0
145
0.0
146
0.7
147
1.0
148
0.0
 69
0
 70
0
 71
0
 72
0
 73
0
 74
0
 75
0
 76
0
 77
1
 78
8
 79
2
170
0
171
2
172
1
173
0
174
0
175
0
176
256
177
256
178
256
179
2
271
0
272
1
273
2
274
3
275
0
276
0
277
2
278
46
279
1
280
0
281
0
282
0
283
0
284
8
285
0
286
0
288
0
289
3
290
0
340
5E
371
-2
372
-2
  0
DIMSTYLE
105
66
330
4
100
AcDbSymbolTableRecord
100
AcDbDimStyleTableRecord
  2
ASG-DIM-DETAIL
 70
0
 40
1.0
 41
2.5
 42
1.5
 43
7.0
 44
1.25
 45
0.0
 46
0.0
 47
0.0
 48
0.0
 49
2.5
140
2.5
141
2.5
142
0.0
143
25.4
144
1.0
145
0.0
146
0.7
147
1.0
148
0.0
 69
0
 70
0
 71
0
 72
0
 73
0
 74
0
 75
0
 76
0
 77
1
 78
0
 79
2
170
0
171
2
172
1
173
0
174
0
175
0
176
256
177
256
178
256
179
2
271
1
272
1
273
2
274
3
275
0
276
0
277
2
278
46
279
1
280
0
281
0
282
0
283
0
284
8
285
0
286
0
288
0
289
3
290
0
340
5E
371
-2
372
-2
1001
AcadAnnotative
1000
AnnotativeData
1002
{
1070
1
1070
1
1002
}
  0
DIMSTYLE
105
67
330
4
100
AcDbSymbolTableRecord
100
AcDbDimStyleTableRecord
  2
ASG-DIM-ANGULAR
 70
0
 40
1.0
 41
2.5
 42
1.5
 43
7.0
 44
1.25
 45
0.0
 46
0.0
 47
0.0
 48
0.0
 49
2.5
140
2.5
141
2.5
142
0.0
143
25.4
144
1.0
145
0.0
146
0.7
147
1.0
148
0.0
 69
0
 70
0
 71
0
 72
0
 73
0
 74
0
 75
0
 76
0
 77
1
 78
8
 79
0
170
0
171
2
172
1
173
0
174
0
175
0
176
256
177
256
178
256
179
2
271
0
272
1
273
2
274
3
275
0
276
0
277
2
278
46
279
1
280
0
281
0
282
0
283
0
284
8
285
0
286
0
288
0
289
3
290
0
340
5E
371
-2
372
-2
1001
AcadAnnotative
1000
AnnotativeData
1002
{
1070
1
1070
1
1002
}
  0
DIMSTYLE
105
68
330
4
100
AcDbSymbolTableRecord
100
AcDbDimStyleTableRecord
  2
ASG-DIM-RADIUS
 70
0
 40
1.0
 41
2.5
 42
1.5
 43
7.0
 44
1.25
 45
0.0
 46
0.0
 47
0.0
 48
0.0
 49
2.5
140
2.5
141
0.0
142
0.0
143
25.4
144
1.0
145
0.0
146
0.7
147
1.0
148
0.0
 69
0
 70
0
 71
0
 72
0
 73
0
 74
0
 75
0
 76
0
 77
1
 78
8
 79
2
170
0
171
2
172
1
173
0
174
0
175
0
176
256
177
256
178
256
179
2
271
0
272
1
273
2
274
3
275
0
276
0
277
2
278
46
279
0
280
0
281
0
282
0
283
0
284
8
285
0
286
0
288
0
289
3
290
0
340
5E
371
-2
372
-2
1001
AcadAnnotative
1000
AnnotativeData
1002
{
1070
1
1070
1
1002
}
  0
DIMSTYLE
105
69
330
4
100
AcDbSymbolTableRecord
100
AcDbDimStyleTableRecord
  2
ASG-DIM-DIAMETER
 70
0
 40
1.0
 41
2.5
 42
1.5
 43
7.0
 44
1.25
 45
0.0
 46
0.0
 47
0.0
 48
0.0
 49
2.5
140
2.5
141
2.5
142
0.0
143
25.4
144
1.0
145
0.0
146
0.7
147
1.0
148
0.0
 69
0
 70
0
 71
0
 72
0
 73
0
 74
0
 75
0
 76
0
 77
1
 78
8
 79
2
170
0
171
2
172
1
173
0
174
0
175
0
176
256
177
256
178
256
179
2
271
0
272
1
273
2
274
3
275
0
276
0
277
2
278
46
279
0
280
0
281
0
282
0
283
0
284
8
285
0
286
0
288
0
289
3
290
0
340
5E
371
-2
372
-2
1001
AcadAnnotative
1000
AnnotativeData
1002
{
1070
1
1070
1
1002
}
  0
ENDTAB
  0
TABLE
  2
BLOCK_RECORD
  5
9
330
0
100
AcDbSymbolTable
 70
11
  0
BLOCK_RECORD
  5
17
330
9
100
AcDbSymbolTableRecord
100
AcDbBlockTableRecord
  2
*Model_Space
340
1A
 70
0
280
1
281
0
  0
BLOCK_RECORD
  5
6D
330
9
100
AcDbSymbolTableRecord
100
AcDbBlockTableRecord
  2
_DOT
340
0
 70
0
280
1
281
0
  0
BLOCK_RECORD
  5
73
330
9
100
AcDbSymbolTableRecord
100
AcDbBlockTableRecord
  2
_OPEN30
340
0
 70
0
280
1
281
0
  0
BLOCK_RECORD
  5
7A
330
9
100
AcDbSymbolTableRecord
100
AcDbBlockTableRecord
  2
ASG-TB-A4
340
0
 70
0
280
1
281
0
  0
BLOCK_RECORD
  5
AC
330
9
100
AcDbSymbolTableRecord
100
AcDbBlockTableRecord
  2
ASG-TB-A3
340
0
 70
0
280
1
281
0
  0
BLOCK_RECORD
  5
DE
330
9
100
AcDbSymbolTableRecord
100
AcDbBlockTableRecord
  2
ASG-TB-A1
340
0
 70
0
280
1
281
0
  0
BLOCK_RECORD
  5
128
330
9
100
AcDbSymbolTableRecord
100
AcDbBlockTableRecord
  2
*Paper_Space1
340
12B
 70
0
280
1
281
0
  0
BLOCK_RECORD
  5
140
330
9
100
AcDbSymbolTableRecord
100
AcDbBlockTableRecord
  2
*Paper_Space2
340
143
 70
0
280
1
281
0
  0
BLOCK_RECORD
  5
158
330
9
100
AcDbSymbolTableRecord
100
AcDbBlockTableRecord
  2
*Paper_Space3
340
15B
 70
0
280
1
281
0
  0
BLOCK_RECORD
  5
170
330
9
100
AcDbSymbolTableRecord
100
AcDbBlockTableRecord
  2
*Paper_Space4
340
173
 70
0
280
1
281
0
  0
BLOCK_RECORD
  5
110
330
9
100
AcDbSymbolTableRecord
100
AcDbBlockTableRecord
  2
*Paper_Space
340
113
 70
0
280
1
281
0
  0
ENDTAB
  0
ENDSEC
  0
SECTION
  2
BLOCKS
  0
BLOCK
  5
18
330
17
100
AcDbEntity
  8
0
100
AcDbBlockBegin
  2
*Model_Space
 70
0
 10
0.0
 20
0.0
 30
0.0
  3
*Model_Space
  1

  0
ENDBLK
  5
19
330
17
100
AcDbEntity
  8
0
100
AcDbBlockEnd
  0
BLOCK
  5
6E
330
6D
100
AcDbEntity
  8
0
100
AcDbBlockBegin
  2
_DOT
 70
0
 10
0.0
 20
0.0
 30
0.0
  3
_DOT
  1

  0
LINE
  5
70
330
6D
100
AcDbEntity
  8
0
  6
BYBLOCK
 62
0
100
AcDbLine
 10
-0.5
 20
0.0
 30
0.0
 11
-1.0
 21
0.0
 31
0.0
  0
LWPOLYLINE
  5
71
330
6D
100
AcDbEntity
  8
0
  6
BYBLOCK
 62
0
100
AcDbPolyline
 90
2
 70
1
 43
0.5
 10
-0.25
 20
0.0
 42
1.0
 10
0.25
 20
0.0
 42
1.0
  0
ENDBLK
  5
6F
330
6D
100
AcDbEntity
  8
0
100
AcDbBlockEnd
  0
BLOCK
  5
74
330
73
100
AcDbEntity
  8
0
100
AcDbBlockBegin
  2
_OPEN30
 70
0
 10
0.0
 20
0.0
 30
0.0
  3
_OPEN30
  1

  0
LWPOLYLINE
  5
76
330
73
100
AcDbEntity
  8
0
  6
BYBLOCK
 62
0
100
AcDbPolyline
 90
3
 70
0
 10
-1.0
 20
0.25881904510252074
 10
0.0
 20
0.0
 10
-1.0
 20
-0.25881904510252074
  0
LINE
  5
77
330
73
100
AcDbEntity
  8
0
  6
BYBLOCK
 62
0
100
AcDbLine
 10
0.0
 20
0.0
 30
0.0
 11
-1.0
 21
0.0
 31
0.0
  0
ENDBLK
  5
75
330
73
100
AcDbEntity
  8
0
100
AcDbBlockEnd
  0
BLOCK
  5
7B
330
7A
100
AcDbEntity
  8
0
100
AcDbBlockBegin
  2
ASG-TB-A4
 70
2
 10
0.0
 20
0.0
 30
0.0
  3
ASG-TB-A4
  1

  0
TEXT
  5
7D
330
7A
100
AcDbEntity
  8
0
100
AcDbText
 10
-179.16
 20
7.86
 30
0.0
 40
1.8
  1
DRAWING No.
  7
ASG-TEXT-SHEET
 11
-179.16
 21
7.86
 31
0.0
100
AcDbText
 73
1
  0
ATTDEF
  5
7E
330
7A
100
AcDbEntity
  8
0
100
AcDbText
 10
-179.16
 20
0.84
 30
0.0
 40
3.5
  1
AS-YYYY-NNN-DIS-TYP-001
  7
ASG-TEXT-HEADING
 11
-179.16
 21
0.84
 31
0.0
100
AcDbAttributeDefinition
  3
Drawing number
  2
DWG_NO
 70
0
 74
1
 71
1
 72
0
 11
-179.16
 21
0.84
 31
0.0
  0
LINE
  5
7F
330
7A
100
AcDbEntity
  8
0
100
AcDbLine
 10
-72.0
 20
0.0
 30
0.0
 11
-72.0
 21
10.5
 31
0.0
  0
TEXT
  5
80
330
7A
100
AcDbEntity
  8
0
100
AcDbText
 10
-71.16
 20
7.86
 30
0.0
 40
1.8
  1
REV
  7
ASG-TEXT-SHEET
 11
-71.16
 21
7.86
 31
0.0
100
AcDbText
 73
1
  0
ATTDEF
  5
81
330
7A
100
AcDbEntity
  8
0
100
AcDbText
 10
-71.16
 20
0.84
 30
0.0
 40
3.5
  1
R0
  7
ASG-TEXT-HEADING
 11
-71.16
 21
0.84
 31
0.0
100
AcDbAttributeDefinition
  3
Revision
  2
REV
 70
0
 74
1
 71
1
 72
0
 11
-71.16
 21
0.84
 31
0.0
  0
LINE
  5
82
330
7A
100
AcDbEntity
  8
0
100
AcDbLine
 10
-45.0
 20
0.0
 30
0.0
 11
-45.0
 21
10.5
 31
0.0
  0
TEXT
  5
83
330
7A
100
AcDbEntity
  8
0
100
AcDbText
 10
-44.16
 20
7.86
 30
0.0
 40
1.8
  1
SHEET No.
  7
ASG-TEXT-SHEET
 11
-44.16
 21
7.86
 31
0.0
100
AcDbText
 73
1
  0
ATTDEF
  5
84
330
7A
100
AcDbEntity
  8
0
100
AcDbText
 10
-44.16
 20
0.84
 30
0.0
 40
2.5
  1
01 OF 01
  7
ASG-TEXT-SHEET
 11
-44.16
 21
0.84
 31
0.0
100
AcDbAttributeDefinition
  3
Sheet number
  2
SHEET_NO
 70
0
 74
1
 71
1
 72
0
 11
-44.16
 21
0.84
 31
0.0
  0
LINE
  5
85
330
7A
100
AcDbEntity
  8
0
100
AcDbLine
 10
-180.0
 20
10.5
 30
0.0
 11
0.0
 21
10.5
 31
0.0
  0
TEXT
  5
86
330
7A
100
AcDbEntity
  8
0
100
AcDbText
 10
-179.16
 20
14.86
 30
0.0
 40
1.8
  1
SCALE
  7
ASG-TEXT-SHEET
 11
-179.16
 21
14.86
 31
0.0
100
AcDbText
 73
1
  0
ATTDEF
  5
87
330
7A
100
AcDbEntity
  8
0
100
AcDbText
 10
-179.16
 20
11.34
 30
0.0
 40
2.5
  1
AS SHOWN
  7
ASG-TEXT-SHEET
 11
-179.16
 21
11.34
 31
0.0
100
AcDbAttributeDefinition
  3
Scale
  2
SCALE
 70
0
 74
1
 71
1
 72
0
 11
-179.16
 21
11.34
 31
0.0
  0
LINE
  5
88
330
7A
100
AcDbEntity
  8
0
100
AcDbLine
 10
-120.0
 20
10.5
 30
0.0
 11
-120.0
 21
17.5
 31
0.0
  0
TEXT
  5
89
330
7A
100
AcDbEntity
  8
0
100
AcDbText
 10
-119.16
 20
14.86
 30
0.0
 40
1.8
  1
DATE
  7
ASG-TEXT-SHEET
 11
-119.16
 21
14.86
 31
0.0
100
AcDbText
 73
1
  0
ATTDEF
  5
8A
330
7A
100
AcDbEntity
  8
0
100
AcDbText
 10
-119.16
 20
11.34
 30
0.0
 40
2.5
  1
DD.MM.YYYY
  7
ASG-TEXT-SHEET
 11
-119.16
 21
11.34
 31
0.0
100
AcDbAttributeDefinition
  3
Date (DD.MM.YYYY)
  2
DATE
 70
0
 74
1
 71
1
 72
0
 11
-119.16
 21
11.34
 31
0.0
  0
LINE
  5
8B
330
7A
100
AcDbEntity
  8
0
100
AcDbLine
 10
-60.0
 20
10.5
 30
0.0
 11
-60.0
 21
17.5
 31
0.0
  0
TEXT
  5
8C
330
7A
100
AcDbEntity
  8
0
100
AcDbText
 10
-59.16
 20
14.86
 30
0.0
 40
1.8
  1
DRAWING STATUS
  7
ASG-TEXT-SHEET
 11
-59.16
 21
14.86
 31
0.0
100
AcDbText
 73
1
  0
ATTDEF
  5
8D
330
7A
100
AcDbEntity
  8
0
100
AcDbText
 10
-59.16
 20
11.34
 30
0.0
 40
2.5
  1
PRELIMINARY
  7
ASG-TEXT-SHEET
 11
-59.16
 21
11.34
 31
0.0
100
AcDbAttributeDefinition
  3
Drawing status
  2
DWG_STATUS
 70
0
 74
1
 71
1
 72
0
 11
-59.16
 21
11.34
 31
0.0
  0
LINE
  5
8E
330
7A
100
AcDbEntity
  8
0
100
AcDbLine
 10
-180.0
 20
17.5
 30
0.0
 11
0.0
 21
17.5
 31
0.0
  0
TEXT
  5
8F
330
7A
100
AcDbEntity
  8
0
100
AcDbText
 10
-179.16
 20
21.86
 30
0.0
 40
1.8
  1
DRAWN BY
  7
ASG-TEXT-SHEET
 11
-179.16
 21
21.86
 31
0.0
100
AcDbText
 73
1
  0
ATTDEF
  5
90
330
7A
100
AcDbEntity
  8
0
100
AcDbText
 10
-179.16
 20
18.34
 30
0.0
 40
2.5
  1
-
  7
ASG-TEXT-SHEET
 11
-179.16
 21
18.34
 31
0.0
100
AcDbAttributeDefinition
  3
Drawn by
  2
DRAWN_BY
 70
0
 74
1
 71
1
 72
0
 11
-179.16
 21
18.34
 31
0.0
  0
LINE
  5
91
330
7A
100
AcDbEntity
  8
0
100
AcDbLine
 10
-120.0
 20
17.5
 30
0.0
 11
-120.0
 21
24.5
 31
0.0
  0
TEXT
  5
92
330
7A
100
AcDbEntity
  8
0
100
AcDbText
 10
-119.16
 20
21.86
 30
0.0
 40
1.8
  1
CHECKED BY
  7
ASG-TEXT-SHEET
 11
-119.16
 21
21.86
 31
0.0
100
AcDbText
 73
1
  0
ATTDEF
  5
93
330
7A
100
AcDbEntity
  8
0
100
AcDbText
 10
-119.16
 20
18.34
 30
0.0
 40
2.5
  1
-
  7
ASG-TEXT-SHEET
 11
-119.16
 21
18.34
 31
0.0
100
AcDbAttributeDefinition
  3
Checked by
  2
CHECKED_BY
 70
0
 74
1
 71
1
 72
0
 11
-119.16
 21
18.34
 31
0.0
  0
LINE
  5
94
330
7A
100
AcDbEntity
  8
0
100
AcDbLine
 10
-60.0
 20
17.5
 30
0.0
 11
-60.0
 21
24.5
 31
0.0
  0
TEXT
  5
95
330
7A
100
AcDbEntity
  8
0
100
AcDbText
 10
-59.16
 20
21.86
 30
0.0
 40
1.8
  1
APPROVED BY
  7
ASG-TEXT-SHEET
 11
-59.16
 21
21.86
 31
0.0
100
AcDbText
 73
1
  0
ATTDEF
  5
96
330
7A
100
AcDbEntity
  8
0
100
AcDbText
 10
-59.16
 20
18.34
 30
0.0
 40
2.5
  1
-
  7
ASG-TEXT-SHEET
 11
-59.16
 21
18.34
 31
0.0
100
AcDbAttributeDefinition
  3
Approved by
  2
APPROVED_BY
 70
0
 74
1
 71
1
 72
0
 11
-59.16
 21
18.34
 31
0.0
  0
LINE
  5
97
330
7A
100
AcDbEntity
  8
0
100
AcDbLine
 10
-180.0
 20
24.5
 30
0.0
 11
0.0
 21
24.5
 31
0.0
  0
TEXT
  5
98
330
7A
100
AcDbEntity
  8
0
100
AcDbText
 10
-179.16
 20
35.86
 30
0.0
 40
1.8
  1
DRAWING TITLE
  7
ASG-TEXT-SHEET
 11
-179.16
 21
35.86
 31
0.0
100
AcDbText
 73
1
  0
ATTDEF
  5
99
330
7A
100
AcDbEntity
  8
0
100
AcDbText
 10
-179.16
 20
30.1
 30
0.0
 40
3.5
  1
DRAWING TITLE
  7
ASG-TEXT-HEADING
 11
-179.16
 21
30.1
 31
0.0
100
AcDbAttributeDefinition
  3
Drawing title
  2
DWG_TITLE
 70
0
 74
1
 71
1
 72
0
 11
-179.16
 21
30.1
 31
0.0
  0
ATTDEF
  5
9A
330
7A
100
AcDbEntity
  8
0
100
AcDbText
 10
-179.16
 20
25.34
 30
0.0
 40
2.5
  1

  7
ASG-TEXT-TITLE
 11
-179.16
 21
25.34
 31
0.0
100
AcDbAttributeDefinition
  3
Drawing title - second line (optional)
  2
DWG_TITLE_2
 70
0
 74
1
 71
1
 72
0
 11
-179.16
 21
25.34
 31
0.0
  0
LINE
  5
9B
330
7A
100
AcDbEntity
  8
0
100
AcDbLine
 10
-180.0
 20
38.5
 30
0.0
 11
0.0
 21
38.5
 31
0.0
  0
TEXT
  5
9C
330
7A
100
AcDbEntity
  8
0
100
AcDbText
 10
-179.16
 20
42.86
 30
0.0
 40
1.8
  1
CLIENT
  7
ASG-TEXT-SHEET
 11
-179.16
 21
42.86
 31
0.0
100
AcDbText
 73
1
  0
ATTDEF
  5
9D
330
7A
100
AcDbEntity
  8
0
100
AcDbText
 10
-179.16
 20
39.34
 30
0.0
 40
2.5
  1
CLIENT
  7
ASG-TEXT-SHEET
 11
-179.16
 21
39.34
 31
0.0
100
AcDbAttributeDefinition
  3
Client
  2
CLIENT
 70
0
 74
1
 71
1
 72
0
 11
-179.16
 21
39.34
 31
0.0
  0
LINE
  5
9E
330
7A
100
AcDbEntity
  8
0
100
AcDbLine
 10
-90.0
 20
38.5
 30
0.0
 11
-90.0
 21
45.5
 31
0.0
  0
TEXT
  5
9F
330
7A
100
AcDbEntity
  8
0
100
AcDbText
 10
-89.16
 20
42.86
 30
0.0
 40
1.8
  1
CONSULTANT
  7
ASG-TEXT-SHEET
 11
-89.16
 21
42.86
 31
0.0
100
AcDbText
 73
1
  0
ATTDEF
  5
A0
330
7A
100
AcDbEntity
  8
0
100
AcDbText
 10
-89.16
 20
39.34
 30
0.0
 40
2.5
  1
CONSULTANT
  7
ASG-TEXT-SHEET
 11
-89.16
 21
39.34
 31
0.0
100
AcDbAttributeDefinition
  3
Consultant
  2
CONSULTANT
 70
0
 74
1
 71
1
 72
0
 11
-89.16
 21
39.34
 31
0.0
  0
LINE
  5
A1
330
7A
100
AcDbEntity
  8
0
100
AcDbLine
 10
-180.0
 20
45.5
 30
0.0
 11
0.0
 21
45.5
 31
0.0
  0
TEXT
  5
A2
330
7A
100
AcDbEntity
  8
0
100
AcDbText
 10
-179.16
 20
49.86
 30
0.0
 40
1.8
  1
PROJECT
  7
ASG-TEXT-SHEET
 11
-179.16
 21
49.86
 31
0.0
100
AcDbText
 73
1
  0
ATTDEF
  5
A3
330
7A
100
AcDbEntity
  8
0
100
AcDbText
 10
-179.16
 20
46.34
 30
0.0
 40
2.5
  1
PROJECT NAME
  7
ASG-TEXT-SHEET
 11
-179.16
 21
46.34
 31
0.0
100
AcDbAttributeDefinition
  3
Project
  2
PROJECT
 70
0
 74
1
 71
1
 72
0
 11
-179.16
 21
46.34
 31
0.0
  0
LINE
  5
A4
330
7A
100
AcDbEntity
  8
0
100
AcDbLine
 10
-90.0
 20
45.5
 30
0.0
 11
-90.0
 21
52.5
 31
0.0
  0
TEXT
  5
A5
330
7A
100
AcDbEntity
  8
0
100
AcDbText
 10
-89.16
 20
49.86
 30
0.0
 40
1.8
  1
LOCATION
  7
ASG-TEXT-SHEET
 11
-89.16
 21
49.86
 31
0.0
100
AcDbText
 73
1
  0
ATTDEF
  5
A6
330
7A
100
AcDbEntity
  8
0
100
AcDbText
 10
-89.16
 20
46.34
 30
0.0
 40
2.5
  1
LOCATION, UAE
  7
ASG-TEXT-SHEET
 11
-89.16
 21
46.34
 31
0.0
100
AcDbAttributeDefinition
  3
Location
  2
LOCATION
 70
0
 74
1
 71
1
 72
0
 11
-89.16
 21
46.34
 31
0.0
  0
LINE
  5
A7
330
7A
100
AcDbEntity
  8
0
100
AcDbLine
 10
-180.0
 20
52.5
 30
0.0
 11
0.0
 21
52.5
 31
0.0
  0
TEXT
  5
A8
330
7A
100
AcDbEntity
  8
0
100
AcDbText
 10
-179.16
 20
58.1
 30
0.0
 40
2.8
  1
SAEED AL SIRAJ GLASS & ALUMINIUM WORKS L.L.C.
  7
ASG-TEXT-HEADING
 11
-179.16
 21
58.1
 31
0.0
100
AcDbText
 73
1
  0
TEXT
  5
A9
330
7A
100
AcDbEntity
  8
0
100
AcDbText
 10
-179.16
 20
53.34
 30
0.0
 40
1.8
  1
AL SIRAJ GROUP  |  ALUMINIUM, GLASS & FACADE DIVISION  |  UNITED ARAB EMIRATES
  7
ASG-TEXT-SHEET
 11
-179.16
 21
53.34
 31
0.0
100
AcDbText
 73
1
  0
LINE
  5
AA
330
7A
100
AcDbEntity
  8
0
100
AcDbLine
 10
-180.0
 20
63.7
 30
0.0
 11
0.0
 21
63.7
 31
0.0
  0
LWPOLYLINE
  5
AB
330
7A
100
AcDbEntity
  8
0
100
AcDbPolyline
 90
4
 70
1
 10
-180.0
 20
0.0
 10
0.0
 20
0.0
 10
0.0
 20
63.7
 10
-180.0
 20
63.7
  0
ENDBLK
  5
7C
330
7A
100
AcDbEntity
  8
0
100
AcDbBlockEnd
  0
BLOCK
  5
AD
330
AC
100
AcDbEntity
  8
0
100
AcDbBlockBegin
  2
ASG-TB-A3
 70
2
 10
0.0
 20
0.0
 30
0.0
  3
ASG-TB-A3
  1

  0
TEXT
  5
AF
330
AC
100
AcDbEntity
  8
0
100
AcDbText
 10
-178.92
 20
10.42
 30
0.0
 40
2.0
  1
DRAWING No.
  7
ASG-TEXT-SHEET
 11
-178.92
 21
10.42
 31
0.0
100
AcDbText
 73
1
  0
ATTDEF
  5
B0
330
AC
100
AcDbEntity
  8
0
100
AcDbText
 10
-178.92
 20
1.08
 30
0.0
 40
3.5
  1
AS-YYYY-NNN-DIS-TYP-001
  7
ASG-TEXT-HEADING
 11
-178.92
 21
1.08
 31
0.0
100
AcDbAttributeDefinition
  3
Drawing number
  2
DWG_NO
 70
0
 74
1
 71
1
 72
0
 11
-178.92
 21
1.08
 31
0.0
  0
LINE
  5
B1
330
AC
100
AcDbEntity
  8
0
100
AcDbLine
 10
-72.0
 20
0.0
 30
0.0
 11
-72.0
 21
13.5
 31
0.0
  0
TEXT
  5
B2
330
AC
100
AcDbEntity
  8
0
100
AcDbText
 10
-70.92
 20
10.42
 30
0.0
 40
2.0
  1
REV
  7
ASG-TEXT-SHEET
 11
-70.92
 21
10.42
 31
0.0
100
AcDbText
 73
1
  0
ATTDEF
  5
B3
330
AC
100
AcDbEntity
  8
0
100
AcDbText
 10
-70.92
 20
1.08
 30
0.0
 40
3.5
  1
R0
  7
ASG-TEXT-HEADING
 11
-70.92
 21
1.08
 31
0.0
100
AcDbAttributeDefinition
  3
Revision
  2
REV
 70
0
 74
1
 71
1
 72
0
 11
-70.92
 21
1.08
 31
0.0
  0
LINE
  5
B4
330
AC
100
AcDbEntity
  8
0
100
AcDbLine
 10
-45.0
 20
0.0
 30
0.0
 11
-45.0
 21
13.5
 31
0.0
  0
TEXT
  5
B5
330
AC
100
AcDbEntity
  8
0
100
AcDbText
 10
-43.92
 20
10.42
 30
0.0
 40
2.0
  1
SHEET No.
  7
ASG-TEXT-SHEET
 11
-43.92
 21
10.42
 31
0.0
100
AcDbText
 73
1
  0
ATTDEF
  5
B6
330
AC
100
AcDbEntity
  8
0
100
AcDbText
 10
-43.92
 20
1.08
 30
0.0
 40
2.5
  1
01 OF 01
  7
ASG-TEXT-SHEET
 11
-43.92
 21
1.08
 31
0.0
100
AcDbAttributeDefinition
  3
Sheet number
  2
SHEET_NO
 70
0
 74
1
 71
1
 72
0
 11
-43.92
 21
1.08
 31
0.0
  0
LINE
  5
B7
330
AC
100
AcDbEntity
  8
0
100
AcDbLine
 10
-180.0
 20
13.5
 30
0.0
 11
0.0
 21
13.5
 31
0.0
  0
TEXT
  5
B8
330
AC
100
AcDbEntity
  8
0
100
AcDbText
 10
-178.92
 20
19.42
 30
0.0
 40
2.0
  1
SCALE
  7
ASG-TEXT-SHEET
 11
-178.92
 21
19.42
 31
0.0
100
AcDbText
 73
1
  0
ATTDEF
  5
B9
330
AC
100
AcDbEntity
  8
0
100
AcDbText
 10
-178.92
 20
14.58
 30
0.0
 40
2.5
  1
AS SHOWN
  7
ASG-TEXT-SHEET
 11
-178.92
 21
14.58
 31
0.0
100
AcDbAttributeDefinition
  3
Scale
  2
SCALE
 70
0
 74
1
 71
1
 72
0
 11
-178.92
 21
14.58
 31
0.0
  0
LINE
  5
BA
330
AC
100
AcDbEntity
  8
0
100
AcDbLine
 10
-120.0
 20
13.5
 30
0.0
 11
-120.0
 21
22.5
 31
0.0
  0
TEXT
  5
BB
330
AC
100
AcDbEntity
  8
0
100
AcDbText
 10
-118.92
 20
19.42
 30
0.0
 40
2.0
  1
DATE
  7
ASG-TEXT-SHEET
 11
-118.92
 21
19.42
 31
0.0
100
AcDbText
 73
1
  0
ATTDEF
  5
BC
330
AC
100
AcDbEntity
  8
0
100
AcDbText
 10
-118.92
 20
14.58
 30
0.0
 40
2.5
  1
DD.MM.YYYY
  7
ASG-TEXT-SHEET
 11
-118.92
 21
14.58
 31
0.0
100
AcDbAttributeDefinition
  3
Date (DD.MM.YYYY)
  2
DATE
 70
0
 74
1
 71
1
 72
0
 11
-118.92
 21
14.58
 31
0.0
  0
LINE
  5
BD
330
AC
100
AcDbEntity
  8
0
100
AcDbLine
 10
-60.0
 20
13.5
 30
0.0
 11
-60.0
 21
22.5
 31
0.0
  0
TEXT
  5
BE
330
AC
100
AcDbEntity
  8
0
100
AcDbText
 10
-58.92
 20
19.42
 30
0.0
 40
2.0
  1
DRAWING STATUS
  7
ASG-TEXT-SHEET
 11
-58.92
 21
19.42
 31
0.0
100
AcDbText
 73
1
  0
ATTDEF
  5
BF
330
AC
100
AcDbEntity
  8
0
100
AcDbText
 10
-58.92
 20
14.58
 30
0.0
 40
2.5
  1
PRELIMINARY
  7
ASG-TEXT-SHEET
 11
-58.92
 21
14.58
 31
0.0
100
AcDbAttributeDefinition
  3
Drawing status
  2
DWG_STATUS
 70
0
 74
1
 71
1
 72
0
 11
-58.92
 21
14.58
 31
0.0
  0
LINE
  5
C0
330
AC
100
AcDbEntity
  8
0
100
AcDbLine
 10
-180.0
 20
22.5
 30
0.0
 11
0.0
 21
22.5
 31
0.0
  0
TEXT
  5
C1
330
AC
100
AcDbEntity
  8
0
100
AcDbText
 10
-178.92
 20
28.42
 30
0.0
 40
2.0
  1
DRAWN BY
  7
ASG-TEXT-SHEET
 11
-178.92
 21
28.42
 31
0.0
100
AcDbText
 73
1
  0
ATTDEF
  5
C2
330
AC
100
AcDbEntity
  8
0
100
AcDbText
 10
-178.92
 20
23.58
 30
0.0
 40
2.5
  1
-
  7
ASG-TEXT-SHEET
 11
-178.92
 21
23.58
 31
0.0
100
AcDbAttributeDefinition
  3
Drawn by
  2
DRAWN_BY
 70
0
 74
1
 71
1
 72
0
 11
-178.92
 21
23.58
 31
0.0
  0
LINE
  5
C3
330
AC
100
AcDbEntity
  8
0
100
AcDbLine
 10
-120.0
 20
22.5
 30
0.0
 11
-120.0
 21
31.5
 31
0.0
  0
TEXT
  5
C4
330
AC
100
AcDbEntity
  8
0
100
AcDbText
 10
-118.92
 20
28.42
 30
0.0
 40
2.0
  1
CHECKED BY
  7
ASG-TEXT-SHEET
 11
-118.92
 21
28.42
 31
0.0
100
AcDbText
 73
1
  0
ATTDEF
  5
C5
330
AC
100
AcDbEntity
  8
0
100
AcDbText
 10
-118.92
 20
23.58
 30
0.0
 40
2.5
  1
-
  7
ASG-TEXT-SHEET
 11
-118.92
 21
23.58
 31
0.0
100
AcDbAttributeDefinition
  3
Checked by
  2
CHECKED_BY
 70
0
 74
1
 71
1
 72
0
 11
-118.92
 21
23.58
 31
0.0
  0
LINE
  5
C6
330
AC
100
AcDbEntity
  8
0
100
AcDbLine
 10
-60.0
 20
22.5
 30
0.0
 11
-60.0
 21
31.5
 31
0.0
  0
TEXT
  5
C7
330
AC
100
AcDbEntity
  8
0
100
AcDbText
 10
-58.92
 20
28.42
 30
0.0
 40
2.0
  1
APPROVED BY
  7
ASG-TEXT-SHEET
 11
-58.92
 21
28.42
 31
0.0
100
AcDbText
 73
1
  0
ATTDEF
  5
C8
330
AC
100
AcDbEntity
  8
0
100
AcDbText
 10
-58.92
 20
23.58
 30
0.0
 40
2.5
  1
-
  7
ASG-TEXT-SHEET
 11
-58.92
 21
23.58
 31
0.0
100
AcDbAttributeDefinition
  3
Approved by
  2
APPROVED_BY
 70
0
 74
1
 71
1
 72
0
 11
-58.92
 21
23.58
 31
0.0
  0
LINE
  5
C9
330
AC
100
AcDbEntity
  8
0
100
AcDbLine
 10
-180.0
 20
31.5
 30
0.0
 11
0.0
 21
31.5
 31
0.0
  0
TEXT
  5
CA
330
AC
100
AcDbEntity
  8
0
100
AcDbText
 10
-178.92
 20
46.42
 30
0.0
 40
2.0
  1
DRAWING TITLE
  7
ASG-TEXT-SHEET
 11
-178.92
 21
46.42
 31
0.0
100
AcDbText
 73
1
  0
ATTDEF
  5
CB
330
AC
100
AcDbEntity
  8
0
100
AcDbText
 10
-178.92
 20
38.7
 30
0.0
 40
5.0
  1
DRAWING TITLE
  7
ASG-TEXT-HEADING
 11
-178.92
 21
38.7
 31
0.0
100
AcDbAttributeDefinition
  3
Drawing title
  2
DWG_TITLE
 70
0
 74
1
 71
1
 72
0
 11
-178.92
 21
38.7
 31
0.0
  0
ATTDEF
  5
CC
330
AC
100
AcDbEntity
  8
0
100
AcDbText
 10
-178.92
 20
32.58
 30
0.0
 40
2.5
  1

  7
ASG-TEXT-TITLE
 11
-178.92
 21
32.58
 31
0.0
100
AcDbAttributeDefinition
  3
Drawing title - second line (optional)
  2
DWG_TITLE_2
 70
0
 74
1
 71
1
 72
0
 11
-178.92
 21
32.58
 31
0.0
  0
LINE
  5
CD
330
AC
100
AcDbEntity
  8
0
100
AcDbLine
 10
-180.0
 20
49.5
 30
0.0
 11
0.0
 21
49.5
 31
0.0
  0
TEXT
  5
CE
330
AC
100
AcDbEntity
  8
0
100
AcDbText
 10
-178.92
 20
55.42
 30
0.0
 40
2.0
  1
CLIENT
  7
ASG-TEXT-SHEET
 11
-178.92
 21
55.42
 31
0.0
100
AcDbText
 73
1
  0
ATTDEF
  5
CF
330
AC
100
AcDbEntity
  8
0
100
AcDbText
 10
-178.92
 20
50.58
 30
0.0
 40
2.5
  1
CLIENT
  7
ASG-TEXT-SHEET
 11
-178.92
 21
50.58
 31
0.0
100
AcDbAttributeDefinition
  3
Client
  2
CLIENT
 70
0
 74
1
 71
1
 72
0
 11
-178.92
 21
50.58
 31
0.0
  0
LINE
  5
D0
330
AC
100
AcDbEntity
  8
0
100
AcDbLine
 10
-90.0
 20
49.5
 30
0.0
 11
-90.0
 21
58.5
 31
0.0
  0
TEXT
  5
D1
330
AC
100
AcDbEntity
  8
0
100
AcDbText
 10
-88.92
 20
55.42
 30
0.0
 40
2.0
  1
CONSULTANT
  7
ASG-TEXT-SHEET
 11
-88.92
 21
55.42
 31
0.0
100
AcDbText
 73
1
  0
ATTDEF
  5
D2
330
AC
100
AcDbEntity
  8
0
100
AcDbText
 10
-88.92
 20
50.58
 30
0.0
 40
2.5
  1
CONSULTANT
  7
ASG-TEXT-SHEET
 11
-88.92
 21
50.58
 31
0.0
100
AcDbAttributeDefinition
  3
Consultant
  2
CONSULTANT
 70
0
 74
1
 71
1
 72
0
 11
-88.92
 21
50.58
 31
0.0
  0
LINE
  5
D3
330
AC
100
AcDbEntity
  8
0
100
AcDbLine
 10
-180.0
 20
58.5
 30
0.0
 11
0.0
 21
58.5
 31
0.0
  0
TEXT
  5
D4
330
AC
100
AcDbEntity
  8
0
100
AcDbText
 10
-178.92
 20
64.42
 30
0.0
 40
2.0
  1
PROJECT
  7
ASG-TEXT-SHEET
 11
-178.92
 21
64.42
 31
0.0
100
AcDbText
 73
1
  0
ATTDEF
  5
D5
330
AC
100
AcDbEntity
  8
0
100
AcDbText
 10
-178.92
 20
59.58
 30
0.0
 40
2.5
  1
PROJECT NAME
  7
ASG-TEXT-SHEET
 11
-178.92
 21
59.58
 31
0.0
100
AcDbAttributeDefinition
  3
Project
  2
PROJECT
 70
0
 74
1
 71
1
 72
0
 11
-178.92
 21
59.58
 31
0.0
  0
LINE
  5
D6
330
AC
100
AcDbEntity
  8
0
100
AcDbLine
 10
-90.0
 20
58.5
 30
0.0
 11
-90.0
 21
67.5
 31
0.0
  0
TEXT
  5
D7
330
AC
100
AcDbEntity
  8
0
100
AcDbText
 10
-88.92
 20
64.42
 30
0.0
 40
2.0
  1
LOCATION
  7
ASG-TEXT-SHEET
 11
-88.92
 21
64.42
 31
0.0
100
AcDbText
 73
1
  0
ATTDEF
  5
D8
330
AC
100
AcDbEntity
  8
0
100
AcDbText
 10
-88.92
 20
59.58
 30
0.0
 40
2.5
  1
LOCATION, UAE
  7
ASG-TEXT-SHEET
 11
-88.92
 21
59.58
 31
0.0
100
AcDbAttributeDefinition
  3
Location
  2
LOCATION
 70
0
 74
1
 71
1
 72
0
 11
-88.92
 21
59.58
 31
0.0
  0
LINE
  5
D9
330
AC
100
AcDbEntity
  8
0
100
AcDbLine
 10
-180.0
 20
67.5
 30
0.0
 11
0.0
 21
67.5
 31
0.0
  0
TEXT
  5
DA
330
AC
100
AcDbEntity
  8
0
100
AcDbText
 10
-178.92
 20
74.7
 30
0.0
 40
3.5
  1
SAEED AL SIRAJ GLASS & ALUMINIUM WORKS L.L.C.
  7
ASG-TEXT-HEADING
 11
-178.92
 21
74.7
 31
0.0
100
AcDbText
 73
1
  0
TEXT
  5
DB
330
AC
100
AcDbEntity
  8
0
100
AcDbText
 10
-178.92
 20
68.58
 30
0.0
 40
2.0
  1
AL SIRAJ GROUP  |  ALUMINIUM, GLASS & FACADE DIVISION  |  UNITED ARAB EMIRATES
  7
ASG-TEXT-SHEET
 11
-178.92
 21
68.58
 31
0.0
100
AcDbText
 73
1
  0
LINE
  5
DC
330
AC
100
AcDbEntity
  8
0
100
AcDbLine
 10
-180.0
 20
81.9
 30
0.0
 11
0.0
 21
81.9
 31
0.0
  0
LWPOLYLINE
  5
DD
330
AC
100
AcDbEntity
  8
0
100
AcDbPolyline
 90
4
 70
1
 10
-180.0
 20
0.0
 10
0.0
 20
0.0
 10
0.0
 20
81.9
 10
-180.0
 20
81.9
  0
ENDBLK
  5
AE
330
AC
100
AcDbEntity
  8
0
100
AcDbBlockEnd
  0
BLOCK
  5
DF
330
DE
100
AcDbEntity
  8
0
100
AcDbBlockBegin
  2
ASG-TB-A1
 70
2
 10
0.0
 20
0.0
 30
0.0
  3
ASG-TB-A1
  1

  0
TEXT
  5
E1
330
DE
100
AcDbEntity
  8
0
100
AcDbText
 10
-248.56
 20
14.059999999999999
 30
0.0
 40
2.5
  1
DRAWING No.
  7
ASG-TEXT-SHEET
 11
-248.56
 21
14.059999999999999
 31
0.0
100
AcDbText
 73
1
  0
ATTDEF
  5
E2
330
DE
100
AcDbEntity
  8
0
100
AcDbText
 10
-248.56
 20
1.44
 30
0.0
 40
5.0
  1
AS-YYYY-NNN-DIS-TYP-001
  7
ASG-TEXT-HEADING
 11
-248.56
 21
1.44
 31
0.0
100
AcDbAttributeDefinition
  3
Drawing number
  2
DWG_NO
 70
0
 74
1
 71
1
 72
0
 11
-248.56
 21
1.44
 31
0.0
  0
LINE
  5
E3
330
DE
100
AcDbEntity
  8
0
100
AcDbLine
 10
-100.0
 20
0.0
 30
0.0
 11
-100.0
 21
18.0
 31
0.0
  0
TEXT
  5
E4
330
DE
100
AcDbEntity
  8
0
100
AcDbText
 10
-98.56
 20
14.059999999999999
 30
0.0
 40
2.5
  1
REV
  7
ASG-TEXT-SHEET
 11
-98.56
 21
14.059999999999999
 31
0.0
100
AcDbText
 73
1
  0
ATTDEF
  5
E5
330
DE
100
AcDbEntity
  8
0
100
AcDbText
 10
-98.56
 20
1.44
 30
0.0
 40
5.0
  1
R0
  7
ASG-TEXT-HEADING
 11
-98.56
 21
1.44
 31
0.0
100
AcDbAttributeDefinition
  3
Revision
  2
REV
 70
0
 74
1
 71
1
 72
0
 11
-98.56
 21
1.44
 31
0.0
  0
LINE
  5
E6
330
DE
100
AcDbEntity
  8
0
100
AcDbLine
 10
-62.5
 20
0.0
 30
0.0
 11
-62.5
 21
18.0
 31
0.0
  0
TEXT
  5
E7
330
DE
100
AcDbEntity
  8
0
100
AcDbText
 10
-61.06
 20
14.059999999999999
 30
0.0
 40
2.5
  1
SHEET No.
  7
ASG-TEXT-SHEET
 11
-61.06
 21
14.059999999999999
 31
0.0
100
AcDbText
 73
1
  0
ATTDEF
  5
E8
330
DE
100
AcDbEntity
  8
0
100
AcDbText
 10
-61.06
 20
1.44
 30
0.0
 40
3.5
  1
01 OF 01
  7
ASG-TEXT-SHEET
 11
-61.06
 21
1.44
 31
0.0
100
AcDbAttributeDefinition
  3
Sheet number
  2
SHEET_NO
 70
0
 74
1
 71
1
 72
0
 11
-61.06
 21
1.44
 31
0.0
  0
LINE
  5
E9
330
DE
100
AcDbEntity
  8
0
100
AcDbLine
 10
-250.0
 20
18.0
 30
0.0
 11
0.0
 21
18.0
 31
0.0
  0
TEXT
  5
EA
330
DE
100
AcDbEntity
  8
0
100
AcDbText
 10
-248.56
 20
26.06
 30
0.0
 40
2.5
  1
SCALE
  7
ASG-TEXT-SHEET
 11
-248.56
 21
26.06
 31
0.0
100
AcDbText
 73
1
  0
ATTDEF
  5
EB
330
DE
100
AcDbEntity
  8
0
100
AcDbText
 10
-248.56
 20
19.44
 30
0.0
 40
3.5
  1
AS SHOWN
  7
ASG-TEXT-SHEET
 11
-248.56
 21
19.44
 31
0.0
100
AcDbAttributeDefinition
  3
Scale
  2
SCALE
 70
0
 74
1
 71
1
 72
0
 11
-248.56
 21
19.44
 31
0.0
  0
LINE
  5
EC
330
DE
100
AcDbEntity
  8
0
100
AcDbLine
 10
-166.66666666666669
 20
18.0
 30
0.0
 11
-166.66666666666669
 21
30.0
 31
0.0
  0
TEXT
  5
ED
330
DE
100
AcDbEntity
  8
0
100
AcDbText
 10
-165.2266666666667
 20
26.06
 30
0.0
 40
2.5
  1
DATE
  7
ASG-TEXT-SHEET
 11
-165.2266666666667
 21
26.06
 31
0.0
100
AcDbText
 73
1
  0
ATTDEF
  5
EE
330
DE
100
AcDbEntity
  8
0
100
AcDbText
 10
-165.2266666666667
 20
19.44
 30
0.0
 40
3.5
  1
DD.MM.YYYY
  7
ASG-TEXT-SHEET
 11
-165.2266666666667
 21
19.44
 31
0.0
100
AcDbAttributeDefinition
  3
Date (DD.MM.YYYY)
  2
DATE
 70
0
 74
1
 71
1
 72
0
 11
-165.2266666666667
 21
19.44
 31
0.0
  0
LINE
  5
EF
330
DE
100
AcDbEntity
  8
0
100
AcDbLine
 10
-83.33333333333336
 20
18.0
 30
0.0
 11
-83.33333333333336
 21
30.0
 31
0.0
  0
TEXT
  5
F0
330
DE
100
AcDbEntity
  8
0
100
AcDbText
 10
-81.89333333333336
 20
26.06
 30
0.0
 40
2.5
  1
DRAWING STATUS
  7
ASG-TEXT-SHEET
 11
-81.89333333333336
 21
26.06
 31
0.0
100
AcDbText
 73
1
  0
ATTDEF
  5
F1
330
DE
100
AcDbEntity
  8
0
100
AcDbText
 10
-81.89333333333336
 20
19.44
 30
0.0
 40
3.5
  1
PRELIMINARY
  7
ASG-TEXT-SHEET
 11
-81.89333333333336
 21
19.44
 31
0.0
100
AcDbAttributeDefinition
  3
Drawing status
  2
DWG_STATUS
 70
0
 74
1
 71
1
 72
0
 11
-81.89333333333336
 21
19.44
 31
0.0
  0
LINE
  5
F2
330
DE
100
AcDbEntity
  8
0
100
AcDbLine
 10
-250.0
 20
30.0
 30
0.0
 11
0.0
 21
30.0
 31
0.0
  0
TEXT
  5
F3
330
DE
100
AcDbEntity
  8
0
100
AcDbText
 10
-248.56
 20
38.06
 30
0.0
 40
2.5
  1
DRAWN BY
  7
ASG-TEXT-SHEET
 11
-248.56
 21
38.06
 31
0.0
100
AcDbText
 73
1
  0
ATTDEF
  5
F4
330
DE
100
AcDbEntity
  8
0
100
AcDbText
 10
-248.56
 20
31.44
 30
0.0
 40
3.5
  1
-
  7
ASG-TEXT-SHEET
 11
-248.56
 21
31.44
 31
0.0
100
AcDbAttributeDefinition
  3
Drawn by
  2
DRAWN_BY
 70
0
 74
1
 71
1
 72
0
 11
-248.56
 21
31.44
 31
0.0
  0
LINE
  5
F5
330
DE
100
AcDbEntity
  8
0
100
AcDbLine
 10
-166.66666666666669
 20
30.0
 30
0.0
 11
-166.66666666666669
 21
42.0
 31
0.0
  0
TEXT
  5
F6
330
DE
100
AcDbEntity
  8
0
100
AcDbText
 10
-165.2266666666667
 20
38.06
 30
0.0
 40
2.5
  1
CHECKED BY
  7
ASG-TEXT-SHEET
 11
-165.2266666666667
 21
38.06
 31
0.0
100
AcDbText
 73
1
  0
ATTDEF
  5
F7
330
DE
100
AcDbEntity
  8
0
100
AcDbText
 10
-165.2266666666667
 20
31.44
 30
0.0
 40
3.5
  1
-
  7
ASG-TEXT-SHEET
 11
-165.2266666666667
 21
31.44
 31
0.0
100
AcDbAttributeDefinition
  3
Checked by
  2
CHECKED_BY
 70
0
 74
1
 71
1
 72
0
 11
-165.2266666666667
 21
31.44
 31
0.0
  0
LINE
  5
F8
330
DE
100
AcDbEntity
  8
0
100
AcDbLine
 10
-83.33333333333336
 20
30.0
 30
0.0
 11
-83.33333333333336
 21
42.0
 31
0.0
  0
TEXT
  5
F9
330
DE
100
AcDbEntity
  8
0
100
AcDbText
 10
-81.89333333333336
 20
38.06
 30
0.0
 40
2.5
  1
APPROVED BY
  7
ASG-TEXT-SHEET
 11
-81.89333333333336
 21
38.06
 31
0.0
100
AcDbText
 73
1
  0
ATTDEF
  5
FA
330
DE
100
AcDbEntity
  8
0
100
AcDbText
 10
-81.89333333333336
 20
31.44
 30
0.0
 40
3.5
  1
-
  7
ASG-TEXT-SHEET
 11
-81.89333333333336
 21
31.44
 31
0.0
100
AcDbAttributeDefinition
  3
Approved by
  2
APPROVED_BY
 70
0
 74
1
 71
1
 72
0
 11
-81.89333333333336
 21
31.44
 31
0.0
  0
LINE
  5
FB
330
DE
100
AcDbEntity
  8
0
100
AcDbLine
 10
-250.0
 20
42.0
 30
0.0
 11
0.0
 21
42.0
 31
0.0
  0
TEXT
  5
FC
330
DE
100
AcDbEntity
  8
0
100
AcDbText
 10
-248.56
 20
62.06
 30
0.0
 40
2.5
  1
DRAWING TITLE
  7
ASG-TEXT-SHEET
 11
-248.56
 21
62.06
 31
0.0
100
AcDbText
 73
1
  0
ATTDEF
  5
FD
330
DE
100
AcDbEntity
  8
0
100
AcDbText
 10
-248.56
 20
51.6
 30
0.0
 40
7.0
  1
DRAWING TITLE
  7
ASG-TEXT-HEADING
 11
-248.56
 21
51.6
 31
0.0
100
AcDbAttributeDefinition
  3
Drawing title
  2
DWG_TITLE
 70
0
 74
1
 71
1
 72
0
 11
-248.56
 21
51.6
 31
0.0
  0
ATTDEF
  5
FE
330
DE
100
AcDbEntity
  8
0
100
AcDbText
 10
-248.56
 20
43.44
 30
0.0
 40
3.5
  1

  7
ASG-TEXT-TITLE
 11
-248.56
 21
43.44
 31
0.0
100
AcDbAttributeDefinition
  3
Drawing title - second line (optional)
  2
DWG_TITLE_2
 70
0
 74
1
 71
1
 72
0
 11
-248.56
 21
43.44
 31
0.0
  0
LINE
  5
FF
330
DE
100
AcDbEntity
  8
0
100
AcDbLine
 10
-250.0
 20
66.0
 30
0.0
 11
0.0
 21
66.0
 31
0.0
  0
TEXT
  5
100
330
DE
100
AcDbEntity
  8
0
100
AcDbText
 10
-248.56
 20
74.06
 30
0.0
 40
2.5
  1
CLIENT
  7
ASG-TEXT-SHEET
 11
-248.56
 21
74.06
 31
0.0
100
AcDbText
 73
1
  0
ATTDEF
  5
101
330
DE
100
AcDbEntity
  8
0
100
AcDbText
 10
-248.56
 20
67.44
 30
0.0
 40
3.5
  1
CLIENT
  7
ASG-TEXT-SHEET
 11
-248.56
 21
67.44
 31
0.0
100
AcDbAttributeDefinition
  3
Client
  2
CLIENT
 70
0
 74
1
 71
1
 72
0
 11
-248.56
 21
67.44
 31
0.0
  0
LINE
  5
102
330
DE
100
AcDbEntity
  8
0
100
AcDbLine
 10
-125.0
 20
66.0
 30
0.0
 11
-125.0
 21
78.0
 31
0.0
  0
TEXT
  5
103
330
DE
100
AcDbEntity
  8
0
100
AcDbText
 10
-123.56
 20
74.06
 30
0.0
 40
2.5
  1
CONSULTANT
  7
ASG-TEXT-SHEET
 11
-123.56
 21
74.06
 31
0.0
100
AcDbText
 73
1
  0
ATTDEF
  5
104
330
DE
100
AcDbEntity
  8
0
100
AcDbText
 10
-123.56
 20
67.44
 30
0.0
 40
3.5
  1
CONSULTANT
  7
ASG-TEXT-SHEET
 11
-123.56
 21
67.44
 31
0.0
100
AcDbAttributeDefinition
  3
Consultant
  2
CONSULTANT
 70
0
 74
1
 71
1
 72
0
 11
-123.56
 21
67.44
 31
0.0
  0
LINE
  5
105
330
DE
100
AcDbEntity
  8
0
100
AcDbLine
 10
-250.0
 20
78.0
 30
0.0
 11
0.0
 21
78.0
 31
0.0
  0
TEXT
  5
106
330
DE
100
AcDbEntity
  8
0
100
AcDbText
 10
-248.56
 20
86.06
 30
0.0
 40
2.5
  1
PROJECT
  7
ASG-TEXT-SHEET
 11
-248.56
 21
86.06
 31
0.0
100
AcDbText
 73
1
  0
ATTDEF
  5
107
330
DE
100
AcDbEntity
  8
0
100
AcDbText
 10
-248.56
 20
79.44
 30
0.0
 40
3.5
  1
PROJECT NAME
  7
ASG-TEXT-SHEET
 11
-248.56
 21
79.44
 31
0.0
100
AcDbAttributeDefinition
  3
Project
  2
PROJECT
 70
0
 74
1
 71
1
 72
0
 11
-248.56
 21
79.44
 31
0.0
  0
LINE
  5
108
330
DE
100
AcDbEntity
  8
0
100
AcDbLine
 10
-125.0
 20
78.0
 30
0.0
 11
-125.0
 21
90.0
 31
0.0
  0
TEXT
  5
109
330
DE
100
AcDbEntity
  8
0
100
AcDbText
 10
-123.56
 20
86.06
 30
0.0
 40
2.5
  1
LOCATION
  7
ASG-TEXT-SHEET
 11
-123.56
 21
86.06
 31
0.0
100
AcDbText
 73
1
  0
ATTDEF
  5
10A
330
DE
100
AcDbEntity
  8
0
100
AcDbText
 10
-123.56
 20
79.44
 30
0.0
 40
3.5
  1
LOCATION, UAE
  7
ASG-TEXT-SHEET
 11
-123.56
 21
79.44
 31
0.0
100
AcDbAttributeDefinition
  3
Location
  2
LOCATION
 70
0
 74
1
 71
1
 72
0
 11
-123.56
 21
79.44
 31
0.0
  0
LINE
  5
10B
330
DE
100
AcDbEntity
  8
0
100
AcDbLine
 10
-250.0
 20
90.0
 30
0.0
 11
0.0
 21
90.0
 31
0.0
  0
TEXT
  5
10C
330
DE
100
AcDbEntity
  8
0
100
AcDbText
 10
-248.56
 20
99.6
 30
0.0
 40
5.0
  1
SAEED AL SIRAJ GLASS & ALUMINIUM WORKS L.L.C.
  7
ASG-TEXT-HEADING
 11
-248.56
 21
99.6
 31
0.0
100
AcDbText
 73
1
  0
TEXT
  5
10D
330
DE
100
AcDbEntity
  8
0
100
AcDbText
 10
-248.56
 20
91.44
 30
0.0
 40
2.5
  1
AL SIRAJ GROUP  |  ALUMINIUM, GLASS & FACADE DIVISION  |  UNITED ARAB EMIRATES
  7
ASG-TEXT-SHEET
 11
-248.56
 21
91.44
 31
0.0
100
AcDbText
 73
1
  0
LINE
  5
10E
330
DE
100
AcDbEntity
  8
0
100
AcDbLine
 10
-250.0
 20
109.2
 30
0.0
 11
0.0
 21
109.2
 31
0.0
  0
LWPOLYLINE
  5
10F
330
DE
100
AcDbEntity
  8
0
100
AcDbPolyline
 90
4
 70
1
 10
-250.0
 20
0.0
 10
0.0
 20
0.0
 10
0.0
 20
109.2
 10
-250.0
 20
109.2
  0
ENDBLK
  5
E0
330
DE
100
AcDbEntity
  8
0
100
AcDbBlockEnd
  0
BLOCK
  5
129
330
128
100
AcDbEntity
  8
0
100
AcDbBlockBegin
  2
*Paper_Space1
 70
0
 10
0.0
 20
0.0
 30
0.0
  3
*Paper_Space1
  1

  0
VIEWPORT
  5
12C
330
128
100
AcDbEntity
 67
1
  8
VIEWPORTS
100
AcDbViewport
 10
105.0
 20
148.5
 30
0.0
 40
231.00000000000003
 41
326.70000000000005
 68
1
 69
1
 12
105.0
 22
148.5
 13
0.0
 23
0.0
 14
10.0
 24
10.0
 15
10.0
 25
10.0
 16
0.0
 26
0.0
 36
1.0
 17
0.0
 27
0.0
 37
0.0
 42
50.0
 43
0.0
 44
0.0
 45
326.70000000000005
 50
0.0
 51
0.0
 72
100
 90
557088
  1

281
0
 71
0
 74
0
110
0.0
120
0.0
130
0.0
111
1.0
121
0.0
131
0.0
112
0.0
122
1.0
132
0.0
 79
0
146
0.0
282
0
  0
LWPOLYLINE
  5
12D
330
128
100
AcDbEntity
 67
1
  8
ASG-BORDER
100
AcDbPolyline
 90
4
 70
1
 10
20.0
 20
10.0
 10
200.0
 20
10.0
 10
200.0
 20
287.0
 10
20.0
 20
287.0
  0
INSERT
  5
12E
330
128
100
AcDbEntity
 67
1
  8
ASG-TITLEBLOCK
100
AcDbBlockReference
 66
1
  2
ASG-TB-A4
 10
200.0
 20
10.0
 30
0.0
  0
ATTRIB
  5
130
330
128
100
AcDbEntity
 67
1
  8
0
100
AcDbText
 10
20.840000000000003
 20
10.84
 30
0.0
 40
3.5
  1
AS-YYYY-NNN-DIS-TYP-001
  7
ASG-TEXT-HEADING
 11
20.840000000000003
 21
10.84
 31
0.0
100
AcDbAttribute
  2
DWG_NO
 70
0
 74
1
 71
1
 72
0
 11
20.840000000000003
 21
10.84
 31
0.0
  0
ATTRIB
  5
131
330
128
100
AcDbEntity
 67
1
  8
0
100
AcDbText
 10
128.84
 20
10.84
 30
0.0
 40
3.5
  1
R0
  7
ASG-TEXT-HEADING
 11
128.84
 21
10.84
 31
0.0
100
AcDbAttribute
  2
REV
 70
0
 74
1
 71
1
 72
0
 11
128.84
 21
10.84
 31
0.0
  0
ATTRIB
  5
132
330
128
100
AcDbEntity
 67
1
  8
0
100
AcDbText
 10
155.84
 20
10.84
 30
0.0
 40
2.5
  1
01 OF 01
  7
ASG-TEXT-SHEET
 11
155.84
 21
10.84
 31
0.0
100
AcDbAttribute
  2
SHEET_NO
 70
0
 74
1
 71
1
 72
0
 11
155.84
 21
10.84
 31
0.0
  0
ATTRIB
  5
133
330
128
100
AcDbEntity
 67
1
  8
0
100
AcDbText
 10
20.840000000000003
 20
21.34
 30
0.0
 40
2.5
  1
AS SHOWN
  7
ASG-TEXT-SHEET
 11
20.840000000000003
 21
21.34
 31
0.0
100
AcDbAttribute
  2
SCALE
 70
0
 74
1
 71
1
 72
0
 11
20.840000000000003
 21
21.34
 31
0.0
  0
ATTRIB
  5
134
330
128
100
AcDbEntity
 67
1
  8
0
100
AcDbText
 10
80.84
 20
21.34
 30
0.0
 40
2.5
  1
DD.MM.YYYY
  7
ASG-TEXT-SHEET
 11
80.84
 21
21.34
 31
0.0
100
AcDbAttribute
  2
DATE
 70
0
 74
1
 71
1
 72
0
 11
80.84
 21
21.34
 31
0.0
  0
ATTRIB
  5
135
330
128
100
AcDbEntity
 67
1
  8
0
100
AcDbText
 10
140.84
 20
21.34
 30
0.0
 40
2.5
  1
PRELIMINARY
  7
ASG-TEXT-SHEET
 11
140.84
 21
21.34
 31
0.0
100
AcDbAttribute
  2
DWG_STATUS
 70
0
 74
1
 71
1
 72
0
 11
140.84
 21
21.34
 31
0.0
  0
ATTRIB
  5
136
330
128
100
AcDbEntity
 67
1
  8
0
100
AcDbText
 10
20.840000000000003
 20
28.34
 30
0.0
 40
2.5
  1
-
  7
ASG-TEXT-SHEET
 11
20.840000000000003
 21
28.34
 31
0.0
100
AcDbAttribute
  2
DRAWN_BY
 70
0
 74
1
 71
1
 72
0
 11
20.840000000000003
 21
28.34
 31
0.0
  0
ATTRIB
  5
137
330
128
100
AcDbEntity
 67
1
  8
0
100
AcDbText
 10
80.84
 20
28.34
 30
0.0
 40
2.5
  1
-
  7
ASG-TEXT-SHEET
 11
80.84
 21
28.34
 31
0.0
100
AcDbAttribute
  2
CHECKED_BY
 70
0
 74
1
 71
1
 72
0
 11
80.84
 21
28.34
 31
0.0
  0
ATTRIB
  5
138
330
128
100
AcDbEntity
 67
1
  8
0
100
AcDbText
 10
140.84
 20
28.34
 30
0.0
 40
2.5
  1
-
  7
ASG-TEXT-SHEET
 11
140.84
 21
28.34
 31
0.0
100
AcDbAttribute
  2
APPROVED_BY
 70
0
 74
1
 71
1
 72
0
 11
140.84
 21
28.34
 31
0.0
  0
ATTRIB
  5
139
330
128
100
AcDbEntity
 67
1
  8
0
100
AcDbText
 10
20.840000000000003
 20
40.1
 30
0.0
 40
3.5
  1
DRAWING TITLE
  7
ASG-TEXT-HEADING
 11
20.840000000000003
 21
40.1
 31
0.0
100
AcDbAttribute
  2
DWG_TITLE
 70
0
 74
1
 71
1
 72
0
 11
20.840000000000003
 21
40.1
 31
0.0
  0
ATTRIB
  5
13A
330
128
100
AcDbEntity
 67
1
  8
0
100
AcDbText
 10
20.840000000000003
 20
35.34
 30
0.0
 40
2.5
  1

  7
ASG-TEXT-TITLE
 11
20.840000000000003
 21
35.34
 31
0.0
100
AcDbAttribute
  2
DWG_TITLE_2
 70
0
 74
1
 71
1
 72
0
 11
20.840000000000003
 21
35.34
 31
0.0
  0
ATTRIB
  5
13B
330
128
100
AcDbEntity
 67
1
  8
0
100
AcDbText
 10
20.840000000000003
 20
49.34
 30
0.0
 40
2.5
  1
CLIENT
  7
ASG-TEXT-SHEET
 11
20.840000000000003
 21
49.34
 31
0.0
100
AcDbAttribute
  2
CLIENT
 70
0
 74
1
 71
1
 72
0
 11
20.840000000000003
 21
49.34
 31
0.0
  0
ATTRIB
  5
13C
330
128
100
AcDbEntity
 67
1
  8
0
100
AcDbText
 10
110.84
 20
49.34
 30
0.0
 40
2.5
  1
CONSULTANT
  7
ASG-TEXT-SHEET
 11
110.84
 21
49.34
 31
0.0
100
AcDbAttribute
  2
CONSULTANT
 70
0
 74
1
 71
1
 72
0
 11
110.84
 21
49.34
 31
0.0
  0
ATTRIB
  5
13D
330
128
100
AcDbEntity
 67
1
  8
0
100
AcDbText
 10
20.840000000000003
 20
56.34
 30
0.0
 40
2.5
  1
PROJECT NAME
  7
ASG-TEXT-SHEET
 11
20.840000000000003
 21
56.34
 31
0.0
100
AcDbAttribute
  2
PROJECT
 70
0
 74
1
 71
1
 72
0
 11
20.840000000000003
 21
56.34
 31
0.0
  0
ATTRIB
  5
13E
330
128
100
AcDbEntity
 67
1
  8
0
100
AcDbText
 10
110.84
 20
56.34
 30
0.0
 40
2.5
  1
LOCATION, UAE
  7
ASG-TEXT-SHEET
 11
110.84
 21
56.34
 31
0.0
100
AcDbAttribute
  2
LOCATION
 70
0
 74
1
 71
1
 72
0
 11
110.84
 21
56.34
 31
0.0
  0
SEQEND
  5
12F
330
12E
100
AcDbEntity
 67
1
  8
ASG-TITLEBLOCK
  0
VIEWPORT
  5
13F
330
128
100
AcDbEntity
 67
1
  8
ASG-VIEWPORT
100
AcDbViewport
 10
110.0
 20
180.35
 30
0.0
 40
170.0
 41
203.3
 68
2
 69
3
 12
850.0
 22
1016.5
 13
0.0
 23
0.0
 14
10.0
 24
10.0
 15
10.0
 25
10.0
 16
0.0
 26
0.0
 36
1.0
 17
0.0
 27
0.0
 37
0.0
 42
50.0
 43
0.0
 44
0.0
 45
2033.0
 50
0.0
 51
0.0
 72
100
 90
16384
  1

281
0
 71
0
 74
0
110
0.0
120
0.0
130
0.0
111
1.0
121
0.0
131
0.0
112
0.0
122
1.0
132
0.0
 79
0
146
0.0
282
0
  0
ENDBLK
  5
12A
330
128
100
AcDbEntity
  8
0
100
AcDbBlockEnd
  0
BLOCK
  5
141
330
140
100
AcDbEntity
  8
0
100
AcDbBlockBegin
  2
*Paper_Space2
 70
0
 10
0.0
 20
0.0
 30
0.0
  3
*Paper_Space2
  1

  0
VIEWPORT
  5
144
330
140
100
AcDbEntity
 67
1
  8
VIEWPORTS
100
AcDbViewport
 10
210.0
 20
148.5
 30
0.0
 40
462.00000000000006
 41
326.70000000000005
 68
1
 69
1
 12
210.0
 22
148.5
 13
0.0
 23
0.0
 14
10.0
 24
10.0
 15
10.0
 25
10.0
 16
0.0
 26
0.0
 36
1.0
 17
0.0
 27
0.0
 37
0.0
 42
50.0
 43
0.0
 44
0.0
 45
326.70000000000005
 50
0.0
 51
0.0
 72
100
 90
557088
  1

281
0
 71
0
 74
0
110
0.0
120
0.0
130
0.0
111
1.0
121
0.0
131
0.0
112
0.0
122
1.0
132
0.0
 79
0
146
0.0
282
0
  0
LWPOLYLINE
  5
145
330
140
100
AcDbEntity
 67
1
  8
ASG-BORDER
100
AcDbPolyline
 90
4
 70
1
 10
20.0
 20
10.0
 10
410.0
 20
10.0
 10
410.0
 20
287.0
 10
20.0
 20
287.0
  0
INSERT
  5
146
330
140
100
AcDbEntity
 67
1
  8
ASG-TITLEBLOCK
100
AcDbBlockReference
 66
1
  2
ASG-TB-A3
 10
410.0
 20
10.0
 30
0.0
  0
ATTRIB
  5
148
330
140
100
AcDbEntity
 67
1
  8
0
100
AcDbText
 10
231.08
 20
11.08
 30
0.0
 40
3.5
  1
AS-YYYY-NNN-DIS-TYP-001
  7
ASG-TEXT-HEADING
 11
231.08
 21
11.08
 31
0.0
100
AcDbAttribute
  2
DWG_NO
 70
0
 74
1
 71
1
 72
0
 11
231.08
 21
11.08
 31
0.0
  0
ATTRIB
  5
149
330
140
100
AcDbEntity
 67
1
  8
0
100
AcDbText
 10
339.08
 20
11.08
 30
0.0
 40
3.5
  1
R0
  7
ASG-TEXT-HEADING
 11
339.08
 21
11.08
 31
0.0
100
AcDbAttribute
  2
REV
 70
0
 74
1
 71
1
 72
0
 11
339.08
 21
11.08
 31
0.0
  0
ATTRIB
  5
14A
330
140
100
AcDbEntity
 67
1
  8
0
100
AcDbText
 10
366.08
 20
11.08
 30
0.0
 40
2.5
  1
01 OF 01
  7
ASG-TEXT-SHEET
 11
366.08
 21
11.08
 31
0.0
100
AcDbAttribute
  2
SHEET_NO
 70
0
 74
1
 71
1
 72
0
 11
366.08
 21
11.08
 31
0.0
  0
ATTRIB
  5
14B
330
140
100
AcDbEntity
 67
1
  8
0
100
AcDbText
 10
231.08
 20
24.58
 30
0.0
 40
2.5
  1
AS SHOWN
  7
ASG-TEXT-SHEET
 11
231.08
 21
24.58
 31
0.0
100
AcDbAttribute
  2
SCALE
 70
0
 74
1
 71
1
 72
0
 11
231.08
 21
24.58
 31
0.0
  0
ATTRIB
  5
14C
330
140
100
AcDbEntity
 67
1
  8
0
100
AcDbText
 10
291.08
 20
24.58
 30
0.0
 40
2.5
  1
DD.MM.YYYY
  7
ASG-TEXT-SHEET
 11
291.08
 21
24.58
 31
0.0
100
AcDbAttribute
  2
DATE
 70
0
 74
1
 71
1
 72
0
 11
291.08
 21
24.58
 31
0.0
  0
ATTRIB
  5
14D
330
140
100
AcDbEntity
 67
1
  8
0
100
AcDbText
 10
351.08
 20
24.58
 30
0.0
 40
2.5
  1
PRELIMINARY
  7
ASG-TEXT-SHEET
 11
351.08
 21
24.58
 31
0.0
100
AcDbAttribute
  2
DWG_STATUS
 70
0
 74
1
 71
1
 72
0
 11
351.08
 21
24.58
 31
0.0
  0
ATTRIB
  5
14E
330
140
100
AcDbEntity
 67
1
  8
0
100
AcDbText
 10
231.08
 20
33.58
 30
0.0
 40
2.5
  1
-
  7
ASG-TEXT-SHEET
 11
231.08
 21
33.58
 31
0.0
100
AcDbAttribute
  2
DRAWN_BY
 70
0
 74
1
 71
1
 72
0
 11
231.08
 21
33.58
 31
0.0
  0
ATTRIB
  5
14F
330
140
100
AcDbEntity
 67
1
  8
0
100
AcDbText
 10
291.08
 20
33.58
 30
0.0
 40
2.5
  1
-
  7
ASG-TEXT-SHEET
 11
291.08
 21
33.58
 31
0.0
100
AcDbAttribute
  2
CHECKED_BY
 70
0
 74
1
 71
1
 72
0
 11
291.08
 21
33.58
 31
0.0
  0
ATTRIB
  5
150
330
140
100
AcDbEntity
 67
1
  8
0
100
AcDbText
 10
351.08
 20
33.58
 30
0.0
 40
2.5
  1
-
  7
ASG-TEXT-SHEET
 11
351.08
 21
33.58
 31
0.0
100
AcDbAttribute
  2
APPROVED_BY
 70
0
 74
1
 71
1
 72
0
 11
351.08
 21
33.58
 31
0.0
  0
ATTRIB
  5
151
330
140
100
AcDbEntity
 67
1
  8
0
100
AcDbText
 10
231.08
 20
48.7
 30
0.0
 40
5.0
  1
DRAWING TITLE
  7
ASG-TEXT-HEADING
 11
231.08
 21
48.7
 31
0.0
100
AcDbAttribute
  2
DWG_TITLE
 70
0
 74
1
 71
1
 72
0
 11
231.08
 21
48.7
 31
0.0
  0
ATTRIB
  5
152
330
140
100
AcDbEntity
 67
1
  8
0
100
AcDbText
 10
231.08
 20
42.58
 30
0.0
 40
2.5
  1

  7
ASG-TEXT-TITLE
 11
231.08
 21
42.58
 31
0.0
100
AcDbAttribute
  2
DWG_TITLE_2
 70
0
 74
1
 71
1
 72
0
 11
231.08
 21
42.58
 31
0.0
  0
ATTRIB
  5
153
330
140
100
AcDbEntity
 67
1
  8
0
100
AcDbText
 10
231.08
 20
60.58
 30
0.0
 40
2.5
  1
CLIENT
  7
ASG-TEXT-SHEET
 11
231.08
 21
60.58
 31
0.0
100
AcDbAttribute
  2
CLIENT
 70
0
 74
1
 71
1
 72
0
 11
231.08
 21
60.58
 31
0.0
  0
ATTRIB
  5
154
330
140
100
AcDbEntity
 67
1
  8
0
100
AcDbText
 10
321.08
 20
60.58
 30
0.0
 40
2.5
  1
CONSULTANT
  7
ASG-TEXT-SHEET
 11
321.08
 21
60.58
 31
0.0
100
AcDbAttribute
  2
CONSULTANT
 70
0
 74
1
 71
1
 72
0
 11
321.08
 21
60.58
 31
0.0
  0
ATTRIB
  5
155
330
140
100
AcDbEntity
 67
1
  8
0
100
AcDbText
 10
231.08
 20
69.58
 30
0.0
 40
2.5
  1
PROJECT NAME
  7
ASG-TEXT-SHEET
 11
231.08
 21
69.58
 31
0.0
100
AcDbAttribute
  2
PROJECT
 70
0
 74
1
 71
1
 72
0
 11
231.08
 21
69.58
 31
0.0
  0
ATTRIB
  5
156
330
140
100
AcDbEntity
 67
1
  8
0
100
AcDbText
 10
321.08
 20
69.58
 30
0.0
 40
2.5
  1
LOCATION, UAE
  7
ASG-TEXT-SHEET
 11
321.08
 21
69.58
 31
0.0
100
AcDbAttribute
  2
LOCATION
 70
0
 74
1
 71
1
 72
0
 11
321.08
 21
69.58
 31
0.0
  0
SEQEND
  5
147
330
146
100
AcDbEntity
 67
1
  8
ASG-TITLEBLOCK
  0
VIEWPORT
  5
157
330
140
100
AcDbEntity
 67
1
  8
ASG-VIEWPORT
100
AcDbViewport
 10
125.0
 20
148.5
 30
0.0
 40
200.0
 41
267.0
 68
2
 69
3
 12
2000.0
 22
2670.0
 13
0.0
 23
0.0
 14
10.0
 24
10.0
 15
10.0
 25
10.0
 16
0.0
 26
0.0
 36
1.0
 17
0.0
 27
0.0
 37
0.0
 42
50.0
 43
0.0
 44
0.0
 45
5340.0
 50
0.0
 51
0.0
 72
100
 90
16384
  1

281
0
 71
0
 74
0
110
0.0
120
0.0
130
0.0
111
1.0
121
0.0
131
0.0
112
0.0
122
1.0
132
0.0
 79
0
146
0.0
282
0
  0
ENDBLK
  5
142
330
140
100
AcDbEntity
  8
0
100
AcDbBlockEnd
  0
BLOCK
  5
159
330
158
100
AcDbEntity
  8
0
100
AcDbBlockBegin
  2
*Paper_Space3
 70
0
 10
0.0
 20
0.0
 30
0.0
  3
*Paper_Space3
  1

  0
VIEWPORT
  5
15C
330
158
100
AcDbEntity
 67
1
  8
VIEWPORTS
100
AcDbViewport
 10
148.5
 20
210.0
 30
0.0
 40
326.70000000000005
 41
462.00000000000006
 68
1
 69
1
 12
148.5
 22
210.0
 13
0.0
 23
0.0
 14
10.0
 24
10.0
 15
10.0
 25
10.0
 16
0.0
 26
0.0
 36
1.0
 17
0.0
 27
0.0
 37
0.0
 42
50.0
 43
0.0
 44
0.0
 45
462.00000000000006
 50
0.0
 51
0.0
 72
100
 90
557088
  1

281
0
 71
0
 74
0
110
0.0
120
0.0
130
0.0
111
1.0
121
0.0
131
0.0
112
0.0
122
1.0
132
0.0
 79
0
146
0.0
282
0
  0
LWPOLYLINE
  5
15D
330
158
100
AcDbEntity
 67
1
  8
ASG-BORDER
100
AcDbPolyline
 90
4
 70
1
 10
20.0
 20
10.0
 10
287.0
 20
10.0
 10
287.0
 20
410.0
 10
20.0
 20
410.0
  0
INSERT
  5
15E
330
158
100
AcDbEntity
 67
1
  8
ASG-TITLEBLOCK
100
AcDbBlockReference
 66
1
  2
ASG-TB-A3
 10
287.0
 20
10.0
 30
0.0
  0
ATTRIB
  5
160
330
158
100
AcDbEntity
 67
1
  8
0
100
AcDbText
 10
108.08000000000001
 20
11.08
 30
0.0
 40
3.5
  1
AS-YYYY-NNN-DIS-TYP-001
  7
ASG-TEXT-HEADING
 11
108.08000000000001
 21
11.08
 31
0.0
100
AcDbAttribute
  2
DWG_NO
 70
0
 74
1
 71
1
 72
0
 11
108.08000000000001
 21
11.08
 31
0.0
  0
ATTRIB
  5
161
330
158
100
AcDbEntity
 67
1
  8
0
100
AcDbText
 10
216.07999999999998
 20
11.08
 30
0.0
 40
3.5
  1
R0
  7
ASG-TEXT-HEADING
 11
216.07999999999998
 21
11.08
 31
0.0
100
AcDbAttribute
  2
REV
 70
0
 74
1
 71
1
 72
0
 11
216.07999999999998
 21
11.08
 31
0.0
  0
ATTRIB
  5
162
330
158
100
AcDbEntity
 67
1
  8
0
100
AcDbText
 10
243.07999999999998
 20
11.08
 30
0.0
 40
2.5
  1
01 OF 01
  7
ASG-TEXT-SHEET
 11
243.07999999999998
 21
11.08
 31
0.0
100
AcDbAttribute
  2
SHEET_NO
 70
0
 74
1
 71
1
 72
0
 11
243.07999999999998
 21
11.08
 31
0.0
  0
ATTRIB
  5
163
330
158
100
AcDbEntity
 67
1
  8
0
100
AcDbText
 10
108.08000000000001
 20
24.58
 30
0.0
 40
2.5
  1
AS SHOWN
  7
ASG-TEXT-SHEET
 11
108.08000000000001
 21
24.58
 31
0.0
100
AcDbAttribute
  2
SCALE
 70
0
 74
1
 71
1
 72
0
 11
108.08000000000001
 21
24.58
 31
0.0
  0
ATTRIB
  5
164
330
158
100
AcDbEntity
 67
1
  8
0
100
AcDbText
 10
168.07999999999998
 20
24.58
 30
0.0
 40
2.5
  1
DD.MM.YYYY
  7
ASG-TEXT-SHEET
 11
168.07999999999998
 21
24.58
 31
0.0
100
AcDbAttribute
  2
DATE
 70
0
 74
1
 71
1
 72
0
 11
168.07999999999998
 21
24.58
 31
0.0
  0
ATTRIB
  5
165
330
158
100
AcDbEntity
 67
1
  8
0
100
AcDbText
 10
228.07999999999998
 20
24.58
 30
0.0
 40
2.5
  1
PRELIMINARY
  7
ASG-TEXT-SHEET
 11
228.07999999999998
 21
24.58
 31
0.0
100
AcDbAttribute
  2
DWG_STATUS
 70
0
 74
1
 71
1
 72
0
 11
228.07999999999998
 21
24.58
 31
0.0
  0
ATTRIB
  5
166
330
158
100
AcDbEntity
 67
1
  8
0
100
AcDbText
 10
108.08000000000001
 20
33.58
 30
0.0
 40
2.5
  1
-
  7
ASG-TEXT-SHEET
 11
108.08000000000001
 21
33.58
 31
0.0
100
AcDbAttribute
  2
DRAWN_BY
 70
0
 74
1
 71
1
 72
0
 11
108.08000000000001
 21
33.58
 31
0.0
  0
ATTRIB
  5
167
330
158
100
AcDbEntity
 67
1
  8
0
100
AcDbText
 10
168.07999999999998
 20
33.58
 30
0.0
 40
2.5
  1
-
  7
ASG-TEXT-SHEET
 11
168.07999999999998
 21
33.58
 31
0.0
100
AcDbAttribute
  2
CHECKED_BY
 70
0
 74
1
 71
1
 72
0
 11
168.07999999999998
 21
33.58
 31
0.0
  0
ATTRIB
  5
168
330
158
100
AcDbEntity
 67
1
  8
0
100
AcDbText
 10
228.07999999999998
 20
33.58
 30
0.0
 40
2.5
  1
-
  7
ASG-TEXT-SHEET
 11
228.07999999999998
 21
33.58
 31
0.0
100
AcDbAttribute
  2
APPROVED_BY
 70
0
 74
1
 71
1
 72
0
 11
228.07999999999998
 21
33.58
 31
0.0
  0
ATTRIB
  5
169
330
158
100
AcDbEntity
 67
1
  8
0
100
AcDbText
 10
108.08000000000001
 20
48.7
 30
0.0
 40
5.0
  1
DRAWING TITLE
  7
ASG-TEXT-HEADING
 11
108.08000000000001
 21
48.7
 31
0.0
100
AcDbAttribute
  2
DWG_TITLE
 70
0
 74
1
 71
1
 72
0
 11
108.08000000000001
 21
48.7
 31
0.0
  0
ATTRIB
  5
16A
330
158
100
AcDbEntity
 67
1
  8
0
100
AcDbText
 10
108.08000000000001
 20
42.58
 30
0.0
 40
2.5
  1

  7
ASG-TEXT-TITLE
 11
108.08000000000001
 21
42.58
 31
0.0
100
AcDbAttribute
  2
DWG_TITLE_2
 70
0
 74
1
 71
1
 72
0
 11
108.08000000000001
 21
42.58
 31
0.0
  0
ATTRIB
  5
16B
330
158
100
AcDbEntity
 67
1
  8
0
100
AcDbText
 10
108.08000000000001
 20
60.58
 30
0.0
 40
2.5
  1
CLIENT
  7
ASG-TEXT-SHEET
 11
108.08000000000001
 21
60.58
 31
0.0
100
AcDbAttribute
  2
CLIENT
 70
0
 74
1
 71
1
 72
0
 11
108.08000000000001
 21
60.58
 31
0.0
  0
ATTRIB
  5
16C
330
158
100
AcDbEntity
 67
1
  8
0
100
AcDbText
 10
198.07999999999998
 20
60.58
 30
0.0
 40
2.5
  1
CONSULTANT
  7
ASG-TEXT-SHEET
 11
198.07999999999998
 21
60.58
 31
0.0
100
AcDbAttribute
  2
CONSULTANT
 70
0
 74
1
 71
1
 72
0
 11
198.07999999999998
 21
60.58
 31
0.0
  0
ATTRIB
  5
16D
330
158
100
AcDbEntity
 67
1
  8
0
100
AcDbText
 10
108.08000000000001
 20
69.58
 30
0.0
 40
2.5
  1
PROJECT NAME
  7
ASG-TEXT-SHEET
 11
108.08000000000001
 21
69.58
 31
0.0
100
AcDbAttribute
  2
PROJECT
 70
0
 74
1
 71
1
 72
0
 11
108.08000000000001
 21
69.58
 31
0.0
  0
ATTRIB
  5
16E
330
158
100
AcDbEntity
 67
1
  8
0
100
AcDbText
 10
198.07999999999998
 20
69.58
 30
0.0
 40
2.5
  1
LOCATION, UAE
  7
ASG-TEXT-SHEET
 11
198.07999999999998
 21
69.58
 31
0.0
100
AcDbAttribute
  2
LOCATION
 70
0
 74
1
 71
1
 72
0
 11
198.07999999999998
 21
69.58
 31
0.0
  0
SEQEND
  5
15F
330
15E
100
AcDbEntity
 67
1
  8
ASG-TITLEBLOCK
  0
VIEWPORT
  5
16F
330
158
100
AcDbEntity
 67
1
  8
ASG-VIEWPORT
100
AcDbViewport
 10
153.5
 20
250.95
 30
0.0
 40
257.0
 41
308.1
 68
2
 69
3
 12
2570.0
 22
3081.0
 13
0.0
 23
0.0
 14
10.0
 24
10.0
 15
10.0
 25
10.0
 16
0.0
 26
0.0
 36
1.0
 17
0.0
 27
0.0
 37
0.0
 42
50.0
 43
0.0
 44
0.0
 45
6162.0
 50
0.0
 51
0.0
 72
100
 90
16384
  1

281
0
 71
0
 74
0
110
0.0
120
0.0
130
0.0
111
1.0
121
0.0
131
0.0
112
0.0
122
1.0
132
0.0
 79
0
146
0.0
282
0
  0
ENDBLK
  5
15A
330
158
100
AcDbEntity
  8
0
100
AcDbBlockEnd
  0
BLOCK
  5
171
330
170
100
AcDbEntity
  8
0
100
AcDbBlockBegin
  2
*Paper_Space4
 70
0
 10
0.0
 20
0.0
 30
0.0
  3
*Paper_Space4
  1

  0
VIEWPORT
  5
174
330
170
100
AcDbEntity
 67
1
  8
VIEWPORTS
100
AcDbViewport
 10
420.5
 20
297.0
 30
0.0
 40
925.1
 41
653.4000000000001
 68
1
 69
1
 12
420.5
 22
297.0
 13
0.0
 23
0.0
 14
10.0
 24
10.0
 15
10.0
 25
10.0
 16
0.0
 26
0.0
 36
1.0
 17
0.0
 27
0.0
 37
0.0
 42
50.0
 43
0.0
 44
0.0
 45
653.4000000000001
 50
0.0
 51
0.0
 72
100
 90
557088
  1

281
0
 71
0
 74
0
110
0.0
120
0.0
130
0.0
111
1.0
121
0.0
131
0.0
112
0.0
122
1.0
132
0.0
 79
0
146
0.0
282
0
  0
LWPOLYLINE
  5
175
330
170
100
AcDbEntity
 67
1
  8
ASG-BORDER
100
AcDbPolyline
 90
4
 70
1
 10
20.0
 20
10.0
 10
831.0
 20
10.0
 10
831.0
 20
584.0
 10
20.0
 20
584.0
  0
INSERT
  5
176
330
170
100
AcDbEntity
 67
1
  8
ASG-TITLEBLOCK
100
AcDbBlockReference
 66
1
  2
ASG-TB-A1
 10
831.0
 20
10.0
 30
0.0
  0
ATTRIB
  5
178
330
170
100
AcDbEntity
 67
1
  8
0
100
AcDbText
 10
582.44
 20
11.44
 30
0.0
 40
5.0
  1
AS-YYYY-NNN-DIS-TYP-001
  7
ASG-TEXT-HEADING
 11
582.44
 21
11.44
 31
0.0
100
AcDbAttribute
  2
DWG_NO
 70
0
 74
1
 71
1
 72
0
 11
582.44
 21
11.44
 31
0.0
  0
ATTRIB
  5
179
330
170
100
AcDbEntity
 67
1
  8
0
100
AcDbText
 10
732.44
 20
11.44
 30
0.0
 40
5.0
  1
R0
  7
ASG-TEXT-HEADING
 11
732.44
 21
11.44
 31
0.0
100
AcDbAttribute
  2
REV
 70
0
 74
1
 71
1
 72
0
 11
732.44
 21
11.44
 31
0.0
  0
ATTRIB
  5
17A
330
170
100
AcDbEntity
 67
1
  8
0
100
AcDbText
 10
769.94
 20
11.44
 30
0.0
 40
3.5
  1
01 OF 01
  7
ASG-TEXT-SHEET
 11
769.94
 21
11.44
 31
0.0
100
AcDbAttribute
  2
SHEET_NO
 70
0
 74
1
 71
1
 72
0
 11
769.94
 21
11.44
 31
0.0
  0
ATTRIB
  5
17B
330
170
100
AcDbEntity
 67
1
  8
0
100
AcDbText
 10
582.44
 20
29.44
 30
0.0
 40
3.5
  1
AS SHOWN
  7
ASG-TEXT-SHEET
 11
582.44
 21
29.44
 31
0.0
100
AcDbAttribute
  2
SCALE
 70
0
 74
1
 71
1
 72
0
 11
582.44
 21
29.44
 31
0.0
  0
ATTRIB
  5
17C
330
170
100
AcDbEntity
 67
1
  8
0
100
AcDbText
 10
665.7733333333333
 20
29.44
 30
0.0
 40
3.5
  1
DD.MM.YYYY
  7
ASG-TEXT-SHEET
 11
665.7733333333333
 21
29.44
 31
0.0
100
AcDbAttribute
  2
DATE
 70
0
 74
1
 71
1
 72
0
 11
665.7733333333333
 21
29.44
 31
0.0
  0
ATTRIB
  5
17D
330
170
100
AcDbEntity
 67
1
  8
0
100
AcDbText
 10
749.1066666666667
 20
29.44
 30
0.0
 40
3.5
  1
PRELIMINARY
  7
ASG-TEXT-SHEET
 11
749.1066666666667
 21
29.44
 31
0.0
100
AcDbAttribute
  2
DWG_STATUS
 70
0
 74
1
 71
1
 72
0
 11
749.1066666666667
 21
29.44
 31
0.0
  0
ATTRIB
  5
17E
330
170
100
AcDbEntity
 67
1
  8
0
100
AcDbText
 10
582.44
 20
41.44
 30
0.0
 40
3.5
  1
-
  7
ASG-TEXT-SHEET
 11
582.44
 21
41.44
 31
0.0
100
AcDbAttribute
  2
DRAWN_BY
 70
0
 74
1
 71
1
 72
0
 11
582.44
 21
41.44
 31
0.0
  0
ATTRIB
  5
17F
330
170
100
AcDbEntity
 67
1
  8
0
100
AcDbText
 10
665.7733333333333
 20
41.44
 30
0.0
 40
3.5
  1
-
  7
ASG-TEXT-SHEET
 11
665.7733333333333
 21
41.44
 31
0.0
100
AcDbAttribute
  2
CHECKED_BY
 70
0
 74
1
 71
1
 72
0
 11
665.7733333333333
 21
41.44
 31
0.0
  0
ATTRIB
  5
180
330
170
100
AcDbEntity
 67
1
  8
0
100
AcDbText
 10
749.1066666666667
 20
41.44
 30
0.0
 40
3.5
  1
-
  7
ASG-TEXT-SHEET
 11
749.1066666666667
 21
41.44
 31
0.0
100
AcDbAttribute
  2
APPROVED_BY
 70
0
 74
1
 71
1
 72
0
 11
749.1066666666667
 21
41.44
 31
0.0
  0
ATTRIB
  5
181
330
170
100
AcDbEntity
 67
1
  8
0
100
AcDbText
 10
582.44
 20
61.6
 30
0.0
 40
7.0
  1
DRAWING TITLE
  7
ASG-TEXT-HEADING
 11
582.44
 21
61.6
 31
0.0
100
AcDbAttribute
  2
DWG_TITLE
 70
0
 74
1
 71
1
 72
0
 11
582.44
 21
61.6
 31
0.0
  0
ATTRIB
  5
182
330
170
100
AcDbEntity
 67
1
  8
0
100
AcDbText
 10
582.44
 20
53.44
 30
0.0
 40
3.5
  1

  7
ASG-TEXT-TITLE
 11
582.44
 21
53.44
 31
0.0
100
AcDbAttribute
  2
DWG_TITLE_2
 70
0
 74
1
 71
1
 72
0
 11
582.44
 21
53.44
 31
0.0
  0
ATTRIB
  5
183
330
170
100
AcDbEntity
 67
1
  8
0
100
AcDbText
 10
582.44
 20
77.44
 30
0.0
 40
3.5
  1
CLIENT
  7
ASG-TEXT-SHEET
 11
582.44
 21
77.44
 31
0.0
100
AcDbAttribute
  2
CLIENT
 70
0
 74
1
 71
1
 72
0
 11
582.44
 21
77.44
 31
0.0
  0
ATTRIB
  5
184
330
170
100
AcDbEntity
 67
1
  8
0
100
AcDbText
 10
707.44
 20
77.44
 30
0.0
 40
3.5
  1
CONSULTANT
  7
ASG-TEXT-SHEET
 11
707.44
 21
77.44
 31
0.0
100
AcDbAttribute
  2
CONSULTANT
 70
0
 74
1
 71
1
 72
0
 11
707.44
 21
77.44
 31
0.0
  0
ATTRIB
  5
185
330
170
100
AcDbEntity
 67
1
  8
0
100
AcDbText
 10
582.44
 20
89.44
 30
0.0
 40
3.5
  1
PROJECT NAME
  7
ASG-TEXT-SHEET
 11
582.44
 21
89.44
 31
0.0
100
AcDbAttribute
  2
PROJECT
 70
0
 74
1
 71
1
 72
0
 11
582.44
 21
89.44
 31
0.0
  0
ATTRIB
  5
186
330
170
100
AcDbEntity
 67
1
  8
0
100
AcDbText
 10
707.44
 20
89.44
 30
0.0
 40
3.5
  1
LOCATION, UAE
  7
ASG-TEXT-SHEET
 11
707.44
 21
89.44
 31
0.0
100
AcDbAttribute
  2
LOCATION
 70
0
 74
1
 71
1
 72
0
 11
707.44
 21
89.44
 31
0.0
  0
SEQEND
  5
177
330
176
100
AcDbEntity
 67
1
  8
ASG-TITLEBLOCK
  0
VIEWPORT
  5
187
330
170
100
AcDbEntity
 67
1
  8
ASG-VIEWPORT
100
AcDbViewport
 10
300.5
 20
297.0
 30
0.0
 40
551.0
 41
564.0
 68
2
 69
3
 12
13775.0
 22
14100.0
 13
0.0
 23
0.0
 14
10.0
 24
10.0
 15
10.0
 25
10.0
 16
0.0
 26
0.0
 36
1.0
 17
0.0
 27
0.0
 37
0.0
 42
50.0
 43
0.0
 44
0.0
 45
28200.0
 50
0.0
 51
0.0
 72
100
 90
16384
  1

281
0
 71
0
 74
0
110
0.0
120
0.0
130
0.0
111
1.0
121
0.0
131
0.0
112
0.0
122
1.0
132
0.0
 79
0
146
0.0
282
0
  0
ENDBLK
  5
172
330
170
100
AcDbEntity
  8
0
100
AcDbBlockEnd
  0
BLOCK
  5
111
330
110
100
AcDbEntity
  8
0
100
AcDbBlockBegin
  2
*Paper_Space
 70
0
 10
0.0
 20
0.0
 30
0.0
  3
*Paper_Space
  1

  0
ENDBLK
  5
112
330
110
100
AcDbEntity
  8
0
100
AcDbBlockEnd
  0
ENDSEC
  0
SECTION
  2
ENTITIES
  0
VIEWPORT
  5
114
330
110
100
AcDbEntity
 67
1
  8
VIEWPORTS
100
AcDbViewport
 10
148.5
 20
105.0
 30
0.0
 40
326.70000000000005
 41
231.00000000000003
 68
1
 69
1
 12
148.5
 22
105.0
 13
0.0
 23
0.0
 14
10.0
 24
10.0
 15
10.0
 25
10.0
 16
0.0
 26
0.0
 36
1.0
 17
0.0
 27
0.0
 37
0.0
 42
50.0
 43
0.0
 44
0.0
 45
231.00000000000003
 50
0.0
 51
0.0
 72
100
 90
557088
  1

281
0
 71
0
 74
0
110
0.0
120
0.0
130
0.0
111
1.0
121
0.0
131
0.0
112
0.0
122
1.0
132
0.0
 79
0
146
0.0
282
0
  0
LWPOLYLINE
  5
115
330
110
100
AcDbEntity
 67
1
  8
ASG-BORDER
100
AcDbPolyline
 90
4
 70
1
 10
20.0
 20
10.0
 10
287.0
 20
10.0
 10
287.0
 20
200.0
 10
20.0
 20
200.0
  0
INSERT
  5
116
330
110
100
AcDbEntity
 67
1
  8
ASG-TITLEBLOCK
100
AcDbBlockReference
 66
1
  2
ASG-TB-A4
 10
287.0
 20
10.0
 30
0.0
  0
ATTRIB
  5
118
330
110
100
AcDbEntity
 67
1
  8
0
100
AcDbText
 10
107.84
 20
10.84
 30
0.0
 40
3.5
  1
AS-YYYY-NNN-DIS-TYP-001
  7
ASG-TEXT-HEADING
 11
107.84
 21
10.84
 31
0.0
100
AcDbAttribute
  2
DWG_NO
 70
0
 74
1
 71
1
 72
0
 11
107.84
 21
10.84
 31
0.0
  0
ATTRIB
  5
119
330
110
100
AcDbEntity
 67
1
  8
0
100
AcDbText
 10
215.84
 20
10.84
 30
0.0
 40
3.5
  1
R0
  7
ASG-TEXT-HEADING
 11
215.84
 21
10.84
 31
0.0
100
AcDbAttribute
  2
REV
 70
0
 74
1
 71
1
 72
0
 11
215.84
 21
10.84
 31
0.0
  0
ATTRIB
  5
11A
330
110
100
AcDbEntity
 67
1
  8
0
100
AcDbText
 10
242.84
 20
10.84
 30
0.0
 40
2.5
  1
01 OF 01
  7
ASG-TEXT-SHEET
 11
242.84
 21
10.84
 31
0.0
100
AcDbAttribute
  2
SHEET_NO
 70
0
 74
1
 71
1
 72
0
 11
242.84
 21
10.84
 31
0.0
  0
ATTRIB
  5
11B
330
110
100
AcDbEntity
 67
1
  8
0
100
AcDbText
 10
107.84
 20
21.34
 30
0.0
 40
2.5
  1
AS SHOWN
  7
ASG-TEXT-SHEET
 11
107.84
 21
21.34
 31
0.0
100
AcDbAttribute
  2
SCALE
 70
0
 74
1
 71
1
 72
0
 11
107.84
 21
21.34
 31
0.0
  0
ATTRIB
  5
11C
330
110
100
AcDbEntity
 67
1
  8
0
100
AcDbText
 10
167.84
 20
21.34
 30
0.0
 40
2.5
  1
DD.MM.YYYY
  7
ASG-TEXT-SHEET
 11
167.84
 21
21.34
 31
0.0
100
AcDbAttribute
  2
DATE
 70
0
 74
1
 71
1
 72
0
 11
167.84
 21
21.34
 31
0.0
  0
ATTRIB
  5
11D
330
110
100
AcDbEntity
 67
1
  8
0
100
AcDbText
 10
227.84
 20
21.34
 30
0.0
 40
2.5
  1
PRELIMINARY
  7
ASG-TEXT-SHEET
 11
227.84
 21
21.34
 31
0.0
100
AcDbAttribute
  2
DWG_STATUS
 70
0
 74
1
 71
1
 72
0
 11
227.84
 21
21.34
 31
0.0
  0
ATTRIB
  5
11E
330
110
100
AcDbEntity
 67
1
  8
0
100
AcDbText
 10
107.84
 20
28.34
 30
0.0
 40
2.5
  1
-
  7
ASG-TEXT-SHEET
 11
107.84
 21
28.34
 31
0.0
100
AcDbAttribute
  2
DRAWN_BY
 70
0
 74
1
 71
1
 72
0
 11
107.84
 21
28.34
 31
0.0
  0
ATTRIB
  5
11F
330
110
100
AcDbEntity
 67
1
  8
0
100
AcDbText
 10
167.84
 20
28.34
 30
0.0
 40
2.5
  1
-
  7
ASG-TEXT-SHEET
 11
167.84
 21
28.34
 31
0.0
100
AcDbAttribute
  2
CHECKED_BY
 70
0
 74
1
 71
1
 72
0
 11
167.84
 21
28.34
 31
0.0
  0
ATTRIB
  5
120
330
110
100
AcDbEntity
 67
1
  8
0
100
AcDbText
 10
227.84
 20
28.34
 30
0.0
 40
2.5
  1
-
  7
ASG-TEXT-SHEET
 11
227.84
 21
28.34
 31
0.0
100
AcDbAttribute
  2
APPROVED_BY
 70
0
 74
1
 71
1
 72
0
 11
227.84
 21
28.34
 31
0.0
  0
ATTRIB
  5
121
330
110
100
AcDbEntity
 67
1
  8
0
100
AcDbText
 10
107.84
 20
40.1
 30
0.0
 40
3.5
  1
DRAWING TITLE
  7
ASG-TEXT-HEADING
 11
107.84
 21
40.1
 31
0.0
100
AcDbAttribute
  2
DWG_TITLE
 70
0
 74
1
 71
1
 72
0
 11
107.84
 21
40.1
 31
0.0
  0
ATTRIB
  5
122
330
110
100
AcDbEntity
 67
1
  8
0
100
AcDbText
 10
107.84
 20
35.34
 30
0.0
 40
2.5
  1

  7
ASG-TEXT-TITLE
 11
107.84
 21
35.34
 31
0.0
100
AcDbAttribute
  2
DWG_TITLE_2
 70
0
 74
1
 71
1
 72
0
 11
107.84
 21
35.34
 31
0.0
  0
ATTRIB
  5
123
330
110
100
AcDbEntity
 67
1
  8
0
100
AcDbText
 10
107.84
 20
49.34
 30
0.0
 40
2.5
  1
CLIENT
  7
ASG-TEXT-SHEET
 11
107.84
 21
49.34
 31
0.0
100
AcDbAttribute
  2
CLIENT
 70
0
 74
1
 71
1
 72
0
 11
107.84
 21
49.34
 31
0.0
  0
ATTRIB
  5
124
330
110
100
AcDbEntity
 67
1
  8
0
100
AcDbText
 10
197.84
 20
49.34
 30
0.0
 40
2.5
  1
CONSULTANT
  7
ASG-TEXT-SHEET
 11
197.84
 21
49.34
 31
0.0
100
AcDbAttribute
  2
CONSULTANT
 70
0
 74
1
 71
1
 72
0
 11
197.84
 21
49.34
 31
0.0
  0
ATTRIB
  5
125
330
110
100
AcDbEntity
 67
1
  8
0
100
AcDbText
 10
107.84
 20
56.34
 30
0.0
 40
2.5
  1
PROJECT NAME
  7
ASG-TEXT-SHEET
 11
107.84
 21
56.34
 31
0.0
100
AcDbAttribute
  2
PROJECT
 70
0
 74
1
 71
1
 72
0
 11
107.84
 21
56.34
 31
0.0
  0
ATTRIB
  5
126
330
110
100
AcDbEntity
 67
1
  8
0
100
AcDbText
 10
197.84
 20
56.34
 30
0.0
 40
2.5
  1
LOCATION, UAE
  7
ASG-TEXT-SHEET
 11
197.84
 21
56.34
 31
0.0
100
AcDbAttribute
  2
LOCATION
 70
0
 74
1
 71
1
 72
0
 11
197.84
 21
56.34
 31
0.0
  0
SEQEND
  5
117
330
116
100
AcDbEntity
 67
1
  8
ASG-TITLEBLOCK
  0
VIEWPORT
  5
127
330
110
100
AcDbEntity
 67
1
  8
ASG-VIEWPORT
100
AcDbViewport
 10
63.5
 20
105.0
 30
0.0
 40
77.0
 41
180.0
 68
2
 69
3
 12
385.0
 22
900.0
 13
0.0
 23
0.0
 14
10.0
 24
10.0
 15
10.0
 25
10.0
 16
0.0
 26
0.0
 36
1.0
 17
0.0
 27
0.0
 37
0.0
 42
50.0
 43
0.0
 44
0.0
 45
1800.0
 50
0.0
 51
0.0
 72
100
 90
16384
  1

281
0
 71
0
 74
0
110
0.0
120
0.0
130
0.0
111
1.0
121
0.0
131
0.0
112
0.0
122
1.0
132
0.0
 79
0
146
0.0
282
0
  0
ENDSEC
  0
SECTION
  2
OBJECTS
  0
DICTIONARY
  5
A
330
0
100
AcDbDictionary
281
1
  3
ACAD_COLOR
350
B
  3
ACAD_GROUP
350
C
  3
ACAD_LAYOUT
350
D
  3
ACAD_MATERIAL
350
E
  3
ACAD_MLEADERSTYLE
350
F
  3
ACAD_MLINESTYLE
350
10
  3
ACAD_PLOTSETTINGS
350
11
  3
ACAD_PLOTSTYLENAME
350
12
  3
ACAD_SCALELIST
350
14
  3
ACAD_TABLESTYLE
350
15
  3
ACAD_VISUALSTYLE
350
16
  3
EZDXF_META
350
2D
  0
DICTIONARY
  5
B
330
A
100
AcDbDictionary
281
1
  0
DICTIONARY
  5
C
330
A
100
AcDbDictionary
281
1
  0
DICTIONARY
  5
D
330
A
100
AcDbDictionary
281
1
  3
Model
350
1A
  3
A4-LANDSCAPE
350
113
  3
A4-PORTRAIT
350
12B
  3
A3-LANDSCAPE
350
143
  3
A3-PORTRAIT
350
15B
  3
A1-LANDSCAPE
350
173
  0
DICTIONARY
  5
E
330
A
100
AcDbDictionary
281
1
  3
ByBlock
350
1F
  3
ByLayer
350
20
  3
Global
350
21
  0
DICTIONARY
  5
F
330
A
100
AcDbDictionary
281
1
  3
Standard
350
2C
  3
ASG-ML-ANNO
350
6A
  3
ASG-ML-NOTE
350
6B
  3
ASG-ML-DETAIL
350
6C
  3
ASG-ML-REFERENCE
350
72
  0
DICTIONARY
  5
10
330
A
100
AcDbDictionary
281
1
  3
Standard
350
22
  3
ASG-MLINE-2
350
78
  3
ASG-MLINE-3
350
79
  0
DICTIONARY
  5
11
330
A
100
AcDbDictionary
281
1
  0
ACDBDICTIONARYWDFLT
  5
12
330
A
100
AcDbDictionary
281
1
  3
Normal
350
13
100
AcDbDictionaryWithDefault
340
13
  0
ACDBPLACEHOLDER
  5
13
330
12
  0
DICTIONARY
  5
14
330
A
100
AcDbDictionary
281
1
  3
A0
350
18C
  3
A1
350
18D
  3
A2
350
18E
  3
A3
350
18F
  3
A4
350
190
  3
A5
350
191
  3
A6
350
192
  3
A7
350
193
  0
DICTIONARY
  5
15
330
A
100
AcDbDictionary
281
1
  0
DICTIONARY
  5
16
330
A
100
AcDbDictionary
281
1
  0
LAYOUT
  5
1A
330
D
100
AcDbPlotSettings
  1

  4
A3
  6

 40
7.5
 41
20.0
 42
7.5
 43
20.0
 44
420.0
 45
297.0
 46
0.0
 47
0.0
 48
0.0
 49
0.0
140
0.0
141
0.0
142
1.0
143
1.0
 70
1024
 72
1
 73
0
 74
5
  7

 75
16
 76
0
 77
2
 78
300
147
1.0
148
0.0
149
0.0
100
AcDbLayout
  1
Model
 70
1
 71
0
 10
0.0
 20
0.0
 11
200000.0
 21
150000.0
 12
0.0
 22
0.0
 32
0.0
 14
1e+20
 24
1e+20
 34
1e+20
 15
-1e+20
 25
-1e+20
 35
-1e+20
146
0.0
 13
0.0
 23
0.0
 33
0.0
 16
1.0
 26
0.0
 36
0.0
 17
0.0
 27
1.0
 37
0.0
 76
1
330
17
  0
MATERIAL
  5
1F
102
{ACAD_REACTORS
330
E
102
}
330
E
100
AcDbMaterial
  1
ByBlock
  2

 70
0
 40
1.0
 71
1
 41
1.0
 91
-1023410177
 42
1.0
 72
1
  3

 73
1
 74
1
 75
1
 44
0.5
 73
0
 45
1.0
 46
1.0
 77
1
  4

 78
1
 79
1
170
1
 48
1.0
171
1
  6

172
1
173
1
174
1
140
1.0
141
1.0
175
1
  7

176
1
177
1
178
1
143
1.0
179
1
  8

270
1
271
1
272
1
145
1.0
146
1.0
273
1
  9

274
1
275
1
276
1
 42
1.0
 72
1
  3

 73
1
 74
1
 75
1
 94
63
  0
MATERIAL
  5
20
102
{ACAD_REACTORS
330
E
102
}
330
E
100
AcDbMaterial
  1
ByLayer
  2

 70
0
 40
1.0
 71
1
 41
1.0
 91
-1023410177
 42
1.0
 72
1
  3

 73
1
 74
1
 75
1
 44
0.5
 73
0
 45
1.0
 46
1.0
 77
1
  4

 78
1
 79
1
170
1
 48
1.0
171
1
  6

172
1
173
1
174
1
140
1.0
141
1.0
175
1
  7

176
1
177
1
178
1
143
1.0
179
1
  8

270
1
271
1
272
1
145
1.0
146
1.0
273
1
  9

274
1
275
1
276
1
 42
1.0
 72
1
  3

 73
1
 74
1
 75
1
 94
63
  0
MATERIAL
  5
21
102
{ACAD_REACTORS
330
E
102
}
330
E
100
AcDbMaterial
  1
Global
  2

 70
0
 40
1.0
 71
1
 41
1.0
 91
-1023410177
 42
1.0
 72
1
  3

 73
1
 74
1
 75
1
 44
0.5
 73
0
 45
1.0
 46
1.0
 77
1
  4

 78
1
 79
1
170
1
 48
1.0
171
1
  6

172
1
173
1
174
1
140
1.0
141
1.0
175
1
  7

176
1
177
1
178
1
143
1.0
179
1
  8

270
1
271
1
272
1
145
1.0
146
1.0
273
1
  9

274
1
275
1
276
1
 42
1.0
 72
1
  3

 73
1
 74
1
 75
1
 94
63
  0
MLINESTYLE
  5
22
102
{ACAD_REACTORS
330
10
102
}
330
10
100
AcDbMlineStyle
  2
Standard
 70
0
  3

 62
256
 51
90.0
 52
90.0
 71
2
 49
0.5
 62
256
  6
BYLAYER
 49
-0.5
 62
256
  6
BYLAYER
  0
MLEADERSTYLE
  5
2C
102
{ACAD_REACTORS
330
F
102
}
330
F
100
AcDbMLeaderStyle
179
2
170
2
171
1
172
0
 90
2
 40
0.0
 41
0.0
173
1
 91
-1056964608
 92
-2
290
1
 42
2.0
291
1
 43
8.0
  3
Standard
 44
4.0
300

342
29
174
1
175
1
176
0
178
1
 93
-1056964608
 45
4.0
292
0
297
0
 46
4.0
 94
-1056964608
 47
1.0
 49
1.0
140
1.0
294
1
141
0.0
177
0
142
1.0
295
0
296
0
143
3.75
271
0
272
9
273
9
  0
DICTIONARY
  5
2D
330
A
100
AcDbDictionary
280
1
281
1
  3
CREATED_BY_EZDXF
350
2E
  3
WRITTEN_BY_EZDXF
350
18B
  0
DICTIONARYVAR
  5
2E
330
2D
100
DictionaryVariables
280
0
  1
1.4.4 @ 2026-10-10T08:39:43.164586+00:00
  0
MLEADERSTYLE
  5
6A
102
{ACAD_REACTORS
330
F
102
}
330
F
100
AcDbMLeaderStyle
179
2
170
2
171
1
172
0
 90
2
 40
0.0
 41
0.0
173
1
 91
-1073741824
 92
-2
290
1
 42
1.0
291
1
 43
4.0
  3
ASG-ML-ANNO
 44
2.5
300

342
5F
174
1
175
1
176
0
178
1
 93
-1073741824
 45
2.5
292
0
297
0
 46
4.0
 94
-1056964608
 47
1.0
 49
1.0
140
1.0
294
1
141
0.0
177
0
142
1.0
295
0
296
1
143
3.75
271
0
272
9
273
9
  0
MLEADERSTYLE
  5
6B
102
{ACAD_REACTORS
330
F
102
}
330
F
100
AcDbMLeaderStyle
179
2
170
2
171
1
172
0
 90
2
 40
0.0
 41
0.0
173
1
 91
-1073741824
 92
-2
290
1
 42
1.0
291
1
 43
4.0
  3
ASG-ML-NOTE
 44
2.5
300

342
5F
174
1
175
1
176
0
178
1
 93
-1073741824
 45
2.5
292
0
297
0
 46
4.0
 94
-1056964608
 47
1.0
 49
1.0
140
1.0
294
1
141
0.0
177
0
142
1.0
295
0
296
0
143
3.75
271
0
272
9
273
9
  0
MLEADERSTYLE
  5
6C
102
{ACAD_REACTORS
330
F
102
}
330
F
100
AcDbMLeaderStyle
179
2
170
2
171
1
172
0
 90
2
 40
0.0
 41
0.0
173
1
 91
-1073741824
 92
-2
290
1
 42
1.0
291
1
 43
4.0
  3
ASG-ML-DETAIL
341
6D
 44
1.5
300

342
60
174
1
175
1
176
0
178
1
 93
-1073741824
 45
1.8
292
0
297
0
 46
4.0
 94
-1056964608
 47
1.0
 49
1.0
140
1.0
294
1
141
0.0
177
0
142
1.0
295
0
296
1
143
3.75
271
0
272
9
273
9
  0
MLEADERSTYLE
  5
72
102
{ACAD_REACTORS
330
F
102
}
330
F
100
AcDbMLeaderStyle
179
2
170
2
171
1
172
0
 90
2
 40
0.0
 41
0.0
173
1
 91
-1073741824
 92
-2
290
1
 42
1.0
291
1
 43
4.0
  3
ASG-ML-REFERENCE
341
73
 44
2.5
300

342
5F
174
1
175
1
176
0
178
1
 93
-1073741824
 45
2.5
292
1
297
0
 46
4.0
 94
-1056964608
 47
1.0
 49
1.0
140
1.0
294
1
141
0.0
177
0
142
1.0
295
0
296
1
143
3.75
271
0
272
9
273
9
  0
MLINESTYLE
  5
78
102
{ACAD_REACTORS
330
10
102
}
330
10
100
AcDbMlineStyle
  2
ASG-MLINE-2
 70
272
  3
Two lines +/-0.5; MLINE scale = overall width
 62
256
 51
90.0
 52
90.0
 71
2
 49
0.5
 62
256
  6
BYLAYER
 49
-0.5
 62
256
  6
BYLAYER
  0
MLINESTYLE
  5
79
102
{ACAD_REACTORS
330
10
102
}
330
10
100
AcDbMlineStyle
  2
ASG-MLINE-3
 70
272
  3
Two lines + CENTER2 axis
 62
256
 51
90.0
 52
90.0
 71
3
 49
0.5
 62
256
  6
BYLAYER
 49
0.0
 62
256
  6
CENTER2
 49
-0.5
 62
256
  6
BYLAYER
  0
LAYOUT
  5
113
330
D
100
AcDbPlotSettings
  1

  2
DWG To PDF.pc3
  4
ISO_full_bleed_A4_(297.00_x_210.00_MM)
  6

 40
0.0
 41
0.0
 42
0.0
 43
0.0
 44
297.0
 45
210.0
 46
0.0
 47
0.0
 48
0.0
 49
0.0
140
0.0
141
0.0
142
1.0
143
1.0
 70
676
 72
1
 73
0
 74
5
  7
ASG_Monochrome.ctb
 75
16
 76
0
 77
3
 78
300
147
1.0
148
0.0
149
0.0
100
AcDbLayout
  1
A4-LANDSCAPE
 70
1
 71
3
 10
-0.0
 20
-0.0
 11
297.0
 21
210.0
 12
0.0
 22
0.0
 32
0.0
 14
1e+20
 24
1e+20
 34
1e+20
 15
-1e+20
 25
-1e+20
 35
-1e+20
146
0.0
 13
0.0
 23
0.0
 33
0.0
 16
1.0
 26
0.0
 36
0.0
 17
0.0
 27
1.0
 37
0.0
 76
1
330
110
331
114
  0
LAYOUT
  5
12B
330
D
100
AcDbPlotSettings
  1

  2
DWG To PDF.pc3
  4
ISO_full_bleed_A4_(210.00_x_297.00_MM)
  6

 40
0.0
 41
0.0
 42
0.0
 43
0.0
 44
210.0
 45
297.0
 46
0.0
 47
0.0
 48
0.0
 49
0.0
140
0.0
141
0.0
142
1.0
143
1.0
 70
676
 72
1
 73
0
 74
5
  7
ASG_Monochrome.ctb
 75
16
 76
0
 77
3
 78
300
147
1.0
148
0.0
149
0.0
100
AcDbLayout
  1
A4-PORTRAIT
 70
1
 71
4
 10
-0.0
 20
-0.0
 11
210.0
 21
297.0
 12
0.0
 22
0.0
 32
0.0
 14
1e+20
 24
1e+20
 34
1e+20
 15
-1e+20
 25
-1e+20
 35
-1e+20
146
0.0
 13
0.0
 23
0.0
 33
0.0
 16
1.0
 26
0.0
 36
0.0
 17
0.0
 27
1.0
 37
0.0
 76
1
330
128
331
12C
  0
LAYOUT
  5
143
330
D
100
AcDbPlotSettings
  1

  2
DWG To PDF.pc3
  4
ISO_full_bleed_A3_(420.00_x_297.00_MM)
  6

 40
0.0
 41
0.0
 42
0.0
 43
0.0
 44
420.0
 45
297.0
 46
0.0
 47
0.0
 48
0.0
 49
0.0
140
0.0
141
0.0
142
1.0
143
1.0
 70
676
 72
1
 73
0
 74
5
  7
ASG_Monochrome.ctb
 75
16
 76
0
 77
3
 78
300
147
1.0
148
0.0
149
0.0
100
AcDbLayout
  1
A3-LANDSCAPE
 70
1
 71
5
 10
-0.0
 20
-0.0
 11
420.0
 21
297.0
 12
0.0
 22
0.0
 32
0.0
 14
1e+20
 24
1e+20
 34
1e+20
 15
-1e+20
 25
-1e+20
 35
-1e+20
146
0.0
 13
0.0
 23
0.0
 33
0.0
 16
1.0
 26
0.0
 36
0.0
 17
0.0
 27
1.0
 37
0.0
 76
1
330
140
331
144
  0
LAYOUT
  5
15B
330
D
100
AcDbPlotSettings
  1

  2
DWG To PDF.pc3
  4
ISO_full_bleed_A3_(297.00_x_420.00_MM)
  6

 40
0.0
 41
0.0
 42
0.0
 43
0.0
 44
297.0
 45
420.0
 46
0.0
 47
0.0
 48
0.0
 49
0.0
140
0.0
141
0.0
142
1.0
143
1.0
 70
676
 72
1
 73
0
 74
5
  7
ASG_Monochrome.ctb
 75
16
 76
0
 77
3
 78
300
147
1.0
148
0.0
149
0.0
100
AcDbLayout
  1
A3-PORTRAIT
 70
1
 71
6
 10
-0.0
 20
-0.0
 11
297.0
 21
420.0
 12
0.0
 22
0.0
 32
0.0
 14
1e+20
 24
1e+20
 34
1e+20
 15
-1e+20
 25
-1e+20
 35
-1e+20
146
0.0
 13
0.0
 23
0.0
 33
0.0
 16
1.0
 26
0.0
 36
0.0
 17
0.0
 27
1.0
 37
0.0
 76
1
330
158
331
15C
  0
LAYOUT
  5
173
330
D
100
AcDbPlotSettings
  1

  2
DWG To PDF.pc3
  4
ISO_full_bleed_A1_(841.00_x_594.00_MM)
  6

 40
0.0
 41
0.0
 42
0.0
 43
0.0
 44
841.0
 45
594.0
 46
0.0
 47
0.0
 48
0.0
 49
0.0
140
0.0
141
0.0
142
1.0
143
1.0
 70
676
 72
1
 73
0
 74
5
  7
ASG_Monochrome.ctb
 75
16
 76
0
 77
3
 78
300
147
1.0
148
0.0
149
0.0
100
AcDbLayout
  1
A1-LANDSCAPE
 70
1
 71
7
 10
-0.0
 20
-0.0
 11
841.0
 21
594.0
 12
0.0
 22
0.0
 32
0.0
 14
1e+20
 24
1e+20
 34
1e+20
 15
-1e+20
 25
-1e+20
 35
-1e+20
146
0.0
 13
0.0
 23
0.0
 33
0.0
 16
1.0
 26
0.0
 36
0.0
 17
0.0
 27
1.0
 37
0.0
 76
1
330
170
331
174
  0
DICTIONARYVAR
  5
18B
330
2D
100
DictionaryVariables
280
0
  1
1.4.4 @ 2026-10-10T08:39:43.181757+00:00
  0
SCALE
  5
18C
102
{ACAD_REACTORS
330
14
102
}
330
14
100
AcDbScale
 70
0
300
1:1
140
1.0
141
1.0
290
1
  0
SCALE
  5
18D
102
{ACAD_REACTORS
330
14
102
}
330
14
100
AcDbScale
 70
0
300
1:2
140
1.0
141
2.0
290
0
  0
SCALE
  5
18E
102
{ACAD_REACTORS
330
14
102
}
330
14
100
AcDbScale
 70
0
300
1:5
140
1.0
141
5.0
290
0
  0
SCALE
  5
18F
102
{ACAD_REACTORS
330
14
102
}
330
14
100
AcDbScale
 70
0
300
1:10
140
1.0
141
10.0
290
0
  0
SCALE
  5
190
102
{ACAD_REACTORS
330
14
102
}
330
14
100
AcDbScale
 70
0
300
1:20
140
1.0
141
20.0
290
0
  0
SCALE
  5
191
102
{ACAD_REACTORS
330
14
102
}
330
14
100
AcDbScale
 70
0
300
1:25
140
1.0
141
25.0
290
0
  0
SCALE
  5
192
102
{ACAD_REACTORS
330
14
102
}
330
14
100
AcDbScale
 70
0
300
1:50
140
1.0
141
50.0
290
0
  0
SCALE
  5
193
102
{ACAD_REACTORS
330
14
102
}
330
14
100
AcDbScale
 70
0
300
1:100
140
1.0
141
100.0
290
0
  0
ENDSEC
  0
EOF
